<svg xmlns="http://www.w3.org/2000/svg" fill="none" viewBox="0 0 64 64">
  <path fill="#0066D9" d="M8 29.818v4.364a4 4 0 11-8 0v-4.364a4 4 0 118 0z"/>
  <path fill="#4285F4" d="M56.002 29.932a4 4 0 117.997 0H64v4.364h-.002a4 4 0 01-7.996 0H56v-4.364h.002z"/>
  <path fill="#EA4335" d="M21.818 42.91v4.363a4 4 0 11-8 0v-4.364a4 4 0 018 0zm0-26.182V31a4 4 0 01-7.999 0V16.727a4 4 0 018 0z"/>
  <path fill="#34A853" d="M42.182 21.091a4 4 0 108 0v-4.364a4 4 0 00-8 0v4.364z"/>
  <path fill="#FAB908" d="M28 8.364a4 4 0 008 0V4a4 4 0 00-8 0v4.364zm0 47.272a4 4 0 018 0V60a4 4 0 01-8 0v-4.364z"/>
  <path fill="#34A853" d="M42.182 33.09a4 4 0 118 0v14.183a4 4 0 01-8 0V33.09z"/>
  <path fill="#FAB908" d="M36 20.364v23.272a4 4 0 11-8 0V20.364a4 4 0 118 0z"/>
</svg>
