<?xml version="1.0" encoding="utf-8"?>
<!-- Generator: Adobe Illustrator 24.2.3, SVG Export Plug-In . SVG Version: 6.00 Build 0)  -->
<svg version="1.1" id="Layer_1" xmlns="http://www.w3.org/2000/svg" xmlns:xlink="http://www.w3.org/1999/xlink" x="0px" y="0px"
	 viewBox="0 0 317 39.61" style="enable-background:new 0 0 317 39.61;" xml:space="preserve">
<style type="text/css">
	.st0{fill:#FFFFFF;}
</style>
<g>
	<path class="st0" d="M36.93,37.2c-4.18,0-6.53-4.5-6.53-10.97c0-8.08,2.78-10.92,5.67-10.92c1.66,0,2.41,0.37,2.68,1.93
		c0,1.02-0.64,1.07-0.64,3.32c0,2.09,1.93,2.68,2.89,2.68c1.71,0,2.73-1.23,2.73-3c0-3.27-2.57-6.21-7.6-6.21
		c-6.8,0-11.03,6.1-11.03,12.69c0,7.38,3.54,12.84,10.66,12.84c3.91,0,7.33-2.84,9.15-6.37l-1.07-0.75
		C42.29,35.54,40.25,37.2,36.93,37.2z"/>
	<path class="st0" d="M16.92,18.79c-2.19-1.07-4.71-1.71-7.17-3.16c-3.05-1.77-4.5-3.64-4.5-6.91c0-4.18,3.64-5.46,5.09-5.46
		c6.58,0,8.99,4.66,11.03,10.71h1.18L22.27,1.82h-1.82L18.9,4.23c-1.77-1.45-4.98-2.57-7.55-2.57c-5.89,0-10.38,4.23-10.38,9.9
		c0,4.66,2.25,7.65,5.94,9.37c2.78,1.28,4.76,2.03,7.55,3.21c3.27,1.39,4.92,3.85,4.92,7.12c0,4.01-2.19,6.74-6.69,6.74
		c-6.21,0-9.42-5.41-11.51-11.08H0l0.32,12.53h1.77l1.66-2.46c1.55,1.28,4.49,2.62,8.62,2.62c6.69,0,11.62-4.6,11.62-11.13
		C23.99,22.97,20.99,20.83,16.92,18.79z"/>
	<path class="st0" d="M53.69,34.75V14.77l-0.32-0.37l-8.78,0.59v1.02c0.86,0.05,2.36,0.59,2.94,1.02c0.8,0.59,1.23,1.55,1.34,2.68
		v15.36c0,1.07-0.43,2.09-1.34,2.41c-0.64,0.21-1.34,0.32-2.19,0.37v1.07h11.88v-1.07c-0.59-0.05-1.45-0.27-2.19-0.64
		C54.17,36.78,53.69,35.87,53.69,34.75z"/>
	<path class="st0" d="M50.85,6.64c1.93,0,3.32-1.61,3.32-3.48c0-1.71-1.34-3.16-3.32-3.16c-1.77,0-3.21,1.55-3.21,3.37
		C47.64,5.14,49.09,6.64,50.85,6.64z"/>
	<path class="st0" d="M75.42,32.44c-1.82,3.27-3.16,4.76-6.8,4.76c-5.03,0-7.07-4.92-7.07-11.83v-0.59H76V24.3
		c0-5.46-2.52-10.28-9.26-10.28c-6.58,0-10.44,6.16-10.44,12.58c0.01,7.07,3.49,12.96,10.93,12.96c4.12,0,7.44-2.68,9.15-6.48
		L75.42,32.44z M66.7,15.26c3.43,0,4.18,4.39,4.18,8.24l-9.32,0.11C61.67,18.58,63.81,15.26,66.7,15.26z"/>
	<path class="st0" d="M98.81,34.84V22.48c0-5.09-2.09-8.46-6.58-8.46c-4.12,0-5.94,2.41-7.82,4.39h-0.05v-3.64l-0.37-0.37
		l-8.24,0.59v1.02c0.86,0.05,1.93,0.43,2.46,0.86c0.8,0.59,1.23,1.71,1.34,2.84v15.36c0,1.18-0.43,2.09-1.34,2.41
		c-0.64,0.21-1.34,0.32-2.19,0.37v1.07h11.82v-1.07c-0.75-0.05-1.61-0.27-2.25-0.64c-0.8-0.43-1.23-1.23-1.23-2.41V20.18
		c0.48-1.23,2.36-3.48,5.73-3.48c2.03,0,3.85,1.98,3.85,5.67v12.69c0,1.18-0.37,2.09-1.28,2.41c-0.59,0.21-1.45,0.32-2.25,0.37v1.07
		h11.88v-1.07c-0.91-0.05-1.55-0.27-2.25-0.59C99.18,36.82,98.81,36.02,98.81,34.84z"/>
	<path class="st0" d="M112.72,37.2c-4.18,0-6.53-4.5-6.53-10.97c0-8.08,2.78-10.92,5.67-10.92c1.66,0,2.41,0.37,2.68,1.93
		c0,1.02-0.64,1.07-0.64,3.32c0,2.09,1.93,2.68,2.89,2.68c1.71,0,2.73-1.23,2.73-3c0-3.27-2.57-6.21-7.6-6.21
		c-6.8,0-11.03,6.1-11.03,12.69c0.01,7.38,3.54,12.84,10.66,12.84c3.91,0,7.33-2.84,9.15-6.37l-1.07-0.75
		C118.08,35.54,116.04,37.2,112.72,37.2z"/>
	<path class="st0" d="M133.23,37.2c-5.03,0-7.07-4.92-7.07-11.83v-0.59h14.45V24.3c0-5.46-2.52-10.28-9.26-10.28
		c-6.58,0-10.44,6.16-10.44,12.58c0.01,7.07,3.49,12.96,10.93,12.96c4.12,0,7.44-2.68,9.15-6.48l-0.96-0.64
		C138.21,35.71,136.87,37.2,133.23,37.2z M131.31,15.26c3.43,0,4.18,4.39,4.18,8.24l-9.32,0.11
		C126.28,18.58,128.42,15.26,131.31,15.26z"/>
	<path class="st0" d="M170.54,34.55c-1.67-4.61-5.94-16.98-10.45-29.69h-2.06c-3.34,9.42-7.02,19.77-10.16,28.21
		c-0.69,1.72-1.47,3.14-2.55,3.83c-0.79,0.49-2.31,0.88-3.19,0.93v1.09h12.45v-1.08c-1.57-0.1-5.05-0.88-5.05-2.65
		c0-0.69,0.2-1.67,0.49-2.75c0.39-1.47,0.93-3.14,1.77-5.4h10.7l2.7,7.75c0.15,0.39,0.2,0.79,0.2,1.13c0,1.23-2.9,1.82-4.42,1.91
		v1.08h14.38v-1.08c-0.83-0.05-2.26-0.39-2.99-0.88C171.28,36.26,170.94,35.58,170.54,34.55z M152.38,25.42l4.76-13.54l4.81,13.54
		H152.38z"/>
	<path class="st0" d="M193.5,34.5V2.65l-0.34-0.34l-9.13,0.54v0.88c1.23,0.1,3.14,0.54,3.88,1.13c0.74,0.54,1.08,1.82,1.18,2.85
		v9.72c-0.54-0.25-2.55-1.32-5.35-1.32c-5.2,0-9.91,4.71-9.91,11.43c-0.01,7.35,4.06,12.01,9.22,12.01c2.8,0,4.91-1.91,5.89-3.04
		l0.2,0.05v2.11l0.29,0.34l7.9-0.54v-0.93c-0.79-0.05-2.16-0.25-2.7-0.64C193.94,36.36,193.6,35.53,193.5,34.5z M189.08,35.14
		c-1.13,1.37-2.3,2.26-4.37,2.26c-4.27,0-5.94-4.51-5.94-9.42c0-6.72,2.26-10.8,5.5-10.8c2.9,0,4.32,2.4,4.81,4.07V35.14z"/>
	<path class="st0" d="M218.33,16.74h-8.39v0.98c0.69,0.1,3.39,0.79,3.39,1.77c0,0.39-0.15,1.03-0.25,1.37
		c-1.57,4.66-2.85,8.1-4.42,12.27h-0.05c-1.86-4.96-4.07-10.8-4.86-13.2c-0.2-0.59-0.29-0.98-0.29-1.03c0-0.79,1.57-0.98,2.6-1.03
		v-1.13h-10.4v1.03c1.28,0.2,2.85,1.03,3.39,2.4c2.94,7.95,4.02,10.4,7.11,19.09h1.72c0.59-2.16,1.18-3.68,1.77-5.3
		c1.91-5.15,3.43-9.08,5.25-13.54c0.59-1.47,2.6-2.6,3.43-2.75V16.74z"/>
	<path class="st0" d="M237.47,33.08c-0.1,1.86-0.29,3.78-1.62,3.78c-1.28,0-2.06-1.62-2.06-2.5c0-1.62,0.25-6.67,0.25-10.99
		c0-6.53-3.39-7.26-7.85-7.26c-3.48,0-7.36,2.26-7.36,5.2c0,1.42,0.64,2.6,2.06,2.6c1.57,0,2.94-0.88,2.94-2.16
		c0-1.08-0.44-2.16-0.44-2.9c0.39-0.54,0.98-1.67,2.5-1.67c3.58,0,3.68,4.07,3.68,4.96v2.75c-1.91,1.23-4.91,2.01-7.51,3.09
		c-2.16,0.93-4.32,2.31-4.32,6.33c0,3.13,2.11,5.2,5.15,5.2c2.65,0,4.96-1.32,6.58-3.39h0.15c0.69,2.26,1.96,3.29,4.07,3.29
		c2.8,0,4.61-1.77,4.86-6.33H237.47z M229.41,34.9c-1.02,1.46-1.81,2.35-4.06,2.35c-1.77,0-2.9-1.32-2.9-3.68
		c0-4.37,2.94-5.74,7.16-7.26L229.41,34.9z"/>
	<path class="st0" d="M293.46,37.35c-4.61,0-6.48-4.51-6.48-10.84v-0.54h13.25v-0.44c0-5.01-2.31-9.42-8.49-9.42
		c-6.04,0-9.57,5.64-9.57,11.53c0,6.47,3.19,11.87,10.01,11.87c3.78,0,6.82-2.45,8.39-5.94l-0.88-0.59
		C298.02,35.97,296.79,37.35,293.46,37.35z M291.68,17.23c3.14,0,3.83,4.02,3.83,7.56l-8.54,0.09
		C287.07,20.27,289.03,17.23,291.68,17.23z"/>
	<path class="st0" d="M310.77,25.32c-3.48-1.28-5.01-1.96-5.01-4.56c0-1.67,1.13-3.53,3.53-3.53c2.99,0,5.3,2.8,5.74,5.59h0.98
		l-0.29-6.77h-1.37l-0.34,1.32c-1.08-0.83-2.94-1.28-4.71-1.28c-4.07,0-6.97,2.9-6.97,6.53c0,4.22,3.39,5.99,6.23,6.97
		c3.24,1.13,5.05,2.21,5.05,4.61c0,2.36-1.18,4.22-4.12,4.22c-3.53,0-6.18-4.47-6.67-6.87h-1.03l0.2,7.61h1.47l0.44-1.52
		c0.74,0.83,3.19,1.96,5.35,1.96c4.17,0,7.75-2.65,7.75-7.02C317,28.56,314.35,26.64,310.77,25.32z"/>
	<path class="st0" d="M274.66,37.35c-3.83,0-5.99-4.12-5.99-10.06c0-7.41,2.55-10.01,5.2-10.01c1.52,0,2.21,0.34,2.45,1.77
		c0,0.93-0.59,0.98-0.59,3.04c0,1.91,1.77,2.45,2.65,2.45c1.57,0,2.5-1.13,2.5-2.75c0-2.99-2.36-5.69-6.97-5.69
		c-6.23,0-10.11,5.59-10.11,11.63c0.01,6.77,3.25,11.78,9.78,11.78c3.58,0,6.72-2.6,8.39-5.84l-0.98-0.69
		C279.57,35.83,277.7,37.35,274.66,37.35z"/>
	<path class="st0" d="M259.43,35.18V23.85c0-4.66-1.91-7.75-6.04-7.75c-3.78,0-5.45,2.21-7.16,4.02h-0.05v-3.34l-0.34-0.34
		l-7.56,0.54v0.93c0.79,0.05,1.77,0.39,2.26,0.79c0.74,0.54,1.13,1.57,1.23,2.6v14.08c0,1.08-0.39,1.91-1.23,2.21
		c-0.59,0.2-1.23,0.29-2.01,0.34v0.99h0.01h10.84v-0.98c-0.69-0.05-1.47-0.25-2.06-0.59c-0.74-0.39-1.13-1.13-1.13-2.21v-13.4
		c0.44-1.13,2.16-3.19,5.25-3.19c1.86,0,3.53,1.82,3.53,5.2v11.63c0,1.08-0.34,1.91-1.18,2.21c-0.54,0.2-1.32,0.29-2.06,0.34v0.98
		h10.89v-0.98c-0.83-0.05-1.42-0.25-2.06-0.54C259.77,37,259.43,36.26,259.43,35.18z"/>
</g>
</svg>
