<svg xmlns="http://www.w3.org/2000/svg" fill="none" viewBox="0 0 64 64">
  <path fill="#1ED760" d="M50.644 28.424c-10.16-6.034-26.917-6.589-36.616-3.645a2.947 2.947 0 11-1.711-5.642c11.133-3.38 29.64-2.727 41.336 4.216a2.948 2.948 0 01-3.01 5.07zm-.333 8.936a2.459 2.459 0 01-3.38.809c-8.47-5.206-21.385-6.715-31.406-3.673a2.461 2.461 0 01-3.067-1.637 2.46 2.46 0 011.64-3.065c11.446-3.473 25.677-1.79 35.405 4.187a2.458 2.458 0 01.808 3.379zm-3.856 8.582a1.963 1.963 0 01-2.701.654c-7.402-4.524-16.717-5.545-27.688-3.04a1.963 1.963 0 11-.875-3.828c12.006-2.745 22.305-1.564 30.612 3.512a1.965 1.965 0 01.652 2.702zM32 .482C14.594.483.483 14.594.483 32c0 17.408 14.11 31.518 31.517 31.518S63.518 49.408 63.518 32C63.518 14.593 49.408.483 32 .483z"/>
</svg>
