<svg width="116" height="61" viewBox="0 0 116 61" fill="none" xmlns="http://www.w3.org/2000/svg">
<path d="M89.1275 44.6307L88.0735 39.1534C87.125 39.482 85.7549 39.7559 84.9118 39.7559C82.5931 39.7559 81.8027 38.77 81.8027 35.9765V23.7621H88.3897V18.3396H81.8027V11H76.4277L74.7941 18.3396H71V23.7621H74.6887V38.3318C74.6887 43.4804 77.9559 46 82.6458 46C85.5441 46 87.8101 45.1784 89.1275 44.6307Z" fill="white"/>
<path d="M98.7684 45.288H107.779L116 18.3396H108.675L103.564 38.3865H103.458L98.0833 18.3396H90.4951L98.7684 45.288Z" fill="white"/>
<path fill-rule="evenodd" clip-rule="evenodd" d="M0.063385 28.5222C1.04841 13.133 13.4468 0.848013 28.8838 0.0422058H32.1155C48.2094 0.882252 61 14.1977 61 30.5C61 47.3454 47.3447 60.9999 30.4996 60.9999C14.32 60.9999 1.08256 48.4014 0.063385 32.478V28.5222Z" fill="white"/>
<path fill-rule="evenodd" clip-rule="evenodd" d="M30.7181 32.7695L31.1766 32.8631L31.0399 33.3122L31.0998 33.3448L31.7803 32.5434L31.7466 32.4866L30.7181 32.7001V32.7695ZM30.7938 31.5032L30.8527 31.539L31.4469 30.8953L31.4153 30.8375L30.5508 30.9795L30.5487 31.0489L30.921 31.1414L30.7938 31.5032ZM28.8271 36.5389L28.1267 36.5378L28.1109 36.6062L28.3864 36.724L28.2413 36.9858L28.2939 37.0311L28.8481 36.603L28.8271 36.5389ZM30.3153 35.3683L29.4392 35.3956L29.4276 35.4651L29.7852 35.6049L29.6106 35.9478L29.6643 35.9909L30.3374 35.4304L30.3153 35.3683ZM31.0231 34.5974L31.5079 34.6658L31.3922 35.1411L31.4553 35.1716L32.1137 34.2966L32.0758 34.2419L31.0189 34.528L31.0231 34.5974ZM28.6999 38.0828L28.6851 38.1501L28.9596 38.271L28.8155 38.5319L28.8681 38.5771L29.4213 38.148L29.4003 38.0838L28.6999 38.0828ZM33.0686 38.1438L33.5408 37.6242L33.5082 37.5664L32.8183 37.6852L32.8162 37.7536L33.1054 37.8251L33.0097 38.107L33.0686 38.1438ZM33.4146 33.716L34.2181 32.6075L34.1803 32.5518L32.8656 32.9336L32.8709 33.004L33.4882 33.0798L33.3526 33.6866L33.4146 33.716ZM30.879 36.8575L30.004 36.8554L29.9892 36.9227L30.3416 37.0752L30.1554 37.4118L30.208 37.457L30.9011 36.9206L30.879 36.8575ZM32.4902 30.8575L33.0907 31.0184L32.872 31.601L32.9308 31.6378L33.8784 30.6513L33.8479 30.5903L32.4933 30.7891L32.4902 30.8575ZM32.0832 36.9143L32.792 36.0793L32.7584 36.0214L31.6867 36.2454V36.3148L32.1652 36.4127L32.0232 36.8807L32.0832 36.9143ZM34.2791 28.4743L34.3317 28.5195L34.8839 28.0893L34.8628 28.0262H34.1624L34.1487 28.0936L34.4232 28.2124L34.2791 28.4743ZM32.3713 29.6469L32.4229 29.6922L33.2874 29.0212L33.2663 28.9581L32.1715 28.957L32.1578 29.0254L32.6069 29.2189L32.3713 29.6469ZM35.9682 35.0728L35.965 35.1411L36.3373 35.2337L36.2111 35.5965L36.27 35.6312L36.8642 34.9886L36.8327 34.9308L35.9682 35.0728ZM38.5806 28.9044L38.6332 28.9497L39.1864 28.5195L39.1653 28.4574H38.4649L38.4512 28.5237L38.7257 28.6425L38.5806 28.9044ZM31.5899 38.2174H30.8884L30.8748 38.2837L31.1493 38.4036L31.0041 38.6654L31.0567 38.7107L31.612 38.2805L31.5899 38.2174ZM36.616 28.5815L36.6686 28.6268L37.3596 28.0893L37.3385 28.0262H36.4625L36.4477 28.0936L36.8011 28.2461L36.616 28.5815ZM35.273 33.2428L35.7536 33.3343L35.6179 33.8054L35.6789 33.8359L36.3752 32.9914L36.3394 32.9346L35.2719 33.1744L35.273 33.2428ZM35.945 27.005L39.5082 27.0113C39.5082 27.0113 40.6335 27.4341 42.1111 28.0294C42.7895 28.3028 43.1513 28.9149 43.0934 29.6133C43.0934 29.6133 43.6771 30.198 44.0021 30.5672C44.3891 31.0152 44.4322 31.6357 44.1283 32.0417C43.8265 32.4393 43.3953 32.5381 43.2165 32.5644L43.1807 32.4971C43.4153 32.2626 43.3195 31.885 43.1124 31.5853C42.8957 31.2729 42.7011 31.2161 42.4792 31.3507C42.3804 31.4117 42.2542 31.5043 42.2542 31.5043L42.8095 32.3898L42.7884 32.4519C42.3488 32.5749 41.7399 32.4761 41.4549 32.1164C41.4423 32.1164 41.4423 32.1164 38.711 32.1153L38.7068 32.1879L40.2349 32.4634L40.2801 32.5707L35.0416 38.7307L35.091 38.778L36.8747 37.1836L36.8779 38.575L36.7138 38.9936L36.881 39.9696L36.8221 40.385L38.4544 41.7775H38.4554C38.4554 41.7775 38.4807 41.7901 38.4996 41.7985C38.5175 41.8069 38.5385 41.8185 38.5627 41.8322C38.5869 41.8448 38.6132 41.8595 38.6405 41.8763C38.6689 41.8921 38.6963 41.9132 38.7257 41.9331C38.7573 41.9521 38.7836 41.9794 38.8141 42.0004C38.8425 42.0267 38.8719 42.0499 38.8992 42.0793C38.9287 42.1056 38.9529 42.1361 38.9802 42.1656C39.0034 42.1982 39.0297 42.2276 39.0496 42.2613C39.0749 42.2928 39.0917 42.3275 39.1127 42.3591C39.1285 42.3938 39.1496 42.4243 39.1622 42.4569C39.178 42.4906 39.1916 42.5221 39.2032 42.5515C39.2169 42.582 39.2253 42.6094 39.2337 42.6325C39.2432 42.6578 39.2516 42.6809 39.2558 42.703C39.2673 42.7451 39.2758 42.7672 39.2758 42.7672L39.3462 42.7703C39.3462 42.7703 39.3567 42.7472 39.3715 42.7072C39.3788 42.6872 39.3872 42.662 39.3914 42.6294C39.3978 42.5968 39.403 42.56 39.4009 42.521C39.402 42.5 39.402 42.48 39.402 42.4579C39.3999 42.438 39.3957 42.4148 39.3946 42.3938C39.3893 42.3475 39.3736 42.3012 39.3609 42.2518C39.342 42.2066 39.3241 42.155 39.2957 42.1109C39.2715 42.0635 39.2368 42.0215 39.2042 41.9773C39.1674 41.9384 39.1317 41.8984 39.0896 41.8669C39.0496 41.8301 39.0044 41.8038 38.9613 41.7785C38.9161 41.7564 38.8719 41.7354 38.8288 41.7217C38.812 41.7154 38.7951 41.7091 38.7783 41.706C38.9834 41.6597 39.1864 41.6145 39.3872 41.5703H39.3883C39.3883 41.5703 39.3893 41.5713 39.3904 41.5724C39.4083 41.5798 39.4304 41.5924 39.4535 41.6061C39.4787 41.6176 39.504 41.6323 39.5313 41.6513C39.5597 41.6649 39.5881 41.687 39.6165 41.706C39.6481 41.7238 39.6744 41.7522 39.7049 41.7733C39.7332 41.7996 39.7637 41.8238 39.7911 41.8532C39.8195 41.8795 39.8437 41.9111 39.871 41.9384C39.8942 41.971 39.9204 42.0015 39.9415 42.0341C39.9657 42.0657 39.9825 42.1004 40.0035 42.133C40.0193 42.1677 40.0414 42.1982 40.053 42.2308C40.0698 42.2634 40.0835 42.2949 40.095 42.3244C40.1066 42.3549 40.1161 42.3812 40.1245 42.4064C40.1339 42.4306 40.1424 42.4537 40.1476 42.4758C40.1571 42.5168 40.1665 42.541 40.1665 42.541L40.2381 42.5442C40.2381 42.5442 40.2486 42.521 40.2623 42.48C40.2707 42.46 40.278 42.4359 40.2812 42.4022C40.2885 42.3696 40.2938 42.3317 40.2917 42.2928C40.2917 42.2728 40.2927 42.2539 40.2927 42.2308C40.2906 42.2108 40.2875 42.1877 40.2843 42.1656C40.2801 42.1203 40.2644 42.0751 40.2517 42.0246C40.2328 41.9794 40.2149 41.9289 40.1865 41.8837C40.1623 41.8364 40.1287 41.7943 40.0961 41.7512C40.0593 41.7123 40.0225 41.6713 39.9804 41.6397C39.9404 41.604 39.8942 41.5777 39.8521 41.5514C39.81 41.5303 39.769 41.5103 39.728 41.4977C42.5981 40.8762 44.8182 40.4565 44.8182 40.4565C47.7199 42.175 47.5348 42.0678 48.1374 42.4022C49.2438 43.0175 49.1975 44.8233 47.1099 44.8233C45.5376 44.8233 42.6275 45.0915 40.8523 45.4354L42.4182 44.0145L42.3678 43.9651C42.3678 43.9651 40.8207 45.0872 38.9802 46.0075L38.9792 46.0086C37.9832 46.4114 36.4803 47.0645 34.9291 47.7544L37.2165 45.59L37.165 45.5363C37.165 45.5363 34.2434 47.8901 32.1715 48.9902C30.9253 49.5529 29.8525 50.044 29.2478 50.3217C28.4096 50.7034 27.7512 50.8107 26.8142 50.4784C25.3249 49.9504 24.7455 49.7432 23.4824 49.2626C22.7472 48.9839 22.6925 47.9479 23.4761 47.6987C23.8179 47.5882 24.7108 47.3043 25.3039 47.116C25.5637 47.2296 25.8298 47.3474 26.0958 47.4631C26.5165 47.6492 26.9393 47.8322 27.3347 48.0068C27.5325 48.092 27.7239 48.1761 27.9048 48.2561C27.95 48.275 27.9942 48.295 28.0383 48.3139C28.0604 48.3223 28.0825 48.3329 28.1046 48.3423L28.1351 48.356L28.1361 48.357H28.1404L28.1446 48.3591L28.1593 48.3697C28.2466 48.4149 28.3034 48.4549 28.3665 48.5085C28.4874 48.6126 28.5684 48.7367 28.6136 48.8556C28.6578 48.9776 28.6673 49.0922 28.6609 49.1879C28.6578 49.2815 28.6378 49.3551 28.6252 49.4067C28.6084 49.455 28.601 49.4824 28.601 49.4824L28.682 49.515C28.682 49.515 28.6935 49.4866 28.7146 49.4351C28.7335 49.3814 28.7619 49.3036 28.7745 49.1974C28.7871 49.0922 28.7882 48.9586 28.7472 48.8124C28.7062 48.6673 28.6199 48.5106 28.4874 48.3791C28.4243 48.315 28.3381 48.2466 28.2645 48.1993L28.2487 48.1909L28.2424 48.1856L28.2276 48.1772L28.1961 48.1593C28.1761 48.1467 28.1551 48.1362 28.134 48.1246C28.092 48.1004 28.0499 48.0752 28.0068 48.051C27.8354 47.9521 27.6545 47.8491 27.4673 47.7418C27.0929 47.5272 26.6932 47.3001 26.2936 47.0708C25.4091 46.5649 24.5246 46.0601 23.9104 45.7067C23.9104 45.7067 23.9052 45.7036 23.902 45.7025C23.902 45.7025 26.9982 44.7286 30.9452 43.6453L31.5794 43.924L31.6004 43.883L31.611 43.8641L31.2397 43.5644L30.2627 42.7777L29.7778 42.6115L29.456 41.7281L29.0175 41.4809L28.5884 39.511L28.5179 39.5257L28.6978 41.6765L27.4715 42.3643V39.5205L27.3957 39.5121L27.0403 42.5105L25.387 42.8334L25.9518 39.5731L25.8771 39.5573L24.8664 42.8892L23.2447 42.9996L24.4205 39.5194L24.35 39.491L22.621 43.0332H22.6179L21.0193 43.1405L22.885 39.47L22.8251 39.4332L20.2694 43.2131L18.5688 43.4802L21.3316 39.4069L21.278 39.3638L16.6274 44.7675L16.3771 44.6003L20.5429 38.067L26.9214 35.6828C26.9214 35.6828 27.3526 35.4956 27.6019 35.3883C27.726 35.3346 27.8543 35.2842 27.99 35.2126C28.0594 35.1811 28.1214 35.1401 28.1887 35.1033C28.2529 35.0644 28.316 35.0212 28.378 34.9781C28.5 34.8877 28.6168 34.792 28.7198 34.6857L28.7977 34.6069C28.8219 34.5795 28.846 34.5522 28.8692 34.5248C28.9186 34.4712 28.9607 34.4133 29.0027 34.3576C29.0459 34.3019 29.0816 34.2419 29.1195 34.1872C29.1542 34.1294 29.1868 34.0715 29.2194 34.0168C29.2467 33.9579 29.2741 33.9033 29.3004 33.8507C29.3246 33.7949 29.3456 33.7402 29.3677 33.6898C29.4045 33.5856 29.4382 33.4889 29.4581 33.4026C29.4844 33.3164 29.4949 33.2365 29.5097 33.1734C29.5202 33.1103 29.5254 33.0619 29.5307 33.0272C29.5349 32.9935 29.537 32.9756 29.537 32.9756L29.4623 32.963C29.4623 32.963 29.4581 32.9798 29.4508 33.0135C29.4434 33.0472 29.4339 33.0966 29.4182 33.1555C29.4003 33.2144 29.3845 33.2869 29.3519 33.369C29.3256 33.451 29.2867 33.5415 29.2436 33.6361C29.2194 33.6834 29.1931 33.7318 29.1679 33.7823C29.1384 33.8317 29.109 33.8812 29.0785 33.9348C29.0427 33.9842 29.0091 34.0347 28.9712 34.0852C28.9312 34.1346 28.8944 34.1872 28.8502 34.2345C28.8061 34.285 28.764 34.3345 28.7146 34.3797L28.642 34.4501L28.5652 34.5164C28.4622 34.6058 28.3475 34.6857 28.2308 34.7583C28.1719 34.793 28.1109 34.8267 28.051 34.8582C27.9879 34.8856 27.929 34.9182 27.8659 34.9424C27.7428 34.9918 27.6092 35.037 27.4809 35.0822C27.2264 35.1727 26.9887 35.2589 26.7837 35.3315C26.5828 35.4041 26.4145 35.463 26.2957 35.5061L25.8834 34.6794L26.7142 33.9485L26.6764 33.8948L24.4615 35.2505L23.9409 34.2083L26.9309 31.9933L26.8825 31.9323L22.3339 34.651L21.9206 33.553L26.2063 30.6913L26.1684 30.6324L20.6459 33.6656L20.3851 32.6317L25.0578 29.6638L25.0242 29.6038L19.3029 32.5192L19.1378 31.2992V31.2981L23.8568 28.7551L23.8273 28.6941L17.9872 31.1299L17.9599 29.9383L22.7283 28.0757L22.7031 28.0042L16.9177 29.587L16.9871 28.285L21.3853 27.2774L21.3706 27.208L15.7419 27.98L15.9217 26.8557L20.0633 26.4108V26.3393L14.2779 26.4339L14.3652 25.4842L18.979 25.4527L18.9832 25.3833L10.6958 24.7785L10.6821 24.6996L12.0251 24.2348L12.023 24.1685L8.58924 22.8581L8.59765 22.7855L9.97117 22.6751L9.98379 22.6036L7.0201 20.7736L7.03588 20.6716L9.11299 20.7915L9.13717 20.7252L6.74771 18.4829L6.77821 18.4114L7.89932 18.627L7.93403 18.5713L6.81186 17.1588L6.11564 15.1574L6.1861 15.1227L7.26094 16.4773L9.69037 17.8729L9.7419 17.8256L8.17592 15.5244L7.58697 12.954L7.66059 12.9214L8.92683 14.8219L11.3794 16.8181L11.4278 16.7697L9.92595 14.0447L9.40956 10.7223L9.49055 10.7034L10.9545 13.5346L14.0318 16.0892L14.0907 16.0408L11.9726 12.6427L11.4951 8.56626L11.5645 8.54523L12.8844 12.1589L17.2437 16.084L22.742 18.8994L28.7766 27.2837L31.124 29.2631L31.1808 29.2084L30.1533 27.8685L30.1596 27.8674L30.1638 27.8664L30.1533 27.8674L32.5701 27.2448L32.5659 27.1691L30.4657 27.0471L30.4604 26.9766L33.5419 26.4266L33.5335 26.3582L29.6885 26.0658L29.6853 25.9922L34.5883 25.1708L36.5361 25.6315L36.5571 25.5642L34.6998 24.7091L31.6572 24.7775L31.6499 24.7039L34.8965 24.0918L36.9084 24.7806L36.9357 24.7123L35.11 23.5543L32.9529 23.467L32.9519 23.3892L35.3697 23.0148L37.4826 24.0055L37.5215 23.9435L35.7757 22.3049L33.8795 22.2975L33.8721 22.2197L36.1827 21.7033L38.2325 23.3882L38.2787 23.3398L36.7054 21.0355L34.9869 20.7136L34.9943 20.6421L37.165 20.5117L39.1233 22.8949L39.1832 22.8549L37.776 19.8891L35.8956 19.2759L35.9103 19.2023L38.3061 19.3979L40.1234 22.5257L40.1876 22.4963L38.9792 18.8268L36.6223 17.9855L36.637 17.9118L39.4893 18.4251L41.0784 22.1976L41.1488 22.1766L40.1045 17.9686L37.5804 16.5372L37.613 16.4668L40.6177 17.61L42.0522 21.8253L42.1238 21.8095L41.2256 17.2072L38.4796 15.2047L38.5196 15.1416L41.7178 16.8938L42.9704 21.3289L43.044 21.3142L42.2584 16.5656L39.3799 14.01L39.424 13.9542L42.7926 16.2512L43.7644 20.7715L43.8328 20.7568L43.3416 15.9525L40.4705 12.8468L40.5199 12.7889L43.8454 15.6349L44.5774 20.0111L44.6521 20.0058L44.3302 15.4056L41.6126 11.856L41.6652 11.8077L44.8634 15.1521L45.3693 18.9404L45.4387 18.9331L45.2757 14.9292L42.7926 11.1209L42.8484 11.0767L45.7258 14.7209L46.1087 17.4417L46.1823 17.4344L46.0487 14.5243L44.2819 10.5782L44.3439 10.5424L46.5356 14.2803L46.7397 15.8147L46.8101 15.8074L46.9143 14.0604L45.9993 10.3458L46.0687 10.3205L47.3276 13.4368H47.398L48.1742 10.3237L48.251 10.3416L47.9965 13.4042L48.0648 13.4273L50.1956 10.3615L50.2587 10.3984L48.8757 13.1665L48.9241 13.217L52.1791 10.8927L52.219 10.9516L47.2529 17.6489C47.2529 17.6489 45.6491 21.9452 45.1274 23.3797C45.0233 23.6637 44.8424 23.8478 44.5711 23.9613C44.4154 24.0234 40.5473 25.5694 40.5473 25.5694L39.484 26.5055L35.9345 26.924L35.945 27.005ZM30.4993 0C13.6553 0 0 13.6555 0 30.4999C0 47.3453 13.6553 60.9998 30.4993 60.9998C47.3444 60.9998 60.9986 47.3453 60.9986 30.4999C60.9986 13.6555 47.3444 0 30.4993 0ZM34.989 31.2035L35.5706 31.3286L35.3908 31.8955L35.4507 31.9292L36.3121 30.9374L36.2784 30.8806L34.989 31.1351V31.2035ZM37.3869 33.6982L37.6772 33.7697L37.5783 34.0536L37.6372 34.0884L38.1126 33.573L38.081 33.5141L37.3901 33.6298L37.3869 33.6982ZM32.751 43.3193C32.7805 43.334 32.8088 43.3551 32.8393 43.374C32.8698 43.3919 32.8961 43.4182 32.9287 43.4392C32.9561 43.4655 32.9866 43.4886 33.0139 43.517C33.0223 43.5233 33.0287 43.5296 33.036 43.537C33.056 43.557 33.0749 43.5801 33.0981 43.6022C33.1212 43.6327 33.1475 43.6643 33.1696 43.6958C33.1938 43.7263 33.2117 43.761 33.2337 43.7926C33.2506 43.8252 33.2727 43.8567 33.2853 43.8904C33.3021 43.9219 33.3168 43.9524 33.3284 43.9819C33.3421 44.0134 33.3515 44.0397 33.3599 44.0639C33.3705 44.0881 33.3789 44.1102 33.3841 44.1333C33.3968 44.1733 33.4062 44.1975 33.4062 44.1975H33.4767C33.4767 44.1975 33.4861 44.1765 33.4998 44.1354C33.5072 44.1144 33.5145 44.0902 33.5177 44.0566C33.523 44.0229 33.5282 43.9861 33.5261 43.9472C33.5251 43.9283 33.5251 43.9062 33.5251 43.8862C33.5219 43.863 33.5187 43.8431 33.5156 43.8199C33.5103 43.7726 33.4935 43.7284 33.4788 43.679C33.4588 43.6327 33.4399 43.5843 33.4115 43.5402C33.3957 43.5097 33.3747 43.4823 33.3536 43.455L33.3179 43.4098C33.28 43.3698 33.2432 43.3309 33.2001 43.2993C33.1591 43.2646 33.1128 43.2394 33.0707 43.2152C33.0244 43.1931 32.9803 43.1742 32.9361 43.1605C32.9151 43.1542 32.894 43.1468 32.873 43.1426C32.8604 43.1405 32.8478 43.1395 32.8362 43.1374C32.8278 43.1353 32.8194 43.1353 32.811 43.1331C32.7741 43.1247 32.7373 43.1247 32.7058 43.1268C32.6742 43.1247 32.6458 43.1289 32.6248 43.1331C32.5796 43.1405 32.5554 43.1468 32.5554 43.1468L32.5501 43.2131V43.2173C32.5501 43.2173 32.5722 43.2299 32.608 43.2446C32.6269 43.252 32.649 43.2646 32.6732 43.2762C32.6974 43.2888 32.7237 43.3035 32.751 43.3193ZM35.518 44.431C35.4465 44.4541 35.3624 44.4762 35.2688 44.5035C35.1047 44.5498 34.9101 44.6056 34.6935 44.6729C34.5242 44.7223 34.3401 44.778 34.1445 44.838C34.0478 44.8664 33.9478 44.8969 33.8448 44.9284L33.5345 45.0347C33.1149 45.1787 32.6669 45.3334 32.221 45.489C31.9349 45.59 31.653 45.6972 31.3796 45.8014C31.2229 45.8613 31.0693 45.9202 30.9168 45.9781C30.777 46.0306 30.6423 46.0832 30.5119 46.1348C30.4467 46.1611 30.3826 46.1852 30.3205 46.2105C30.1733 46.2673 30.0334 46.3272 29.9019 46.3819L29.7905 46.4292C29.5749 46.5155 29.3824 46.5986 29.2226 46.6659C29.1395 46.7016 29.0648 46.7342 28.9996 46.7605C28.8092 46.8436 28.7009 46.8899 28.7009 46.8899L28.6788 46.9004L28.7219 47.0066L28.743 47.0003C28.743 47.0003 28.8555 46.9614 29.0511 46.892C29.1184 46.8689 29.1952 46.8405 29.2804 46.81C29.4445 46.7521 29.6401 46.6827 29.8578 46.6028L30.0208 46.5407C30.1396 46.4976 30.2648 46.4513 30.3952 46.4051L30.5845 46.3388C30.7181 46.2915 30.8569 46.2431 30.9968 46.1895C31.1472 46.1358 31.2997 46.079 31.4553 46.0233C31.7309 45.9202 32.0148 45.815 32.3019 45.7172C32.7468 45.5574 33.1917 45.3986 33.6092 45.2492C33.809 45.1777 34.0141 45.103 34.2108 45.0378C34.3527 44.9884 34.4895 44.9421 34.6178 44.8979L34.7524 44.8517C34.969 44.7791 35.1594 44.7107 35.3214 44.6529C35.4118 44.6224 35.4907 44.5919 35.5622 44.5687L35.8882 44.4478L35.8546 44.3374L35.518 44.431ZM29.5991 45.4606L29.8504 45.3765C30.1764 45.2734 30.4972 45.1661 30.8054 45.0599C30.9253 45.0199 31.042 44.98 31.1535 44.9411L31.2439 44.9095L31.6383 44.778C31.8045 44.7244 31.9507 44.6729 32.0716 44.6308C32.1284 44.6087 32.182 44.5908 32.2273 44.5751C32.3703 44.5235 32.4502 44.4941 32.4502 44.4941L32.4713 44.4846L32.4387 44.3752L32.4176 44.3805C32.4176 44.3805 32.3324 44.3984 32.1862 44.4331L32.0706 44.4615C31.937 44.4941 31.7708 44.534 31.5815 44.5845L31.1787 44.6897C31.0788 44.7181 30.9757 44.7496 30.8685 44.7822L30.7338 44.8243C30.4509 44.9106 30.127 45.0147 29.7705 45.1314C29.5076 45.2187 29.2499 45.3113 28.9996 45.4007L28.8166 45.4659L28.724 45.4995C28.458 45.5963 28.2077 45.6888 27.9921 45.774C27.8974 45.8108 27.8101 45.8466 27.7302 45.8781L27.665 45.9055L27.4126 46.0064C27.2748 46.0664 27.1949 46.0979 27.1949 46.0979L27.1738 46.1074L27.2138 46.2147C27.2138 46.2147 27.3169 46.1842 27.461 46.1411C27.5125 46.1253 27.5693 46.1095 27.6334 46.0874L27.8175 46.0327C27.8932 46.0086 27.9731 45.9854 28.0562 45.957C28.2077 45.9055 28.3759 45.854 28.5558 45.7972C28.6641 45.7625 28.7777 45.7277 28.8944 45.6899C29.1216 45.6163 29.3582 45.5384 29.5991 45.4606ZM34.5747 36.6777L34.5715 36.7461L34.9438 36.8386L34.8165 37.2004L34.8754 37.2362L35.4707 36.5946L35.4381 36.5347L34.5747 36.6777ZM33.9426 35.79L34.7061 34.6531L34.6662 34.6005L33.3663 35.0296L33.3736 35.0959L33.9931 35.1527L33.8784 35.7648L33.9426 35.79ZM37.9979 31.6747L37.1261 31.7504L37.1187 31.8187L37.4826 31.9397L37.327 32.291L37.3837 32.3309L38.0253 31.7346L37.9979 31.6747ZM33.9289 41.4157L32.1252 39.2134L32.0337 39.2534L32.4965 41.8763L33.4451 42.9764C33.4451 42.9764 33.4725 42.9901 33.4946 43.0017C33.5145 43.009 33.5356 43.0206 33.5608 43.0322C33.5829 43.0448 33.6102 43.0585 33.6376 43.0753C33.666 43.0911 33.6954 43.109 33.7249 43.1289C33.7554 43.1468 33.7827 43.1742 33.8143 43.1942C33.8416 43.2215 33.8742 43.2436 33.9005 43.273C33.93 43.2972 33.9563 43.3288 33.9825 43.3582C34.0067 43.3898 34.033 43.4182 34.0562 43.4508C34.0804 43.4823 34.0982 43.516 34.1203 43.5475C34.1361 43.5812 34.1582 43.6117 34.1719 43.6443C34.1876 43.6758 34.2034 43.7084 34.215 43.7389C34.2286 43.7673 34.2371 43.7947 34.2465 43.8178C34.256 43.8431 34.2655 43.8662 34.2707 43.8883C34.2823 43.9293 34.2917 43.9524 34.2917 43.9524L34.3622 43.9535C34.3622 43.9535 34.3738 43.9304 34.3864 43.8904C34.3927 43.8704 34.4001 43.8441 34.4043 43.8105C34.4085 43.7789 34.4137 43.741 34.4116 43.7021V43.639C34.4074 43.6201 34.4053 43.597 34.4022 43.5759C34.3959 43.5296 34.379 43.4823 34.3654 43.435C34.3454 43.3898 34.3275 43.3403 34.2981 43.2951C34.2728 43.2478 34.2371 43.2068 34.2034 43.1637C34.1666 43.1247 34.1287 43.0858 34.0856 43.0553C34.0456 43.0206 33.9994 42.9954 33.9563 42.9691C33.91 42.9502 33.8669 42.9281 33.8227 42.9165C33.8006 42.9091 33.7796 42.9028 33.7596 42.8976H33.7543C33.7785 42.8902 33.8038 42.8849 33.8279 42.8797C34.0036 42.8345 34.1792 42.7892 34.357 42.7451C34.3633 42.7472 34.3717 42.7514 34.3822 42.7545C34.4001 42.7629 34.4222 42.7735 34.4453 42.7882C34.4695 42.7998 34.4958 42.8134 34.5242 42.8303C34.5526 42.845 34.581 42.8639 34.6104 42.8839C34.642 42.9007 34.6693 42.9291 34.6998 42.9502C34.7282 42.9754 34.7598 42.9975 34.7871 43.0269C34.8165 43.0532 34.8418 43.0837 34.8691 43.1121C34.8933 43.1437 34.9196 43.1742 34.9417 43.2057C34.9659 43.2362 34.9848 43.272 35.0059 43.3035C35.0227 43.3361 35.0448 43.3666 35.0584 43.4013C35.0742 43.4308 35.0889 43.4623 35.1005 43.4928C35.1142 43.5233 35.1226 43.5486 35.1331 43.5738C35.1426 43.597 35.151 43.6222 35.1573 43.6422C35.1689 43.6843 35.1783 43.7084 35.1783 43.7084H35.2498C35.2498 43.7084 35.2593 43.6843 35.273 43.6443C35.2803 43.6243 35.2867 43.5991 35.2909 43.5665C35.2951 43.5349 35.3003 43.496 35.2982 43.4571C35.2982 43.4371 35.2982 43.4161 35.2972 43.3961C35.294 43.374 35.2909 43.353 35.2877 43.3298C35.2825 43.2835 35.2656 43.2383 35.252 43.1889C35.232 43.1437 35.213 43.0953 35.1836 43.0511C35.1594 43.0038 35.1247 42.9617 35.09 42.9197C35.0532 42.8807 35.0153 42.8408 34.9722 42.8103C34.9322 42.7756 34.886 42.7493 34.8428 42.724C34.7966 42.704 34.7524 42.683 34.7082 42.6704C34.6998 42.6683 34.6903 42.6651 34.6819 42.663C35.1752 42.54 35.6737 42.418 36.1711 42.3012L34.5578 41.4041L33.9289 41.4157ZM36.9399 29.75L37.389 29.9446L37.1534 30.3726L37.206 30.4179L38.0705 29.7469L38.0484 29.6848L36.9547 29.6838L36.9399 29.75ZM21.0803 19.765L19.0347 20.8104L18.9232 20.2046L18.8244 20.2141L18.816 21.2195L18.8938 21.2574L21.1297 19.846L21.0803 19.765ZM23.0375 22.2365L20.1758 23.7857L20.0643 23.1799L19.9749 23.1894L19.9571 24.1948L20.0359 24.239L23.088 22.3154L23.0375 22.2365ZM22.1036 20.9692L19.3997 22.4016L19.2892 21.7969L19.1935 21.8085L19.1809 22.8118L19.2556 22.8507L22.1541 21.0502L22.1036 20.9692ZM26.3314 25.9091L24.288 26.9524L24.1754 26.3582L24.085 26.3708L24.0692 27.3626L24.1407 27.4005L26.3809 25.9912L26.3314 25.9091ZM25.2198 24.6933L22.7525 25.9764L22.641 25.3696L22.5453 25.3833L22.5327 26.3835L22.6053 26.4287L25.2713 24.7743L25.2198 24.6933ZM24.1155 23.5028L21.3148 24.9647L21.2033 24.3578L21.1055 24.3673L21.0961 25.3749L21.176 25.4138L24.1649 23.5817L24.1155 23.5028ZM17.4803 21.9547L17.5098 21.8411L11.2185 20.1131L8.38416 17.8098L8.30843 17.8845L10.9314 20.5422L17.4803 21.9547ZM17.657 20.6726L17.6959 20.559L12.3691 18.8374L9.7377 16.3648L9.65987 16.45L12.022 19.2381L17.657 20.6726ZM34.6819 29.2988L35.131 29.4955L34.8933 29.9225L34.9459 29.9677L35.8125 29.2999L35.7915 29.2368L34.6967 29.2315L34.6819 29.2988ZM11.2143 23.2325L13.5343 23.9088L18.1208 24.3294L18.1355 24.2085L11.2395 23.1189L11.2143 23.2325ZM11.8116 15.3246L11.7265 15.3919L13.6542 18.0444L18.3122 19.5904L18.3553 19.4768L14.0413 17.6994L11.8116 15.3246ZM27.259 27.1859L25.794 27.8822L25.6836 27.3289L25.591 27.3321L25.5753 28.2913L25.6583 28.3281L27.3095 27.2648L27.259 27.1859ZM17.5645 22.9822L8.84901 21.1848L8.81535 21.2963L11.0776 22.1229L17.5392 23.1052L17.5645 22.9822ZM20.1253 18.9825L20.18 18.8731L16.1489 16.9369L13.6942 13.6703L13.6037 13.7344L15.7965 17.3113L20.1253 18.9825ZM37.1545 44.0355C37.1545 44.0355 37.1965 44.0303 37.2712 44.0198C37.2954 44.0166 37.3217 44.0124 37.3522 44.0061C37.4153 43.9966 37.491 43.985 37.5752 43.9703C37.7182 43.944 37.8623 43.9156 38.0032 43.8851C38.1347 43.8567 38.2735 43.8252 38.4144 43.7926L38.5007 43.7726C38.6595 43.7389 38.8235 43.7021 38.9739 43.6653C39.1401 43.6254 39.281 43.5885 39.3935 43.5559C39.4735 43.5349 39.545 43.5128 39.6049 43.4939C39.6365 43.4855 39.6649 43.476 39.6901 43.4686C39.7616 43.4466 39.8016 43.4329 39.8016 43.4329L39.8205 43.4245L39.7995 43.3172H39.7785C39.7785 43.3172 39.7354 43.3193 39.6607 43.3288C39.6354 43.3319 39.6049 43.3361 39.5723 43.3403C39.5103 43.3488 39.4356 43.3572 39.3536 43.3687C39.2284 43.3877 39.0833 43.4108 38.9224 43.4413C38.7667 43.4676 38.5974 43.5034 38.4323 43.5381C38.1336 43.6096 37.8044 43.7 37.531 43.7863C37.4426 43.8126 37.3669 43.8399 37.3038 43.8599L37.2376 43.883C37.1671 43.9062 37.1261 43.9219 37.1261 43.9219L37.1072 43.9304L37.1334 44.0376L37.1545 44.0355ZM40.8449 42.3959C40.8449 42.3959 40.8985 42.3927 40.9942 42.3791C41.0237 42.3759 41.0573 42.3707 41.0952 42.3664C41.1751 42.357 41.2729 42.3465 41.3813 42.3286C41.7346 42.2781 42.1606 42.2087 42.5539 42.134L42.6528 42.114C42.8316 42.0793 43.0082 42.0457 43.1744 42.0078C43.2596 41.991 43.3416 41.9731 43.4205 41.9573C43.5267 41.9363 43.6266 41.9153 43.7171 41.8942C43.8233 41.8711 43.918 41.8479 43.9958 41.829L44.0989 41.8048C44.1914 41.7827 44.2429 41.767 44.2429 41.767L44.264 41.7617L44.245 41.6513L44.223 41.6523C44.223 41.6523 44.1693 41.6555 44.0747 41.666L43.9821 41.6755C43.9001 41.6849 43.7991 41.6954 43.6845 41.7091L43.6519 41.7133C43.4973 41.7344 43.3227 41.7564 43.1366 41.7869C42.9409 41.8206 42.7295 41.8595 42.5255 41.8963L42.5108 41.9005C42.1269 41.9721 41.702 42.0614 41.3466 42.1456C41.2445 42.1708 41.1541 42.1929 41.0784 42.2129C41.0363 42.2245 40.9995 42.2339 40.9658 42.2413C40.8733 42.2655 40.8218 42.2802 40.8218 42.2802L40.8018 42.2865L40.8239 42.398L40.8449 42.3959ZM37.6719 42.0583C37.6951 42.073 37.7213 42.0867 37.7497 42.1025C37.7771 42.1182 37.8055 42.1382 37.8349 42.1582C37.8654 42.1771 37.8917 42.2066 37.9233 42.2255C37.9369 42.2402 37.9517 42.2539 37.9674 42.2665C37.9811 42.2781 37.9958 42.2907 38.0085 42.3065C38.0369 42.3317 38.061 42.3633 38.0884 42.3938C38.1115 42.4243 38.1389 42.4537 38.1589 42.4874C38.182 42.5189 38.2009 42.5537 38.2209 42.5852C38.2377 42.6199 38.2588 42.6525 38.2714 42.6841C38.2872 42.7156 38.3008 42.7472 38.3124 42.7777C38.324 42.8082 38.3334 42.8355 38.3429 42.8586C38.3513 42.8828 38.3608 42.907 38.365 42.9281C38.3755 42.9701 38.385 42.9954 38.385 42.9954L38.4554 42.9975C38.4554 42.9975 38.4659 42.9733 38.4807 42.9333C38.488 42.9133 38.4954 42.887 38.4996 42.8544C38.5059 42.8229 38.5122 42.7861 38.5101 42.7461C38.5112 42.7261 38.5112 42.7051 38.5112 42.6841C38.508 42.663 38.5049 42.6399 38.5028 42.6178C38.4985 42.5726 38.4828 42.5274 38.4691 42.4779C38.4502 42.4327 38.4323 42.3833 38.4049 42.3381C38.3797 42.2886 38.3471 42.2476 38.3135 42.2045C38.3061 42.1961 38.2987 42.1877 38.2903 42.1792C38.2619 42.1477 38.2314 42.1182 38.1978 42.0919C38.1578 42.0572 38.1126 42.0299 38.0705 42.0047C38.0253 41.9826 37.9811 41.9605 37.9369 41.9479C37.9159 41.9416 37.8949 41.9331 37.8738 41.9279C37.857 41.9247 37.8402 41.9216 37.8234 41.9195H37.8223C37.8191 41.9184 37.816 41.9174 37.816 41.9174C37.776 41.91 37.7392 41.91 37.7077 41.9089C37.6761 41.9068 37.6488 41.91 37.6267 41.9142C37.5815 41.9195 37.5562 41.9247 37.5562 41.9247L37.552 41.9805H37.551L37.5499 41.9962C37.5499 41.9962 37.572 42.0078 37.6088 42.0257C37.6267 42.0341 37.6467 42.0457 37.6719 42.0583ZM41.0426 31.478C41.0468 31.498 41.0542 31.519 41.0594 31.5379C41.0658 31.5579 41.0689 31.5768 41.0773 31.5926C41.0878 31.6095 41.0952 31.6231 41.1036 31.6378C41.112 31.6515 41.1194 31.6641 41.1267 31.6747C41.1352 31.6862 41.1457 31.6946 41.153 31.7031C41.1846 31.7346 41.2046 31.7493 41.2046 31.7493L41.2477 31.7178C41.2477 31.7178 41.2456 31.6936 41.2382 31.6589C41.2361 31.6494 41.2351 31.6389 41.234 31.6284C41.234 31.6168 41.233 31.6052 41.233 31.5937C41.2319 31.5705 41.2319 31.5453 41.2361 31.5169C41.2382 31.4885 41.2477 31.4612 41.2551 31.4328C41.2572 31.4191 41.2635 31.4044 41.2719 31.3928C41.2803 31.3781 41.2824 31.3634 41.2908 31.3507C41.3097 31.3244 41.3245 31.2971 41.3413 31.2824C41.3487 31.2729 41.3529 31.2655 41.3739 31.2487L41.4002 31.2266L41.4128 31.2172L41.4149 31.2161C41.4433 31.2014 41.4654 31.1804 41.4959 31.174C41.5243 31.1583 41.5537 31.1551 41.5832 31.1467C41.599 31.1435 41.6126 31.1467 41.6284 31.1435C41.6431 31.1404 41.6589 31.1393 41.6736 31.1425C41.6863 31.1435 41.701 31.1456 41.701 31.1456C41.7294 31.1467 41.742 31.1509 41.7557 31.1541C41.7841 31.1593 41.804 31.1656 41.8251 31.174C41.8356 31.1772 41.844 31.1814 41.8545 31.1846C41.8661 31.1898 41.8745 31.1961 41.884 31.2014C41.9176 31.2235 41.9387 31.234 41.9387 31.234L41.9934 31.1867C41.9934 31.1867 41.986 31.1646 41.9692 31.1278C41.965 31.1162 41.9607 31.1078 41.9544 31.0962C41.946 31.0857 41.9366 31.0731 41.925 31.0594C41.9134 31.0478 41.9008 31.0321 41.8882 31.0184C41.8745 31.0047 41.8577 30.9963 41.8409 30.9826C41.824 30.9711 41.8072 30.9584 41.7872 30.9469C41.7683 30.9374 41.7462 30.93 41.7241 30.9206C41.701 30.9122 41.6768 30.9048 41.6515 30.9016C41.6263 30.8974 41.6011 30.8922 41.5737 30.8911C41.5201 30.8932 41.4643 30.8953 41.4107 30.9143C41.3539 30.9269 41.3055 30.9605 41.254 30.9879L41.2403 31.0016L41.2382 31.0026L41.2319 31.0079L41.2193 31.0194L41.1941 31.0426C41.1793 31.0531 41.1594 31.0804 41.1394 31.1057C41.0963 31.1583 41.0794 31.2098 41.0594 31.2592C41.0479 31.3097 41.0353 31.3612 41.0395 31.4086C41.0405 31.4317 41.0405 31.4548 41.0426 31.478ZM41.1667 29.4355L41.173 29.4576L41.1762 29.4776L41.2004 29.5302C41.2077 29.5554 41.2361 29.5975 41.2614 29.6291C41.2761 29.6469 41.2898 29.6627 41.3034 29.6732C41.3161 29.688 41.3308 29.6995 41.3455 29.71C41.3697 29.7311 41.3949 29.7437 41.4202 29.7574L41.4465 29.7721C41.5148 29.7984 41.58 29.8131 41.64 29.8131C41.64 29.8131 41.66 29.811 41.6768 29.81C41.7115 29.8068 41.7483 29.8047 41.7809 29.791L41.8293 29.7763L41.843 29.771L41.8661 29.7595L41.8798 29.749C41.9145 29.7321 41.9997 29.6669 42.027 29.6196C42.0617 29.5754 42.0859 29.5239 42.1006 29.4597L42.1048 29.4408C42.109 29.424 42.1132 29.404 42.1132 29.383C42.1122 29.3609 42.1111 29.3409 42.1111 29.3199C42.108 29.2883 42.0985 29.2599 42.0912 29.2378L42.0838 29.2136C42.0586 29.1631 42.0407 29.14 42.0407 29.14L42.0281 29.1221L41.945 29.1537L41.9429 29.1695C41.9429 29.1695 41.9387 29.2 41.9397 29.2347C41.9376 29.2431 41.9355 29.2515 41.9334 29.2599C41.9313 29.2736 41.9281 29.2894 41.9218 29.3041C41.9187 29.3146 41.9124 29.3272 41.9071 29.3398C41.904 29.3472 41.8987 29.3546 41.8945 29.3619L41.884 29.3809C41.8819 29.384 41.8766 29.3903 41.8714 29.3956C41.8661 29.3998 41.8629 29.405 41.8566 29.4114C41.8514 29.4208 41.8377 29.4292 41.8251 29.4387C41.8198 29.4461 41.8125 29.4492 41.7988 29.4555L41.7841 29.4639L41.7809 29.466L41.7473 29.4797C41.7294 29.486 41.702 29.4902 41.6652 29.4902H41.6631C41.6389 29.4892 41.6116 29.4829 41.5842 29.4724C41.5769 29.4681 41.5685 29.4639 41.5611 29.4587C41.5537 29.4555 41.5474 29.4524 41.5474 29.4524C41.5401 29.444 41.5317 29.4376 41.5232 29.4324C41.5201 29.4303 41.5159 29.4292 41.5148 29.4271C41.5106 29.4198 41.5054 29.4145 41.5012 29.4114C41.4959 29.4071 41.4927 29.404 41.4854 29.3893L41.4654 29.3567L41.4633 29.3493L41.4622 29.3462C41.4559 29.3346 41.4507 29.3199 41.4475 29.2988C41.4444 29.2883 41.4412 29.2757 41.4423 29.2641L41.4412 29.2515C41.4412 29.2431 41.4412 29.2326 41.4433 29.2231C41.4444 29.2168 41.4454 29.2094 41.4454 29.2031C41.4465 29.1958 41.4465 29.1884 41.4496 29.1821C41.4517 29.1758 41.4549 29.1674 41.457 29.16C41.4591 29.1537 41.4612 29.1463 41.4612 29.1432L41.4791 29.1074C41.4854 29.0969 41.4917 29.0874 41.4969 29.078C41.5033 29.0706 41.5085 29.0611 41.5075 29.059C41.5464 29.0285 41.5653 29.0075 41.5653 29.0075L41.5779 28.9938L41.5285 28.896L41.5096 28.8992C41.5096 28.8992 41.4822 28.9023 41.4275 28.9139L41.4086 28.9234C41.3855 28.9339 41.356 28.9475 41.3297 28.9696C41.314 28.9833 41.2971 28.9959 41.2803 29.0117C41.2677 29.0222 41.2582 29.0359 41.2487 29.0496C41.2435 29.0559 41.2382 29.0632 41.2319 29.0727C41.1941 29.1295 41.173 29.181 41.1657 29.2315C41.1551 29.2652 41.1541 29.2988 41.1541 29.3293C41.152 29.3609 41.1583 29.3914 41.1636 29.4219L41.1667 29.4355ZM43.6466 30.9942C43.6603 31.0079 43.6708 31.0236 43.6834 31.0405C43.6961 31.0541 43.7055 31.071 43.7171 31.0889C43.7381 31.1215 43.7581 31.1562 43.7728 31.193C43.7897 31.2287 43.8033 31.2676 43.8128 31.3066C43.8223 31.3444 43.8296 31.3833 43.8317 31.4243C43.8349 31.4443 43.8338 31.4643 43.8349 31.4843C43.8359 31.5053 43.8328 31.5264 43.8317 31.5453C43.8265 31.5853 43.8181 31.6242 43.8065 31.6631C43.8012 31.6831 43.7939 31.701 43.7854 31.7178L43.7581 31.7767L43.8181 31.8103L43.8528 31.7556C43.8633 31.7346 43.8748 31.7125 43.8833 31.6925C43.9011 31.6494 43.9138 31.6052 43.9243 31.559C43.9274 31.5369 43.9337 31.5148 43.9358 31.4906C43.9379 31.4685 43.9411 31.4443 43.94 31.4212C43.9422 31.3749 43.939 31.3276 43.9327 31.2824C43.9264 31.2361 43.9169 31.1909 43.9022 31.1467C43.8885 31.1015 43.8717 31.0562 43.8507 31.0142C43.8391 30.9942 43.8296 30.9721 43.817 30.9532C43.8044 30.9321 43.7939 30.9122 43.7791 30.8922C43.7528 30.8533 43.7223 30.8165 43.6908 30.7817L43.6866 30.7754C43.4037 30.5083 43.1176 30.2454 42.8379 29.9751L42.6328 30.218C42.9483 30.4473 43.2564 30.6829 43.5688 30.9143C43.5961 30.9395 43.6224 30.9658 43.6466 30.9942ZM28.4948 30.9395L28.4653 30.7155L28.377 30.7102L28.2802 31.2918L28.3581 31.3381L29.4403 30.5809L29.3908 30.503L28.4948 30.9395ZM28.0846 28.3849L27.0487 28.8392L26.9561 28.4196H26.8667L26.8278 29.2189L26.9004 29.2599L28.1298 28.4595L28.0846 28.3849ZM28.7335 32.1458L28.7135 31.9271L28.6252 31.9197L28.5274 32.5003L28.5947 32.5518L29.3845 31.9786L29.3361 31.9018L28.7335 32.1458ZM29.2436 29.2978L27.9815 29.8573L27.9395 29.4997L27.8511 29.4923L27.7659 30.2222L27.8375 30.2738L29.2941 29.3798L29.2436 29.2978ZM43.4489 42.6399C43.3017 42.6609 43.1534 42.6841 43.0082 42.7062C42.8578 42.7282 42.7106 42.7556 42.5813 42.7798C42.4992 42.7934 42.4193 42.8103 42.3425 42.8271C42.2889 42.8366 42.2363 42.8471 42.1848 42.8565L42.0249 42.8881C41.9565 42.9007 41.8924 42.9154 41.8303 42.926C41.6884 42.9544 41.5622 42.9817 41.4559 43.0059C41.397 43.0164 41.3455 43.028 41.2992 43.0385L41.0763 43.09L41.0963 43.2015L41.3224 43.1763C41.3697 43.17 41.4244 43.1637 41.4864 43.1552C41.5927 43.1437 41.7199 43.1289 41.8608 43.1079C41.9713 43.0932 42.0912 43.0753 42.2184 43.0574L42.3152 43.0448C42.413 43.0301 42.515 43.0164 42.6181 43.0017C42.7884 42.9722 42.9609 42.9502 43.1429 42.9239C43.2564 42.9091 43.3711 42.8923 43.4857 42.8776C43.6014 42.8587 43.7171 42.8418 43.8307 42.825L43.9253 42.8103L44.3513 42.7451C44.5374 42.7167 44.7131 42.6893 44.8771 42.6609C44.957 42.6483 45.0338 42.6357 45.1064 42.6241C45.2336 42.6052 45.3472 42.5842 45.4461 42.5673C45.5197 42.5537 45.5849 42.5421 45.6406 42.5326L45.8647 42.4927L45.851 42.3791L45.8289 42.3812C45.8289 42.3812 45.7553 42.3833 45.6238 42.3938L45.5586 42.3969C45.4303 42.4054 45.2704 42.4169 45.0822 42.439C45.0012 42.4464 44.915 42.4548 44.8245 42.4643C44.6636 42.48 44.4964 42.4969 44.3197 42.5189L43.8917 42.5757C43.8086 42.5884 43.4489 42.6399 43.4489 42.6399ZM24.7455 37.681L24.7318 37.7494L25.0063 37.8682L24.8611 38.1291L24.9137 38.1743L25.468 37.7452L25.4459 37.6821L24.7455 37.681ZM26.0685 48.925L25.0778 48.4875L26.0391 47.9826L26.0128 47.9174L24.5625 48.3202C24.5036 48.3371 24.4531 48.3812 24.4342 48.4433C24.4016 48.5421 24.4562 48.6484 24.5551 48.6799L24.5719 48.6852L25.9844 49.1395C26.221 49.2121 26.4555 49.2952 26.6911 49.3751L27.3978 49.6181L27.4231 49.5518L26.7479 49.2363C26.5218 49.1311 26.2978 49.0249 26.0685 48.925ZM26.7142 37.681L26.7016 37.7494L26.9761 37.8682L26.831 38.1291L26.8836 38.1743L27.4378 37.7452L27.4157 37.6821L26.7142 37.681Z" fill="#EC1A2E"/>
</svg>
