<svg width="176" height="48" viewBox="0 0 176 48" fill="none" xmlns="http://www.w3.org/2000/svg">
<path d="M35.9544 46.9822C33.314 38.9064 23.2972 4.58143 17.9703 0.0784729H0V46.9799H0.387748L17.7833 1.24172L3.24739 46.9799H3.71361L19.5697 4.34832L6.36784 46.9799H6.9887L21.3562 8.07578L9.576 46.9452H10.1207L17.5502 30.9852H15.7638L22.9856 11.8032L17.5502 30.9829H19.182L12.5787 46.9822H35.9544ZM29.3396 0C33.9349 4.34832 45.5073 39.061 48.1477 46.9799V0H29.3396Z" fill="white"/>
<path d="M168.184 27.0085L166.884 25.9884C162.397 22.3117 161.301 20.8138 161.301 18.3604C161.301 15.2699 163.508 13.195 166.79 13.195C170.699 13.195 172.015 14.836 172.4 15.5377C172.654 16.0062 172.934 17.2248 172.977 17.7741C173.021 18.1203 173.079 18.5866 173.575 18.5866C174.127 18.5866 174.127 17.7418 174.127 17.2894C174.127 14.8129 174.24 13.3404 174.288 12.7126L174.311 12.3641C174.311 11.8748 173.942 11.8125 173.621 11.8125C173.291 11.8125 172.954 11.7756 172.04 11.5863C170.709 11.2655 169.319 11.1155 167.674 11.1155C161.691 11.1155 157.827 14.4875 157.827 19.7059C157.827 22.8449 158.868 25.7945 163.951 29.9651L166.042 31.6846C170.173 35.0936 171.304 36.8546 171.304 39.8735C171.304 42.8301 169.1 45.8282 164.885 45.8282C163.161 45.8282 159.065 45.385 158.229 41.2698C158.095 40.6397 158.095 40.0096 158.095 39.5942C158.095 39.3195 158.095 38.8579 157.544 38.8579C157.031 38.8579 156.976 39.4742 156.946 39.8065C156.946 39.8139 156.904 40.3674 156.904 40.3674C156.833 41.3021 156.713 42.8739 156.713 44.7526C156.713 45.9874 156.745 46.3267 157.534 46.7214H157.536C159.3 47.5823 161.368 48 163.863 48C166.669 48 169.139 47.3099 171.008 46.0059C173.992 43.8871 175.054 40.5359 175.054 38.1101C175.054 34.5073 173.93 31.5392 168.183 27.0085H168.184ZM75.9199 31.5161C75.8691 31.5161 67.2671 31.5161 67.1356 31.5161C67.1374 31.5106 67.1392 31.4995 67.1392 31.4995C67.1466 31.4866 71.2337 18.9392 71.2337 18.9392C71.2891 18.7684 71.3352 18.6784 71.3676 18.6253C71.3999 18.6785 71.4436 18.7684 71.5014 18.9415C71.5014 18.9434 75.9167 31.4903 75.9167 31.4903C75.9167 31.4884 75.9167 31.4866 75.9167 31.4903C75.9167 31.4903 75.9185 31.505 75.9185 31.5157L75.9199 31.5161ZM108.447 31.5161C108.398 31.5161 99.7941 31.5161 99.6626 31.5161C99.6644 31.5106 99.6681 31.4995 99.6681 31.4995C99.6718 31.4866 103.763 18.9392 103.763 18.9392C103.82 18.7684 103.864 18.6784 103.896 18.6253C103.929 18.6785 103.973 18.7684 104.03 18.9415C104.032 18.9434 108.445 31.4903 108.445 31.4903C108.445 31.4866 108.445 31.4866 108.445 31.4903C108.445 31.4903 108.447 31.505 108.447 31.5157L108.447 31.5161ZM140.974 31.5161C140.923 31.5161 132.321 31.5161 132.192 31.5161C132.192 31.5106 132.196 31.4995 132.196 31.4995C132.199 31.4866 136.29 18.9392 136.29 18.9392C136.345 18.7684 136.392 18.6784 136.422 18.6253C136.454 18.6785 136.498 18.7684 136.556 18.9415C136.557 18.9434 140.971 31.4903 140.971 31.4903C140.971 31.4884 140.971 31.4866 140.971 31.4903C140.971 31.4903 140.973 31.505 140.973 31.5157L140.974 31.5161ZM154.896 46.2459C154.444 46.2459 153.77 46.1974 153.107 45.9782C152.082 45.6851 150.831 44.8611 149.248 40.9513C147.229 35.9152 142.95 24.7374 140.39 18.0603L138.421 12.9319C137.879 11.524 137.65 11.1155 137.191 11.1155C136.732 11.1155 136.517 11.5332 135.956 13.0773L125.406 41.9345C124.513 44.418 123.618 45.902 121.686 46.1559C121.686 46.1559 121.577 46.1633 121.423 46.1744C121.15 46.1328 120.866 46.075 120.58 45.9782C119.555 45.6851 118.304 44.8611 116.721 40.9513C114.697 35.9083 110.413 24.7167 107.851 18.028L105.894 12.9319C105.35 11.524 105.123 11.1155 104.662 11.1155C104.205 11.1155 103.988 11.5332 103.427 13.0773L92.8793 41.9345C91.9861 44.418 91.0906 45.902 89.1587 46.1559C89.1587 46.1559 89.0504 46.1633 88.8956 46.1744C88.6256 46.1328 88.3394 46.075 88.0532 45.9782C87.0284 45.6851 85.7752 44.8611 84.1942 40.9513C82.1747 35.9152 77.8933 24.7374 75.336 18.0603L73.3672 12.9319C72.8248 11.524 72.594 11.1155 72.1347 11.1155C71.6778 11.1155 71.4608 11.5332 70.9 13.0773L60.3523 41.9345C59.4591 44.418 58.5613 45.902 56.6317 46.1559C56.6299 46.1559 55.3139 46.2458 55.3139 46.2458C54.9284 46.2458 54.6699 46.4489 54.6699 46.7513C54.6699 47.3468 55.42 47.3468 55.7778 47.3468L59.9691 47.2452L61.0285 47.2083L62.2079 47.2568L64.6521 47.347C65.4161 47.347 65.5776 47.0238 65.5776 46.7515C65.5776 46.5645 65.4877 46.246 64.8852 46.246H64.4213C63.8259 46.246 62.8819 45.9414 62.8819 45.1266C62.8819 44.3073 63.1081 43.2294 63.5189 42.087C63.5189 42.0814 66.307 33.8589 66.307 33.8589C66.3879 33.6581 66.4778 33.6419 66.5586 33.6419H76.55C76.6724 33.6419 76.6977 33.6604 76.7646 33.7942L81.0783 45.2051C81.1454 45.3829 81.1777 45.549 81.1777 45.6967C81.1777 45.8053 81.1592 45.9021 81.1201 45.9852C81.0579 46.1123 80.9724 46.1538 80.9401 46.1652C80.5223 46.269 80.46 46.5484 80.46 46.703C80.46 47.1739 80.9839 47.2015 81.854 47.2454L82.0664 47.2546C83.8112 47.3054 85.9231 47.3377 88.118 47.3447C88.1873 47.3466 88.2519 47.3466 88.305 47.3466H88.3696C88.7043 47.3466 89.0389 47.3466 89.3759 47.3466C89.5698 47.3466 89.7406 47.3355 89.8883 47.3097L92.4963 47.245L93.5557 47.2081L94.7351 47.2567L97.1816 47.3468C97.9433 47.3468 98.1048 47.0236 98.1048 46.7513C98.1048 46.5643 98.0149 46.2458 97.4124 46.2458H96.9485C96.353 46.2458 95.4091 45.9412 95.4091 45.1264C95.4091 44.3071 95.6352 43.2292 96.0461 42.0868C96.0479 42.0812 98.8365 33.8587 98.8365 33.8587C98.9174 33.6579 99.0027 33.6417 99.0857 33.6417H109.077C109.199 33.6417 109.225 33.6602 109.292 33.794L113.606 45.2049C113.672 45.3827 113.705 45.5488 113.705 45.6965C113.705 45.8051 113.686 45.9019 113.647 45.985C113.587 46.1121 113.502 46.1536 113.467 46.1651C113.052 46.269 112.987 46.5482 112.987 46.7028C112.987 47.1737 113.511 47.2014 114.381 47.2452L114.596 47.2544C116.341 47.3052 118.452 47.3375 120.647 47.3446C120.714 47.3464 120.779 47.3464 120.834 47.3464H120.899C121.231 47.3464 121.566 47.3464 121.903 47.3464C122.099 47.3464 122.268 47.3353 122.415 47.3095L125.026 47.2448L126.085 47.2079L127.262 47.2565L129.709 47.3464C130.473 47.3464 130.632 47.0233 130.632 46.7509C130.632 46.564 130.542 46.2455 129.942 46.2455H129.476C128.882 46.2455 127.936 45.9408 127.936 45.1261C127.936 44.3067 128.165 43.2289 128.573 42.0864C128.575 42.0827 131.363 33.8585 131.363 33.8585C131.444 33.6577 131.532 33.6415 131.615 33.6415H141.604C141.726 33.6415 141.752 33.66 141.821 33.7939L146.133 45.2047C146.199 45.3825 146.234 45.5486 146.234 45.6963C146.234 45.8049 146.213 45.9018 146.174 45.9848C146.114 46.1119 146.029 46.1534 145.994 46.1649C145.579 46.2686 145.514 46.548 145.514 46.7026C145.514 47.1735 146.04 47.2012 146.91 47.245L147.123 47.2543C149.198 47.3167 151.789 47.3466 154.43 47.3466C155.196 47.3466 155.584 47.1481 155.584 46.7511C155.584 46.4141 155.353 46.2457 154.896 46.2457" fill="white"/>
</svg>
