<svg height="69" viewBox="0 0 241 69" width="241" xmlns="http://www.w3.org/2000/svg"><path d="m148.089151 32.7444481c0-9.9007893-3.152324-14.6477588-10.03383-14.6477588-6.482265 0-10.033829 4.3853336-10.033829 14.6477588v.8137825c0 10.0363519 3.595568 14.4669002 10.033829 14.4669002 6.482265 0 10.03383-3.797543 10.03383-14.3765523zm-10.03383 17.4958753c-7.591979 0-12.786912-5.0633906-12.786912-16.0492504v-1.89869c0-10.6241426 4.706083-16.3657531 12.786912-16.3657531 8.48007 0 12.786912 5.7867437 12.786912 16.3657531v1.8083421c0 10.8502158-4.617274 16.1395983-12.786912 16.1395983zm33.975328-.8798383v-18.7468824c0-2.7162301-2.157554-4.631072-5.752668-4.631072-3.595925 0-6.921344 2.0038315-8.449612 5.3435507v18.0344037h-2.651589v-24.7138421h2.471793l.089898 4.5420021c1.078777-2.5827055 4.494095-5.3434706 9.303239-5.3434706 4.629347 0 7.640529 2.5380904 7.640529 7.2583125v18.2569981zm7.419591.4399192v-33.4338553h3.034182v33.4338553zm8.217933 0v-25.4104311h2.727786v25.4104311zm-.41575-28.2640399v-3.8500579h3.467637v3.8500579zm25.522963 27.8241207v-18.7468824c0-2.7162301-2.157554-4.631072-5.752669-4.631072-3.595924 0-6.921344 2.0038315-8.449612 5.3435507v18.0344037h-2.651589v-24.7138421h2.471793l.089898 4.5420021c1.078778-2.5827055 4.494096-5.3434706 9.303239-5.3434706 4.629348 0 7.640529 2.5380904 7.640529 7.2583125v18.2569981zm9.416961-11.4446522c0 6.9987962 3.726519 10.0691046 8.960593 10.0691046 3.9919 0 6.742426-1.173884 8.11729-1.9415018v2.2124545c-1.72977 1.2642829-5.05662 1.9416645-8.605686 1.9416645-5.100584 0-11.133197-2.9350762-11.133197-12.1914043v-1.8061882c0-7.8565688 4.612986-12.4171167 10.867017-12.4171167 6.653699 0 10.601636 4.6959429 10.601636 12.3268806v1.8061068zm8.294743-11.830134c-4.612987 0-8.206016 3.1607073-8.294743 9.7530745h16.146653c0-6.5923672-3.016707-9.7530745-7.85191-9.7530745zm-178.0337926 20.0910976c.6948656.5496352.3868003.9426385.3868003.9426385l-6.7162082 4.8719401c-5.7895343-1.9641219-6.3300475-6.7571358-6.3300475-6.7571358v-23.0228377c-.1537928-1.0996772-.6936666-.9432082-.6936666-.9432082l-4.4755803-2.348663.0279768 10.2097071 4.7986733.0013018-4.77837 7.0452569.0226213 8.454292 3.3238124 2.3315759c.4629773.5507743-.2318084.6296191-.2318084.6296191l-6.9468176 4.4000919-10.3438495-5.5792648c-.9260345-.6283172-.2317284-1.0214019-.2317284-1.0214019l2.2387094-1.4133476v-7.3867548h-4.8904374l.0256588 9.4916419 1.6224988 1.0371871c.5405132.550693-.0768165.9437777-.0768165.9437777l-6.8699212 3.9281624-9.03173414-4.7931766c-.77168211-.5493911.07745597-.9425572.07745597-.9425572l2.54741425-1.4933315v-21.2928906l-4.93991655-3.6151429-.23180838-.0788448c-1.38901181-.7848676-.38608086-1.1785219-.38608086-1.1785219l7.1016496-4.6354057c.38560125-.3148096.69422613.156469.69422613.156469l6.48439987 3.8511077s8.747569-4.7560732 9.3404389-5.1175875c.3855213-.2359648.6941462.0788448.6941462.0788448l7.4104344 4.1738098 7.4103544-4.7148201c.8485785-.7066737 1.080307-.2353952 1.080307-.2353952l8.7231092 5.1860987c.6942262.4713599.3855214.6290495.3855214.6290495v24.0430192c.3087048 2.9867443 2.7785831 4.1646967 2.7785831 4.1646967zm-36.5107793-1.1779524 1.0785485.6890171-.0739389-26.6324477c-1.2447311.0285599-1.3132344.877789-1.3132344.877789l-.077536 24.8291073c.077536.5495538.3861608.2365343.3861608.2365343zm70.0615285.9845221c.4605221.5538238.152712 1.1075657.152712 1.1075657l-6.0671204 4.9090681-9.9852171-4.987366c-.4612379-.475444-.7683322.0782979-.7683322.0782979l-5.9144879 4.9090681c-8.103519-1.0805919-9.4245573-7.0787785-9.5977104-8.155681h-.0029429c-.0005568-.0110682-.0005568-.0220545-.0023861-.0330408-.0124079-.0843649-.0183732-.1344591-.0183732-.1344591l.0112943-.0060671c-.5585123-8.7987069 2.7749043-10.989242 2.7749043-10.989242 4.3010697-5.7793627 15.130816-10.2923505 15.130816-10.2923505.9214419-.6332694 1.3062443-.0795276 1.3062443-.0795276s9.9072704 5.0673855 10.4449438 5.700655c.5376735.6337613.2306588 1.1086314.2306588 1.1086314l-1.6130205 1.3452467c-.3841661.0806755-.3078101.6344173-.3078101.6344173v11.9548878zm-17.7423502-.3959164c1.6885811.790767 2.3800005-.3960804 2.3800005-.3960804l.0764356-13.727288-5.2230685-3.6121939c-3.8391955 1.7419829-3.9927029 5.1462572-3.9927029 5.1462572-.7815354 3.0351678.3148095 5.8685649.8300534 6.9613728 2.0307514 3.612194 5.9292819 5.6279323 5.9292819 5.6279323zm23.2247891-21.9374065s.4554369-.5507728 1.0618994 0c .6088223.5513436 9.0403031 5.1192349 9.0403031 5.1192349s.608036.3933042-.076299.8656282c-.683549.4729763-1.5181229.6991079-1.5181229.6991079s-.3051978-.3051512-.5317363.6394967c-.2517095 1.0395693.0755128 12.9946985.0755128 12.9946985s-.1518123.4718347.3036246.7075889c.4554368.2359989 3.0842278 1.8115809 3.0842278 1.8115809s.531736.4717531 0 .7088121c-.532523.2359989-6.6545695 4.8038086-6.6545695 4.8038086l-9.0387302-4.7247074s-.4719553-.5484079.1510257-1.1027688c.5325229-.4729763 1.5291351-1.2766283 1.5291351-1.2766283s.0668603-.8498895-.0094391-1.164745l-.1518123-12.1277655s.2281117-.3927335-.4562234-.629874c-.6835486-.2358358-3.1896311-1.8899482-3.1896311-1.8899482s-.379924-.3142846.0755128-1.0237491c.4562235-.7075889 6.3053225-4.4097704 6.3053225-4.4097704zm1.6160498-1.331306s-1.6473589-2.4556722-1.0979684-5.5462043c0 0 .5875879-2.3369539 2.8257854-3.5650771 0 0 1.4506836-.9510592 3.3743632.2373546 0 0 2.1975625.9504028 1.2548209 4.4366352 0 0-1.4913189 3.5650771-5.1785746 5.0708388 0 0-.8639085.1590841-1.1784265-.6335472zm11.1224917-5.3447127s9.972964-3.2867061 11.278276-3.5990003c1.304517-.3135097 1.227454.3122942 1.227454.3122942s-.30746 28.9520387-.077064 29.9704387c.230396 1.0172656.690393.7817079.690393.7817079s2.30237 1.6429884 2.839431 1.8787081c.536266.2342612.229602.7816269.229602.7816269l-5.601004 4.4602808s-9.174523-4.125622-9.8959-4.6161848c-.921584-.6257229-.30746-1.0172656-.30746-1.0172656l1.610388-1.6430694s.30746-23.7105363-.152538-24.962144c-.460792-1.252256-1.918641-1.7215887-1.918641-1.7215887-.306665-.5472846.077063-.6258038.077063-.6258038zm-82.5704306 12.1516327.849218.0012205v-6.9154762c-.2312488-1.0214834-.6179692-.7066738-.6179692-.7066738l-4.3207483-2.3115597.0441235 16.0714786zm11.8872937 14.6940953.5357171.3759977-.0215022-7.6051443h-1.1316246v6.8360619c.1543524.5506929.6174097.3930847.6174097.3930847zm-.6174097-14.6905151h1.1114013l-.0292558-10.5026289c-1.3704671-.4306764-1.1596014.4415796-1.1596014.4415796l.0774559 9.3513649z" fill="#fff" fill-rule="evenodd"/></svg>