<svg width="66" height="56" viewBox="0 0 66 56" fill="none" xmlns="http://www.w3.org/2000/svg">
<path d="M66 5.96198L63.0289 0C53.6913 5.32319 35.865 16.3954 35.865 34.7072C35.865 47.4829 39.8971 56 51.7814 56C59.4213 56 63.8778 49.8251 63.8778 44.076C63.8778 37.9011 61.119 32.1521 50.7203 32.1521H45.4148C46.6881 18.5247 54.7524 12.5627 66 5.96198ZM30.135 5.96198L27.164 0C17.8264 5.32319 0 16.3954 0 34.7072C0 47.4829 4.03218 56 15.9164 56C23.5563 56 28.0129 49.8251 28.0129 44.076C28.0129 37.9011 25.254 32.1521 14.8553 32.1521H9.54986C10.8232 18.5247 18.8874 12.5627 30.135 5.96198Z" fill="#CA2015"/>
</svg>
