<?xml version="1.0" encoding="utf-8"?>
<!-- Generator: Adobe Illustrator 24.0.3, SVG Export Plug-In . SVG Version: 6.00 Build 0)  -->
<svg version="1.1" id="Layer_2_1_" xmlns="http://www.w3.org/2000/svg" xmlns:xlink="http://www.w3.org/1999/xlink" x="0px" y="0px"
	 viewBox="0 0 302.7 45.4" style="enable-background:new 0 0 302.7 45.4;" xml:space="preserve">
<style type="text/css">
	.st0{fill:#FFFFFF;}
</style>
<g>
	<g id="XMLID_1_">
		<g id="XMLID_14_">
			<path class="st0" d="M3.2,33.1l-1.4,2.1H0.3L0,24.4h1c1.8,4.9,4.5,9.5,9.8,9.5c3.8,0,5.7-2.4,5.7-5.8c0-2.8-1.4-4.9-4.2-6.1
				c-2.4-1-4.1-1.7-6.4-2.8c-3.1-1.5-5.1-4.1-5.1-8.1c0-4.9,3.8-8.5,8.8-8.5c2.2,0,4.9,1,6.4,2.2l1.3-2.1h1.5l0.2,10.5h-1
				C16.4,8.1,14.4,4,8.8,4C7.6,4,4.5,5.2,4.5,8.7c0,2.8,1.2,4.4,3.8,5.9c2.1,1.2,4.2,1.8,6.1,2.7c3.5,1.8,6,3.6,6,8.3
				c0,5.6-4.2,9.6-9.9,9.6C7,35.3,4.5,34.2,3.2,33.1"/>
		</g>
		<g id="XMLID_13_">
			<path class="st0" d="M21.6,24.2c0-5.7,3.6-10.9,9.4-10.9c4.3,0,6.5,2.5,6.5,5.4c0,1.5-0.9,2.6-2.3,2.6c-0.8,0-2.5-0.5-2.5-2.3
				c0-1.9,0.5-2,0.5-2.9c-0.2-1.3-0.9-1.7-2.3-1.7c-2.5,0-4.8,2.4-4.8,9.4c0,5.6,2,9.5,5.6,9.5c2.8,0,4.6-1.4,5.9-4.1l0.9,0.6
				c-1.5,3-4.5,5.5-7.8,5.5C24.6,35.3,21.6,30.6,21.6,24.2"/>
		</g>
		<g id="XMLID_10_">
			<path class="st0" d="M40.9,5.2c0-1.6,1.2-2.9,2.7-2.9c1.7,0,2.8,1.2,2.8,2.7c0,1.6-1.2,3-2.8,3C42.1,8.1,40.9,6.8,40.9,5.2
				 M38.9,33.8c0.7,0,1.3-0.1,1.9-0.3c0.8-0.3,1.1-1.2,1.1-2.1V18.2c-0.1-1-0.5-1.8-1.1-2.3c-0.5-0.4-1.8-0.8-2.5-0.9v-0.9l7.5-0.5
				L46,14v17.2c0,1,0.4,1.8,1.1,2.1c0.6,0.3,1.4,0.5,1.9,0.5v0.9H38.9V33.8z"/>
		</g>
		<g id="XMLID_7_">
			<path class="st0" d="M61.2,21.5c0-3.3-0.6-7.1-3.5-7.1c-2.5,0-4.3,2.9-4.4,7.2L61.2,21.5z M48.9,24.1c0-5.5,3.3-10.8,8.9-10.8
				c5.7,0,7.9,4.1,7.9,8.9v0.4H53.3v0.5c0,6,1.7,10.2,6,10.2c3.1,0,4.2-1.3,5.8-4.1l0.8,0.5c-1.5,3.3-4.3,5.6-7.8,5.6
				C51.8,35.3,48.9,30.2,48.9,24.1"/>
		</g>
		<g id="XMLID_6_">
			<path class="st0" d="M65.9,33.8c0.7,0,1.3-0.1,1.9-0.3c0.8-0.3,1.1-1.1,1.1-2.1V18.2c-0.1-1-0.5-1.9-1.1-2.4
				c-0.5-0.4-1.4-0.7-2.1-0.7v-0.9l7-0.5L73,14v3.1h0.1c1.6-1.7,3.1-3.8,6.7-3.8c3.8,0,5.6,2.9,5.6,7.3v10.6c0,1,0.3,1.7,1.1,2.1
				c0.6,0.3,1.1,0.5,1.9,0.5v0.9H78.1v-0.9c0.7,0,1.4-0.1,1.9-0.3c0.8-0.3,1.1-1.1,1.1-2.1V20.5c0-3.2-1.6-4.9-3.3-4.9
				c-2.9,0-4.5,1.9-4.9,3v12.6c0,1,0.4,1.7,1.1,2.1c0.6,0.3,1.3,0.5,1.9,0.5v0.9H65.9V33.8z"/>
		</g>
		<g id="XMLID_5_">
			<path class="st0" d="M87.5,24.2c0-5.7,3.6-10.9,9.4-10.9c4.3,0,6.5,2.5,6.5,5.4c0,1.5-0.9,2.6-2.3,2.6c-0.8,0-2.5-0.5-2.5-2.3
				c0-1.9,0.6-2,0.6-2.9c-0.2-1.3-0.9-1.7-2.3-1.7c-2.5,0-4.8,2.4-4.8,9.4c0,5.6,2,9.5,5.6,9.5c2.8,0,4.6-1.4,5.9-4.1l0.9,0.6
				c-1.6,3-4.5,5.5-7.8,5.5C90.5,35.3,87.5,30.6,87.5,24.2"/>
		</g>
		<g id="XMLID_2_">
			<path class="st0" d="M116.8,21.5c0-3.3-0.6-7.1-3.6-7.1c-2.5,0-4.3,2.9-4.4,7.2L116.8,21.5z M104.4,24.1c0-5.5,3.3-10.8,8.9-10.8
				c5.7,0,7.9,4.1,7.9,8.9v0.4h-12.3v0.5c0,6,1.7,10.2,6,10.2c3.1,0,4.2-1.3,5.8-4.1l0.8,0.5c-1.5,3.3-4.3,5.6-7.8,5.6
				C107.4,35.3,104.4,30.2,104.4,24.1"/>
		</g>
	</g>
	<g>
		<g>
			<path class="st0" d="M125.2,33.6c0.6,0,2.1-0.1,2.5-0.3c0.8-0.4,1.1-1,1.1-1.9V11.9c0-0.9-0.2-1.5-1.1-1.9
				c-0.6-0.3-1.9-0.6-2.5-0.6V7.9h10.9v1.4c-0.6,0-1.9,0.2-2.5,0.4c-0.8,0.3-1.1,1-1.1,1.9v19.5c0,0.9,0.3,1.5,1.1,1.9
				c0.5,0.2,1.9,0.5,2.5,0.5V35h-10.9C125.2,35,125.2,33.6,125.2,33.6z"/>
		</g>
		<g>
			<path class="st0" d="M136.9,33.8c0.6,0,1-0.1,1.5-0.2c0.6-0.2,0.9-0.8,0.9-1.7V20.6c0-0.8-0.4-1.5-0.9-1.9
				c-0.4-0.3-1.1-0.5-1.7-0.6V17l5.4-0.5l0.2,0.3v2.7h0.1c1.3-1.4,2.5-3.3,5.4-3.3c2.1,0,3.6,1.4,4.3,3.4c1.3-1.5,2.6-3.4,5.5-3.4
				c3.2,0,4.4,2.6,4.4,6.3v9.2c0,0.8,0.2,1.4,0.9,1.7c0.5,0.2,1,0.3,1.6,0.4V35h-7.9v-1.2c0.6,0,0.9,0,1.4-0.2
				c0.6-0.2,0.9-0.8,0.9-1.7v-9.3c0-2.7-1.2-4-2.7-4c-2.4,0-3.7,2.2-4,2.9v10.3c0,0.8,0.3,1.4,0.9,1.7c0.4,0.2,0.9,0.3,1.5,0.4V35
				h-7.8v-1.2c0.6,0,0.9,0,1.4-0.2c0.6-0.2,0.9-0.8,0.9-1.7v-9.3c0-2.7-1.2-4-2.7-4c-2.4,0-3.6,2.1-4.1,2.9v10.2
				c0,0.8,0.3,1.4,0.9,1.7c0.5,0.3,0.9,0.4,1.6,0.4V35h-7.9L136.9,33.8L136.9,33.8z"/>
		</g>
		<g>
			<path class="st0" d="M164.7,33.8c0.6,0,1-0.1,1.5-0.2c0.6-0.2,0.9-0.8,0.9-1.7V20.6c0-0.8-0.4-1.5-0.9-1.9
				c-0.4-0.3-1.1-0.5-1.7-0.6V17l5.4-0.5l0.2,0.3v2.7h0.1c1.3-1.4,2.5-3.3,5.4-3.3c2.1,0,3.6,1.4,4.3,3.4c1.3-1.5,2.6-3.4,5.5-3.4
				c3.2,0,4.4,2.6,4.4,6.3v9.2c0,0.8,0.2,1.4,0.9,1.7c0.5,0.2,1,0.3,1.6,0.4V35h-7.9v-1.2c0.6,0,0.9,0,1.4-0.2
				c0.6-0.2,0.9-0.8,0.9-1.7v-9.3c0-2.7-1.2-4-2.7-4c-2.4,0-3.7,2.2-4,2.9v10.3c0,0.8,0.3,1.4,0.9,1.7c0.4,0.2,0.9,0.3,1.5,0.4V35
				h-7.8v-1.2c0.6,0,0.9,0,1.4-0.2c0.6-0.2,0.9-0.8,0.9-1.7v-9.3c0-2.7-1.2-4-2.7-4c-2.4,0-3.6,2.1-4.1,2.9v10.2
				c0,0.8,0.3,1.4,0.9,1.7c0.5,0.3,0.9,0.4,1.6,0.4V35h-7.9L164.7,33.8L164.7,33.8z"/>
		</g>
		<g>
			<path class="st0" d="M193.8,29.1v-8.5c-0.1-1-0.3-1.5-0.9-1.9c-0.4-0.3-1.1-0.5-1.7-0.5V17l5.5-0.5l0.2,0.3v12.6
				c0,2.6,1.2,4,2.7,4c2.5,0,3.7-2.1,4.1-3v-9.9c-0.1-0.8-0.3-1.5-0.9-1.9c-0.4-0.3-1.3-0.3-2.2-0.4V17l5.9-0.5l0.2,0.3v14.4
				c0.1,0.8,0.3,1.4,0.9,1.9c0.4,0.3,1,0.3,1.6,0.4v1.2L204,35l-0.2-0.3v-2.4h-0.1c-1.3,1.5-2.5,3.1-5.5,3.1
				C195,35.4,193.8,32.8,193.8,29.1z"/>
		</g>
		<g>
			<path class="st0" d="M209.6,33.8c0.6,0,1,0,1.5-0.2c0.6-0.3,0.9-0.8,0.9-1.8V20.7c-0.1-0.8-0.4-1.6-0.9-2c-0.4-0.3-1-0.5-1.6-0.5
				v-1.2l5.4-0.4l0.2,0.2v2.7h0.1c1.3-1.4,2.6-3.2,5.6-3.2c3.2,0,4.6,2.4,4.6,6.1v9.4c0,0.8,0.3,1.4,0.9,1.7
				c0.5,0.2,0.9,0.4,1.5,0.4V35h-8v-1.2c0.6,0,1.1,0,1.6-0.2c0.6-0.3,0.9-0.8,0.9-1.8v-9.3c0-2.7-1.3-4.1-2.8-4.1
				c-2.5,0-3.9,2-4.3,2.9v10.3c0,0.8,0.3,1.4,0.9,1.7c0.5,0.3,1,0.4,1.6,0.5V35h-8L209.6,33.8L209.6,33.8z"/>
		</g>
		<g>
			<path class="st0" d="M227.8,25.9c0-5.7,3.1-9.7,7.9-9.7c4.8,0,7.8,4.1,7.8,9.4c0,5.4-2.8,9.9-8,9.9
				C231.4,35.5,227.8,31.8,227.8,25.9z M240.1,25.7c0-4-1.1-8-4.4-8c-3.6,0-4.5,4.3-4.5,7.9c0,4.5,1.3,8.4,4.5,8.4
				C238.7,34,240.1,30.2,240.1,25.7z"/>
		</g>
		<g>
			<path class="st0" d="M243.2,33.8c0.6,0,1-0.1,1.5-0.3c0.6-0.2,0.9-0.8,0.9-1.7V13c-0.1-0.9-0.4-1.8-0.9-2.2
				c-0.4-0.3-1.8-0.6-2.4-0.6V9l6.1-0.5l0.2,0.3v22.8c0,0.8,0.3,1.4,0.9,1.7c0.5,0.2,0.9,0.4,1.5,0.4V35h-7.9L243.2,33.8L243.2,33.8
				z"/>
		</g>
		<g>
			<path class="st0" d="M250.7,25.9c0-5.7,3.1-9.7,7.9-9.7c4.8,0,7.8,4.1,7.8,9.4c0,5.4-2.8,9.9-8,9.9
				C254.3,35.5,250.7,31.8,250.7,25.9z M263,25.7c0-4-1.1-8-4.4-8c-3.6,0-4.5,4.3-4.5,7.9c0,4.5,1.3,8.4,4.5,8.4
				C261.6,34,263,30.2,263,25.7z"/>
		</g>
		<g>
			<path class="st0" d="M266.5,36.9c0-2,1.4-3.7,4.8-3.8v-0.3c-1.3-0.4-3-1-3-3c0-1.8,1.5-2.4,2.6-2.9v-0.1c-2.2-0.9-3.4-2.9-3.4-5
				c0-3.3,2.7-5.5,6.1-5.5c2.3,0,4.2,1.2,4.5,1.2c1.2-1,2.1-1.2,3.5-1.2c0.8,0,1.6,0.8,1.6,1.9c0,1.1-0.5,1.9-1.5,1.9
				c-1.2,0-1.5-0.8-1.5-2.3c-1.1,0-1.5,0.3-2.1,0.6v0c0.8,1,1.3,2.5,1.3,3.5c0,3.1-2.8,5.4-5.8,5.4h-1.9c-0.5,0.3-1.2,0.5-1.2,1.4
				c0,1.7,2,1.6,3.6,1.6c1,0,3,0.1,3.8,0.2c2,0.1,4.3,1.8,4.3,4.9c0,3.2-3,6-8.5,6C268.7,41.4,266.5,39.6,266.5,36.9z M279.6,36.1
				c0-0.8-0.1-1.9-1.7-2.3c-0.8-0.1-2.2-0.3-5.3-0.3c-2.3,0.5-3.2,1.7-3.2,3.5c0,1.2,1.6,2.8,5.1,2.8
				C277.5,39.9,279.6,38.5,279.6,36.1z M276.3,21.9c0-2.2-0.8-4.2-2.9-4.2c-2.2,0-2.8,1.9-2.8,4.1c0,2.4,1.1,4.3,2.8,4.3
				C275.4,26.1,276.3,24,276.3,21.9z"/>
		</g>
		<g>
			<path class="st0" d="M285.1,38.9c0-1,0.8-2.2,1.9-2.2c0.8,0,1.8,0.3,1.8,1.9v1c1.3-0.3,3-3.5,3.5-5c-2.5-6.9-3-8.4-5.3-14.8
				c-0.4-1-1.5-1.7-2.5-1.8v-1.3h7.4v1.4c-0.8,0-1.8,0.2-1.8,0.8c0,0,0.1,0.3,0.2,0.8c0.7,2.1,2.2,6.5,3.6,10.4h0
				c1.3-3.4,2.1-5.8,3.4-9.6c0.1-0.3,0.2-0.8,0.2-1.1c0-0.8-1.7-1.3-2.2-1.4v-1.2h6.2v1.2c-0.6,0.1-2.1,1-2.5,2.2
				c-0.8,2-2.4,6.9-3.9,10.5c-2.7,6.9-4,10.9-7.6,10.9C286.4,41.5,285.1,40.7,285.1,38.9z"/>
		</g>
	</g>
</g>
</svg>
