<svg width="341" height="64" viewBox="0 0 341 64" fill="none" xmlns="http://www.w3.org/2000/svg">
<path d="M3.64706 49.551L2.01548 51.9372H0.287926L0 39.8157H1.1517C3.16718 45.3515 6.23839 50.5055 12.1889 50.5055C16.5077 50.5055 18.6192 47.833 18.6192 44.0152C18.6192 40.8656 16.9876 38.4795 13.9164 37.1432C11.2291 35.9979 9.3096 35.2343 6.62229 33.9936C3.07121 32.371 0.863777 29.4122 0.863777 24.9263C0.863777 19.3905 5.18266 15.3818 10.8452 15.3818C13.3406 15.3818 16.4118 16.4317 18.1393 17.8634L19.6749 15.5727H21.4025L21.6904 27.3124H20.5387C18.6192 21.3949 16.3158 16.909 9.98142 16.909C8.5418 16.909 5.08669 18.1497 5.08669 22.2539C5.08669 25.4035 6.43034 27.217 9.40557 28.935C11.805 30.3667 14.2043 30.9393 16.3158 31.9892C20.1548 33.8981 23.0341 35.9979 23.0341 41.3428C23.0341 47.6421 18.3313 52.128 11.9009 52.128C7.96594 52.128 5.08669 50.7918 3.64706 49.551Z" fill="#C72326"/>
<path d="M24.3777 39.6249C24.3777 33.2301 28.4086 27.3125 35.0309 27.3125C39.8297 27.3125 42.3251 30.1758 42.3251 33.3255C42.3251 35.0435 41.3653 36.1889 39.7337 36.1889C38.774 36.1889 36.9504 35.6162 36.9504 33.6118C36.9504 31.4166 37.5263 31.4166 37.5263 30.3667C37.2384 28.8396 36.5665 28.4578 34.935 28.4578C32.1517 28.4578 29.4644 31.2257 29.4644 39.0522C29.4644 45.3515 31.7678 49.6466 35.7028 49.6466C38.8699 49.6466 40.8854 48.024 42.3251 45.0652L43.3808 45.8288C41.6532 49.2648 38.2941 52.0327 34.5511 52.0327C27.8328 52.0327 24.3777 46.7832 24.3777 39.6249Z" fill="#C72326"/>
<path d="M46.2601 18.2451C46.2601 16.5271 47.6038 15 49.3314 15C51.2509 15 52.4985 16.4317 52.4985 18.0542C52.4985 19.8677 51.1549 21.3948 49.3314 21.3948C47.6038 21.3948 46.2601 19.9631 46.2601 18.2451ZM44.0527 50.41C44.9165 50.3145 45.5883 50.2191 46.1642 50.0282C47.0279 49.7419 47.4119 48.692 47.4119 47.7375V32.8482C47.3159 31.7983 46.932 30.8438 46.1642 30.2711C45.5883 29.8894 44.1487 29.3167 43.2849 29.3167V28.3623L51.7307 27.7896L52.0187 28.1714V47.5466C52.0187 48.5965 52.4985 49.551 53.2663 49.9328C54.0341 50.3145 54.8019 50.5054 55.3778 50.6009V51.6508H44.0527V50.41Z" fill="#C72326"/>
<path d="M69.2941 36.4752C69.2941 32.7528 68.5263 28.4578 65.2632 28.4578C62.4799 28.4578 60.4644 31.703 60.2725 36.5706L69.2941 36.4752ZM55.2817 39.5294C55.2817 33.3255 59.0248 27.3125 65.3591 27.3125C71.8855 27.3125 74.2848 31.9893 74.2848 37.2387V37.716H60.2725V38.2886C60.2725 44.9698 62.192 49.742 67.0867 49.742C70.5418 49.742 71.8855 48.3103 73.613 45.1607L74.5728 45.8288C72.9412 49.5511 69.774 52.1281 65.743 52.1281C58.5449 52.0327 55.2817 46.4014 55.2817 39.5294Z" fill="#C72326"/>
<path d="M74.4769 50.4101C75.3407 50.3147 76.0125 50.2192 76.5883 50.0283C77.4521 49.742 77.836 48.883 77.836 47.7377V32.8483C77.74 31.7984 77.3561 30.6531 76.5883 30.0804C76.1085 29.6986 75.0527 29.3168 74.189 29.2214V28.2669L82.1549 27.6943L82.5388 28.0761V31.6075C84.3623 29.6986 86.0899 27.3125 90.0249 27.3125C94.3438 27.3125 96.3592 30.5576 96.3592 35.5207V47.4513C96.3592 48.5967 96.7431 49.3602 97.5109 49.742C98.1828 50.0283 98.7586 50.2192 99.7184 50.3147V51.3646H88.3933V50.3147C89.1611 50.2192 90.0249 50.1238 90.6007 49.9329C91.4645 49.6466 91.8484 48.7876 91.8484 47.6422V35.4253C91.8484 31.8938 90.1209 29.8895 88.1054 29.8895C84.8422 29.8895 83.0187 32.0847 82.6348 33.2301V47.4513C82.6348 48.5967 83.0187 49.3602 83.7865 49.742C84.3623 50.1238 85.2261 50.3147 85.9939 50.4101V51.46H74.4769V50.4101Z" fill="#C72326"/>
<path d="M98.9504 39.6249C98.9504 33.2301 102.981 27.3125 109.604 27.3125C114.402 27.3125 116.898 30.1758 116.898 33.3255C116.898 35.0435 115.938 36.1889 114.306 36.1889C113.347 36.1889 111.523 35.6162 111.523 33.6118C111.523 31.4166 112.099 31.4166 112.099 30.3667C111.811 28.8396 111.139 28.4578 109.508 28.4578C106.724 28.4578 104.037 31.2257 104.037 39.0522C104.037 45.3515 106.341 49.6466 110.276 49.6466C113.443 49.6466 115.458 48.024 116.898 45.0652L117.954 45.8288C116.226 49.2648 112.867 52.0327 109.124 52.0327C102.406 52.0327 98.9504 46.7832 98.9504 39.6249Z" fill="#C72326"/>
<path d="M132.062 36.4752C132.062 32.7528 131.294 28.4578 128.031 28.4578C125.248 28.4578 123.232 31.703 123.04 36.5706L132.062 36.4752ZM118.05 39.5294C118.05 33.3255 121.793 27.3125 128.127 27.3125C134.653 27.3125 137.053 31.9893 137.053 37.2387V37.716H123.136V38.2886C123.136 44.9698 125.056 49.742 129.95 49.742C133.406 49.742 134.749 48.3103 136.477 45.1607L137.437 45.8288C135.805 49.5511 132.638 52.1281 128.607 52.1281C121.409 52.0327 118.05 46.4014 118.05 39.5294Z" fill="#C72326"/>
<path d="M141.563 50.1236C142.235 50.1236 143.963 50.0282 144.443 49.7418C145.402 49.2646 145.69 48.5965 145.69 47.6421V25.6898C145.69 24.7353 145.402 24.0672 144.443 23.59C143.771 23.2082 142.331 22.9219 141.563 22.8264V21.2993H153.848V22.9219C153.176 22.9219 151.737 23.1128 150.969 23.3991C150.009 23.7809 149.721 24.5444 149.721 25.4989V47.4512C149.721 48.4056 150.009 49.1692 150.969 49.5509C151.545 49.8373 153.081 50.1236 153.848 50.1236V51.6507H141.563V50.1236Z" fill="black"/>
<path d="M154.808 50.3147C155.48 50.3147 155.96 50.2192 156.44 50.0283C157.207 49.742 157.495 49.0739 157.495 48.1194V35.5207C157.495 34.6617 157.111 33.8982 156.44 33.421C155.96 33.1346 155.192 32.8483 154.52 32.7528V31.4166L160.662 30.9394L160.95 31.2257V34.28H161.046C162.486 32.6574 163.926 30.5576 167.189 30.5576C169.588 30.5576 171.316 32.1802 171.988 34.3754C173.523 32.6574 174.963 30.5576 178.226 30.5576C181.777 30.5576 183.217 33.5164 183.217 37.6205V47.9286C183.217 48.883 183.505 49.5511 184.176 49.8374C184.752 50.1238 185.328 50.2192 186 50.2192V51.5554H177.074V50.3147C177.746 50.3147 178.13 50.3147 178.706 50.0283C179.474 49.742 179.762 49.0739 179.762 48.1194V37.6205C179.762 34.6617 178.418 33.1346 176.69 33.1346C173.907 33.1346 172.467 35.6162 172.179 36.3797V47.9286C172.179 48.883 172.467 49.5511 173.235 49.8374C173.715 50.0283 174.291 50.2192 174.963 50.2192V51.5554H166.037V50.3147C166.709 50.3147 167.093 50.3147 167.573 50.0283C168.244 49.742 168.628 49.0739 168.628 48.1194V37.6205C168.628 34.6617 167.189 33.1346 165.557 33.1346C162.87 33.1346 161.43 35.5207 160.95 36.3797V47.8331C160.95 48.7876 161.334 49.4557 162.006 49.742C162.582 50.0283 163.062 50.1238 163.734 50.2192V51.5554H154.808V50.3147V50.3147Z" fill="black"/>
<path d="M186.192 50.3147C186.864 50.3147 187.344 50.2192 187.824 50.0283C188.591 49.742 188.879 49.0739 188.879 48.1194V35.5207C188.879 34.6617 188.495 33.8982 187.824 33.421C187.344 33.1346 186.576 32.8483 185.904 32.7528V31.4166L192.046 30.9394L192.334 31.2257V34.28H192.43C193.87 32.6574 195.31 30.5576 198.573 30.5576C200.972 30.5576 202.7 32.1802 203.372 34.3754C204.907 32.6574 206.347 30.5576 209.61 30.5576C213.161 30.5576 214.601 33.5164 214.601 37.6205V47.9286C214.601 48.883 214.889 49.5511 215.56 49.8374C216.136 50.1238 216.712 50.2192 217.384 50.2192V51.5554H208.458V50.3147C209.13 50.3147 209.514 50.3147 210.09 50.0283C210.858 49.742 211.146 49.0739 211.146 48.1194V37.6205C211.146 34.6617 209.802 33.1346 208.074 33.1346C205.291 33.1346 203.851 35.6162 203.564 36.3797V47.9286C203.564 48.883 203.851 49.5511 204.619 49.8374C205.099 50.0283 205.675 50.2192 206.347 50.2192V51.5554H197.517V50.3147C198.189 50.3147 198.573 50.3147 199.053 50.0283C199.724 49.742 200.108 49.0739 200.108 48.1194V37.6205C200.108 34.6617 198.669 33.1346 197.037 33.1346C194.35 33.1346 192.91 35.5207 192.43 36.3797V47.8331C192.43 48.7876 192.814 49.4557 193.486 49.742C194.062 50.0283 194.542 50.1238 195.214 50.2192V51.5554H186.192V50.3147Z" fill="black"/>
<path d="M219.111 45.0653V35.5208C219.015 34.3755 218.728 33.8028 218.056 33.3256C217.576 32.9438 216.808 32.7529 216.136 32.7529V31.4167L222.375 30.9395L222.663 31.2258V45.3516C222.663 48.3104 224.102 49.8375 225.734 49.8375C228.517 49.8375 229.861 47.4514 230.437 46.4969V35.4254C230.341 34.5664 230.053 33.7073 229.381 33.2301C228.901 32.8483 227.941 32.8483 226.885 32.8483V31.5121L233.604 31.0349L233.892 31.3212V47.4514C233.988 48.3104 234.276 49.0739 234.947 49.5512C235.427 49.9329 236.099 49.9329 236.771 49.9329V51.2692L230.724 51.7464L230.437 51.3646V48.6922H230.341C228.901 50.3147 227.461 52.1282 224.102 52.1282C220.455 52.2236 219.111 49.1694 219.111 45.0653Z" fill="black"/>
<path d="M236.963 50.3144C237.635 50.3144 238.115 50.3144 238.595 50.0281C239.362 49.7418 239.65 49.0737 239.65 48.0238V35.616C239.554 34.6615 239.266 33.8025 238.595 33.3253C238.115 32.9435 237.443 32.8481 236.771 32.7526V31.4164L242.913 30.9392L243.105 31.2255V34.2797H243.201C244.641 32.7526 246.177 30.6528 249.44 30.6528C252.991 30.6528 254.622 33.3253 254.622 37.5248V48.0238C254.622 48.9782 254.91 49.6463 255.678 49.9327C256.254 50.219 256.734 50.3144 257.406 50.4099V51.7461H248.288V50.3144C248.96 50.3144 249.536 50.3144 250.112 50.0281C250.879 49.7418 251.167 49.0737 251.167 48.0238V37.7157C251.167 34.757 249.632 33.1344 248 33.1344C245.217 33.1344 243.585 35.4251 243.201 36.3795V47.9283C243.201 48.8828 243.585 49.4554 244.257 49.8372C244.833 50.1235 245.409 50.3144 246.081 50.3144V51.6507H236.963V50.3144V50.3144Z" fill="black"/>
<path d="M257.598 41.5335C257.598 35.1387 261.149 30.6528 266.523 30.6528C271.898 30.6528 275.257 35.2342 275.257 41.2472C275.257 47.3557 272.09 52.3188 266.235 52.3188C261.725 52.2233 257.598 48.1192 257.598 41.5335ZM271.418 41.2472C271.418 36.7613 270.17 32.2754 266.427 32.2754C262.396 32.2754 261.341 37.0476 261.341 41.2472C261.341 46.3058 262.78 50.6962 266.427 50.6962C269.978 50.6008 271.418 46.4012 271.418 41.2472Z" fill="black"/>
<path d="M274.969 50.3144C275.641 50.3144 276.121 50.2189 276.697 50.028C277.464 49.7417 277.752 49.169 277.752 48.1191V26.9304C277.656 25.976 277.272 24.9261 276.697 24.4488C276.313 24.0671 274.681 23.7807 274.009 23.6853V22.4445L280.92 21.9673L281.207 22.3491V47.9282C281.207 48.8827 281.495 49.5508 282.263 49.9326C282.839 50.2189 283.319 50.3144 283.991 50.4098V51.746H275.065V50.3144H274.969Z" fill="black"/>
<path d="M283.511 41.5335C283.511 35.1387 287.062 30.6528 292.436 30.6528C297.811 30.6528 301.17 35.2342 301.17 41.2472C301.17 47.3557 298.003 52.3188 292.149 52.3188C287.542 52.2233 283.511 48.1192 283.511 41.5335ZM297.331 41.2472C297.331 36.7613 296.084 32.2754 292.34 32.2754C288.31 32.2754 287.254 37.0476 287.254 41.2472C287.254 46.3058 288.693 50.6962 292.34 50.6962C295.796 50.6008 297.331 46.4012 297.331 41.2472Z" fill="black"/>
<path d="M301.362 53.8459C301.362 51.5552 302.994 49.7417 306.737 49.5508V49.1691C305.297 48.7873 303.378 48.0237 303.378 45.8285C303.378 43.8242 305.009 43.0606 306.353 42.5834V42.3925C303.858 41.3426 302.418 39.1474 302.418 36.6658C302.418 32.9435 305.489 30.4619 309.232 30.4619C311.92 30.4619 314.031 31.7981 314.415 31.7981C315.855 30.7482 316.718 30.4619 318.35 30.4619C319.214 30.4619 320.173 31.4164 320.173 32.5617C320.173 33.8025 319.598 34.7569 318.542 34.7569C317.198 34.7569 316.91 33.8025 316.91 32.1799C315.663 32.1799 315.183 32.4663 314.607 32.9435C315.471 33.9934 316.047 35.7114 316.047 36.9522C316.047 40.4836 312.879 43.0606 309.52 43.0606H307.313C306.737 43.3469 305.969 43.6333 305.969 44.5877C305.969 46.4966 308.273 46.3057 310.096 46.4012C311.248 46.4012 313.551 46.4966 314.415 46.5921C316.718 46.783 319.31 48.5964 319.31 52.0324C319.31 55.6593 315.951 58.7135 309.712 58.7135C303.858 58.9044 301.362 56.9001 301.362 53.8459ZM316.142 52.9869C316.142 52.1279 315.951 50.8871 314.223 50.4098C313.359 50.3144 311.728 50.1235 308.273 50.1235C305.681 50.6962 304.625 52.0324 304.625 54.1322C304.625 55.4684 306.449 57.3773 310.384 57.3773C313.743 57.2819 316.142 55.6593 316.142 52.9869ZM312.399 36.9522C312.399 34.4706 311.536 32.1799 309.136 32.1799C306.641 32.1799 305.969 34.2797 305.969 36.7613C305.969 39.5292 307.217 41.6289 309.136 41.6289C311.44 41.6289 312.399 39.4337 312.399 36.9522Z" fill="black"/>
<path d="M322.381 56.0412C322.381 54.8958 323.244 53.5596 324.588 53.5596C325.452 53.5596 326.603 53.9414 326.603 55.6594V56.8047C328.139 56.423 329.963 52.8915 330.538 51.1735C327.659 43.4425 327.179 41.7245 324.492 34.5661C324.108 33.4208 322.764 32.6572 321.613 32.5618V31.1301H330.059V32.6572C329.195 32.6572 327.947 32.8481 327.947 33.5162C327.947 33.5162 328.043 33.898 328.139 34.3752C328.907 36.7613 330.634 41.629 332.266 46.0195C333.706 42.2017 334.569 39.4338 336.105 35.2342C336.201 34.8525 336.393 34.3752 336.393 33.9935C336.393 33.1345 334.473 32.5618 333.898 32.3709V31.0347H340.904V32.3709C340.136 32.5618 338.6 33.5162 338.025 34.8525C337.161 37.1431 335.241 42.5835 333.706 46.6876C330.634 54.4186 329.195 58.9045 325.068 58.9045C323.82 59 322.381 58.0455 322.381 56.0412Z" fill="black"/>
</svg>
