<svg width="299" height="64" viewBox="0 0 299 64" fill="none" xmlns="http://www.w3.org/2000/svg">
<path d="M3.59539 49.4277L2.04062 51.8386H0.291518L0 39.7841H1.16607C3.20669 45.2809 6.21905 50.4885 12.2437 50.4885C16.5193 50.4885 18.6571 47.8847 18.6571 44.0273C18.6571 40.8449 17.1024 38.5304 13.8957 37.1803C11.1748 36.0231 9.32857 35.348 6.60773 34.0943C3.10952 32.3585 0.971726 29.4654 0.971726 24.9329C0.971726 19.4361 5.24732 15.3857 10.9805 15.3857C13.4098 15.3857 16.5193 16.4465 18.2684 17.8931L19.726 15.5786H21.378L21.6695 27.3438H20.5034C18.56 21.4612 16.2278 16.9287 9.9116 16.9287C8.55119 16.9287 5.05297 18.1824 5.05297 22.2327C5.05297 25.4151 6.41339 27.1509 9.32857 28.8868C11.6607 30.2369 14.09 30.9119 16.2278 31.9727C20.1147 33.9015 23.0299 36.0231 23.0299 41.327C23.0299 47.5954 18.2684 52.0314 11.8551 52.0314C7.87098 52.0314 5.05297 50.6813 3.59539 49.4277Z" fill="#C72326"/>
<path d="M24.3904 39.5911C24.3904 33.2263 28.4716 27.3438 34.9822 27.3438C39.8408 27.3438 42.2701 30.1404 42.2701 33.3228C42.2701 35.0586 41.2984 36.2159 39.6465 36.2159C38.6747 36.2159 36.8285 35.6372 36.8285 33.6121C36.8285 31.4905 37.4115 31.3941 37.4115 30.4297C37.12 28.8867 36.4398 28.5974 34.885 28.5974C32.067 28.5974 29.4434 31.2976 29.4434 39.1089C29.4434 45.3773 31.6783 49.7169 35.7596 49.7169C38.9663 49.7169 40.9097 48.0775 42.3673 45.088L43.4362 45.8595C41.6871 49.2347 38.3832 52.0314 34.6907 52.0314C27.7914 51.9349 24.3904 46.631 24.3904 39.5911Z" fill="#C72326"/>
<path d="M46.1569 18.2788C46.1569 16.543 47.6145 15 49.2664 15C51.2098 15 52.4731 16.3501 52.4731 18.086C52.4731 19.9182 51.1127 21.4612 49.2664 21.4612C47.6145 21.3648 46.1569 19.9182 46.1569 18.2788ZM43.9219 50.2956C44.6993 50.1992 45.3795 50.1027 46.0597 49.9099C46.9343 49.6205 47.3229 48.6562 47.3229 47.5954V32.7442C47.2258 31.6834 46.8371 30.7191 46.0597 30.1405C45.4767 29.7547 44.0191 29.1761 43.2417 29.1761V28.2117L51.6957 27.6331L51.9872 28.0189V47.3061C51.9872 48.3669 52.4731 49.2348 53.2505 49.717C53.9307 50.1027 54.8052 50.2956 55.3883 50.2956V51.3564H43.9219V50.2956Z" fill="#C72326"/>
<path d="M69.1869 36.4085C69.1869 32.6475 68.5067 28.5007 65.2029 28.5007C62.3849 28.5007 60.3442 31.6831 60.2471 36.6014L69.1869 36.4085ZM55.1941 39.398C55.1941 33.2261 58.8866 27.2471 65.2029 27.2471C71.7134 27.2471 74.1428 31.876 74.1428 37.18V37.6622H60.2471V38.2408C60.2471 44.8949 62.1905 49.6202 67.0491 49.6202C70.5474 49.6202 71.8106 48.1737 73.5597 44.9913L74.5314 45.5699C72.8795 49.2345 69.6728 51.8383 65.7859 51.8383C58.498 51.9347 55.1941 46.245 55.1941 39.398Z" fill="#C72326"/>
<path d="M74.4341 50.2953C75.2115 50.1989 75.8917 50.1024 76.5719 49.9095C77.4464 49.6202 77.8351 48.7523 77.8351 47.5951V32.7439C77.738 31.6831 77.3493 30.6223 76.5719 30.0437C76.086 29.658 75.0171 29.2722 74.2397 29.1758V28.2114L82.1107 27.6328L82.4994 28.0186V31.4903H82.5966C84.4429 29.5615 86.192 27.2471 90.0789 27.2471C94.3545 27.2471 96.3951 30.5259 96.3951 35.4441V47.4022C96.3951 48.5594 96.7838 49.3309 97.5612 49.7167C98.2414 50.006 98.8244 50.1989 99.699 50.2953V51.3561H88.2326V50.2953C89.01 50.1989 89.7874 50.1024 90.3704 49.9095C91.2449 49.6202 91.6336 48.7523 91.6336 47.5951V35.3477C91.6336 31.7796 89.8845 29.8508 87.9411 29.8508C84.7344 29.8508 82.8881 31.9724 82.4022 33.2261V47.3058C82.4022 48.463 82.7909 49.2345 83.5683 49.6202C84.1513 50.006 85.0259 50.1989 85.7061 50.1989V51.2596H74.4341V50.2953Z" fill="#C72326"/>
<path d="M98.8245 39.5911C98.8245 33.2263 102.906 27.3438 109.416 27.3438C114.275 27.3438 116.704 30.1404 116.704 33.3228C116.704 35.0586 115.732 36.2159 114.081 36.2159C113.109 36.2159 111.263 35.6372 111.263 33.6121C111.263 31.4905 111.846 31.3941 111.846 30.4297C111.554 28.8867 110.874 28.5974 109.319 28.5974C106.501 28.5974 103.877 31.2976 103.877 39.1089C103.877 45.3773 106.112 49.7169 110.194 49.7169C113.4 49.7169 115.344 48.0775 116.801 45.088L117.87 45.8595C116.121 49.2347 112.817 52.0314 109.125 52.0314C102.226 51.9349 98.8245 46.631 98.8245 39.5911Z" fill="#C72326"/>
<path d="M131.863 36.4085C131.863 32.6475 131.183 28.5007 127.879 28.5007C125.061 28.5007 123.021 31.6831 122.923 36.6014L131.863 36.4085ZM117.87 39.398C117.87 33.2261 121.563 27.2471 127.879 27.2471C134.39 27.2471 136.819 31.876 136.819 37.18V37.6622H122.923V38.2408C122.923 44.8949 124.867 49.6202 129.725 49.6202C133.224 49.6202 134.487 48.1737 136.236 44.9913L137.208 45.5699C135.556 49.2345 132.349 51.8383 128.462 51.8383C121.271 51.9347 117.87 46.245 117.87 39.398Z" fill="#C72326"/>
<path d="M145.856 49.5243L144.496 51.5495H143.038L142.844 41.4237H143.815C145.565 46.0526 148.188 50.3922 153.241 50.3922C156.934 50.3922 158.683 48.1742 158.683 44.8954C158.683 42.2916 157.322 40.2665 154.699 39.1092C152.464 38.1449 150.812 37.5662 148.48 36.5055C145.467 35.1553 143.621 32.648 143.621 28.887C143.621 24.2581 147.314 20.8828 152.075 20.8828C154.213 20.8828 156.837 21.7507 158.294 23.0044L159.557 21.0757H161.015L161.209 30.9122H160.238C158.586 25.9939 156.642 22.2329 151.201 22.2329C150.035 22.2329 147.022 23.2937 147.022 26.669C147.022 29.2727 148.188 30.8157 150.715 32.2623C152.755 33.4195 154.796 33.9981 156.545 34.866C159.849 36.5055 162.278 38.2413 162.278 42.7738C162.278 48.0778 158.294 51.8388 152.755 51.8388C149.549 51.7424 147.119 50.5851 145.856 49.5243Z" fill="black"/>
<path d="M164.416 50.2956C165.096 50.2956 165.679 50.1991 166.165 50.0063C166.943 49.717 167.234 48.9455 167.234 48.0775V35.5409C167.137 34.6729 166.748 33.805 166.165 33.3228C165.679 32.9371 164.416 32.5513 163.736 32.4549V31.587L170.927 31.1048L171.218 31.3941V47.7882C171.218 48.6562 171.607 49.4276 172.287 49.8134C172.87 50.1027 173.647 50.2956 174.036 50.2956V51.1635H164.319V50.2956H164.416ZM166.359 22.3291C166.359 20.8826 167.526 19.6289 168.983 19.6289C170.635 19.6289 171.704 20.7861 171.704 22.2327C171.704 23.7757 170.538 25.0293 168.983 25.0293C167.526 24.9329 166.359 23.6792 166.359 22.3291Z" fill="black"/>
<path d="M174.23 55.6962C174.23 53.2853 176.368 51.1637 180.45 51.0672V50.6815C178.895 50.1993 176.174 49.3314 176.174 46.8241C176.174 44.7025 178.506 43.8345 179.769 43.3524V43.0631C176.854 41.9058 175.202 39.8807 175.202 37.2769C175.202 33.323 178.409 30.9121 182.393 30.9121C185.114 30.9121 187.446 32.2622 188.029 32.2622C189.487 31.2979 190.361 30.9121 192.11 30.9121C193.082 30.9121 194.054 31.78 194.054 33.0337C194.054 34.2874 193.373 35.1553 192.305 35.1553C190.847 35.1553 190.458 34.1909 190.458 32.3587C189.292 32.3587 188.709 32.5515 188.126 33.0337V33.4194C189.001 34.5767 189.584 36.2161 189.584 37.5662C189.584 41.3272 185.988 43.7381 182.782 43.7381H180.547C179.866 44.1238 179.283 44.606 179.283 45.5704C179.283 47.692 181.713 47.5955 183.462 47.692C184.628 47.692 187.154 47.8849 187.932 47.9813C190.264 48.0777 192.985 50.1993 192.985 53.8639C192.985 57.8178 189.584 60.9037 182.879 60.9037C176.757 61.0002 174.23 58.975 174.23 55.6962ZM189.487 54.7318C189.487 53.7675 189.292 52.3209 187.543 51.6459C186.766 51.5494 184.919 51.3566 181.421 51.3566C178.798 51.9352 177.923 53.2853 177.923 55.8891C177.923 57.6249 179.478 59.8429 183.656 59.8429C187.349 59.8429 189.487 58.1071 189.487 54.7318ZM185.502 37.3733C185.502 34.4802 184.628 31.8765 182.393 31.8765C180.061 31.8765 179.381 34.3838 179.381 37.2769C179.381 40.3628 180.644 42.6773 182.49 42.6773C184.531 42.6773 185.502 40.17 185.502 37.3733Z" fill="black"/>
<path d="M195.025 50.2958C195.706 50.2958 196.289 50.1993 196.775 50.0064C197.552 49.7171 197.843 49.0421 197.843 48.0777V35.541C197.746 34.6731 197.358 33.7088 196.775 33.2266C196.289 32.8408 195.414 32.5515 194.734 32.5515V31.6836L201.439 31.2014L201.73 31.4907V34.4802C203.285 32.8408 204.743 30.9121 208.144 30.9121C211.836 30.9121 213.488 33.6123 213.488 37.7591V47.7884C213.488 48.7528 213.78 49.4278 214.46 49.7171C215.043 50.0064 215.529 50.1993 216.306 50.1993V51.0672H206.589V50.1993C207.269 50.1993 207.949 50.1029 208.435 49.91C209.213 49.6207 209.504 48.9457 209.504 47.9813V37.6626C209.504 34.6731 208.047 33.0337 206.395 33.0337C203.674 33.0337 202.119 34.866 201.73 35.8303V47.7884C201.73 48.7528 202.119 49.4278 202.702 49.7171C203.188 50.0064 203.965 50.1993 204.548 50.1993V51.0672H194.831V50.2958H195.025Z" fill="black"/>
<path d="M217.181 47.0169C217.181 43.4488 219.124 42.1951 221.068 41.4236C223.4 40.4593 226.023 39.7842 227.772 38.7234V36.3125C227.772 35.541 227.675 31.8765 224.469 31.8765C223.108 31.8765 222.622 32.8408 222.234 33.323C222.234 33.9981 222.622 34.9624 222.622 35.9268C222.622 37.084 221.359 37.8555 219.999 37.8555C218.735 37.8555 218.152 36.7947 218.152 35.541C218.152 32.9373 221.651 30.9121 224.76 30.9121C228.744 30.9121 231.757 31.5872 231.757 37.3733C231.757 41.2308 231.562 45.6668 231.562 47.1134C231.562 47.8849 232.242 49.3314 233.408 49.3314C234.575 49.3314 234.769 47.5955 234.866 45.9561H235.838C235.643 50.0064 233.992 51.5494 231.465 51.5494C229.619 51.5494 228.453 50.6815 227.87 48.6563H227.772C226.315 50.4886 224.274 51.6459 221.942 51.6459C219.027 51.6459 217.181 49.8136 217.181 47.0169ZM227.578 47.5955L227.772 39.9771C223.983 41.3272 221.359 42.5809 221.359 46.4383C221.359 48.5599 222.331 49.7171 223.983 49.7171C225.926 49.6207 226.606 48.8492 227.578 47.5955Z" fill="black"/>
<path d="M235.838 50.2953C236.518 50.2953 237.198 50.1989 237.684 50.006C238.462 49.7167 238.753 49.0417 238.753 48.0773V23.3897C238.753 22.4253 238.364 21.3645 237.684 20.8823C237.198 20.4966 235.644 20.0144 234.963 20.0144V19.2429L242.446 18.7607L242.737 19.0501V47.788C242.737 48.7524 243.126 49.4274 243.806 49.8132C244.389 50.1025 244.875 50.2953 245.555 50.2953V51.1633H235.838V50.2953Z" fill="black"/>
<path d="M247.11 50.2956C247.79 50.2956 248.373 50.1991 248.859 50.0063C249.636 49.717 249.928 48.9455 249.928 48.0775V35.5409C249.831 34.6729 249.442 33.805 248.859 33.3228C248.373 32.9371 247.11 32.5513 246.43 32.4549V31.587L253.62 31.1048L253.912 31.3941V47.7882C253.912 48.6562 254.301 49.4276 254.981 49.8134C255.564 50.1027 256.341 50.2956 256.73 50.2956V51.1635H247.013V50.2956H247.11ZM248.956 22.3291C248.956 20.8826 250.122 19.6289 251.58 19.6289C253.232 19.6289 254.301 20.7861 254.301 22.2327C254.301 23.7757 253.135 25.0293 251.58 25.0293C250.122 24.9329 248.956 23.6792 248.956 22.3291Z" fill="black"/>
<path d="M258.188 50.2958C258.868 50.2958 259.451 50.1993 259.937 50.0064C260.714 49.7171 261.006 49.0421 261.006 48.0777V35.541C260.908 34.6731 260.52 33.7088 259.937 33.2266C259.451 32.8408 258.576 32.5515 257.896 32.5515V31.6836L264.601 31.2014L264.892 31.4907V34.4802C266.447 32.8408 267.905 30.9121 271.306 30.9121C274.998 30.9121 276.65 33.6123 276.65 37.7591V47.7884C276.65 48.7528 276.942 49.4278 277.622 49.7171C278.205 50.0064 278.691 50.1993 279.468 50.1993V51.0672H269.751V50.1993C270.431 50.1993 271.111 50.1029 271.597 49.91C272.375 49.6207 272.666 48.9457 272.666 47.9813V37.6626C272.666 34.6731 271.209 33.0337 269.557 33.0337C266.836 33.0337 265.281 34.866 264.892 35.8303V47.7884C264.892 48.7528 265.281 49.4278 265.864 49.7171C266.35 50.0064 267.127 50.1993 267.71 50.1993V51.0672H257.993V50.2958H258.188Z" fill="black"/>
<path d="M279.177 55.6962C279.177 53.2853 281.315 51.1637 285.396 51.0672V50.6815C283.841 50.1993 281.12 49.3314 281.12 46.8241C281.12 44.7025 283.452 43.8345 284.716 43.3524V43.0631C281.8 41.9058 280.148 39.8807 280.148 37.2769C280.148 33.323 283.355 30.9121 287.339 30.9121C290.06 30.9121 292.392 32.2622 292.975 32.2622C294.433 31.2979 295.307 30.9121 297.057 30.9121C298.028 30.9121 299 31.78 299 33.0337C299 34.2874 298.32 35.1553 297.251 35.1553C295.793 35.1553 295.405 34.1909 295.405 32.3587C294.239 32.3587 293.655 32.5515 293.072 33.0337V33.4194C293.947 34.5767 294.53 36.2161 294.53 37.5662C294.53 41.3272 290.935 43.7381 287.728 43.7381H285.493C284.813 44.1238 284.23 44.606 284.23 45.5704C284.23 47.692 286.659 47.5955 288.408 47.692C289.574 47.692 292.101 47.8849 292.878 47.9813C295.21 48.0777 297.931 50.1993 297.931 53.8639C297.931 57.8178 294.53 60.9037 287.825 60.9037C281.703 61.0002 279.177 58.975 279.177 55.6962ZM294.433 54.7318C294.433 53.7675 294.239 52.3209 292.489 51.6459C291.712 51.5494 289.866 51.3566 286.368 51.3566C283.744 51.9352 282.869 53.2853 282.869 55.8891C282.869 57.6249 284.424 59.8429 288.603 59.8429C292.295 59.8429 294.433 58.1071 294.433 54.7318ZM290.449 37.3733C290.449 34.4802 289.574 31.8765 287.339 31.8765C285.007 31.8765 284.327 34.3838 284.327 37.2769C284.327 40.3628 285.59 42.6773 287.436 42.6773C289.477 42.6773 290.449 40.17 290.449 37.3733Z" fill="black"/>
</svg>
