<svg xmlns="http://www.w3.org/2000/svg" width="173" height="16" viewBox="0 0 173 16"><title>logo-bmc-strapline-white</title><g><path d="M0,12V.23H3A4.34,4.34,0,0,1,6,1.31a3.41,3.41,0,0,1,1,2.48A3.42,3.42,0,0,1,6,6.27,4.38,4.38,0,0,1,3,7.34H1.51V12Zm1.51-5.9H3a2.84,2.84,0,0,0,1.87-.58,2.05,2.05,0,0,0,.71-1.69A2.05,2.05,0,0,0,4.87,2.1,2.8,2.8,0,0,0,3,1.51H1.51Z" fill="#fff"/><path d="M14.43,4.72v-1h1.33V12H14.43v-1a3.87,3.87,0,0,1-2.9,1.28A4.26,4.26,0,0,1,7.76,10a4.52,4.52,0,0,1-.56-2.2,4.47,4.47,0,0,1,.56-2.19A4.14,4.14,0,0,1,9.31,4a4.25,4.25,0,0,1,2.21-.59A3.86,3.86,0,0,1,14.43,4.72ZM8.55,7.83a3.25,3.25,0,0,0,.82,2.25,2.75,2.75,0,0,0,2.16.92,2.75,2.75,0,0,0,2.16-.92,3.25,3.25,0,0,0,.83-2.25,3.25,3.25,0,0,0-.83-2.25,2.75,2.75,0,0,0-2.16-.92,2.75,2.75,0,0,0-2.16.92A3.25,3.25,0,0,0,8.55,7.83Z" fill="#fff"/><path d="M17.15,12V3.68h1.34V4.9a2.87,2.87,0,0,1,1-1.07,2.63,2.63,0,0,1,1.32-.37,2.12,2.12,0,0,1,1.27.38l.09,1.36h-.16a2,2,0,0,0-1.41-.54,2.11,2.11,0,0,0-1.46.58,2.67,2.67,0,0,0-.7,2V12Z" fill="#fff"/><path d="M23.21,4.9V3.68H24.8V1.94l1.34-.64V3.68H28.5V4.9H26.14V10a.94.94,0,0,0,.32.77,1.18,1.18,0,0,0,.75.25,2.12,2.12,0,0,0,1.24-.48h.15l-.1,1.27a4,4,0,0,1-.78.33,2.68,2.68,0,0,1-.78.1,2.1,2.1,0,0,1-1.57-.6,2.32,2.32,0,0,1-.58-1.67v-5Z" fill="#fff"/><path d="M35.08,7.83a4.34,4.34,0,1,1,8.68,0,4.34,4.34,0,1,1-8.68,0Zm6.49,2.28a3.17,3.17,0,0,0,.85-2.28,3.17,3.17,0,0,0-.85-2.28,3,3,0,0,0-4.3,0,3.17,3.17,0,0,0-.85,2.28,3.17,3.17,0,0,0,.85,2.28,3,3,0,0,0,4.3,0Z" fill="#fff"/><path d="M44.54,4.9V3.68h1.09V2.45A2.44,2.44,0,0,1,46.29.7,2.13,2.13,0,0,1,47.9,0a2.83,2.83,0,0,1,1.39.35l0,1.29H49.2a1.62,1.62,0,0,0-1.07-.43C47.4,1.2,47,1.69,47,2.53V3.68h1.47V4.9H47V12H45.63V4.9Z" fill="#fff"/><path d="M55.86,9.12H56a6.24,6.24,0,0,0,1.37,1.31,3,3,0,0,0,1.71.5,2.31,2.31,0,0,0,1.63-.56,1.93,1.93,0,0,0,.61-1.49,1.94,1.94,0,0,0-.71-1.54,6.47,6.47,0,0,0-1.79-1.06,6.12,6.12,0,0,1-2.14-1.44,2.84,2.84,0,0,1-.79-2,2.54,2.54,0,0,1,1-2.08A3.63,3.63,0,0,1,59.25,0,4,4,0,0,1,62,.93L62,2.55h-.22A3.39,3.39,0,0,0,59.19,1.2a2.13,2.13,0,0,0-1.4.46,1.44,1.44,0,0,0-.54,1.15c0,1,.88,1.7,2.51,2.4,2,.84,3.08,1.94,3.08,3.47a3.31,3.31,0,0,1-1.06,2.51,3.72,3.72,0,0,1-2.68,1,4.61,4.61,0,0,1-3.35-1.34Z" fill="#fff"/><path d="M64.28,15.76V3.68h1.34V4.93a5,5,0,0,1,1.34-1,3.53,3.53,0,0,1,1.73-.43,4,4,0,0,1,3,1.24,4.28,4.28,0,0,1,1.22,3.14A4.51,4.51,0,0,1,71.69,11a4.17,4.17,0,0,1-2.95,1.21,4.05,4.05,0,0,1-1.82-.4,3.62,3.62,0,0,1-1.3-1v5Zm1.26-7.93a3.18,3.18,0,0,0,.86,2.24,3,3,0,0,0,4.3,0,3.16,3.16,0,0,0,.87-2.24,3.13,3.13,0,0,0-.87-2.24,3,3,0,0,0-4.3,0A3.18,3.18,0,0,0,65.54,7.83Z" fill="#fff"/><path d="M74.36,12V3.68H75.7V4.9a2.87,2.87,0,0,1,1-1.07,2.63,2.63,0,0,1,1.32-.37,2.12,2.12,0,0,1,1.27.38l.09,1.36h-.16a2,2,0,0,0-1.41-.54,2.12,2.12,0,0,0-1.46.58,2.67,2.67,0,0,0-.7,2V12Z" fill="#fff"/><path d="M81,.51a.94.94,0,0,1,1.33,1.33.93.93,0,0,1-1.33,0A1,1,0,0,1,81,.51ZM81,12V3.68h1.34V12Z" fill="#fff"/><path d="M84.19,12V3.68h1.34V4.93a3.39,3.39,0,0,1,1.23-1.06,3.46,3.46,0,0,1,1.64-.41,2.87,2.87,0,0,1,2.1.79,2.81,2.81,0,0,1,.81,2.11V12H90V6.64a1.91,1.91,0,0,0-.55-1.45A2,2,0,0,0,88,4.66a2.28,2.28,0,0,0-1.74.78,2.76,2.76,0,0,0-.7,1.92V12Z" fill="#fff"/><path d="M93.79,4.59a4.35,4.35,0,0,1,2.95-1.14A3.63,3.63,0,0,1,99.6,4.71v-1h1.34v7.53a4.94,4.94,0,0,1-1.15,3.63A4.38,4.38,0,0,1,96.55,16a5,5,0,0,1-2.61-.73l0-1.33h.21a4.58,4.58,0,0,0,1.18.63,4.25,4.25,0,0,0,1.46.22,2.92,2.92,0,0,0,2.06-.74,2.73,2.73,0,0,0,.8-2.11V10.66A3.7,3.7,0,0,1,96.65,12a4.26,4.26,0,0,1-2.91-1.13A4.29,4.29,0,0,1,92.5,7.71,4.2,4.2,0,0,1,93.79,4.59Zm0,3.12a2.86,2.86,0,0,0,2.95,3.05,3,3,0,0,0,1.62-.43,2.69,2.69,0,0,0,1-1.12,3.4,3.4,0,0,0,.33-1.5A3,3,0,0,0,95.16,5.1a2.69,2.69,0,0,0-1,1.12A3.45,3.45,0,0,0,93.84,7.71Z" fill="#fff"/><path d="M103.45,4.7a4.13,4.13,0,0,1,2.9-1.24,3.9,3.9,0,0,1,2.88,1.11,4,4,0,0,1,1.12,2.94v.67h-6.78a3.1,3.1,0,0,0,.53,1.54A2.88,2.88,0,0,0,106.53,11a4,4,0,0,0,1.58-.29,5.77,5.77,0,0,0,1.52-1h.13l0,1.47a5,5,0,0,1-3.17,1.09,4.32,4.32,0,0,1-2.21-.58A4.17,4.17,0,0,1,102.79,10a4.54,4.54,0,0,1-.56-2.22A4.52,4.52,0,0,1,103.45,4.7Zm5.69,2.37a2.79,2.79,0,0,0-.88-1.82,2.69,2.69,0,0,0-1.9-.7,2.6,2.6,0,0,0-1.73.66,3,3,0,0,0-1,1.85Z" fill="#fff"/><path d="M112,12V3.68h1.34V4.9a2.87,2.87,0,0,1,1-1.07,2.63,2.63,0,0,1,1.32-.37,2.12,2.12,0,0,1,1.27.38L117,5.2h-.16a2,2,0,0,0-1.41-.54,2.12,2.12,0,0,0-1.46.58,2.67,2.67,0,0,0-.7,2V12Z" fill="#fff"/><path d="M123.93,12V.23h.57l6.89,8.25V.23h1.51V12h-.57l-6.88-8.29V12Z" fill="#fff"/><path d="M141.34,4.72v-1h1.33V12h-1.33v-1a3.87,3.87,0,0,1-2.9,1.28A4.26,4.26,0,0,1,134.68,10a4.52,4.52,0,0,1-.56-2.2,4.46,4.46,0,0,1,.56-2.19A4.14,4.14,0,0,1,136.23,4a4.25,4.25,0,0,1,2.21-.59A3.86,3.86,0,0,1,141.34,4.72Zm-5.88,3.1a3.25,3.25,0,0,0,.82,2.25,3,3,0,0,0,4.32,0,3.25,3.25,0,0,0,.83-2.25,3.26,3.26,0,0,0-.83-2.25,3,3,0,0,0-4.32,0A3.25,3.25,0,0,0,135.46,7.83Z" fill="#fff"/><path d="M144,4.9V3.68h1.59V1.94l1.34-.64V3.68h2.36V4.9h-2.36V10a.94.94,0,0,0,.32.77A1.18,1.18,0,0,0,148,11a2.12,2.12,0,0,0,1.24-.48h.15l-.1,1.27a4,4,0,0,1-.78.33,2.68,2.68,0,0,1-.78.1,2.1,2.1,0,0,1-1.57-.6,2.32,2.32,0,0,1-.58-1.67v-5Z" fill="#fff"/><path d="M150.71,3.68h1.34V9a1.93,1.93,0,0,0,.54,1.45A2,2,0,0,0,154,11a2.24,2.24,0,0,0,1.73-.77,2.75,2.75,0,0,0,.71-1.93V3.68h1.34V12h-1.34V10.73a3.54,3.54,0,0,1-2.86,1.48,2.9,2.9,0,0,1-2.11-.79,2.87,2.87,0,0,1-.8-2.12Z" fill="#fff"/><path d="M159.39,12V3.68h1.34V4.9a2.87,2.87,0,0,1,1-1.07,2.63,2.63,0,0,1,1.32-.37,2.12,2.12,0,0,1,1.27.38l.09,1.36h-.16a2,2,0,0,0-1.41-.54,2.11,2.11,0,0,0-1.46.58,2.67,2.67,0,0,0-.7,2V12Z" fill="#fff"/><path d="M166.1,4.7A4.13,4.13,0,0,1,169,3.46a3.9,3.9,0,0,1,2.88,1.11A4,4,0,0,1,173,7.51v.67h-6.78a3.1,3.1,0,0,0,.53,1.54A2.88,2.88,0,0,0,169.18,11a4,4,0,0,0,1.58-.29,5.77,5.77,0,0,0,1.52-1h.13l0,1.47a5,5,0,0,1-3.17,1.09,4.32,4.32,0,0,1-2.21-.58A4.17,4.17,0,0,1,165.43,10a4.54,4.54,0,0,1-.56-2.22A4.52,4.52,0,0,1,166.1,4.7Zm5.69,2.37a2.79,2.79,0,0,0-.88-1.82,2.69,2.69,0,0,0-1.9-.7,2.6,2.6,0,0,0-1.73.66,3,3,0,0,0-1,1.85Z" fill="#fff"/></g></svg>