<?xml version="1.0" standalone="no"?>
<!DOCTYPE svg PUBLIC "-//W3C//DTD SVG 1.1//EN" "http://www.w3.org/Graphics/SVG/1.1/DTD/svg11.dtd" >
<svg xmlns="http://www.w3.org/2000/svg">
<metadata></metadata>
<defs>
<font id="apex_newmedium_italic" horiz-adv-x="1077" >
<font-face units-per-em="2048" ascent="1536" descent="-512" />
<missing-glyph horiz-adv-x="409" />
<glyph unicode="&#xfb01;" horiz-adv-x="1286" d="M70 829l18 142l193 53l14 125q13 108 68.5 189t143 129t192.5 71t229 23q183 0 319 -31l-24 -201q-145 33 -305 33q-368 0 -394 -215l-14 -123h676l-94 -770q-6 -43 10 -60.5t65 -17.5l-22 -186q-20 -4 -45 -4q-273 0 -238 266l70 577h-447l-163 -1341h-230l164 1341 h-186z" />
<glyph unicode="&#xfb02;" horiz-adv-x="1286" d="M70 829l18 142l193 53l14 125q13 108 68.5 189t143 129t192.5 71t229 23q183 0 319 -31l-155 -1276q-6 -43 10 -60.5t65 -17.5l-22 -186q-20 -4 -45 -4q-273 0 -238 266l135 1108q-25 2 -79 2q-368 0 -394 -215l-14 -123h289l-25 -195h-289l-163 -1341h-230l164 1341 h-186z" />
<glyph unicode="&#xfb03;" horiz-adv-x="1961" d="M70 829l18 142l193 53l24 203q21 166 128 250t310 84q96 0 166 -25l-24 -195q-61 21 -150 21q-184 0 -203 -156l-22 -182h446l15 125q13 108 68.5 189t143 129t192.5 71t229 23q183 0 319 -31l-25 -201q-145 33 -305 33q-367 0 -393 -215l-14 -123h676l-95 -770 q-6 -43 10.5 -60.5t65.5 -17.5l-22 -186q-20 -4 -45 -4q-273 0 -238 266l70 577h-447l-164 -1341h-229l164 1341h-447l-163 -1341h-230l164 1341h-186z" />
<glyph unicode="&#xfb04;" horiz-adv-x="1961" d="M70 829l18 142l193 53l24 203q21 166 128 250t310 84q96 0 166 -25l-24 -195q-61 21 -150 21q-184 0 -203 -156l-22 -182h446l15 125q13 108 68.5 189t143 129t192.5 71t229 23q183 0 319 -31l-156 -1276q-6 -43 10.5 -60.5t65.5 -17.5l-22 -186q-20 -4 -45 -4 q-273 0 -238 266l135 1108q-25 2 -80 2q-367 0 -393 -215l-14 -123h289l-25 -195h-289l-164 -1341h-229l164 1341h-447l-163 -1341h-230l164 1341h-186z" />
<glyph horiz-adv-x="0" />
<glyph horiz-adv-x="682" />
<glyph unicode=" "  horiz-adv-x="409" />
<glyph unicode="&#x09;" horiz-adv-x="409" />
<glyph unicode="&#xa0;" horiz-adv-x="409" />
<glyph unicode="!" horiz-adv-x="450" d="M29 125q0 61 43.5 105t105.5 44t106 -44t44 -105t-44 -105.5t-106 -44.5q-61 0 -105 44t-44 106zM137 430l70 1106h291l-205 -1106h-156z" />
<glyph unicode="&#x22;" horiz-adv-x="747" d="M195 1024l2 512h270l-125 -512h-147zM532 1024l3 512h270l-125 -512h-148z" />
<glyph unicode="#" horiz-adv-x="1331" d="M-2 317l80 193h198l111 260h-190l79 193h191l135 317h227l-135 -317h246l135 317h228l-136 -317h199l-80 -193h-199l-110 -260h190l-80 -193h-192l-133 -317h-227l133 317h-246l-133 -317h-228l134 317h-197zM504 510h246l110 260h-246z" />
<glyph unicode="$" horiz-adv-x="1040" d="M68 164l24 203q65 -25 165.5 -43.5t197.5 -18.5q242 0 256 127q7 61 -38 87.5t-161 35.5q-234 20 -314 80.5t-61 208.5q21 161 145 245.5t353 84.5l108 233h195l-123 -250q111 -18 158 -41l-25 -205q-156 60 -356 60q-112 0 -168.5 -28.5t-65.5 -94.5q-6 -54 40.5 -75.5 t164.5 -31.5q236 -22 316 -85.5t59 -227.5q-18 -152 -146 -239t-374 -87l-109 -231h-194l121 248q-116 17 -168 45z" />
<glyph unicode="%" horiz-adv-x="2064" d="M139 909q48 396 420 396q188 0 266.5 -99.5t53.5 -296.5q-47 -395 -418 -395q-372 0 -322 395zM348 909q-13 -117 18 -163t117 -46t131 47t58 162q13 116 -18.5 162.5t-116.5 46.5q-87 0 -131.5 -46.5t-57.5 -162.5zM412 0l1063 1280h211l-1061 -1280h-213zM1219 371 q47 395 415 395q189 0 268 -99t56 -296q-51 -396 -420 -396t-319 396zM1427 371q-15 -116 17 -162.5t117 -46.5q87 0 130 46.5t58 162.5q13 116 -19 162.5t-118 46.5q-85 0 -128.5 -46.5t-56.5 -162.5z" />
<glyph unicode="&#x26;" horiz-adv-x="1572" d="M70 514q0 182 60 324.5t164.5 230.5t239 133t291.5 45q46 0 66 -2q41 137 51 291h238q-13 -278 -122 -520t-296.5 -409.5t-423.5 -227.5q42 -95 134 -143t218 -48q96 0 173.5 22.5t138.5 69.5t94.5 128.5t33.5 191.5h-145l27 205h555l-27 -205h-170q0 -150 -51 -269.5 t-143 -196.5t-218 -118t-278 -41q-281 0 -445.5 139t-164.5 400zM313 596q164 47 287 161t203 271q-212 0 -334.5 -105.5t-155.5 -326.5z" />
<glyph unicode="'" horiz-adv-x="409" d="M195 1024l2 512h270l-125 -512h-147z" />
<glyph unicode="(" horiz-adv-x="651" d="M98 264.5q-2 160.5 19 360.5q22 184 68 357.5t102 304.5t110 226t105 158h231q-116 -143 -230 -419.5t-157 -626.5q-21 -200 -18.5 -360.5t27.5 -299.5t55 -231.5t65 -155.5h-231q-35 63 -65 155.5t-54.5 231.5t-26.5 299.5z" />
<glyph unicode=")" horiz-adv-x="651" d="M-53 -422q51 64 104.5 158.5t110.5 225.5t103.5 305t68.5 358q42 349 -4 624.5t-125 421.5h231q27 -50 51.5 -118t47 -168t35.5 -212t12 -255.5t-19 -292.5q-22 -184 -68.5 -358t-102.5 -305t-109.5 -226t-104.5 -158h-231z" />
<glyph unicode="*" horiz-adv-x="1024" d="M133 1104l121 270l248 -131l-4 293h282l-80 -293l283 131l55 -270l-297 -51l181 -211l-252 -166l-105 260l-170 -260l-211 166l232 211z" />
<glyph unicode="+" horiz-adv-x="1228" d="M166 588l27 217h350l43 350h217l-43 -350h350l-27 -217h-350l-43 -350h-217l43 350h-350z" />
<glyph unicode="," horiz-adv-x="450" d="M-59 -256l116 473h265l-220 -473h-161z" />
<glyph unicode="-" horiz-adv-x="645" d="M66 535l24 206h522l-24 -206h-522z" />
<glyph unicode="." horiz-adv-x="450" d="M29 125q0 61 43.5 105t105.5 44t106 -44t44 -105t-44 -105.5t-106 -44.5q-61 0 -105 44t-44 106z" />
<glyph unicode="/" horiz-adv-x="948" d="M-111 -410l957 2048h241l-958 -2048h-240z" />
<glyph unicode="0" horiz-adv-x="1200" d="M119 641q43 355 174 509.5t405 154.5q139 0 229.5 -38.5t139 -119.5t58.5 -206.5t-11 -299.5q-22 -178 -62.5 -300.5t-109.5 -206t-168.5 -121.5t-238.5 -38q-274 0 -367 155.5t-49 510.5zM348 641q-30 -250 15 -353.5t198 -103.5t223.5 104t100.5 353q30 246 -15 350.5 t-198 104.5t-223.5 -104.5t-100.5 -350.5z" />
<glyph unicode="1" horiz-adv-x="704" d="M94 1063l17 137l389 105h110l-159 -1305h-232l131 1071z" />
<glyph unicode="2" horiz-adv-x="1064" d="M16 0l19 154q219 155 362.5 271t222 203t110.5 148.5t40 126.5q11 99 -36.5 146t-178.5 47q-169 0 -342 -68l27 215q64 26 165.5 44t194.5 18q81 0 146 -11.5t109 -32t76.5 -48.5t48.5 -61.5t25.5 -71.5t7.5 -77t-5 -79q-9 -74 -37.5 -138.5t-73.5 -124t-127.5 -132 t-176 -143t-243.5 -175.5l590 2l-25 -213h-899z" />
<glyph unicode="3" horiz-adv-x="1196" d="M10 -211l27 219q170 -76 395 -76q358 0 389 263q17 131 -49 185t-223 54h-287l25 209h291q122 0 193 59.5t83 159.5q14 116 -55.5 174t-241.5 58q-199 0 -395 -78l28 219q66 31 183 50.5t235 19.5q279 0 396.5 -110t93.5 -310q-15 -114 -80.5 -201.5t-159.5 -130.5 q106 -29 163 -124.5t40 -233.5q-28 -223 -185 -349.5t-460 -126.5q-119 0 -229.5 19t-176.5 51z" />
<glyph unicode="4" horiz-adv-x="1226" d="M20 119l19 151l854 1035h178l-119 -971h191l-27 -215h-190l-47 -375h-226l47 375h-680zM319 330l408 4l76 588z" />
<glyph unicode="5" horiz-adv-x="1196" d="M25 -213l24 207q158 -66 371 -66q56 0 102.5 6t97 25t86.5 50t63 84.5t36 125.5q8 66 -5 112.5t-36 70.5t-67.5 37t-79.5 15.5t-93 2.5h-366l100 823h883l-27 -213h-655l-49 -405q50 6 178 6q89 0 154 -8t132 -35.5t105.5 -75t56.5 -131t4 -199.5q-11 -93 -39.5 -168 t-66 -126.5t-88.5 -89.5t-102 -60t-112.5 -35t-113 -17t-110.5 -4q-117 0 -220.5 19t-162.5 49z" />
<glyph unicode="6" horiz-adv-x="1212" d="M112.5 437.5q1.5 110.5 16.5 244.5q15 117 34 212.5t48.5 188.5t67.5 164t91 131.5t119 99.5t151.5 61t188.5 22q229 0 361 -72l-27 -215q-138 74 -342 74q-91 0 -162.5 -26t-120.5 -71.5t-84.5 -116t-56.5 -149.5t-35 -182q56 75 152 120.5t213 45.5q83 0 148 -16.5 t107.5 -44t72.5 -67.5t44.5 -82.5t20.5 -94.5t4 -96.5t-8 -96.5q-9 -74 -26.5 -136t-57.5 -131.5t-97.5 -117.5t-152.5 -79.5t-217 -31.5q-128 0 -217 30.5t-139.5 89.5t-74 145.5t-22 197zM340 471q-37 -291 244 -291q62 0 112 17t82.5 44t56 66t35 78.5t17.5 85.5 q33 293 -219 293q-294 0 -328 -293z" />
<glyph unicode="7" horiz-adv-x="1107" d="M76 -256l823 1329l-778 -4l24 211h1002l-19 -147l-780 -1389h-272z" />
<glyph unicode="8" horiz-adv-x="1196" d="M59 438q15 129 94.5 233t186.5 138q-78 41 -119 126t-28 195q25 198 156 314.5t378 116.5q126 0 216.5 -32t139.5 -91t66.5 -135.5t5.5 -172.5q-13 -110 -75 -195t-150 -126q97 -34 151 -137.5t39 -233.5q-27 -214 -176.5 -338.5t-411.5 -124.5t-381 124.5t-92 338.5z M287 365q2 -37 20.5 -71t47.5 -60.5t81 -42t121 -15.5q85 0 150 23.5t102.5 63t57.5 83.5t26 94q15 128 -53 194t-219 66q-303 0 -334 -260q-2 -38 0 -75zM426 1120q-13 -98 41.5 -163.5t177.5 -65.5t193.5 65t83.5 164q12 104 -41 172t-179 68q-127 0 -195.5 -68.5 t-80.5 -171.5z" />
<glyph unicode="9" horiz-adv-x="1212" d="M55 -209l27 215q138 -74 350 -74q114 0 196.5 38.5t134.5 114t81.5 169.5t46.5 223q-56 -75 -151 -120.5t-212 -45.5q-83 0 -148 16.5t-107.5 44t-72.5 67.5t-44.5 82.5t-20.5 94.5t-4 96.5t8 96.5q9 74 26.5 136t57.5 131.5t97.5 117.5t152.5 79.5t217 31.5 q93 0 164.5 -16t122 -45.5t84.5 -76.5t52.5 -103t24.5 -131.5t2 -154.5t-16 -180q-20 -166 -50 -292t-83 -240.5t-127 -188t-184.5 -116t-253.5 -42.5q-127 0 -225 22.5t-146 49.5zM369 809q-37 -293 217 -293q295 0 329 293q10 59 0.5 112t-33.5 93t-78 63t-134 23 q-264 0 -301 -291z" />
<glyph unicode=":" horiz-adv-x="444" d="M29 125q0 61 43.5 105t105.5 44t106 -44t44 -105t-44 -105.5t-106 -44.5q-61 0 -105 44t-44 106zM109 768q0 62 44 106t105 44q62 0 106 -44t44 -106t-44 -106t-106 -44q-61 0 -105 44t-44 106z" />
<glyph unicode=";" horiz-adv-x="450" d="M-59 -256l116 473h265l-220 -473h-161zM109 768q0 62 44 106t105 44q62 0 106 -44t44 -106t-44 -106t-106 -44q-61 0 -105 44t-44 106z" />
<glyph unicode="&#x3c;" horiz-adv-x="1228" d="M168 604l22 189l973 452l-28 -235l-691 -312l615 -311l-29 -235z" />
<glyph unicode="=" horiz-adv-x="1228" d="M143 408l27 217h917l-26 -217h-918zM188 768l27 217h918l-27 -217h-918z" />
<glyph unicode="&#x3e;" horiz-adv-x="1228" d="M113 152l28 235l688 311l-612 312l29 235l862 -452l-23 -189z" />
<glyph unicode="?" horiz-adv-x="972" d="M143 1290l27 219q55 21 153 36.5t195 15.5q106 0 188 -16t133.5 -44.5t86.5 -68t48 -87t17 -101.5t-6 -111q-7 -56 -24 -104.5t-38.5 -84t-55 -67t-64 -52.5t-76 -42.5t-80 -34.5t-86.5 -31q-33 -12 -57 -26t-40.5 -35t-26.5 -38.5t-17 -50t-10.5 -54.5t-8.5 -66 q-1 -11 -2 -17h-143q-15 94 -8 168q10 84 55 147.5t146 104.5q12 5 36 14q40 15 59.5 23t51.5 23.5t48.5 27.5t38.5 32t34 41t22.5 50.5t14.5 64.5q6 54 -3 92t-39.5 67.5t-89 43.5t-147.5 14q-87 0 -181 -15.5t-151 -37.5zM170 125q0 61 44 105t105 44q62 0 106 -44 t44 -105t-44.5 -105.5t-105.5 -44.5t-105 44t-44 106z" />
<glyph unicode="@" horiz-adv-x="1970" d="M131 512q49 400 294 600.5t669 200.5q418 0 609 -171t150 -509q-9 -76 -29 -145.5t-60.5 -141.5t-96 -124.5t-142 -86t-192.5 -33.5h-127l-26 82q-59 -47 -147 -77.5t-175 -30.5q-83 0 -149.5 27t-113.5 79.5t-67 137t-6 192.5q27 213 149 324.5t294 111.5 q87 0 168.5 -30.5t126.5 -77.5l47 82h135l-82 -666q82 0 142 30t96 86t55.5 119.5t29.5 147.5q34 272 -112 394t-496 122q-352 0 -539.5 -154t-228.5 -489q-41 -336 108.5 -489.5t502.5 -153.5q150 0 323.5 26t271.5 66l-20 -164q-106 -37 -276.5 -61.5t-319.5 -24.5 q-423 0 -619 200.5t-147 600.5zM752 512q-15 -126 28 -183t144 -57q110 0 215 56l45 368q-90 56 -201 56q-101 0 -157.5 -57t-73.5 -183z" />
<glyph unicode="A" horiz-adv-x="1310" d="M-10 0l678 1554h233l297 -1554h-250l-63 375h-492l-153 -375h-250zM465 563h393l-113 680z" />
<glyph unicode="B" horiz-adv-x="1245" d="M63 0l189 1536h516q136 0 229.5 -31.5t140.5 -90.5q48 -58 62 -131q8 -40 8 -86q0 -38 -6 -81q-11 -99 -70 -181.5t-151 -123.5q105 -33 154 -129q38 -74 38 -170q0 -30 -4 -61q-59 -451 -577 -451h-529zM317 211h308q268 0 299 246q3 25 3 47q0 88 -44 136 q-55 60 -197 60h-309zM401 895h301q66 0 115 18.5t77 51t42.5 67t19.5 74.5q3 39 3 64q0 30 -13 58t-34.5 49.5t-63.5 34.5t-100 13h-293z" />
<glyph unicode="C" horiz-adv-x="1202" d="M130 432q-8 62 -8 131q0 95 15 205q23 193 76 337.5t140.5 247.5t215.5 155.5t297 52.5q204 0 353 -66l-27 -219q-88 37 -163 53.5t-175 16.5q-216 0 -331.5 -144t-149.5 -434q-11 -90 -11 -166q0 -170 56 -268q80 -144 295 -144q100 0 178 16.5t176 53.5l-27 -219 q-166 -66 -368 -66q-169 0 -284.5 53t-177 154.5t-80.5 249.5z" />
<glyph unicode="D" horiz-adv-x="1331" d="M63 0l189 1536h457q125 0 222 -26.5t161 -75.5t107 -118.5t59 -154.5t20 -185q1 -18 1 -36q0 -83 -13 -172q-17 -137 -49.5 -248t-90.5 -210t-139 -166t-199.5 -105.5t-267.5 -38.5h-457zM317 211h234q113 0 197.5 39t140 115t88.5 174.5t49 228.5q11 79 11 149 q1 41 -3 79q-10 103 -46 176t-111.5 113t-188.5 40h-233z" />
<glyph unicode="E" horiz-adv-x="1157" d="M63 0l189 1536h934l-27 -211h-704l-52 -424h639l-26 -211h-639l-60 -479h705l-25 -211h-934z" />
<glyph unicode="F" horiz-adv-x="1114" d="M63 0l189 1536h917l-26 -211h-688l-54 -432h623l-27 -211h-622l-82 -682h-230z" />
<glyph unicode="G" horiz-adv-x="1333" d="M126 500q-1 27 -1 55q0 100 12 213q18 148 53.5 268t94.5 219.5t140 166t191.5 103t247.5 36.5q277 0 430 -80l-26 -226q-211 91 -402 91q-228 0 -343.5 -146t-149.5 -432q-11 -90 -11 -166q0 -170 56 -269q80 -143 307 -143q138 0 223 29l51 420h-272l25 207h501 l-94 -776q-74 -37 -209 -66t-286 -29q-135 0 -236 36t-164 104t-98.5 165.5t-39.5 219.5z" />
<glyph unicode="H" horiz-adv-x="1331" d="M63 0l189 1536h229l-78 -635h623l78 635h229l-188 -1536h-230l84 690h-622l-84 -690h-230z" />
<glyph unicode="I" horiz-adv-x="544" d="M96 0l189 1536h229l-188 -1536h-230z" />
<glyph unicode="J" horiz-adv-x="765" d="M-16 0l26 219q78 -24 156 -24q190 0 209 157l145 1184h230l-150 -1219q-22 -170 -130.5 -256t-317.5 -86q-95 0 -168 25z" />
<glyph unicode="K" horiz-adv-x="1275" d="M63 0l189 1536h229l-90 -713l641 713h283l-649 -680l512 -856h-291l-391 676l-142 -148l-61 -528h-230z" />
<glyph unicode="L" horiz-adv-x="1073" d="M63 0l189 1536h229l-164 -1325h668l-24 -211h-898z" />
<glyph unicode="M" horiz-adv-x="1671" d="M63 0l189 1536h295l287 -1047l544 1047h295l-188 -1536h-230l152 1155l-500 -944h-217l-266 944l-131 -1155h-230z" />
<glyph unicode="N" horiz-adv-x="1347" d="M63 0l189 1536h209l532 -1092l129 1092h228l-189 -1536h-209l-534 1092l-127 -1092h-228z" />
<glyph unicode="O" horiz-adv-x="1392" d="M122 587q4 82 15 181q17 141 44 250.5t79 215t124.5 174.5t184.5 111t256 42q104 0 185.5 -21.5t138 -59.5t95.5 -95t60 -122q20 -65 28 -149q5 -57 6 -113q0 -26 -2 -52q-4 -82 -15.5 -181t-28.5 -181t-45 -165.5t-64.5 -148.5t-89.5 -122t-118.5 -95t-152.5 -59.5 t-191 -21.5t-185.5 21.5t-138 59.5t-95 95t-58.5 122t-28 149q-5 57 -6 113zM358 522q4 -108 31.5 -183t94 -115t173.5 -40q86 0 152 26.5t111.5 73t78.5 122t52.5 161t33.5 201.5q15 115 15 209v37q-4 108 -31.5 183t-94 115t-173.5 40t-183 -38.5t-124.5 -118t-76 -181 t-44.5 -246.5q-16 -116 -16 -211q0 -18 1 -35z" />
<glyph unicode="P" horiz-adv-x="1187" d="M63 0l189 1536h493q96 0 174 -18t131 -50.5t91.5 -77.5t56 -98.5t24.5 -113.5q3 -25 3 -50q0 -36 -6 -73q-10 -78 -35.5 -147t-73 -131t-113 -106t-160.5 -70t-210 -26h-265l-69 -575h-230zM389 784h275q66 0 118 17.5t84.5 44.5t55 64.5t32.5 72t15 72.5q3 44 3 74 q0 37 -16 71q-16 36 -40 63.5t-72.5 44.5t-114.5 17h-274z" />
<glyph unicode="Q" horiz-adv-x="1392" d="M120 553q2 95 17 215q12 102 29.5 187t45.5 168t65 147.5t89.5 120.5t118 92.5t151.5 57t189 20.5q104 0 185.5 -20.5t138 -57t95.5 -92.5t60 -120.5t28 -148.5q6 -56 6 -114q0 -26 -2 -53q-3 -84 -15 -187q-14 -113 -32 -200.5t-50 -176t-75.5 -152.5t-108.5 -115.5 t-148 -80.5v-2l467 -98l-28 -234l-920 291q-90 28 -152 81.5t-96 122t-48 161.5q-11 78 -11 158q0 15 1 30zM358 522q3 -108 31 -183t94.5 -115t173.5 -40q86 0 152 26.5t111.5 73t78.5 122t52.5 161t33.5 201.5q15 115 15 209v37q-4 108 -31.5 183t-94 115t-173.5 40 t-183 -38.5t-124.5 -118t-76 -181t-44.5 -246.5q-16 -116 -16 -211q0 -18 1 -35z" />
<glyph unicode="R" horiz-adv-x="1271" d="M63 0l189 1536h500q146 0 245 -31.5t151 -93t68 -142.5q9 -44 10 -96q0 -44 -7 -94q-20 -159 -89 -260.5t-210 -148.5l239 -670h-268l-203 625h-319l-76 -625h-230zM393 834h303q76 0 129.5 19.5t82 57t42 76.5t19.5 92q3 39 5 75v7q0 31 -11 59q-12 32 -34 55 t-65.5 36.5t-105.5 13.5h-303z" />
<glyph unicode="S" horiz-adv-x="1218" d="M37 63l29 230q58 -27 102.5 -44t137 -36.5t188.5 -19.5q359 0 391 258q3 27 3 51q0 82 -41 118q-53 46 -212 68q-143 18 -234.5 47t-150 79t-77.5 123q-12 45 -12 102q0 36 5 77q9 71 33 133t71 120.5t112.5 100t164 66.5t219.5 25q268 0 408 -74l-29 -223 q-171 79 -393 79q-323 0 -351 -229q-2 -20 -3 -38q0 -25 6 -46q8 -35 25.5 -57.5t56 -38t79 -24t107.5 -17.5q102 -14 172 -31t132.5 -48t96 -75.5t48.5 -112.5q8 -38 8 -84q0 -36 -5 -77q-28 -229 -187 -359.5t-456 -130.5q-118 0 -245 24.5t-199 63.5z" />
<glyph unicode="T" horiz-adv-x="1138" d="M156 1325l26 211h1028l-26 -211h-400l-161 -1325h-230l162 1325h-399z" />
<glyph unicode="U" horiz-adv-x="1343" d="M111 483l131 1053h229l-127 -1032q-5 -34 -4 -65q0 -43 8 -79q16 -61 44.5 -94t74 -52.5t83.5 -24.5t83 -5q325 0 366 320l127 1032h230l-131 -1053q-11 -89 -40 -163.5t-68.5 -125.5t-91 -91t-104 -63.5t-111 -38.5t-107 -20.5t-97.5 -5.5t-96.5 5.5t-102 20.5 t-100.5 38.5t-88 63.5t-69 91q-26 52 -38 126q-6 38 -6 79q0 40 5 84z" />
<glyph unicode="V" horiz-adv-x="1310" d="M178 1536h250l201 -1249l508 1249h249l-679 -1554h-234z" />
<glyph unicode="W" horiz-adv-x="1810" d="M184 1536h244l51 -1210l410 1210h287l110 -1210l350 1210h244l-481 -1554h-281l-121 1280l-436 -1280h-280z" />
<glyph unicode="X" horiz-adv-x="1337" d="M-33 0l561 786l-354 750h272l256 -612l408 612h272l-538 -750l368 -786h-278l-268 618l-420 -618h-279z" />
<glyph unicode="Y" horiz-adv-x="1372" d="M174 1536h260l291 -717l467 717h260l-637 -920l-74 -616h-233l74 616z" />
<glyph unicode="Z" horiz-adv-x="1249" d="M0 0l18 154l930 1165l-737 -4l29 221h1044l-20 -154l-928 -1165l817 4l-27 -221h-1126z" />
<glyph unicode="[" horiz-adv-x="548" d="M18 -422l258 2093h355l-27 -213h-131l-205 -1667h131l-26 -213h-355z" />
<glyph unicode="\" horiz-adv-x="948" d="M139 1638h242l455 -2048h-242z" />
<glyph unicode="]" horiz-adv-x="548" d="M-53 -422l26 213h131l205 1667h-131l27 213h354l-258 -2093h-354z" />
<glyph unicode="^" horiz-adv-x="1159" d="M66 768l548 793h189l356 -793h-235l-246 547l-377 -547h-235z" />
<glyph unicode="_" horiz-adv-x="602" d="M-106 -381l22 186h600l-22 -186h-600z" />
<glyph unicode="`" d="M367 1536h276l68 -410h-193z" />
<glyph unicode="a" horiz-adv-x="1110" d="M84 512q32 263 145.5 400t329.5 137q187 0 320 -107l47 82h135l-125 -1024h-135l-29 82q-159 -107 -344 -107q-216 0 -296 137q-57 98 -57 260q0 65 9 140zM307 378q3 -62 19.5 -108.5t61.5 -73t118 -26.5q117 0 227 59l70 566q-100 59 -213 59q-59 0 -103.5 -18t-73 -47 t-49 -75.5t-31 -92.5t-18.5 -109q-9 -56 -9 -106q0 -15 1 -28z" />
<glyph unicode="b" horiz-adv-x="1110" d="M51 0l189 1536h229l-70 -567q133 80 283 80q216 1 296 -137q57 -98 58 -260q0 -65 -10 -140q-32 -263 -145.5 -400t-329.5 -137q-187 0 -320 107l-45 -82h-135zM307 229q100 -59 215 -59q59 0 103.5 18t73 47t48.5 75t30 92.5t18 109.5q9 55 9 105q0 13 -1 27 q-3 62 -18.5 109t-60.5 74t-118 27q-119 0 -229 -59z" />
<glyph unicode="c" horiz-adv-x="921" d="M77 334q-1 19 -1 38q0 66 8 140q15 125 50.5 219.5t97.5 168t160.5 111.5t230.5 38q163 0 276 -52l-25 -198q-113 47 -262 47q-141 0 -209 -86t-88 -248q-6 -48 -6 -89q0 -97 33 -159q47 -86 188 -86q149 0 275 47l-25 -198q-125 -52 -288 -52q-107 0 -185.5 25t-126 72 t-74 113.5t-29.5 148.5z" />
<glyph unicode="d" horiz-adv-x="1110" d="M84 512q32 262 145.5 399.5t329.5 137.5q147 0 266 -80l70 567h229l-188 -1536h-135l-29 82q-159 -107 -344 -107q-216 0 -296 137q-57 98 -57 260q0 65 9 140zM307 378q3 -62 19.5 -108.5t61.5 -73t118 -26.5q117 0 227 59l70 566q-100 59 -213 59q-59 0 -103.5 -18 t-73.5 -47.5t-49 -75.5t-30.5 -92.5t-18.5 -108.5q-9 -56 -9 -106q0 -15 1 -28z" />
<glyph unicode="e" horiz-adv-x="1044" d="M84 512q32 261 156.5 399t367.5 138q110 0 189 -24.5t121 -68.5q44 -45 60 -101q11 -36 10 -77q0 -23 -3 -47q-16 -140 -126.5 -221.5t-326.5 -81.5h-227q-3 -26 -2 -49q0 -31 4 -56q8 -44 33 -79t75.5 -52.5t127.5 -17.5q181 0 334 62l-25 -197q-161 -64 -369 -64 q-247 0 -339 138q-68 102 -68 272q0 60 8 127zM326 588h223q196 0 213 131q1 9 1 17q0 114 -183 114q-118 0 -175 -67t-79 -195z" />
<glyph unicode="f" horiz-adv-x="782" d="M70 829l18 142l193 53l24 203q21 166 128 250t310 84q96 0 166 -25l-24 -195q-61 21 -150 21q-184 0 -203 -156l-22 -182h289l-25 -195h-289l-163 -1341h-230l164 1341h-186z" />
<glyph unicode="g" horiz-adv-x="1110" d="M12 -469l27 205q163 -78 354 -78q82 0 140 18.5t90 53.5t47.5 75.5t21.5 94.5l19 145q-128 -70 -283 -70q-216 0 -296 137q-57 98 -57 260q0 65 9 140q32 263 145.5 400t329.5 137q187 0 320 -107l47 82h135l-135 -1096q-10 -83 -28.5 -146t-58 -125.5t-98 -103 t-153 -65.5t-219.5 -25q-97 0 -193.5 17.5t-163.5 50.5zM307 378q3 -62 19.5 -108.5t61.5 -73t118 -26.5q117 0 227 59l70 566q-100 59 -213 59q-59 0 -103.5 -18t-73 -47t-49 -75.5t-31 -92.5t-18.5 -109q-9 -56 -9 -106q0 -14 1 -28z" />
<glyph unicode="h" horiz-adv-x="1073" d="M51 0l189 1536h229l-70 -563q139 76 283 76q317 0 317 -262q0 -30 -4 -64l-88 -723h-229l86 702q2 16 2 30q0 55 -28 85q-35 37 -117 37q-132 0 -244 -59l-96 -795h-230z" />
<glyph unicode="i" horiz-adv-x="526" d="M102 252l95 772h229l-94 -770q-6 -43 10.5 -60.5t65.5 -17.5l-23 -186q-20 -4 -45 -4q-242 0 -242 209q0 27 4 57zM199 1327q0 62 44 106t105 44q62 0 106 -44.5t44 -105.5t-44 -105t-106 -44t-105.5 44t-43.5 105z" />
<glyph unicode="j" horiz-adv-x="495" d="M-231 -537l26 213q108 0 179 55t81 150l142 1143h229l-145 -1188q-11 -91 -61 -164t-123 -117.5t-157 -68t-171 -23.5zM199 1327q0 62 44 106t105 44q62 0 106 -44.5t44 -105.5t-44 -105t-106 -44t-105.5 44t-43.5 105z" />
<glyph unicode="k" horiz-adv-x="1069" d="M51 0l189 1536h229l-113 -909l412 397h297l-467 -422l385 -602h-285l-264 455l-110 -101l-43 -354h-230z" />
<glyph unicode="l" horiz-adv-x="526" d="M102 252l158 1284h229l-157 -1282q-6 -43 10.5 -60.5t65.5 -17.5l-23 -186q-20 -4 -45 -4q-242 0 -242 209q0 27 4 57z" />
<glyph unicode="m" horiz-adv-x="1626" d="M51 0l125 1024h135l27 -82q69 50 156.5 78.5t164.5 28.5q193 0 250 -103q74 49 164 76t176 27q175 -1 247 -87q56 -68 56 -176q0 -30 -4 -63l-88 -723h-229l88 723q2 15 2 28q-1 48 -27 72q-34 31 -104 31q-120 0 -229 -63q0 -51 -9 -113l-82 -678h-229l88 723q2 15 2 28 q0 49 -26 73q-33 30 -105 30q-115 0 -223 -59l-96 -795h-230z" />
<glyph unicode="n" horiz-adv-x="1073" d="M51 0l125 1024h135l27 -82q168 107 344 107q317 0 317 -262q0 -30 -4 -64l-88 -723h-229l86 702q2 16 2 30q0 55 -28 85q-35 37 -117 37q-132 0 -244 -59l-96 -795h-230z" />
<glyph unicode="o" d="M77 296q-4 37 -4 77q0 66 11 139q12 100 33.5 177.5t61 147t95.5 115t139.5 71.5t190.5 26q133 0 220 -39.5t126 -111.5t50 -170q4 -37 5 -77q0 -66 -12 -139q-12 -100 -33.5 -177.5t-61 -147t-95.5 -115t-139.5 -71.5t-190.5 -26q-133 0 -220 39.5t-126 111.5t-50 170z M307 326q5 -76 51 -117t140 -41q58 0 100 15.5t69.5 41.5t46.5 72t29 94.5t19 120.5q10 82 10 145q0 21 -2 41q-4 76 -49 117t-139 41q-58 0 -100.5 -15.5t-70 -42t-47 -71.5t-30 -94.5t-19.5 -120.5q-9 -79 -9 -141q0 -24 1 -45z" />
<glyph unicode="p" horiz-adv-x="1110" d="M-12 -512l188 1536h135l27 -82q159 107 344 107q216 0 296 -137q57 -98 57 -260q0 -65 -9 -140q-32 -262 -145.5 -399.5t-329.5 -137.5q-148 0 -264 80l-70 -567h-229zM307 229q100 -59 215 -59q59 0 103.5 18t73 47.5t48.5 75.5t30 92.5t18 108.5q10 59 10 112 q0 11 -1 22q-2 62 -18.5 108.5t-61.5 73t-118 26.5q-119 0 -229 -59z" />
<glyph unicode="q" horiz-adv-x="1110" d="M84 512q32 263 145.5 400t329.5 137q187 0 320 -107l47 82h135l-189 -1536h-229l70 567q-136 -80 -285 -80q-216 0 -296 137q-57 99 -57 260q0 65 9 140zM307 380q3 -63 19.5 -109.5t61.5 -73.5t118 -27q117 0 227 59l70 566q-100 59 -213 59q-59 0 -103.5 -18t-73 -47 t-49 -75.5t-31 -92.5t-18.5 -109q-9 -55 -9 -105q0 -14 1 -27z" />
<glyph unicode="r" horiz-adv-x="749" d="M51 0l125 1024h135l27 -82q147 107 336 107q45 0 108 -13l-24 -196q-38 12 -111 12q-168 0 -270 -61l-96 -791h-230z" />
<glyph unicode="s" horiz-adv-x="952" d="M33 31l24 196q150 -57 299 -57q125 0 188 30t70 97q2 12 2 23q0 43 -26 66q-32 29 -129 38q-113 10 -186 33t-111 61q-38 40 -49 88q-6 27 -6 59q0 27 4 58q11 92 59 163t149.5 117t245.5 46q199 0 312 -52l-25 -198q-145 57 -305 57q-196 0 -213 -127q-1 -8 -1 -16 q0 -43 28 -65q33 -26 129 -34q151 -13 231.5 -51t105.5 -98q17 -41 17 -99q0 -28 -4 -61q-7 -55 -26.5 -102t-57 -90t-90 -73t-130 -47.5t-173.5 -17.5q-201 0 -332 56z" />
<glyph unicode="t" horiz-adv-x="778" d="M66 829l18 142l192 53l31 244l236 65l-37 -309h289l-25 -195h-289l-61 -507q-2 -16 -2 -30q0 -54 28 -84q36 -38 123 -38q40 0 90 8l-22 -188q-69 -15 -129 -15q-174 0 -258 79q-67 64 -68 181q0 28 4 60l66 534h-186z" />
<glyph unicode="u" horiz-adv-x="1073" d="M80 301l88 723h229l-86 -702q-2 -16 -1 -30q0 -56 28 -85q36 -37 117 -37q129 0 241 59l99 795h229l-125 -1024h-135l-29 82q-168 -107 -344 -107q-187 0 -259 85q-56 67 -56 177q0 30 4 64z" />
<glyph unicode="v" horiz-adv-x="1024" d="M90 1024h248l145 -741l330 741h248l-520 -1042h-189z" />
<glyph unicode="w" horiz-adv-x="1425" d="M100 1024h234l53 -705l285 705h209l112 -705l226 705h233l-397 -1042h-195l-117 772l-309 -772h-194z" />
<glyph unicode="x" horiz-adv-x="1044" d="M-31 0l412 526l-264 498h260l166 -356l252 356h260l-387 -498l284 -526h-264l-182 379l-273 -379h-264z" />
<glyph unicode="y" horiz-adv-x="1073" d="M14 -485l27 202q157 -59 315 -59q82 0 140 18.5t90 53.5t47.5 75.5t21.5 94.5l19 145q-143 -70 -283 -70q-187 0 -259 85q-56 67 -56 177q0 30 4 64l88 723h229l-86 -702q-2 -16 -2 -30q0 -55 29 -85q35 -37 117 -37q129 0 241 59l99 795h229l-135 -1096 q-10 -83 -28.5 -146t-58 -125.5t-98 -103t-153 -65.5t-219.5 -25q-176 0 -318 52z" />
<glyph unicode="z" horiz-adv-x="899" d="M-27 0l19 162l602 661l-483 -2l24 203h778l-20 -162l-600 -661l543 2l-25 -203h-838z" />
<glyph unicode="{" horiz-adv-x="507" d="M20 -199l115 637q13 77 -65 80h-31l24 213h25q86 0 92 80l41 637q9 113 83 168t188 55h98l-27 -213h-31q-90 0 -96 -80l-37 -598q-3 -47 -26.5 -88t-61.5 -67q32 -26 45.5 -68t5.5 -88l-110 -598q-13 -80 76 -80h30l-26 -213h-99q-114 0 -174 55t-39 168z" />
<glyph unicode="|" horiz-adv-x="544" d="M45 -410l252 2048h229l-252 -2048h-229z" />
<glyph unicode="}" horiz-adv-x="507" d="M-53 -422l26 213h31q90 0 96 80l37 598q3 46 28.5 90.5t63.5 65.5q-32 22 -47.5 65t-7.5 90l111 598q13 80 -76 80h-31l27 213h100q114 0 173 -55t38 -168l-115 -637q-12 -80 72 -80h25l-25 -213h-31q-80 -3 -86 -80l-41 -637q-9 -113 -81.5 -168t-186.5 -55h-100z" />
<glyph unicode="~" horiz-adv-x="1003" d="M100 584l29 221q33 28 91 48.5t124 20.5q58 0 104 -15.5t76 -37t58 -43.5t64.5 -37.5t80.5 -15.5q69 0 129.5 26.5t91.5 55.5l-26 -221q-33 -28 -92.5 -49t-124.5 -21q-58 0 -104 15.5t-76 37.5t-58 44t-64.5 37.5t-80.5 15.5q-69 0 -130 -26.5t-92 -55.5z" />
<glyph unicode="&#xa1;" horiz-adv-x="450" d="M-45 -512l203 1106h155l-67 -1106h-291zM123 899q0 62 44 106t105 44q62 0 106 -44.5t44 -105.5t-44 -105t-106 -44t-105.5 44t-43.5 105z" />
<glyph unicode="&#xa2;" horiz-adv-x="1032" d="M113 639q31 259 171.5 396.5t387.5 140.5l108 231h195l-123 -246q91 -15 154 -43l-27 -203q-143 54 -291 54q-159 0 -243 -83.5t-103 -246.5q-21 -163 42 -246.5t222 -83.5q152 0 305 53l-24 -202q-143 -58 -338 -58h-41l-109 -231h-194l129 266q-271 104 -221 502z" />
<glyph unicode="&#xa3;" horiz-adv-x="1112" d="M-14 0l24 207h142l43 352h-142l23 184h141l21 162q8 71 29 129t61.5 109.5t98 86.5t142 55t191.5 20q99 0 196.5 -16.5t157.5 -45.5l-24 -203q-166 56 -338 56q-133 0 -204 -50.5t-83 -158.5l-19 -144h490l-23 -184h-489l-43 -352h647l-24 -207h-1018z" />
<glyph unicode="&#xa4;" horiz-adv-x="1466" d="M78 150l180 194q-96 132 -96 356q0 225 96 357l-180 194l168 160l186 -201q126 60 301 60t301 -60l187 201l168 -160l-181 -194q97 -134 97 -357q0 -222 -97 -356l181 -194l-168 -160l-187 200q-123 -59 -301 -59t-301 59l-186 -200zM410 700q0 -102 22.5 -171.5 t67.5 -107.5t100.5 -53.5t132.5 -15.5t133 15.5t101 53.5t67.5 107.5t22.5 171.5q0 82 -15.5 143.5t-42.5 100t-69 62.5t-89 33.5t-108 9.5q-77 0 -132.5 -15.5t-100.5 -53.5t-67.5 -108t-22.5 -172z" />
<glyph unicode="&#xa5;" horiz-adv-x="1228" d="M70 422l20 164h361l-50 108h-299l21 164h203l-193 422h273l229 -598l377 598h272l-297 -422h205l-21 -164h-299l-75 -108h362l-20 -164h-420l-51 -422h-230l51 422h-419z" />
<glyph unicode="&#xa6;" horiz-adv-x="544" d="M45 -410l119 973h229l-119 -973h-229zM176 666l121 972h229l-120 -972h-230z" />
<glyph unicode="&#xa7;" horiz-adv-x="1347" d="M35 -461l31 234q111 -49 209 -67.5t210 -18.5q88 0 150 17t97 50t52 70.5t23 87.5q5 43 -4.5 75.5t-29 53.5t-58.5 37t-80 25.5t-105 19.5q-116 18 -194.5 41t-132.5 56.5t-78.5 78t-33 105t4.5 137.5q12 100 70.5 195.5t165.5 158.5q-50 78 -31 223q8 62 27 118.5 t63 118t107 105.5t165.5 72.5t231.5 28.5q254 0 420 -76l-31 -232q-106 50 -204 67t-216 17q-88 0 -150 -17t-97 -50t-52 -70.5t-24 -87.5q-7 -54 7 -90t53.5 -59t87.5 -36t130 -26q144 -22 232.5 -53t138 -81.5t62 -116.5t-0.5 -167q-12 -101 -70 -196t-167 -158 q50 -82 35 -223q-8 -62 -27.5 -119t-64 -118t-108 -105t-166 -72.5t-230.5 -28.5q-259 0 -418 76zM336 539q-12 -104 43 -141.5t209 -65.5q173 -30 252 -66q152 61 174 219q4 37 0.5 65t-19 48.5t-33.5 34t-53 25t-65.5 18t-83.5 16.5q-169 25 -254 66q-152 -62 -170 -219z " />
<glyph unicode="&#xa8;" d="M272 1327q0 61 44 105.5t106 44.5q61 0 105 -44t44 -106q0 -61 -43.5 -105t-105.5 -44t-106 44t-44 105zM707 1327q0 62 44 106t105 44q62 0 106 -44.5t44 -105.5t-44 -105t-106 -44t-105.5 44t-43.5 105z" />
<glyph unicode="&#xa9;" horiz-adv-x="1622" d="M141 639q17 142 67 255.5t121 189.5t165 126.5t196 72.5t217 22q116 0 213 -22t179 -72.5t134.5 -126.5t74.5 -189.5t5 -255.5t-67 -255t-121.5 -188.5t-165.5 -126t-197 -72.5t-219 -22q-115 0 -211.5 22t-177.5 72.5t-133.5 126t-74.5 188.5t-5 255zM303 639 q-13 -108 3.5 -194.5t57 -144.5t103 -96.5t137 -55.5t162.5 -17q87 0 165.5 17t150 56t126.5 96.5t93 144t51 194.5q16 135 -13 235.5t-95 159t-154.5 87t-198.5 28.5q-112 0 -207.5 -28t-176.5 -87t-134.5 -159.5t-69.5 -235.5zM471 639q24 191 133 283t283 92 q146 0 225 -35l-20 -166q-85 29 -203 29q-196 0 -219 -203q-13 -104 32 -153.5t138 -49.5q117 0 209 29l-21 -166q-88 -35 -233 -35q-175 0 -261.5 92t-62.5 283z" />
<glyph unicode="&#xaa;" horiz-adv-x="870" d="M147 1153q25 206 118 307t259 101q123 0 219 -70l25 45h145l-94 -766h-145l-15 45q-113 -70 -235 -70q-329 0 -277 408zM346 1153q-32 -240 146 -240q75 0 151 41l49 398q-64 41 -141 41q-87 0 -138.5 -57t-66.5 -183z" />
<glyph unicode="&#xab;" horiz-adv-x="980" d="M86 432l20 160l426 299l-24 -207l-215 -172l172 -172l-27 -207zM475 432l21 160l426 299l-25 -207l-215 -172l172 -172l-27 -207z" />
<glyph unicode="&#xac;" horiz-adv-x="1249" d="M193 805l26 217h918l-80 -651h-217l53 434h-700z" />
<glyph unicode="&#xad;" horiz-adv-x="645" d="M66 535l24 206h522l-24 -206h-522z" />
<glyph unicode="&#xae;" horiz-adv-x="1622" d="M141 639q17 142 67 255.5t121 189.5t165 126.5t196 72.5t217 22q116 0 213 -22t179 -72.5t134.5 -126.5t74.5 -189.5t5 -255.5t-67 -255t-121.5 -188.5t-165.5 -126t-197 -72.5t-219 -22q-115 0 -211.5 22t-177.5 72.5t-133.5 126t-74.5 188.5t-5 255zM303 639 q-13 -108 3.5 -194.5t57 -144.5t103 -96.5t137 -55.5t162.5 -17q87 0 165.5 17t150 56t126.5 96.5t93 144t51 194.5q16 135 -13 235.5t-95 159t-154.5 87t-198.5 28.5q-112 0 -207.5 -28t-176.5 -87t-134.5 -159.5t-69.5 -235.5zM483 291l86 700h330q132 0 183 -64.5 t38 -172.5q-19 -146 -125 -203l117 -260h-213l-84 225h-119l-26 -225h-187zM717 672h139q67 0 76 76q5 35 -10 55t-48 20h-139z" />
<glyph unicode="&#xaf;" d="M330 1239l22 182h598l-22 -182h-598z" />
<glyph unicode="&#xb0;" horiz-adv-x="774" d="M168 1264q19 153 111.5 225t236.5 72q146 0 220 -72t55 -225t-111 -225t-238 -72q-145 0 -219 72t-55 225zM356 1264q-15 -121 109 -121q122 0 137 121q15 120 -106 120q-125 0 -140 -120z" />
<glyph unicode="&#xb1;" horiz-adv-x="1228" d="M102 82l27 217h918l-27 -217h-918zM182 729l27 217h350l43 350h217l-43 -350h350l-26 -217h-350l-43 -350h-218l43 350h-350z" />
<glyph unicode="&#xb2;" horiz-adv-x="874" d="M98 698l19 148q211 124 318.5 199t146.5 120.5t45 94.5t-25.5 77.5t-109.5 28.5q-144 0 -283 -55l24 198q46 20 135.5 36t163.5 16q82 0 144.5 -15t99.5 -40t59 -61t28 -74t1 -83q-5 -37 -22 -72.5t-38 -64t-59.5 -61t-67 -54t-82 -53t-82.5 -48t-89 -48.5l414 2 l-25 -191h-715z" />
<glyph unicode="&#xb3;" horiz-adv-x="919" d="M123 723l22 192q151 -47 318 -47q203 0 213 93q6 46 -19 67t-90 21h-266l21 157h256q58 0 83.5 20.5t30.5 59.5q3 37 -38 58.5t-134 21.5q-147 0 -309 -45l22 190q51 21 143.5 35.5t186.5 14.5q180 0 270.5 -60t77.5 -180q-9 -64 -41 -108t-75 -60q58 -21 86 -75t18 -136 q-15 -127 -128 -197.5t-314 -70.5q-97 0 -195 14.5t-139 34.5z" />
<glyph unicode="&#xb4;" d="M518 1126l170 410h277l-254 -410h-193z" />
<glyph unicode="&#xb5;" horiz-adv-x="1046" d="M-20 -512l188 1536h229l-86 -702q-9 -78 26.5 -115t117.5 -37q129 0 241 59l99 795h229l-125 -1024h-135l-29 82q-168 -107 -344 -107q-67 0 -121 13l-61 -500h-229z" />
<glyph unicode="&#xb6;" horiz-adv-x="1282" d="M124 909.5q-6 69.5 1 145.5q10 78 35.5 147t73 131t113 106.5t160.5 70.5t210 26h567l-188 -1536h-230l70 575h-119l-69 -575h-230l70 575q-113 1 -200 27.5t-139.5 71.5t-85.5 105.5t-39 130zM372.5 983q-0.5 -37 14.5 -73t40 -64t73 -45t114 -17l66 541q-81 0 -141 -25 t-93 -68t-49 -85.5t-22 -91.5q-2 -35 -2.5 -72zM844 784h119l65 541h-119z" />
<glyph unicode="&#xb7;" horiz-adv-x="450" d="M92 639q0 61 44 105t106 44t105.5 -44t43.5 -105q0 -62 -44 -106t-105 -44q-62 0 -106 44.5t-44 105.5z" />
<glyph unicode="&#xb8;" d="M199 -473l18 156q93 -37 164 -37q111 0 119 61q6 45 -30.5 67t-123.5 33l45 193h111l-8 -123q183 -45 168 -190q-12 -96 -85 -147.5t-184 -51.5q-119 0 -194 39z" />
<glyph unicode="&#xb9;" horiz-adv-x="659" d="M166 1337l14 127l352 97h97l-107 -863h-213l80 645z" />
<glyph unicode="&#xba;" horiz-adv-x="864" d="M147 1153q25 207 123 307.5t291 100.5t267 -100.5t49 -307.5q-27 -207 -125.5 -307.5t-290.5 -100.5q-193 0 -267 100.5t-47 307.5zM342 1153q-17 -127 16.5 -181t124.5 -54q90 0 136 53.5t63 181.5q15 128 -18 182t-123 54t-137 -54.5t-62 -181.5z" />
<glyph unicode="&#xbb;" horiz-adv-x="980" d="M59 133l27 207l213 172l-170 172l25 207l352 -299l-21 -160zM449 133l26 207l213 172l-170 172l25 207l352 -299l-21 -160z" />
<glyph unicode="&#xbc;" horiz-adv-x="2021" d="M166 1337l14 127l352 97h97l-107 -863h-213l80 645zM217 0l1276 1536h211l-1276 -1536h-211zM1059 188l16 138l531 536h217l-60 -485h154l-23 -189h-153l-23 -188h-207l23 188h-475zM1356 375l200 2l35 231z" />
<glyph unicode="&#xbd;" horiz-adv-x="2048" d="M166 1337l14 127l352 97h97l-107 -863h-213l80 645zM217 0l1276 1536h211l-1276 -1536h-211zM1194 0l16 147q211 124 319 198.5t147 120.5t44 95q6 49 -25 78t-108 29q-143 0 -284 -56l24 199q48 20 136.5 35.5t162.5 15.5q102 0 173 -22t106 -61.5t47 -86t6 -102.5 q-5 -37 -22 -72.5t-38 -64t-59.5 -61t-67.5 -54.5t-81.5 -53.5t-83 -48t-88.5 -48.5l413 2l-22 -190h-715z" />
<glyph unicode="&#xbe;" horiz-adv-x="2248" d="M123 723l22 192q151 -47 318 -47q203 0 213 93q6 46 -19 67t-90 21h-266l21 157h256q58 0 83.5 20.5t30.5 59.5q3 37 -38 58.5t-134 21.5q-147 0 -309 -45l22 190q51 21 143.5 35.5t186.5 14.5q180 0 270.5 -60t77.5 -180q-9 -64 -41 -108t-75 -60q58 -21 86 -75t18 -136 q-15 -127 -128 -197.5t-314 -70.5q-97 0 -195 14.5t-139 34.5zM444 0l1276 1536h211l-1276 -1536h-211zM1286 188l17 138l530 536h217l-59 -485h153l-22 -189h-154l-22 -188h-207l22 188h-475zM1583 375l201 2l35 231z" />
<glyph unicode="&#xbf;" horiz-adv-x="972" d="M-18 -220q-4 54 6 111q7 56 24 104.5t38.5 84t55.5 67t64 52.5t76.5 42.5t80 34.5t85.5 31q48 17 78 39t45.5 61t21 68t13.5 94q2 16 3 25h144q17 -102 8 -168q-10 -84 -55 -147.5t-146 -104.5q-12 -5 -36 -14q-40 -15 -59.5 -23t-51.5 -23.5t-48.5 -27.5t-38.5 -32 t-34 -41t-22.5 -50.5t-14.5 -64.5q-6 -54 3 -92t39.5 -67.5t89 -43.5t147.5 -14q87 0 181.5 15.5t151.5 37.5l-28 -219q-53 -21 -152 -36.5t-196 -15.5q-106 0 -188 16t-133.5 44.5t-86.5 68t-48 87t-17 101.5zM504 899q0 62 44 106t105 44t105.5 -44.5t44.5 -105.5 t-44 -105t-106 -44q-61 0 -105 44t-44 105z" />
<glyph unicode="&#xc0;" horiz-adv-x="1310" d="M-10 0l678 1554h233l297 -1554h-250l-63 375h-492l-153 -375h-250zM465 563h393l-113 680zM522 1853h277l90 -225h-193z" />
<glyph unicode="&#xc1;" horiz-adv-x="1310" d="M-10 0l678 1554h233l297 -1554h-250l-63 375h-492l-153 -375h-250zM465 563h393l-113 680zM696 1628l148 225h276l-231 -225h-193z" />
<glyph unicode="&#xc2;" horiz-adv-x="1310" d="M-10 0l678 1554h233l297 -1554h-250l-63 375h-492l-153 -375h-250zM416 1628l289 225h233l231 -225h-200l-164 103l-189 -103h-200zM465 563h393l-113 680z" />
<glyph unicode="&#xc3;" horiz-adv-x="1310" d="M-10 0l678 1554h233l297 -1554h-250l-63 375h-492l-153 -375h-250zM387 1628q15 128 85 195t192 67q41 0 79.5 -13.5t67 -32t55 -37.5t55 -32.5t56.5 -13.5q91 0 104 92h146q-35 -262 -277 -262q-41 0 -79.5 13.5t-67 32.5t-55 37.5t-55 32t-56.5 13.5q-92 0 -105 -92 h-145zM465 563h393l-113 680z" />
<glyph unicode="&#xc4;" horiz-adv-x="1310" d="M-10 0l678 1554h233l297 -1554h-250l-63 375h-492l-153 -375h-250zM440 1741q0 61 44 105t106 44t105.5 -44t43.5 -105q0 -62 -44 -106t-105 -44q-62 0 -106 44.5t-44 105.5zM465 563h393l-113 680zM874 1741q0 61 44 105t106 44t106 -44t44 -105t-44 -105.5t-106 -44.5 t-106 44.5t-44 105.5z" />
<glyph unicode="&#xc5;" horiz-adv-x="1310" d="M-10 0l678 1554h233l297 -1554h-250l-63 375h-492l-153 -375h-250zM465 563h393l-113 680zM602 1741q21 168 225 168q95 0 145.5 -38.5t39.5 -129.5q-21 -168 -226 -168q-95 0 -145 38.5t-39 129.5zM737 1741q-2 -17 14.5 -26t51.5 -9q71 0 74 35q2 17 -14.5 26t-51.5 9 q-71 0 -74 -35z" />
<glyph unicode="&#xc6;" horiz-adv-x="1933" d="M-31 0q232 384 936 1536h1098l-27 -211h-786l14 -424h656l-27 -211h-623l15 -479h614l-24 -211h-834l-8 375h-524l-216 -375h-264zM555 563h414l-13 694z" />
<glyph unicode="&#xc7;" horiz-adv-x="1202" d="M137 768q23 193 76 337.5t140.5 247.5t215.5 155.5t297 52.5q204 0 353 -66l-27 -219q-88 37 -163 53.5t-175 16.5q-216 0 -331.5 -144t-149.5 -434q-36 -291 44.5 -434.5t295.5 -143.5q100 0 178 16.5t176 53.5l-27 -219q-166 -66 -368 -66l-6 -98q183 -45 168 -190 q-12 -96 -85 -147.5t-184 -51.5q-119 0 -194 39l18 156q93 -37 164 -37q111 0 119 61q6 45 -30.5 67t-123.5 33l41 177q-180 22 -284.5 122t-135.5 263.5t-2 398.5z" />
<glyph unicode="&#xc8;" horiz-adv-x="1157" d="M63 0l189 1536h934l-27 -211h-704l-52 -424h639l-26 -211h-639l-60 -479h705l-25 -211h-934zM475 1853h277l90 -225h-193z" />
<glyph unicode="&#xc9;" horiz-adv-x="1157" d="M63 0l189 1536h934l-27 -211h-704l-52 -424h639l-26 -211h-639l-60 -479h705l-25 -211h-934zM649 1628l148 225h276l-231 -225h-193z" />
<glyph unicode="&#xca;" horiz-adv-x="1157" d="M63 0l189 1536h934l-27 -211h-704l-52 -424h639l-26 -211h-639l-60 -479h705l-25 -211h-934zM369 1628l288 225h234l231 -225h-200l-164 103l-189 -103h-200z" />
<glyph unicode="&#xcb;" horiz-adv-x="1157" d="M63 0l189 1536h934l-27 -211h-704l-52 -424h639l-26 -211h-639l-60 -479h705l-25 -211h-934zM393 1741q0 61 44 105t106 44q61 0 105 -44t44 -105q0 -62 -44 -106t-105 -44t-105.5 44.5t-44.5 105.5zM827 1741q0 61 44 105t106 44q61 0 105 -44t44 -105q0 -62 -44 -106 t-105 -44t-105.5 44.5t-44.5 105.5z" />
<glyph unicode="&#xcc;" horiz-adv-x="544" d="M96 0l189 1536h229l-188 -1536h-230zM139 1853h277l90 -225h-193z" />
<glyph unicode="&#xcd;" horiz-adv-x="544" d="M96 0l189 1536h229l-188 -1536h-230zM313 1628l148 225h276l-231 -225h-193z" />
<glyph unicode="&#xce;" horiz-adv-x="544" d="M33 1628l289 225h233l231 -225h-200l-164 103l-189 -103h-200zM96 0l189 1536h229l-188 -1536h-230z" />
<glyph unicode="&#xcf;" horiz-adv-x="544" d="M78 1741q0 61 44 105t105 44q62 0 106 -44t44 -105t-44.5 -105.5t-105.5 -44.5t-105 44t-44 106zM96 0l189 1536h229l-188 -1536h-230zM471 1741q0 61 44 105t106 44q61 0 105 -44t44 -105q0 -62 -44 -106t-105 -44t-105.5 44.5t-44.5 105.5z" />
<glyph unicode="&#xd0;" horiz-adv-x="1423" d="M61 686l23 195h178l82 655h457q125 0 222 -26.5t161 -75.5t107 -118.5t59.5 -154.5t20 -184.5t-12.5 -208.5q-17 -137 -49.5 -248t-90.5 -210t-139 -166t-199.5 -105.5t-267.5 -38.5h-456l84 686h-179zM410 211h233q113 0 197.5 39t140 115t88.5 174.5t49 228.5 q18 125 7.5 228t-46 176t-111 113t-188.5 40h-233l-55 -444h323l-22 -195h-324z" />
<glyph unicode="&#xd1;" horiz-adv-x="1347" d="M63 0l189 1536h209l532 -1092l129 1092h228l-189 -1536h-209l-534 1092l-127 -1092h-228zM406 1628q31 262 276 262q41 0 79.5 -13.5t67 -32t55 -37.5t55 -32.5t56.5 -13.5q92 0 105 92h145q-35 -262 -276 -262q-51 0 -98 20t-77 44.5t-68 44.5t-71 20q-91 0 -104 -92 h-145z" />
<glyph unicode="&#xd2;" horiz-adv-x="1392" d="M121.5 587q3.5 82 15.5 181q17 141 44 250.5t79 215t124.5 174.5t184.5 111t256 42q104 0 185.5 -21.5t138 -59.5t95.5 -95t60 -122t28.5 -148.5t4 -165.5t-15.5 -181t-29 -181t-45 -165.5t-64.5 -148.5t-89.5 -122t-118.5 -95t-152.5 -59.5t-191 -21.5t-185.5 21.5 t-138 59.5t-95 95t-59 122t-28 148.5t-4 165.5zM357.5 522.5q3.5 -108.5 31.5 -183.5t94.5 -115t173.5 -40q86 0 152 26.5t111.5 73t78.5 122t52.5 161t33.5 201.5q18 137 14.5 245.5t-31 183.5t-94 115t-173.5 40t-183 -38.5t-124.5 -118t-76 -181t-44.5 -246.5 q-19 -137 -15.5 -245.5zM563 1853h277l90 -225h-193z" />
<glyph unicode="&#xd3;" horiz-adv-x="1392" d="M121.5 587q3.5 82 15.5 181q17 141 44 250.5t79 215t124.5 174.5t184.5 111t256 42q104 0 185.5 -21.5t138 -59.5t95.5 -95t60 -122t28.5 -148.5t4 -165.5t-15.5 -181t-29 -181t-45 -165.5t-64.5 -148.5t-89.5 -122t-118.5 -95t-152.5 -59.5t-191 -21.5t-185.5 21.5 t-138 59.5t-95 95t-59 122t-28 148.5t-4 165.5zM357.5 522.5q3.5 -108.5 31.5 -183.5t94.5 -115t173.5 -40q86 0 152 26.5t111.5 73t78.5 122t52.5 161t33.5 201.5q18 137 14.5 245.5t-31 183.5t-94 115t-173.5 40t-183 -38.5t-124.5 -118t-76 -181t-44.5 -246.5 q-19 -137 -15.5 -245.5zM737 1628l148 225h276l-231 -225h-193z" />
<glyph unicode="&#xd4;" horiz-adv-x="1392" d="M121.5 587q3.5 82 15.5 181q17 141 44 250.5t79 215t124.5 174.5t184.5 111t256 42q104 0 185.5 -21.5t138 -59.5t95.5 -95t60 -122t28.5 -148.5t4 -165.5t-15.5 -181t-29 -181t-45 -165.5t-64.5 -148.5t-89.5 -122t-118.5 -95t-152.5 -59.5t-191 -21.5t-185.5 21.5 t-138 59.5t-95 95t-59 122t-28 148.5t-4 165.5zM357.5 522.5q3.5 -108.5 31.5 -183.5t94.5 -115t173.5 -40q86 0 152 26.5t111.5 73t78.5 122t52.5 161t33.5 201.5q18 137 14.5 245.5t-31 183.5t-94 115t-173.5 40t-183 -38.5t-124.5 -118t-76 -181t-44.5 -246.5 q-19 -137 -15.5 -245.5zM457 1628l288 225h234l231 -225h-200l-164 103l-189 -103h-200z" />
<glyph unicode="&#xd5;" horiz-adv-x="1392" d="M121.5 587q3.5 82 15.5 181q17 141 44 250.5t79 215t124.5 174.5t184.5 111t256 42q104 0 185.5 -21.5t138 -59.5t95.5 -95t60 -122t28.5 -148.5t4 -165.5t-15.5 -181t-29 -181t-45 -165.5t-64.5 -148.5t-89.5 -122t-118.5 -95t-152.5 -59.5t-191 -21.5t-185.5 21.5 t-138 59.5t-95 95t-59 122t-28 148.5t-4 165.5zM357.5 522.5q3.5 -108.5 31.5 -183.5t94.5 -115t173.5 -40q86 0 152 26.5t111.5 73t78.5 122t52.5 161t33.5 201.5q18 137 14.5 245.5t-31 183.5t-94 115t-173.5 40t-183 -38.5t-124.5 -118t-76 -181t-44.5 -246.5 q-19 -137 -15.5 -245.5zM428 1628q15 128 85 195t192 67q41 0 79.5 -13.5t67 -32t55 -37.5t55 -32.5t56.5 -13.5q91 0 104 92h146q-35 -262 -277 -262q-41 0 -79.5 13.5t-67 32.5t-55 37.5t-55 32t-56.5 13.5q-92 0 -105 -92h-145z" />
<glyph unicode="&#xd6;" horiz-adv-x="1392" d="M121.5 587q3.5 82 15.5 181q17 141 44 250.5t79 215t124.5 174.5t184.5 111t256 42q104 0 185.5 -21.5t138 -59.5t95.5 -95t60 -122t28.5 -148.5t4 -165.5t-15.5 -181t-29 -181t-45 -165.5t-64.5 -148.5t-89.5 -122t-118.5 -95t-152.5 -59.5t-191 -21.5t-185.5 21.5 t-138 59.5t-95 95t-59 122t-28 148.5t-4 165.5zM357.5 522.5q3.5 -108.5 31.5 -183.5t94.5 -115t173.5 -40q86 0 152 26.5t111.5 73t78.5 122t52.5 161t33.5 201.5q18 137 14.5 245.5t-31 183.5t-94 115t-173.5 40t-183 -38.5t-124.5 -118t-76 -181t-44.5 -246.5 q-19 -137 -15.5 -245.5zM481 1741q0 61 44 105t106 44q61 0 105 -44t44 -105q0 -62 -44 -106t-105 -44t-105.5 44.5t-44.5 105.5zM915 1741q0 61 44 105t106 44q61 0 105 -44t44 -105q0 -62 -44 -106t-105 -44t-105.5 44.5t-44.5 105.5z" />
<glyph unicode="&#xd7;" horiz-adv-x="1228" d="M137 387l346 309l-270 310l172 153l270 -309l349 309l135 -153l-348 -310l272 -309l-174 -154l-271 310l-348 -310z" />
<glyph unicode="&#xd8;" horiz-adv-x="1392" d="M82 0l119 164q-118 188 -64 604q17 141 44 250.5t79 215t124.5 174.5t184.5 111t256 42q209 0 334 -91l49 66h168l-121 -166q116 -187 66 -602q-12 -99 -29 -181t-45 -165.5t-64.5 -148.5t-89.5 -122t-118.5 -95t-152.5 -59.5t-191 -21.5q-212 0 -336 88l-45 -63h-168z M371 395l645 881q-73 76 -215 76q-107 0 -183 -38.5t-124.5 -118t-76 -181t-44.5 -246.5q-32 -246 -2 -373zM438 258q71 -74 219 -74q86 0 152 26.5t111.5 73t78.5 122t52.5 161t33.5 201.5q28 235 0 371z" />
<glyph unicode="&#xd9;" horiz-adv-x="1343" d="M111 483l131 1053h229l-127 -1032q-11 -83 4.5 -144t44 -94t74 -52.5t83.5 -24.5t83 -5q325 0 366 320l127 1032h230l-131 -1053q-11 -89 -40 -163.5t-68.5 -125.5t-91 -91t-104 -63.5t-111 -38.5t-107 -20.5t-97.5 -5.5t-96.5 5.5t-102 20.5t-100.5 38.5t-88 63.5 t-69 91t-38.5 125.5t-0.5 163.5zM539 1853h276l90 -225h-192z" />
<glyph unicode="&#xda;" horiz-adv-x="1343" d="M111 483l131 1053h229l-127 -1032q-11 -83 4.5 -144t44 -94t74 -52.5t83.5 -24.5t83 -5q325 0 366 320l127 1032h230l-131 -1053q-11 -89 -40 -163.5t-68.5 -125.5t-91 -91t-104 -63.5t-111 -38.5t-107 -20.5t-97.5 -5.5t-96.5 5.5t-102 20.5t-100.5 38.5t-88 63.5 t-69 91t-38.5 125.5t-0.5 163.5zM713 1628l147 225h277l-232 -225h-192z" />
<glyph unicode="&#xdb;" horiz-adv-x="1343" d="M111 483l131 1053h229l-127 -1032q-11 -83 4.5 -144t44 -94t74 -52.5t83.5 -24.5t83 -5q325 0 366 320l127 1032h230l-131 -1053q-11 -89 -40 -163.5t-68.5 -125.5t-91 -91t-104 -63.5t-111 -38.5t-107 -20.5t-97.5 -5.5t-96.5 5.5t-102 20.5t-100.5 38.5t-88 63.5 t-69 91t-38.5 125.5t-0.5 163.5zM432 1628l289 225h233l232 -225h-201l-164 103l-188 -103h-201z" />
<glyph unicode="&#xdc;" horiz-adv-x="1343" d="M111 483l131 1053h229l-127 -1032q-11 -83 4.5 -144t44 -94t74 -52.5t83.5 -24.5t83 -5q325 0 366 320l127 1032h230l-131 -1053q-11 -89 -40 -163.5t-68.5 -125.5t-91 -91t-104 -63.5t-111 -38.5t-107 -20.5t-97.5 -5.5t-96.5 5.5t-102 20.5t-100.5 38.5t-88 63.5 t-69 91t-38.5 125.5t-0.5 163.5zM457 1741q0 61 43.5 105t105.5 44t106 -44t44 -105t-44 -105.5t-106 -44.5q-61 0 -105 44t-44 106zM891 1741q0 61 43.5 105t105.5 44t106 -44t44 -105t-44 -105.5t-106 -44.5q-61 0 -105 44t-44 106z" />
<glyph unicode="&#xdd;" horiz-adv-x="1372" d="M174 1536h260l291 -717l467 717h260l-637 -920l-74 -616h-233l74 616zM727 1628l147 225h277l-231 -225h-193z" />
<glyph unicode="&#xde;" horiz-adv-x="1208" d="M63 0l189 1536h229l-37 -287h265q96 0 174.5 -18t131.5 -50.5t91.5 -77.5t56 -98.5t24.5 -113.5t-3 -123q-10 -78 -36 -146.5t-73.5 -130.5t-113 -106t-160 -70t-209.5 -26h-264l-35 -289h-230zM352 498h275q81 0 141.5 25t93.5 68t49.5 85.5t22.5 91.5q5 29 2.5 60 t-8.5 61t-24 57t-43.5 47.5t-68.5 32.5t-98 12h-274z" />
<glyph unicode="&#xdf;" horiz-adv-x="1153" d="M2 -512l213 1739q41 334 455 334q204 0 294.5 -86.5t69.5 -249.5q-9 -73 -44 -130t-78.5 -93t-86.5 -67t-75 -69t-37 -82q-7 -55 19 -84.5t108 -58.5q158 -56 212.5 -126.5t37.5 -205.5q-19 -152 -130 -243t-290 -91q-170 0 -271 60l25 201q129 -66 248 -66 q176 0 192 139q8 65 -30 100.5t-123 63.5q-138 46 -188.5 109.5t-37.5 179.5q7 53 27 96.5t47.5 73t59 55.5t63 49t58.5 48t46.5 59.5t24.5 75.5q9 71 -37.5 107t-128.5 36q-83 0 -138.5 -38t-64.5 -110l-211 -1726h-229z" />
<glyph unicode="&#xe0;" horiz-adv-x="1110" d="M84 512q32 263 145.5 400t329.5 137q187 0 320 -107l47 82h135l-125 -1024h-135l-29 82q-159 -107 -344 -107q-216 0 -296 137t-48 400zM307 378.5q3 -62.5 19.5 -109t61.5 -73t118 -26.5q117 0 227 59l70 566q-100 59 -213 59q-59 0 -103.5 -18t-73 -47t-49 -75.5 t-31 -92.5t-18.5 -109q-11 -71 -8 -133.5zM369 1536h276l68 -410h-193z" />
<glyph unicode="&#xe1;" horiz-adv-x="1110" d="M84 512q32 263 145.5 400t329.5 137q187 0 320 -107l47 82h135l-125 -1024h-135l-29 82q-159 -107 -344 -107q-216 0 -296 137t-48 400zM307 378.5q3 -62.5 19.5 -109t61.5 -73t118 -26.5q117 0 227 59l70 566q-100 59 -213 59q-59 0 -103.5 -18t-73 -47t-49 -75.5 t-31 -92.5t-18.5 -109q-11 -71 -8 -133.5zM520 1126l170 410h277l-254 -410h-193z" />
<glyph unicode="&#xe2;" horiz-adv-x="1110" d="M84 512q32 263 145.5 400t329.5 137q187 0 320 -107l47 82h135l-125 -1024h-135l-29 82q-159 -107 -344 -107q-216 0 -296 137t-48 400zM231 1126l320 410h233l217 -410h-194l-162 232l-219 -232h-195zM307 378.5q3 -62.5 19.5 -109t61.5 -73t118 -26.5q117 0 227 59 l70 566q-100 59 -213 59q-59 0 -103.5 -18t-73 -47t-49 -75.5t-31 -92.5t-18.5 -109q-11 -71 -8 -133.5z" />
<glyph unicode="&#xe3;" horiz-adv-x="1110" d="M84 512q32 263 145.5 400t329.5 137q187 0 320 -107l47 82h135l-125 -1024h-135l-29 82q-159 -107 -344 -107q-216 0 -296 137t-48 400zM211 1202q35 287 285 287q50 0 90.5 -15.5t66.5 -38t48.5 -45t49 -38t56.5 -15.5q59 0 82 31t29 80h153q-35 -287 -285 -287 q-50 0 -90.5 15.5t-66.5 38t-48.5 45t-49 38t-56.5 15.5q-59 0 -81.5 -30.5t-28.5 -80.5h-154zM307 378.5q3 -62.5 19.5 -109t61.5 -73t118 -26.5q117 0 227 59l70 566q-100 59 -213 59q-59 0 -103.5 -18t-73 -47t-49 -75.5t-31 -92.5t-18.5 -109q-11 -71 -8 -133.5z" />
<glyph unicode="&#xe4;" horiz-adv-x="1110" d="M84 512q32 263 145.5 400t329.5 137q187 0 320 -107l47 82h135l-125 -1024h-135l-29 82q-159 -107 -344 -107q-216 0 -296 137t-48 400zM274 1327q0 61 44 105.5t106 44.5q61 0 105 -44t44 -106q0 -61 -43.5 -105t-105.5 -44t-106 44t-44 105zM307 378.5 q3 -62.5 19.5 -109t61.5 -73t118 -26.5q117 0 227 59l70 566q-100 59 -213 59q-59 0 -103.5 -18t-73 -47t-49 -75.5t-31 -92.5t-18.5 -109q-11 -71 -8 -133.5zM709 1327q0 62 44 106t105 44q62 0 106 -44.5t44 -105.5t-44 -105t-106 -44t-105.5 44t-43.5 105z" />
<glyph unicode="&#xe5;" horiz-adv-x="1110" d="M84 512q32 263 145.5 400t329.5 137q187 0 320 -107l47 82h135l-125 -1024h-135l-29 82q-159 -107 -344 -107q-216 0 -296 137t-48 400zM307 378.5q3 -62.5 19.5 -109t61.5 -73t118 -26.5q117 0 227 59l70 566q-100 59 -213 59q-59 0 -103.5 -18t-73 -47t-49 -75.5 t-31 -92.5t-18.5 -109q-11 -71 -8 -133.5zM426 1331q13 104 78.5 157.5t163.5 53.5q99 0 150 -53.5t38 -157.5q-12 -104 -76.5 -157.5t-163.5 -53.5q-97 0 -149.5 53.5t-40.5 157.5zM563 1331q-8 -76 70 -76q80 0 88 76q11 76 -70 76q-77 0 -88 -76z" />
<glyph unicode="&#xe6;" horiz-adv-x="1640" d="M49 291q20 158 124 230.5t294 72.5h223l15 113q9 79 -29.5 112t-153.5 33q-166 0 -327 -61l24 198q64 27 158 43.5t184 16.5q241 0 320 -101q114 101 323 101q110 0 189 -24.5t121.5 -69t59 -100.5t7.5 -124q-16 -140 -126.5 -221.5t-326.5 -81.5h-227q-6 -61 2 -105 t33 -79t75.5 -52.5t127.5 -17.5q181 0 334 62l-25 -197q-161 -64 -369 -64q-237 0 -331 127q-168 -127 -386 -127q-95 0 -162.5 26.5t-101 72t-45.5 100t-4 117.5zM276 299q-7 -66 22.5 -100.5t119.5 -34.5q140 0 262 94q-18 83 -8 176h-205q-175 0 -191 -135zM922 588h223 q196 0 213 131q14 131 -182 131q-118 0 -175 -67t-79 -195z" />
<glyph unicode="&#xe7;" horiz-adv-x="921" d="M78.5 312.5q-9.5 91.5 5.5 199.5q15 125 50.5 219.5t97.5 168t160.5 111.5t230.5 38q163 0 276 -52l-25 -198q-113 47 -262 47q-141 0 -209 -86t-88 -248q-20 -161 27 -247.5t188 -86.5q149 0 275 47l-25 -198q-119 -49 -272 -52l-6 -98q183 -45 168 -190 q-12 -96 -85 -147.5t-184 -51.5q-119 0 -194 39l18 156q93 -37 164 -37q111 0 119 61q6 45 -30.5 67t-123.5 33l39 175q-102 14 -171 58t-101.5 112.5t-42 160z" />
<glyph unicode="&#xe8;" horiz-adv-x="1044" d="M84 512q32 261 156.5 399t367.5 138q110 0 189 -24.5t121.5 -69t59 -100.5t7.5 -124q-16 -140 -126.5 -221.5t-326.5 -81.5h-227q-6 -61 2 -105t33 -79t75.5 -52.5t127.5 -17.5q181 0 334 62l-25 -197q-161 -64 -369 -64q-247 0 -339 138t-60 399zM326 588h223 q196 0 213 131q14 131 -182 131q-118 0 -175 -67t-79 -195zM367 1536h276l68 -410h-193z" />
<glyph unicode="&#xe9;" horiz-adv-x="1044" d="M84 512q32 261 156.5 399t367.5 138q110 0 189 -24.5t121.5 -69t59 -100.5t7.5 -124q-16 -140 -126.5 -221.5t-326.5 -81.5h-227q-6 -61 2 -105t33 -79t75.5 -52.5t127.5 -17.5q181 0 334 62l-25 -197q-161 -64 -369 -64q-247 0 -339 138t-60 399zM326 588h223 q196 0 213 131q14 131 -182 131q-118 0 -175 -67t-79 -195zM518 1126l170 410h277l-254 -410h-193z" />
<glyph unicode="&#xea;" horiz-adv-x="1044" d="M84 512q32 261 156.5 399t367.5 138q110 0 189 -24.5t121.5 -69t59 -100.5t7.5 -124q-16 -140 -126.5 -221.5t-326.5 -81.5h-227q-6 -61 2 -105t33 -79t75.5 -52.5t127.5 -17.5q181 0 334 62l-25 -197q-161 -64 -369 -64q-247 0 -339 138t-60 399zM229 1126l320 410h233 l217 -410h-194l-162 232l-219 -232h-195zM326 588h223q196 0 213 131q14 131 -182 131q-118 0 -175 -67t-79 -195z" />
<glyph unicode="&#xeb;" horiz-adv-x="1044" d="M84 512q32 261 156.5 399t367.5 138q110 0 189 -24.5t121.5 -69t59 -100.5t7.5 -124q-16 -140 -126.5 -221.5t-326.5 -81.5h-227q-6 -61 2 -105t33 -79t75.5 -52.5t127.5 -17.5q181 0 334 62l-25 -197q-161 -64 -369 -64q-247 0 -339 138t-60 399zM272 1327 q0 61 44 105.5t106 44.5q61 0 105 -44t44 -106q0 -61 -43.5 -105t-105.5 -44t-106 44t-44 105zM326 588h223q196 0 213 131q14 131 -182 131q-118 0 -175 -67t-79 -195zM707 1327q0 62 44 106t105 44q62 0 106 -44.5t44 -105.5t-44 -105t-106 -44t-105.5 44t-43.5 105z" />
<glyph unicode="&#xec;" horiz-adv-x="526" d="M76 1536h276l68 -410h-193zM102 252l95 772h229l-94 -770q-6 -43 10.5 -60.5t65.5 -17.5l-23 -186q-20 -4 -45 -4q-273 0 -238 266z" />
<glyph unicode="&#xed;" horiz-adv-x="526" d="M102 252l95 772h229l-94 -770q-6 -43 10.5 -60.5t65.5 -17.5l-23 -186q-20 -4 -45 -4q-273 0 -238 266zM227 1126l170 410h277l-254 -410h-193z" />
<glyph unicode="&#xee;" horiz-adv-x="526" d="M-61 1126l319 410h234l217 -410h-195l-162 232l-219 -232h-194zM102 252l95 772h229l-94 -770q-6 -43 10.5 -60.5t65.5 -17.5l-23 -186q-20 -4 -45 -4q-273 0 -238 266z" />
<glyph unicode="&#xef;" horiz-adv-x="526" d="M12 1327q0 61 44 105.5t106 44.5q61 0 105 -44t44 -106q0 -61 -43.5 -105t-105.5 -44t-106 44t-44 105zM102 252l95 772h229l-94 -770q-6 -43 10.5 -60.5t65.5 -17.5l-23 -186q-20 -4 -45 -4q-273 0 -238 266zM385 1327q0 61 44.5 105.5t105.5 44.5t105 -44t44 -106 q0 -61 -44 -105t-105 -44q-62 0 -106 44t-44 105z" />
<glyph unicode="&#xf0;" d="M77 295.5q-11 98.5 7 216.5q16 130 50.5 226.5t93 167.5t148 107t208.5 36q118 0 168 -37q-41 118 -121 219l-320 -154l19 156l215 102q-114 112 -273 201h336q93 -67 131 -106l248 118l-18 -155l-138 -66q217 -297 162 -815q-12 -100 -33.5 -177.5t-61 -147t-95.5 -115 t-139.5 -71.5t-190.5 -26q-133 0 -220 39.5t-126 111t-50 170zM307 325.5q5 -76.5 51 -117t140 -40.5q58 0 100 15.5t69.5 41.5t46.5 72t29 94.5t19 120.5q13 110 8.5 186.5t-49.5 117t-139 40.5q-58 0 -100.5 -15.5t-70 -42t-47 -71.5t-30 -94.5t-19.5 -120.5 q-13 -110 -8 -186.5z" />
<glyph unicode="&#xf1;" horiz-adv-x="1073" d="M51 0l125 1024h135l27 -82q168 107 344 107q354 0 313 -326l-88 -723h-229l86 702q9 78 -26 115t-117 37q-132 0 -244 -59l-96 -795h-230zM215 1202q35 287 285 287q50 0 90.5 -15.5t66.5 -38t48.5 -45t49 -38t56.5 -15.5q59 0 82 31t29 80h153q-35 -287 -284 -287 q-50 0 -90.5 15.5t-66.5 38t-49 45t-49.5 38t-56.5 15.5q-59 0 -81.5 -30.5t-28.5 -80.5h-154z" />
<glyph unicode="&#xf2;" d="M77 295.5q-11 98.5 7 216.5q12 100 33.5 177.5t61 147t95.5 115t139.5 71.5t190.5 26q133 0 220 -39.5t126 -111t50 -170t-7 -216.5q-12 -100 -33.5 -177.5t-61 -147t-95.5 -115t-139.5 -71.5t-190.5 -26q-133 0 -220 39.5t-126 111t-50 170zM307 325.5q5 -76.5 51 -117 t140 -40.5q58 0 100 15.5t69.5 41.5t46.5 72t29 94.5t19 120.5q13 110 8.5 186.5t-49.5 117t-139 40.5q-58 0 -100.5 -15.5t-70 -42t-47 -71.5t-30 -94.5t-19.5 -120.5q-13 -110 -8 -186.5zM367 1536h276l68 -410h-193z" />
<glyph unicode="&#xf3;" d="M77 295.5q-11 98.5 7 216.5q12 100 33.5 177.5t61 147t95.5 115t139.5 71.5t190.5 26q133 0 220 -39.5t126 -111t50 -170t-7 -216.5q-12 -100 -33.5 -177.5t-61 -147t-95.5 -115t-139.5 -71.5t-190.5 -26q-133 0 -220 39.5t-126 111t-50 170zM307 325.5q5 -76.5 51 -117 t140 -40.5q58 0 100 15.5t69.5 41.5t46.5 72t29 94.5t19 120.5q13 110 8.5 186.5t-49.5 117t-139 40.5q-58 0 -100.5 -15.5t-70 -42t-47 -71.5t-30 -94.5t-19.5 -120.5q-13 -110 -8 -186.5zM518 1126l170 410h277l-254 -410h-193z" />
<glyph unicode="&#xf4;" d="M77 295.5q-11 98.5 7 216.5q12 100 33.5 177.5t61 147t95.5 115t139.5 71.5t190.5 26q133 0 220 -39.5t126 -111t50 -170t-7 -216.5q-12 -100 -33.5 -177.5t-61 -147t-95.5 -115t-139.5 -71.5t-190.5 -26q-133 0 -220 39.5t-126 111t-50 170zM229 1126l320 410h233 l217 -410h-194l-162 232l-219 -232h-195zM307 325.5q5 -76.5 51 -117t140 -40.5q58 0 100 15.5t69.5 41.5t46.5 72t29 94.5t19 120.5q13 110 8.5 186.5t-49.5 117t-139 40.5q-58 0 -100.5 -15.5t-70 -42t-47 -71.5t-30 -94.5t-19.5 -120.5q-13 -110 -8 -186.5z" />
<glyph unicode="&#xf5;" d="M77 295.5q-11 98.5 7 216.5q12 100 33.5 177.5t61 147t95.5 115t139.5 71.5t190.5 26q133 0 220 -39.5t126 -111t50 -170t-7 -216.5q-12 -100 -33.5 -177.5t-61 -147t-95.5 -115t-139.5 -71.5t-190.5 -26q-133 0 -220 39.5t-126 111t-50 170zM209 1202q35 287 285 287 q50 0 90.5 -15.5t66.5 -38t48.5 -45t49 -38t56.5 -15.5q59 0 81.5 30.5t28.5 80.5h154q-35 -287 -285 -287q-50 0 -90.5 15.5t-66.5 38t-48.5 45t-49 38t-56.5 15.5q-59 0 -82 -31t-29 -80h-153zM307 325.5q5 -76.5 51 -117t140 -40.5q58 0 100 15.5t69.5 41.5t46.5 72 t29 94.5t19 120.5q13 110 8.5 186.5t-49.5 117t-139 40.5q-58 0 -100.5 -15.5t-70 -42t-47 -71.5t-30 -94.5t-19.5 -120.5q-13 -110 -8 -186.5z" />
<glyph unicode="&#xf6;" d="M77 295.5q-11 98.5 7 216.5q12 100 33.5 177.5t61 147t95.5 115t139.5 71.5t190.5 26q133 0 220 -39.5t126 -111t50 -170t-7 -216.5q-12 -100 -33.5 -177.5t-61 -147t-95.5 -115t-139.5 -71.5t-190.5 -26q-133 0 -220 39.5t-126 111t-50 170zM272 1327q0 61 44 105.5 t106 44.5q61 0 105 -44t44 -106q0 -61 -43.5 -105t-105.5 -44t-106 44t-44 105zM307 325.5q5 -76.5 51 -117t140 -40.5q58 0 100 15.5t69.5 41.5t46.5 72t29 94.5t19 120.5q13 110 8.5 186.5t-49.5 117t-139 40.5q-58 0 -100.5 -15.5t-70 -42t-47 -71.5t-30 -94.5 t-19.5 -120.5q-13 -110 -8 -186.5zM707 1327q0 62 44 106t105 44q62 0 106 -44.5t44 -105.5t-44 -105t-106 -44t-105.5 44t-43.5 105z" />
<glyph unicode="&#xf7;" horiz-adv-x="1228" d="M166 588l27 219h917l-27 -219h-917zM444 348q0 62 44 106t106 44q61 0 105 -44t44 -106t-43.5 -105.5t-105.5 -43.5t-106 44t-44 105zM532 1057q0 61 44 105t106 44t105.5 -44t43.5 -105q0 -62 -44 -106t-105 -44q-62 0 -106 44.5t-44 105.5z" />
<glyph unicode="&#xf8;" d="M33 0l100 119q-82 126 -49 393q12 100 33.5 177.5t61 147t95.5 115t139.5 71.5t190.5 26q161 0 258 -62l31 37h154l-101 -119q80 -129 47 -393q-12 -100 -33.5 -177.5t-61 -147t-95.5 -115t-139.5 -71.5t-190.5 -26q-162 0 -258 60l-29 -35h-153zM307 326l410 491 q-45 39 -135 39q-58 0 -100.5 -15.5t-70 -42t-47 -71.5t-30 -94.5t-19.5 -120.5q-14 -132 -8 -186zM358 207q42 -39 140 -39q58 0 100 15.5t69.5 41.5t46.5 72t29 94.5t19 120.5q13 118 8 184z" />
<glyph unicode="&#xf9;" horiz-adv-x="1073" d="M80 301l88 723h229l-86 -702q-9 -78 26.5 -115t117.5 -37q129 0 241 59l99 795h229l-125 -1024h-135l-29 82q-168 -107 -344 -107q-187 0 -259 85t-52 241zM360 1536h277l68 -410h-193z" />
<glyph unicode="&#xfa;" horiz-adv-x="1073" d="M80 301l88 723h229l-86 -702q-9 -78 26.5 -115t117.5 -37q129 0 241 59l99 795h229l-125 -1024h-135l-29 82q-168 -107 -344 -107q-187 0 -259 85t-52 241zM512 1126l170 410h276l-253 -410h-193z" />
<glyph unicode="&#xfb;" horiz-adv-x="1073" d="M80 301l88 723h229l-86 -702q-9 -78 26.5 -115t117.5 -37q129 0 241 59l99 795h229l-125 -1024h-135l-29 82q-168 -107 -344 -107q-187 0 -259 85t-52 241zM223 1126l320 410h233l217 -410h-194l-162 232l-219 -232h-195z" />
<glyph unicode="&#xfc;" horiz-adv-x="1073" d="M80 301l88 723h229l-86 -702q-9 -78 26.5 -115t117.5 -37q129 0 241 59l99 795h229l-125 -1024h-135l-29 82q-168 -107 -344 -107q-187 0 -259 85t-52 241zM266 1327q0 61 44 105.5t106 44.5q61 0 105 -44t44 -106q0 -61 -43.5 -105t-105.5 -44t-106 44t-44 105z M700 1327q0 61 44 105.5t106 44.5q61 0 105 -44t44 -106q0 -61 -43.5 -105t-105.5 -44t-106 44t-44 105z" />
<glyph unicode="&#xfd;" horiz-adv-x="1073" d="M14 -485l27 202q157 -59 315 -59q82 0 140 18.5t90 53.5t47.5 75.5t21.5 94.5l19 145q-143 -70 -283 -70q-187 0 -259 85t-52 241l88 723h229l-86 -702q-9 -78 26.5 -115t117.5 -37q129 0 241 59l99 795h229l-135 -1096q-10 -83 -28.5 -146t-58 -125.5t-98 -103 t-153 -65.5t-219.5 -25q-176 0 -318 52zM512 1126l170 410h276l-253 -410h-193z" />
<glyph unicode="&#xfe;" horiz-adv-x="1110" d="M-12 -512l252 2048h229l-70 -567q133 80 283 80q216 0 296 -137.5t48 -399.5t-145.5 -399.5t-329.5 -137.5q-148 0 -264 80l-70 -567h-229zM307 229q100 -59 215 -59q59 0 103.5 18t73 47.5t48.5 75.5t30 92.5t18 108.5q11 70 8 132.5t-18.5 109t-60.5 73.5t-118 27 q-119 0 -229 -59z" />
<glyph unicode="&#xff;" horiz-adv-x="1073" d="M14 -485l27 202q157 -59 315 -59q82 0 140 18.5t90 53.5t47.5 75.5t21.5 94.5l19 145q-143 -70 -283 -70q-187 0 -259 85t-52 241l88 723h229l-86 -702q-9 -78 26.5 -115t117.5 -37q129 0 241 59l99 795h229l-135 -1096q-10 -83 -28.5 -146t-58 -125.5t-98 -103 t-153 -65.5t-219.5 -25q-176 0 -318 52zM266 1327q0 61 44 105.5t106 44.5q61 0 105 -44t44 -106q0 -61 -43.5 -105t-105.5 -44t-106 44t-44 105zM700 1327q0 61 44 105.5t106 44.5q61 0 105 -44t44 -106q0 -61 -43.5 -105t-105.5 -44t-106 44t-44 105z" />
<glyph unicode="&#x152;" horiz-adv-x="1937" d="M118 559.5q-3 99.5 13 208.5q17 137 49 248t90 210t139 166t200 105.5t268 38.5h1089l-27 -211h-673l-52 -424h609l-27 -211h-608l-60 -479h674l-24 -211h-1090q-125 0 -222 26.5t-161 75.5t-107 118.5t-60 154.5t-20 184.5zM363 540q10 -103 45.5 -176t111 -113 t187.5 -40h192l137 1114h-192q-90 0 -163 -26t-124.5 -73.5t-89.5 -117.5t-60.5 -153t-35.5 -187q-18 -125 -8 -228z" />
<glyph unicode="&#x153;" horiz-adv-x="1724" d="M77 295.5q-11 98.5 7 216.5q12 100 33.5 177.5t61 147t95.5 115t139.5 71.5t190.5 26q239 0 326 -150q126 150 358 150q110 0 189 -24.5t121.5 -69t59 -100.5t7.5 -124q-16 -140 -126.5 -221.5t-326.5 -81.5h-227q-6 -61 2 -105t33 -79t75.5 -52.5t127.5 -17.5 q180 0 333 62l-24 -197q-161 -64 -369 -64q-235 0 -327 150q-123 -150 -363 -150q-133 0 -220 39.5t-126 111t-50 170zM307 325.5q5 -76.5 51 -117t140 -40.5q58 0 100 15.5t69.5 41.5t46.5 72t29 94.5t19 120.5q13 110 8.5 186.5t-49.5 117t-139 40.5q-58 0 -100.5 -15.5 t-70 -42t-47 -71.5t-30 -94.5t-19.5 -120.5q-13 -110 -8 -186.5zM1006 588h223q196 0 213 131q14 131 -182 131q-118 0 -175 -67t-79 -195z" />
<glyph unicode="&#x178;" horiz-adv-x="1372" d="M174 1536h260l291 -717l467 717h260l-637 -920l-74 -616h-233l74 616zM471 1741q0 61 44 105t106 44q61 0 105 -44t44 -105q0 -62 -44 -106t-105 -44t-105.5 44.5t-44.5 105.5zM905 1741q0 61 44 105t106 44q61 0 105 -44t44 -105q0 -62 -44 -106t-105 -44t-105.5 44.5 t-44.5 105.5z" />
<glyph unicode="&#x2c6;" d="M229 1126l320 410h233l217 -410h-194l-162 232l-219 -232h-195z" />
<glyph unicode="&#x2dc;" d="M209 1202q35 287 285 287q50 0 90.5 -15.5t66.5 -38t48.5 -45t49 -38t56.5 -15.5q59 0 81.5 30.5t28.5 80.5h154q-35 -287 -285 -287q-50 0 -90.5 15.5t-66.5 38t-48.5 45t-49 38t-56.5 15.5q-59 0 -82 -31t-29 -80h-153z" />
<glyph unicode="&#x2000;" horiz-adv-x="954" />
<glyph unicode="&#x2001;" horiz-adv-x="1909" />
<glyph unicode="&#x2002;" horiz-adv-x="954" />
<glyph unicode="&#x2003;" horiz-adv-x="1909" />
<glyph unicode="&#x2004;" horiz-adv-x="636" />
<glyph unicode="&#x2005;" horiz-adv-x="477" />
<glyph unicode="&#x2006;" horiz-adv-x="318" />
<glyph unicode="&#x2007;" horiz-adv-x="318" />
<glyph unicode="&#x2008;" horiz-adv-x="238" />
<glyph unicode="&#x2009;" horiz-adv-x="381" />
<glyph unicode="&#x200a;" horiz-adv-x="106" />
<glyph unicode="&#x2010;" horiz-adv-x="645" d="M66 535l24 206h522l-24 -206h-522z" />
<glyph unicode="&#x2011;" horiz-adv-x="645" d="M66 535l24 206h522l-24 -206h-522z" />
<glyph unicode="&#x2012;" horiz-adv-x="645" d="M66 535l24 206h522l-24 -206h-522z" />
<glyph unicode="&#x2013;" horiz-adv-x="1024" d="M96 535l25 206h840l-25 -206h-840z" />
<glyph unicode="&#x2014;" horiz-adv-x="2048" d="M96 535l25 206h1864l-25 -206h-1864z" />
<glyph unicode="&#x2018;" horiz-adv-x="339" d="M27 1024l243 512h150l-123 -512h-270z" />
<glyph unicode="&#x2019;" horiz-adv-x="339" d="M111 1024l122 512h271l-244 -512h-149z" />
<glyph unicode="&#x201a;" horiz-adv-x="362" d="M-86 -344l121 512h270l-244 -512h-147z" />
<glyph unicode="&#x201c;" horiz-adv-x="688" d="M27 1024l243 512h150l-123 -512h-270zM375 1024l243 512h150l-123 -512h-270z" />
<glyph unicode="&#x201d;" horiz-adv-x="688" d="M111 1024l122 512h271l-244 -512h-149zM459 1024l123 512h270l-244 -512h-149z" />
<glyph unicode="&#x201e;" horiz-adv-x="710" d="M-86 -344l121 512h270l-244 -512h-147zM260 -344l123 512h270l-243 -512h-150z" />
<glyph unicode="&#x2022;" horiz-adv-x="786" d="M145 768q0 117 82 199t199 82t199 -82t82 -199t-82 -199t-199 -82t-199 82t-82 199z" />
<glyph unicode="&#x2026;" horiz-adv-x="2048" d="M145 125q0 61 44 105t106 44q61 0 105 -44t44 -105q0 -62 -44 -106t-105 -44t-105.5 44.5t-44.5 105.5zM827 125q0 61 44 105t106 44q61 0 105 -44t44 -105q0 -62 -44 -106t-105 -44t-105.5 44.5t-44.5 105.5zM1509 125q0 61 44 105t106 44q61 0 105 -44t44 -105 q0 -62 -44 -106t-105 -44t-105.5 44.5t-44.5 105.5z" />
<glyph unicode="&#x202f;" horiz-adv-x="381" />
<glyph unicode="&#x2039;" horiz-adv-x="591" d="M86 432l20 160l426 299l-24 -207l-215 -172l172 -172l-27 -207z" />
<glyph unicode="&#x203a;" horiz-adv-x="591" d="M59 133l27 207l213 172l-170 172l25 207l352 -299l-21 -160z" />
<glyph unicode="&#x205f;" horiz-adv-x="477" />
<glyph unicode="&#x20ac;" horiz-adv-x="1210" d="M31 418l20 170h131q0 28 4 53l9 53h-132l21 170h149q150 441 639 441q210 0 340 -56l-24 -207q-142 56 -330 56q-278 0 -383 -234h508l-80 -170h-477q-6 -28 -8 -53l-4 -53h440l-78 -170h-354q22 -116 100 -176t223 -60q191 0 345 56l-27 -207q-136 -56 -354 -56 q-251 0 -380.5 111t-148.5 332h-149z" />
<glyph unicode="&#x2122;" horiz-adv-x="1177" d="M133 1413l17 123h419l-16 -123h-141l-47 -389h-138l47 389h-141zM582 1024l63 512h154l96 -313l174 313h154l-64 -512h-127l43 301l-151 -268h-99l-86 268l-30 -301h-127z" />
<glyph unicode="&#x25fc;" horiz-adv-x="1024" d="M0 0v1024h1024v-1024h-1024z" />
</font>
</defs>
</svg>
