<svg xmlns="http://www.w3.org/2000/svg" viewBox="0 0 60 50"><path d="M20 0h20l5 7.5h7.5c2.1 0 3.8.7 5.3 2.2C59.3 11.2 60 13 60 15v27.5c0 2.1-.7 3.8-2.2 5.3-1.4 1.4-3.2 2.2-5.3 2.2h-45c-2.1 0-3.8-.7-5.3-2.2C.7 46.3 0 44.6 0 42.5V15c0-2.1.7-3.8 2.2-5.3 1.5-1.5 3.3-2.2 5.3-2.2H15L20 0zm17.4 5H22.7l-5 7.5H7.5c-.7 0-1.3.3-1.8.8-.5.4-.7 1-.7 1.7v27.5c0 .7.3 1.3.8 1.8.4.4 1 .7 1.7.7h45c.7 0 1.3-.2 1.8-.7.5-.5.8-1.1.8-1.8V15.1c0-.7-.3-1.3-.8-1.8s-1.1-.8-1.8-.8H42.3L37.4 5zm-2.5 11c1.5.7 2.9 1.5 4 2.6s2 2.5 2.6 4c.7 1.6 1 3.2 1 4.9 0 1.7-.3 3.3-1 4.9-.7 1.5-1.5 2.9-2.6 4s-2.5 2-4 2.6c-1.6.7-3.2 1-4.9 1-1.7 0-3.3-.3-4.9-1-1.5-.7-2.9-1.5-4-2.6s-2-2.5-2.6-4c-.7-1.6-1-3.2-1-4.9 0-1.7.3-3.3 1-4.9.7-1.5 1.5-2.9 2.6-4s2.5-2 4-2.6c1.6-.7 3.2-1 4.9-1 1.7 0 3.3.3 4.9 1zm-10.2 6.1c-1.5 1.5-2.2 3.3-2.2 5.3 0 2.1.7 3.8 2.2 5.3 1.5 1.5 3.3 2.2 5.3 2.2 2.1 0 3.8-.7 5.3-2.2 1.5-1.5 2.2-3.3 2.2-5.3 0-2.1-.7-3.8-2.2-5.3-1.5-1.4-3.2-2.1-5.3-2.1-2.1 0-3.8.7-5.3 2.1z"/></svg>