<?xml version="1.0" encoding="utf-8"?>
<!-- Generator: Adobe Illustrator 24.2.3, SVG Export Plug-In . SVG Version: 6.00 Build 0)  -->
<svg version="1.1" id="Layer_1" xmlns="http://www.w3.org/2000/svg" xmlns:xlink="http://www.w3.org/1999/xlink" x="0px" y="0px"
	 viewBox="0 0 307.72 47.65" style="enable-background:new 0 0 307.72 47.65;" xml:space="preserve">
<style type="text/css">
	.st0{fill:#FFFFFF;}
</style>
<g>
	<path class="st0" d="M3.7,35.73L2.06,38.2H0.32L0,25.66h1.16c2.06,5.68,5.24,11.09,11.38,11.09c4.44,0,6.61-2.73,6.61-6.75
		c0-3.27-1.64-5.73-4.87-7.12c-2.75-1.18-4.71-1.93-7.46-3.21c-3.65-1.71-5.87-4.71-5.87-9.37c0-5.68,4.44-9.91,10.27-9.91
		c2.54,0,5.71,1.13,7.46,2.57l1.53-2.41h1.8l0.26,12.16h-1.16C19.1,6.65,16.72,1.99,10.21,1.99c-1.43,0-5.03,1.29-5.03,5.46
		c0,3.27,1.43,5.14,4.44,6.91c2.43,1.45,4.92,2.09,7.09,3.16c4.02,2.04,6.98,4.18,6.98,9.69c0,6.53-4.87,11.14-11.48,11.14
		C8.15,38.36,5.24,37.02,3.7,35.73"/>
	<path class="st0" d="M25.08,25.45c0-6.59,4.18-12.69,10.9-12.69c4.97,0,7.51,2.95,7.51,6.21c0,1.77-1.01,3-2.7,3
		c-0.95,0-2.86-0.59-2.86-2.68c0-2.25,0.64-2.3,0.64-3.32c-0.26-1.55-1.01-1.93-2.65-1.93c-2.86,0-5.61,2.84-5.61,10.93
		c0,6.48,2.33,10.98,6.46,10.98c3.28,0,5.29-1.66,6.83-4.77l1.06,0.75c-1.8,3.53-5.19,6.37-9.05,6.37
		C28.57,38.3,25.08,32.84,25.08,25.45"/>
	<path class="st0" d="M47.52,3.37C47.52,1.55,48.95,0,50.7,0c1.96,0,3.28,1.45,3.28,3.16c0,1.87-1.38,3.48-3.28,3.48
		C48.95,6.64,47.52,5.14,47.52,3.37 M45.25,36.59c0.85-0.05,1.53-0.16,2.17-0.37c0.9-0.32,1.32-1.34,1.32-2.41V18.43
		c-0.11-1.12-0.53-2.09-1.32-2.68c-0.58-0.43-2.06-0.96-2.91-1.02v-1.02l8.68-0.59l0.32,0.37v19.98c0,1.12,0.48,2.03,1.32,2.46
		c0.74,0.37,1.59,0.59,2.17,0.64v1.07H45.25V36.59z"/>
	<path class="st0" d="M71.16,22.24c0-3.86-0.74-8.25-4.13-8.25c-2.86,0-4.97,3.32-5.08,8.35L71.16,22.24z M56.77,25.34
		c0-6.43,3.81-12.59,10.32-12.59c6.67,0,9.15,4.82,9.15,10.28v0.48H61.96v0.59c0,6.91,2.01,11.84,6.98,11.84
		c3.6,0,4.92-1.5,6.72-4.77l0.95,0.64c-1.69,3.8-4.97,6.48-9.05,6.48C60.21,38.3,56.77,32.41,56.77,25.34"/>
	<path class="st0" d="M76.56,36.59c0.85-0.05,1.53-0.16,2.17-0.37c0.9-0.32,1.32-1.23,1.32-2.41V18.43
		c-0.11-1.12-0.53-2.25-1.32-2.84c-0.53-0.43-1.59-0.8-2.43-0.86v-1.02l8.15-0.59l0.37,0.37v3.64h0.05
		c1.85-1.98,3.65-4.39,7.73-4.39c4.44,0,6.51,3.37,6.51,8.46v12.37c0,1.18,0.37,1.98,1.22,2.41c0.69,0.32,1.32,0.54,2.22,0.59v1.07
		H90.8v-1.07c0.79-0.05,1.64-0.16,2.22-0.37c0.9-0.32,1.27-1.23,1.27-2.41V21.11c0-3.7-1.8-5.68-3.81-5.68
		c-3.33,0-5.19,2.25-5.66,3.48v14.62c0,1.18,0.42,1.98,1.22,2.41c0.63,0.37,1.48,0.59,2.22,0.64v1.07H76.56V36.59z"/>
	<path class="st0" d="M101.7,25.45c0-6.59,4.18-12.69,10.9-12.69c4.97,0,7.51,2.95,7.51,6.21c0,1.77-1.01,3-2.7,3
		c-0.95,0-2.86-0.59-2.86-2.68c0-2.25,0.64-2.3,0.64-3.32c-0.26-1.55-1.01-1.93-2.65-1.93c-2.86,0-5.61,2.84-5.61,10.93
		c0,6.48,2.33,10.98,6.46,10.98c3.28,0,5.29-1.66,6.83-4.77l1.06,0.75c-1.8,3.53-5.19,6.37-9.05,6.37
		C105.19,38.3,101.7,32.84,101.7,25.45"/>
	<path class="st0" d="M135.72,22.24c0-3.86-0.74-8.25-4.13-8.25c-2.86,0-4.97,3.32-5.08,8.35L135.72,22.24z M121.33,25.34
		c0-6.43,3.81-12.59,10.32-12.59c6.67,0,9.15,4.82,9.15,10.28v0.48h-14.29v0.59c0,6.91,2.01,11.84,6.98,11.84
		c3.6,0,4.92-1.5,6.72-4.77l0.95,0.64c-1.69,3.8-4.97,6.48-9.05,6.48C124.77,38.3,121.33,32.41,121.33,25.34"/>
	<path class="st0" d="M150.12,35.85l-1.4,2.07h-1.49l-0.27-10.54h0.99c1.76,4.78,4.46,9.33,9.69,9.33c3.78,0,5.63-2.3,5.63-5.68
		c0-2.75-1.4-4.82-4.14-5.99c-2.34-0.99-4.01-1.62-6.35-2.7c-3.11-1.44-5-3.96-5-7.88c0-4.78,3.78-8.33,8.74-8.33
		c2.16,0,4.87,0.95,6.35,2.16l1.31-2.03h1.53l0.23,10.23h-0.99c-1.71-5.09-3.74-9.01-9.28-9.01c-1.22,0-4.28,1.08-4.28,4.6
		c0,2.75,1.22,4.32,3.78,5.81c2.07,1.22,4.19,1.76,6.04,2.66c3.42,1.71,5.95,3.51,5.95,8.15c0,5.5-4.14,9.37-9.78,9.37
		C153.91,38.06,151.43,36.93,150.12,35.85z"/>
	<path class="st0" d="M169.23,36.57c0.72-0.04,1.31-0.14,1.85-0.32c0.77-0.27,1.13-1.13,1.13-2.03V21.3
		c-0.09-0.95-0.45-1.76-1.13-2.25c-0.5-0.36-1.76-0.81-2.48-0.86v-0.86l7.39-0.5l0.27,0.32v16.8c0,0.95,0.41,1.71,1.13,2.07
		c0.63,0.32,1.35,0.5,1.85,0.54v0.9h-10V36.57z M171.16,7.56c0-1.53,1.22-2.84,2.7-2.84c1.67,0,2.79,1.22,2.79,2.66
		c0,1.58-1.17,2.93-2.79,2.93C172.38,10.3,171.16,9.04,171.16,7.56z"/>
	<path class="st0" d="M179.27,42.15c0-2.52,2.16-4.69,6.44-4.82v-0.32c-1.58-0.5-4.37-1.4-4.37-3.96c0-2.21,2.39-3.06,3.74-3.65
		v-0.27c-2.97-1.22-4.73-3.33-4.73-5.99c0-4.14,3.33-6.62,7.43-6.62c2.79,0,5.23,1.35,5.77,1.35c1.49-1.04,2.43-1.35,4.19-1.35
		c0.99,0,1.98,0.95,1.98,2.16c0,1.31-0.68,2.21-1.8,2.21c-1.49,0-1.89-0.99-1.89-2.88c-1.22,0-1.85,0.23-2.43,0.72v0.36
		c0.95,1.17,1.53,2.93,1.53,4.28c0,3.92-3.74,6.4-7.03,6.4h-2.34c-0.72,0.41-1.26,0.95-1.26,1.94c0,2.21,2.48,2.12,4.28,2.21
		c1.17,0.05,3.78,0.23,4.64,0.27c2.39,0.14,5.23,2.34,5.23,6.13c0,4.14-3.47,7.34-10.36,7.34
		C181.88,47.65,179.27,45.58,179.27,42.15z M194.99,41.21c0-1.04-0.18-2.52-1.98-3.2c-0.81-0.14-2.75-0.32-6.26-0.32
		c-2.7,0.63-3.6,2.03-3.6,4.73c0,1.8,1.62,4.05,5.86,4.05C192.79,46.48,194.99,44.72,194.99,41.21z M190.94,23.23
		c0-2.97-0.9-5.72-3.24-5.72c-2.43,0-3.11,2.61-3.11,5.59c0,3.2,1.26,5.63,3.15,5.63C189.95,28.73,190.94,26.12,190.94,23.23z"/>
	<path class="st0" d="M200.72,36.57c0.72-0.04,1.31-0.14,1.85-0.32c0.77-0.27,1.13-1.04,1.13-2.03V21.3
		c-0.09-0.95-0.45-1.89-1.13-2.39c-0.45-0.36-1.35-0.68-2.07-0.72v-0.86l6.94-0.5l0.32,0.32v3.06h0.05
		c1.58-1.67,3.11-3.69,6.58-3.69c3.78,0,5.54,2.84,5.54,7.12v10.41c0,0.99,0.32,1.67,1.04,2.03c0.59,0.27,1.13,0.45,1.89,0.5v0.9
		h-10v-0.9c0.68-0.04,1.4-0.14,1.89-0.32c0.77-0.27,1.08-1.04,1.08-2.03V23.55c0-3.11-1.53-4.78-3.24-4.78
		c-2.84,0-4.41,1.89-4.82,2.93V34c0,0.99,0.36,1.67,1.04,2.03c0.54,0.32,1.26,0.5,1.89,0.54v0.9h-9.96V36.57z"/>
	<path class="st0" d="M223.47,33.23c0-3.69,1.98-4.96,3.96-5.81c2.39-0.99,5.14-1.71,6.89-2.84v-2.52c0-0.81-0.09-4.55-3.38-4.55
		c-1.4,0-1.94,1.04-2.3,1.53c0,0.68,0.41,1.67,0.41,2.66c0,1.17-1.26,1.98-2.7,1.98c-1.31,0-1.89-1.08-1.89-2.39
		c0-2.7,3.56-4.78,6.76-4.78c4.1,0,7.21,0.68,7.21,6.67c0,3.96-0.23,8.6-0.23,10.09c0,0.81,0.72,2.3,1.89,2.3
		c1.22,0,1.4-1.76,1.49-3.47h0.99c-0.23,4.19-1.89,5.81-4.46,5.81c-1.94,0-3.11-0.95-3.74-3.02h-0.14c-1.49,1.89-3.6,3.11-6.04,3.11
		C225.41,38.01,223.47,36.12,223.47,33.23z M234.19,33.78l0.18-7.88c-3.87,1.4-6.58,2.66-6.58,6.67c0,2.16,1.04,3.38,2.66,3.38
		C232.52,35.94,233.24,35.13,234.19,33.78z"/>
	<path class="st0" d="M242.66,36.57c0.72-0.04,1.35-0.14,1.89-0.32c0.77-0.27,1.08-1.04,1.08-2.03V8.68
		c-0.05-1.04-0.41-2.07-1.08-2.57c-0.5-0.36-2.12-0.86-2.84-0.9V4.36l7.7-0.5l0.27,0.32v29.78c0,0.99,0.36,1.71,1.13,2.07
		c0.59,0.32,1.13,0.5,1.85,0.54v0.9h-10V36.57z"/>
	<path class="st0" d="M254.28,36.57c0.72-0.04,1.31-0.14,1.85-0.32c0.77-0.27,1.13-1.13,1.13-2.03V21.3
		c-0.09-0.95-0.45-1.76-1.13-2.25c-0.5-0.36-1.76-0.81-2.48-0.86v-0.86l7.39-0.5l0.27,0.32v16.8c0,0.95,0.41,1.71,1.13,2.07
		c0.63,0.32,1.35,0.5,1.85,0.54v0.9h-10V36.57z M256.22,7.56c0-1.53,1.22-2.84,2.7-2.84c1.67,0,2.79,1.22,2.79,2.66
		c0,1.58-1.17,2.93-2.79,2.93C257.44,10.3,256.22,9.04,256.22,7.56z"/>
	<path class="st0" d="M265.73,36.57c0.72-0.04,1.31-0.14,1.85-0.32c0.77-0.27,1.13-1.04,1.13-2.03V21.3
		c-0.09-0.95-0.45-1.89-1.13-2.39c-0.45-0.36-1.35-0.68-2.07-0.72v-0.86l6.94-0.5l0.32,0.32v3.06h0.05
		c1.58-1.67,3.11-3.69,6.58-3.69c3.78,0,5.54,2.84,5.54,7.12v10.41c0,0.99,0.32,1.67,1.04,2.03c0.59,0.27,1.13,0.45,1.89,0.5v0.9
		h-10v-0.9c0.68-0.04,1.4-0.14,1.89-0.32c0.77-0.27,1.08-1.04,1.08-2.03V23.55c0-3.11-1.53-4.78-3.24-4.78
		c-2.84,0-4.41,1.89-4.82,2.93V34c0,0.99,0.36,1.67,1.04,2.03c0.54,0.32,1.26,0.5,1.89,0.54v0.9h-9.96V36.57z"/>
	<path class="st0" d="M287.26,42.15c0-2.52,2.16-4.69,6.44-4.82v-0.32c-1.58-0.5-4.37-1.4-4.37-3.96c0-2.21,2.39-3.06,3.74-3.65
		v-0.27c-2.97-1.22-4.73-3.33-4.73-5.99c0-4.14,3.33-6.62,7.43-6.62c2.79,0,5.23,1.35,5.77,1.35c1.49-1.04,2.43-1.35,4.19-1.35
		c0.99,0,1.98,0.95,1.98,2.16c0,1.31-0.68,2.21-1.8,2.21c-1.49,0-1.89-0.99-1.89-2.88c-1.22,0-1.85,0.23-2.43,0.72v0.36
		c0.95,1.17,1.53,2.93,1.53,4.28c0,3.92-3.74,6.4-7.03,6.4h-2.34c-0.72,0.41-1.26,0.95-1.26,1.94c0,2.21,2.48,2.12,4.28,2.21
		c1.17,0.05,3.78,0.23,4.64,0.27c2.39,0.14,5.23,2.34,5.23,6.13c0,4.14-3.47,7.34-10.36,7.34
		C289.87,47.65,287.26,45.58,287.26,42.15z M302.98,41.21c0-1.04-0.18-2.52-1.98-3.2c-0.81-0.14-2.75-0.32-6.26-0.32
		c-2.7,0.63-3.6,2.03-3.6,4.73c0,1.8,1.62,4.05,5.86,4.05C300.78,46.48,302.98,44.72,302.98,41.21z M298.93,23.23
		c0-2.97-0.9-5.72-3.24-5.72c-2.43,0-3.11,2.61-3.11,5.59c0,3.2,1.26,5.63,3.15,5.63C297.94,28.73,298.93,26.12,298.93,23.23z"/>
</g>
</svg>
