<svg width="20" height="16" viewBox="0 0 20 16" fill="none" xmlns="http://www.w3.org/2000/svg">
<path fill-rule="evenodd" clip-rule="evenodd" d="M0 7.9844C0 5.22695 1.11607 2.73018 2.92112 0.921152L4.33534 2.33537C2.89221 3.78246 2 5.77924 2 7.9844C2 10.1975 2.89865 12.2007 4.35096 13.6491L2.93675 15.0633C1.12251 13.253 0 10.7498 0 7.9844ZM4 7.9844C4 6.33152 4.66836 4.83474 5.74955 3.74958L7.16377 5.1638C6.4445 5.88703 6 6.88381 6 7.9844C6 9.09295 6.45094 10.0962 7.1794 10.8206L5.76518 12.2348C4.6748 11.1485 4 9.64523 4 7.9844ZM14.2504 3.74957L12.8362 5.16379C13.5555 5.88702 14 6.8838 14 7.9844C14 9.09295 13.5491 10.0962 12.8206 10.8206L14.2348 12.2349C15.3252 11.1485 16 9.64524 16 7.9844C16 6.33152 15.3316 4.83474 14.2504 3.74957ZM17.0789 0.921143L15.6647 2.33536C17.1078 3.78245 18 5.77923 18 7.9844C18 10.1975 17.1013 12.2007 15.649 13.6491L17.0632 15.0633C18.8775 13.253 20 10.7498 20 7.9844C20 5.22695 18.8839 2.73017 17.0789 0.921143ZM10 9.9844C11.1046 9.9844 12 9.08897 12 7.9844C12 6.87983 11.1046 5.9844 10 5.9844C8.89543 5.9844 8 6.87983 8 7.9844C8 9.08897 8.89543 9.9844 10 9.9844Z" fill="#222222"/>
</svg>
