<svg xmlns="http://www.w3.org/2000/svg" width="25" height="25" fill="none" viewBox="0 0 25 25">
    <path fill="#fff" fill-rule="evenodd" d="M.025 11.31C.416 5.208 5.333.336 11.455.018h1.28C19.119.35 24.19 5.63 24.19 12.095c0 6.68-5.415 12.095-12.095 12.095C5.679 24.19.43 19.194.025 12.88v-1.57z" clip-rule="evenodd"/>
    <path fill="#EC1A2E" fill-rule="evenodd" d="M12.181 12.995l.182.037-.054.178.024.013.27-.318-.014-.022-.408.084v.028zm.03-.502l.024.014.235-.255-.012-.023-.343.056v.027l.147.037-.05.144zm-.78 1.996h-.277l-.007.027.11.047-.058.104.021.018.22-.17-.009-.026zm.59-.464l-.347.011-.004.028.141.055-.069.136.021.017.267-.222-.008-.025zm.281-.305l.193.027-.046.188.025.012.26-.347-.014-.021-.42.113.002.028zm-.921 1.382l-.006.027.109.048-.057.103.02.018.22-.17-.008-.026h-.278zm1.732.024l.188-.206-.013-.023-.274.047v.027l.114.029-.038.111.023.015zm.138-1.756l.318-.44-.015-.021-.521.15.002.029.245.03-.054.24.025.012zm-1.006 1.246h-.347l-.006.026.14.06-.074.134.021.018.275-.213-.009-.025zm.639-2.38l.238.064-.087.231.024.015.376-.391-.013-.024-.537.079-.001.027zm-.161 2.402l.28-.33-.013-.024-.425.09v.027l.19.039-.056.185.024.013zm.87-3.347l.021.018.22-.17-.01-.025h-.277l-.005.026.109.048-.058.103zm-.756.466l.02.018.343-.267-.008-.025h-.434l-.006.027.178.077-.093.17zm1.426 2.151l-.001.027.148.037-.05.144.023.014.236-.255-.013-.023-.343.056zm1.036-2.446l.021.018.22-.17-.009-.025h-.278l-.005.026.109.047-.058.104zm-2.772 3.693h-.278l-.006.027.11.047-.058.104.02.018.22-.17-.008-.026zm1.993-3.82l.021.017.274-.213-.008-.025h-.348l-.006.026.14.061-.073.133zm-.532 1.847l.19.037-.054.187.024.012.277-.335-.014-.023-.424.095v.027zm.266-2.473l1.413.002s.446.168 1.032.404c.27.108.413.351.39.628 0 0 .231.232.36.378.154.178.17.424.05.585-.12.158-.29.197-.361.208l-.015-.027c.093-.093.055-.243-.027-.362-.086-.124-.163-.146-.25-.093-.04.024-.09.061-.09.061l.22.351-.008.025c-.174.049-.416.01-.529-.133h-1.088l-.002.028.606.11.018.042-2.077 2.443.02.018.707-.632.001.552-.065.166.066.387-.023.165.647.552.018.008.025.014.031.017c.011.006.022.015.034.023.012.007.023.018.035.026.011.01.023.02.034.032.011.01.02.022.032.034.009.013.02.024.027.038.01.012.017.026.025.039.007.013.015.025.02.038l.016.038c.006.012.009.023.012.032l.009.028.008.025.028.002.01-.025c.003-.008.006-.018.008-.031.002-.013.004-.028.003-.043v-.025l-.002-.026c-.002-.018-.008-.036-.013-.056-.008-.018-.015-.038-.026-.056-.01-.019-.024-.035-.037-.053-.014-.015-.028-.031-.045-.044-.016-.014-.034-.025-.05-.035-.019-.008-.036-.017-.053-.022l-.02-.006c.08-.019.161-.037.241-.054h.001l.025.014c.01.005.02.01.031.018.011.005.023.014.034.022.012.007.023.018.035.026.011.01.023.02.034.032.011.01.021.023.032.034.01.013.02.025.028.038.01.012.016.026.024.039.007.014.016.026.02.039l.017.037.011.032.01.028c.003.016.007.026.007.026l.028.001.01-.025c.003-.008.006-.018.008-.031.002-.013.005-.028.004-.044v-.024l-.003-.026c-.002-.018-.008-.036-.013-.056-.008-.018-.015-.038-.026-.056-.01-.019-.023-.035-.036-.053-.014-.015-.029-.031-.046-.044-.016-.014-.034-.024-.05-.035-.017-.008-.034-.016-.05-.021 1.138-.247 2.019-.413 2.019-.413 1.15.682 1.077.639 1.316.772.439.244.42.96-.407.96-.624 0-1.778.106-2.482.242l.621-.563-.02-.02s-.613.445-1.343.81c-.396.16-.992.42-1.607.693l.907-.858-.02-.021s-1.159.933-1.98 1.37c-.494.222-.92.417-1.16.527-.332.152-.593.194-.965.062-.59-.21-.82-.291-1.321-.482-.292-.11-.313-.521-.003-.62l.725-.231.314.138.492.215.226.099.053.023.026.011.012.006h.004l.006.005c.034.018.057.034.082.055.048.041.08.09.098.138.017.048.021.094.019.132-.002.037-.01.066-.015.086l-.01.03.033.013.013-.031c.007-.022.019-.053.024-.095.005-.041.005-.094-.011-.152-.017-.058-.05-.12-.103-.172-.025-.026-.06-.053-.089-.072l-.006-.003-.002-.002-.006-.003-.013-.007-.024-.014-.05-.03c-.069-.038-.14-.08-.215-.122l-.465-.266-.945-.54-.004-.003s1.228-.386 2.793-.815l.252.11.008-.016.004-.008-.147-.118-.387-.312-.192-.066-.128-.35-.174-.099-.17-.78-.028.005.071.853-.486.273v-1.128l-.03-.003-.141 1.189-.656.128.224-1.293-.03-.006-.4 1.32-.643.045.466-1.38-.028-.012-.686 1.405-.635.042.74-1.455-.024-.015-1.013 1.5-.675.105 1.096-1.615-.021-.017-1.844 2.143-.1-.067 1.652-2.59 2.53-.946.27-.117c.049-.021.1-.041.154-.07.027-.012.052-.028.078-.043.026-.015.05-.032.075-.05.049-.035.095-.073.136-.115l.03-.032.03-.032c.019-.021.035-.044.052-.066.017-.023.031-.046.046-.068l.04-.068c.01-.023.022-.045.032-.066l.027-.063c.014-.042.028-.08.036-.114.01-.034.014-.066.02-.091l.008-.058.003-.02-.03-.005-.004.02-.013.056c-.007.023-.014.052-.026.085-.01.032-.026.068-.043.105l-.03.058-.036.06-.042.06c-.016.02-.03.041-.048.06-.018.02-.035.04-.054.057l-.029.028-.03.027c-.041.035-.087.067-.133.095l-.071.04c-.025.01-.049.024-.074.034-.049.02-.102.037-.152.055l-.277.099-.193.069-.164-.328.33-.29-.015-.02-.879.537-.206-.414 1.186-.878-.02-.024-1.803 1.078-.164-.435 1.7-1.135-.016-.024-2.19 1.203-.103-.41 1.853-1.177-.014-.024-2.268 1.156-.066-.483 1.871-1.01-.011-.023-2.316.966-.011-.473 1.891-.739-.01-.028-2.294.628.027-.517 1.744-.4-.005-.027-2.233.306.072-.445 1.642-.177v-.028l-2.294.037.035-.376 1.83-.013v-.027l-3.286-.24-.005-.031.533-.185-.001-.026-1.362-.52.003-.028.545-.044.005-.029-1.175-.725.006-.04.824.047.01-.026-.948-.89.012-.028.444.086.014-.023-.445-.56-.276-.793.028-.014.426.537.964.554.02-.02-.62-.912-.234-1.019.029-.013.502.754.973.791.019-.019-.596-1.08-.205-1.318.032-.008.581 1.123 1.22 1.013.024-.019-.84-1.348-.19-1.616.028-.008.523 1.433 1.729 1.556 2.18 1.117 2.393 3.324.931.785.023-.021-.408-.532h.004-.004l.959-.247-.002-.03-.833-.048-.002-.028 1.222-.219-.003-.027-1.525-.116-.001-.029 1.944-.325.772.182.009-.027-.737-.339-1.206.028-.003-.03 1.287-.242.798.273.01-.027-.723-.46-.855-.034v-.031l.958-.148.838.392.015-.024-.692-.65-.752-.003-.003-.03.916-.206.813.669.019-.02-.624-.913-.682-.128.003-.028.86-.052.777.945.024-.016-.558-1.176-.745-.243.005-.03.95.078.721 1.24.026-.011-.48-1.455-.934-.334.005-.029 1.131.204.63 1.495.029-.008-.415-1.669-1-.567.012-.028 1.192.453.569 1.672.028-.006-.356-1.825-1.089-.795.016-.025 1.268.695.497 1.759.03-.006-.312-1.883-1.142-1.013.018-.022 1.335.91.386 1.793.027-.006-.195-1.905-1.138-1.232.02-.023L17.386 6.2l.29 1.735.03-.002-.128-1.824-1.077-1.407.02-.02 1.269 1.327.2 1.502.028-.003-.065-1.588-.985-1.51.023-.018 1.14 1.446.152 1.079.03-.003-.053-1.154-.701-1.565.025-.014.869 1.482.08.608.029-.003.04-.692-.362-1.473.028-.01.499 1.235h.028l.308-1.234.03.007-.1 1.214.026.01.845-1.216.025.014-.548 1.098.019.02 1.29-.921.017.023-1.97 2.656s-.636 1.703-.843 2.272c-.04.113-.113.186-.22.23-.062.026-1.596.639-1.596.639l-.422.37-1.407.167.004.032zM12.094 0C5.416 0 0 5.415 0 12.095c0 6.68 5.415 12.095 12.095 12.095 6.68 0 12.094-5.415 12.094-12.095C24.19 5.415 18.774 0 12.095 0zm1.781 12.374l.23.05-.07.224.023.014.342-.394-.014-.022-.511.1v.028zm.95.99l.116.027-.04.113.024.014.189-.205-.013-.023-.274.046-.001.027zm-1.837 3.814l.035.022c.012.007.022.018.035.026l.034.03.008.009.025.026c.01.012.02.024.028.037.01.012.017.026.026.038.007.013.015.026.02.039.007.012.013.024.017.036l.013.033.01.027.008.026h.028l.01-.025c.002-.008.005-.018.006-.031.003-.014.005-.028.004-.044v-.024l-.004-.026c-.002-.019-.01-.036-.015-.056-.008-.018-.015-.038-.027-.055-.006-.012-.014-.023-.023-.034l-.014-.018c-.015-.016-.03-.031-.046-.044-.017-.013-.035-.023-.052-.033-.018-.009-.036-.016-.053-.022l-.025-.007-.015-.002c-.003 0-.006 0-.01-.002-.014-.003-.029-.003-.041-.002-.013 0-.024 0-.033.003-.018.002-.027.005-.027.005l-.002.026v.002l.023.01.026.013.03.017zm1.097.441c-.029.01-.062.018-.1.029-.064.018-.141.04-.227.067l-.218.066c-.038.01-.078.023-.119.035l-.123.043c-.166.057-.344.118-.52.18-.114.04-.226.082-.334.124l-.184.07c-.055.02-.109.041-.16.062l-.076.03c-.059.022-.114.046-.166.068l-.045.019c-.085.034-.161.067-.225.093l-.088.038-.119.051-.008.004.017.043.008-.003.122-.043.091-.032c.065-.023.143-.05.23-.083l.064-.024.148-.054.075-.026c.053-.019.108-.038.164-.06.06-.02.12-.043.182-.065.109-.041.221-.083.335-.122l.519-.185c.079-.029.16-.058.238-.084l.162-.056.053-.018c.086-.029.162-.056.226-.079l.095-.033.13-.048-.014-.044-.133.037zm-2.347.409l.1-.034c.129-.04.256-.083.378-.125l.138-.047.036-.013.156-.052.172-.059.062-.022.088-.032.008-.004-.012-.043-.009.002-.091.021-.046.011-.194.05-.16.04-.123.038-.053.016c-.113.034-.241.076-.383.122-.104.035-.206.071-.305.107l-.073.026-.036.013c-.106.038-.205.075-.29.109l-.105.041-.025.01-.1.04c-.055.025-.087.037-.087.037l-.008.004.016.043.098-.03.068-.02.073-.023c.03-.01.062-.018.095-.03l.198-.063.134-.043.28-.09zm1.973-3.483l-.002.027.148.036-.05.144.023.014.236-.254-.013-.024-.342.057zm-.251-.352l.303-.451-.016-.021-.516.17.003.026.246.023-.046.243.026.01zm1.608-1.632l-.346.03-.002.027.144.048-.062.139.023.016.254-.237-.01-.023zm-1.613 3.863l-.716-.874-.036.016.184 1.04.376.436.02.01.026.012c.008.006.02.01.03.018l.035.02.035.027c.011.01.024.02.034.031.012.01.022.022.033.034l.029.037c.01.012.017.025.025.038.007.013.016.025.02.038l.018.038.013.031.01.028c.004.016.008.025.008.025h.027s.005-.008.01-.024c.003-.008.005-.018.007-.032.002-.012.004-.027.003-.043v-.025l-.004-.025c-.002-.018-.009-.037-.014-.056-.008-.018-.015-.037-.027-.055-.01-.019-.024-.035-.038-.052-.014-.016-.03-.031-.046-.043-.016-.014-.034-.024-.052-.035-.018-.007-.035-.016-.053-.02l-.025-.008h-.002l.03-.007.21-.053.01.003.024.014.032.016.034.022c.012.006.023.018.035.026.011.01.024.019.035.03.012.01.022.023.032.034l.03.037c.009.012.016.027.025.04.006.012.015.024.02.038.007.012.013.024.017.036.006.012.009.022.013.032l.01.027.008.027h.028l.01-.026c.003-.008.005-.018.007-.03.001-.013.003-.029.003-.044v-.024l-.005-.026c-.002-.019-.008-.037-.014-.056-.008-.018-.015-.037-.027-.055-.01-.019-.023-.035-.037-.052-.015-.016-.03-.031-.047-.043-.016-.014-.034-.025-.051-.035-.018-.008-.036-.016-.053-.021-.004 0-.007-.002-.01-.003.195-.049.393-.097.59-.143l-.64-.356-.25.005zm1.194-4.627l.178.078-.094.17.021.017.343-.266-.009-.024h-.434l-.005.025zm-6.29-3.96l-.81.415-.045-.24-.04.004-.002.399.03.015.887-.56-.02-.032zm.777.98L8 9.433l-.044-.24-.036.004-.007.399.031.017 1.21-.763-.02-.031zm-.37-.502l-1.073.568-.044-.24-.038.005-.005.398.03.015 1.15-.714-.02-.032zm1.676 1.96l-.81.413-.045-.236-.036.005-.006.394.028.015.888-.56-.02-.032zM10 9.791l-.978.509-.045-.24-.038.005-.005.396.03.018 1.056-.656-.02-.032zm-.438-.472l-1.11.58-.045-.24-.039.003-.003.4.031.015 1.186-.727-.02-.03zm-2.631-.614l.012-.045-2.495-.685-1.124-.913-.03.03 1.04 1.053 2.597.56zm.07-.508l.015-.045-2.112-.683-1.044-.98-.03.033.936 1.106 2.235.569zm6.751 3.42l.178.079-.094.169.02.018.345-.265-.009-.025-.434-.002-.006.026zM4.447 9.213l.92.268 1.819.167.006-.048-2.735-.432-.01.045zm.237-3.136l-.034.027.765 1.052 1.847.613.017-.045-1.71-.705-.885-.942zm6.126 4.704l-.581.276-.044-.22-.037.002-.006.38.033.015.655-.422-.02-.031zM6.965 9.114L3.51 8.4l-.013.044.897.328 2.562.39.01-.05zm1.016-1.586l.021-.044-1.598-.768-.974-1.295-.035.025.87 1.419 1.716.663zm6.753 9.934l.046-.006.032-.005.088-.015c.057-.01.114-.021.17-.033l.163-.037.034-.008c.064-.013.129-.028.188-.042.066-.016.122-.03.167-.044l.083-.024.034-.01.044-.015.008-.003-.008-.043h-.009l-.046.005-.035.005-.087.01-.171.03c-.062.01-.13.024-.195.038-.118.029-.249.064-.357.098-.035.01-.065.022-.09.03l-.026.009-.045.015-.007.004.01.042h.009zm1.463-.65s.021-.001.06-.007c.011 0 .024-.003.04-.005.031-.003.07-.007.113-.015.14-.02.309-.047.465-.077l.039-.008c.07-.013.141-.027.207-.042l.098-.02c.042-.008.081-.016.117-.025l.11-.026.041-.01.058-.014.008-.002-.008-.044h-.008l-.06.006-.036.003-.118.014-.013.002c-.061.008-.13.017-.204.029l-.242.043-.006.002c-.152.028-.321.064-.462.097l-.106.027-.045.01-.057.016-.008.003.009.044h.008zm-1.258-.134l.03.018c.012.006.023.014.035.022.012.007.022.02.035.027l.017.016.016.016c.012.01.021.022.032.034.01.012.02.024.028.037.01.013.017.027.025.04.006.013.015.026.02.038l.016.038.012.032.009.027.008.027h.028l.01-.025.007-.031c.003-.012.005-.027.004-.043v-.025l-.003-.026c-.001-.018-.008-.036-.013-.055-.008-.018-.015-.038-.026-.056-.01-.02-.022-.036-.036-.053l-.009-.01c-.011-.012-.023-.024-.037-.034-.015-.014-.033-.025-.05-.035-.018-.009-.035-.017-.053-.023l-.025-.007-.02-.004h-.003c-.016-.004-.03-.004-.043-.004-.012 0-.023 0-.032.002l-.028.004-.002.022v.007l.023.011.025.013zm1.337-4.195c.001.008.004.016.006.023.003.008.004.016.007.022l.01.018.01.015.01.01.02.02.018-.013-.004-.024-.002-.012v-.014l.001-.03c.001-.011.005-.022.008-.033 0-.006.003-.011.006-.016.004-.006.005-.012.008-.017.008-.01.013-.021.02-.027.003-.004.005-.007.013-.013l.01-.009.005-.004h.001c.011-.006.02-.014.032-.017.012-.006.023-.007.035-.01.006-.002.012 0 .018-.002.006-.001.012-.002.018 0h.01c.012.001.017.003.022.004.012.002.02.005.028.008l.012.004.011.007c.013.009.022.013.022.013l.021-.019s-.002-.009-.01-.023c0-.005-.002-.008-.005-.013l-.012-.014-.014-.017-.019-.014c-.007-.004-.013-.01-.021-.014l-.025-.01c-.01-.004-.019-.007-.029-.008-.01-.002-.02-.004-.03-.004-.022 0-.044.002-.065.01-.023.004-.042.018-.063.028l-.005.006-.003.002-.005.005-.01.009c-.006.004-.014.015-.022.025-.017.02-.024.041-.032.06-.004.02-.01.041-.008.06 0 .01 0 .018.002.028zm.049-.81l.002.008.001.008.01.021c.003.01.014.027.024.04l.017.017c.005.006.01.01.017.015.01.008.02.013.03.018l.01.006c.027.01.053.016.076.016h.015c.014-.002.028-.003.041-.008l.02-.006.005-.002.01-.005.005-.004c.013-.007.047-.033.058-.051.014-.018.023-.038.03-.064v-.007c.002-.007.004-.015.004-.023v-.025c-.002-.013-.006-.024-.009-.033l-.003-.01c-.01-.02-.017-.028-.017-.028l-.005-.008-.033.013v.006s-.002.012-.002.026l-.002.01c-.001.005-.002.012-.005.018l-.006.014c0 .003-.003.006-.005.008l-.004.008-.005.006-.006.006c-.002.004-.007.007-.012.011-.002.003-.005.004-.01.007l-.006.003h-.002l-.013.006c-.007.003-.018.004-.033.004-.01 0-.02-.003-.032-.007l-.009-.005-.005-.003-.01-.008c-.001 0-.003 0-.003-.002l-.006-.006-.006-.009-.008-.013v-.002l-.001-.002c-.003-.004-.005-.01-.006-.019l-.002-.013V11.6v-.011l.001-.008c0-.003 0-.006.002-.009l.003-.009.002-.006.007-.014.007-.012.004-.008.023-.02.005-.005-.02-.04-.007.002-.033.006-.007.004c-.01.004-.021.01-.032.018l-.02.017-.012.015-.006.009c-.015.022-.024.043-.027.063-.004.013-.004.026-.004.039-.001.012.001.024.003.036l.002.006zm.983.618c.006.005.01.011.015.018l.013.02c.008.012.016.026.022.04.007.015.012.03.016.046.004.015.007.03.008.046v.048l-.01.047-.009.022-.01.023.023.013.014-.021.012-.025c.007-.017.012-.035.016-.053l.005-.027.002-.028c0-.018 0-.037-.003-.055l-.012-.054-.02-.052c-.006-.008-.01-.017-.014-.024l-.015-.025c-.01-.015-.023-.03-.035-.043l-.002-.003c-.112-.106-.226-.21-.337-.317l-.08.096c.124.09.246.184.37.276.011.01.022.02.031.032zm-6.008-.022l-.012-.089-.035-.002-.038.23.03.02.43-.301-.02-.031-.355.173zm-.163-1.013l-.41.18-.037-.166h-.036l-.015.317.028.016.488-.317-.018-.03zm.257 1.492l-.008-.087-.035-.003-.038.23.026.02.313-.227-.019-.03-.239.097zm.203-1.13l-.5.222-.018-.142-.035-.003-.033.29.028.02.578-.354-.02-.033zm5.633 5.29l-.175.027c-.06.009-.118.02-.17.03-.032.005-.064.012-.094.018l-.063.012-.063.012-.077.015-.149.032-.062.013-.088.02.008.045.09-.01.064-.009c.043-.004.093-.01.149-.018l.142-.02.038-.005.12-.018c.068-.011.136-.02.208-.03l.136-.019.137-.02.038-.006.169-.026.208-.034.091-.014.135-.023.077-.014.089-.015-.006-.046-.008.001-.082.005-.026.002c-.05.003-.114.008-.189.016l-.102.01c-.064.007-.13.013-.2.022l-.17.023-.175.025zm-7.417-1.966l-.006.028.11.047-.058.103.02.018.22-.17-.008-.025h-.278zm.524 4.46l-.392-.174.38-.2-.01-.026-.575.16c-.023.006-.043.024-.05.048-.014.04.008.082.047.094l.007.002.56.18c.094.03.187.062.28.094l.28.096.01-.026-.267-.125c-.09-.042-.179-.084-.27-.124zm.257-4.46l-.005.028.108.047-.057.103.02.018.22-.17-.008-.025h-.278z" clip-rule="evenodd"/>
</svg>
