<svg width="50" height="50" viewBox="0 0 150 150" xmlns="http://www.w3.org/2000/svg"><g fill="none" fill-rule="evenodd"><path d="M2.7 70.3A72.4 72.4 0 0 1 71.1 2.7h7.7a72.4 72.4 0 1 1-76 77v-9.4z" fill="#337E81"/><path d="M75.5 80.6l1.1.2-.3 1.1.1.1 1.7-2V80l-2.6.5v.2zm.2-3.1h.1l1.5-1.5v-.2l-2.2.4v.1l.9.3-.3.9zm-4.8 12.3H69v.2l.7.3-.4.6.1.2 1.4-1v-.3zm3.6-2.8h-2.1v.2l.8.4-.4.8.1.1 1.7-1.4V87zm1.8-2l1.1.2-.2 1.2h.1l1.6-2v-.2l-2.7.7v.2zm-5.8 8.6v.2l.7.3-.4.7h.2l1.3-1v-.2h-1.8zm10.8.2l1.1-1.3v-.1l-1.7.3v.1l.7.2-.3.7.2.1zm.8-10.9l2-2.7V80l-3.3 1v.2l1.5.1-.3 1.5.1.1zM76 90.6h-2.2v.2l.9.4-.5.8.2.1 1.7-1.3-.1-.2zm4-14.7l1.4.4-.5 1.4.1.1 2.4-2.4-.1-.2-3.3.5v.2zm-1 14.9l1.7-2v-.2l-2.7.5v.2l1.2.2-.4 1.2h.2zM84.3 70v.1l1.4-1v-.2H84v.2l.6.3-.3.6zM79.6 73v.1l2.2-1.6v-.2H79v.2l1 .4-.5 1.1zm8.8 13.3v.2l1 .2-.4 1h.2l1.4-1.6V86l-2.2.3zm6.4-15.1h.2l1.3-1V70h-1.8v.1l.7.3-.4.7zM77.6 94H76v.1l.7.3-.4.7h.1l1.4-1V94zM90 70.3h.1l1.7-1.2v-.2h-2.2v.2l.9.4-.5.8zm-3.3 11.4l1.2.3-.4 1.1.2.1 1.7-2V81l-2.7.6v.1zm1.7-15.3H97l6.4 2.5c1.7.7 2.6 2.2 2.4 4l2.3 2.3c1 1 1 2.6.3 3.6-.8 1-1.8 1.2-2.3 1.3v-.2c.5-.6.3-1.5-.2-2.2-.6-.8-1-1-1.6-.6l-.5.4 1.3 2.1v.2c-1.1.3-2.6 0-3.3-.8h-6.7v.2l3.7.6.1.3-12.9 15.1.2.2 4.3-4V95l-.4 1 .5 2.4-.2 1 4 3.4a3.3 3.3 0 0 0 .3.2h.2l.2.2.2.2.2.2.2.2.2.2.1.3.2.2v.2l.1.2v.2l.1.2h.2v-.2l.1-.2v-.2-.2-.2-.3l-.2-.3-.2-.4-.3-.2-.3-.3a2.5 2.5 0 0 0-.5-.1l1.5-.4a433.2 433.2 0 0 0 .4.2l.2.2.2.1.2.2.2.2.2.3.1.2.1.2a2.5 2.5 0 0 1 .2.5v.1l.1.2h.2v-.1l.1-.2v-.3-.2-.1-.4l-.2-.3-.2-.3-.3-.3-.3-.2a2 2 0 0 0-.3-.2l12.5-2.5 8.1 4.8c2.7 1.5 2.6 6-2.5 6-3.9 0-11 .6-15.4 1.4l3.9-3.5h-.2s-3.8 2.7-8.3 5l-10 4.2 5.7-5.3-.1-.1s-7.2 5.8-12.3 8.5l-7.2 3.2c-2 1-3.7 1.2-6 .4a311 311 0 0 1-8.2-3c-1.8-.6-2-3.2 0-3.8l4.5-1.4 2 .8a164.7 164.7 0 0 1 4.4 2l.3.1h.2v.1h.1l.5.4c.3.2.5.5.6.8.1.3.2.6.1.9v.5l-.1.2h.2v-.1l.2-.6v-1l-.7-1-.5-.5h-.1l-.2-.2-.4-.1-1.3-.8-2.9-1.7-5.8-3.3s7.6-2.4 17.3-5l1.5.6.1-.1-1-.8-2.3-2-1.2-.3-.8-2.2-1-.6-1.1-4.8H70l.4 5.3-3 1.7v-7h-.2l-.8 7.3-4.1.8 1.4-8h-.2l-2.5 8.2-4 .2 3-8.5h-.2l-4.3 8.6-4 .3 4.7-9-.2-.1-6.3 9.3-4.2.6 6.8-10-.1-.1-11.4 13.3-.6-.4 10.2-16 15.7-6 1.6-.7 1-.4c.2 0 .3-.2.5-.3a9 9 0 0 0 1.3-1l.2-.2.2-.2.3-.4c0-.2.2-.3.3-.4l.2-.5.2-.4.2-.4.2-.7.1-.5v-.4l.1-.1h-.2v.4l-.3.6-.2.6-.2.4-.2.3-.3.4-.3.4-.3.3-.2.2-.2.2a6.5 6.5 0 0 1-1.3.8l-.4.2-1 .4-1.7.6-1.2.4-1-2 2-1.8v-.2L60 86.7 58.8 84l7.4-5.4-.1-.2-11.2 6.7-1-2.7 10.5-7v-.2l-13.7 7.5-.6-2.6L61.6 73v-.1L47.3 80l-.4-3 11.6-6.3v-.1l-14.4 6v-3L55.8 69l-.1-.1-14.2 3.9.2-3.2L52.6 67v-.2l-14 1.9.5-2.8 10.2-1v-.2l-14.2.2.2-2.3 11.3-.1v-.2L26.4 61v-.2l3.3-1.1v-.2L21 56.2V56l3.4-.2v-.2L17.3 51v-.3l5.1.3V51l-5.8-5.5v-.2l2.8.5.1-.1-2.8-3.5-1.7-5h.2l2.6 3.3 6 3.5.1-.2-3.8-5.6-1.5-6.3.2-.1 3.1 4.6 6 5 .2-.2-3.7-6.7-1.3-8.1h.2l3.6 6.9 7.6 6.3.1-.2-5.2-8.3-1.1-10h.1l3.3 8.8 10.7 9.7 13.5 6.9L70.7 67l5.8 4.9.1-.2-2.5-3.3 6-1.5v-.2l-5.2-.3v-.2l7.5-1.3v-.2l-9.4-.7v-.2l12-2 4.8 1.1V63l-4.5-2.1-7.5.1v-.2l8-1.5 5 1.7v-.1l-4.5-2.9-5.3-.2v-.2l6-1L92 59l.1-.1-4.3-4h-4.6v-.3l5.6-1.2 5 4.1.2-.1-3.9-5.7L86 51v-.1l5.4-.4 4.8 5.9.1-.1-3.4-7.3-4.7-1.5v-.2l6 .5 4.4 7.7h.2l-3-9.1-5.8-2V44l7 1.3 4 9.3h.1l-2.5-10.4-6.2-3.5v-.2l7.4 2.8 3.6 10.4h.1l-2.2-11.4-6.7-5 8 4.2 3 11h.2l-2-11.8-7-6.2.1-.2 8.3 5.7 2.4 11h.1l-1.2-11.8-7-7.6.1-.2 8.2 7 1.8 10.8h.2l-.8-11.3-6.7-8.7.1-.2 7.9 8.3 1.2 9.3h.2l-.4-9.9-6.1-9.4h.1l7 8.9 1 6.7h.2l-.3-7.2-4.4-9.7h.2l5.4 9.1.5 3.8h.2l.2-4.3-2.2-9.2h.1l3.1 7.6h.2l2-7.6h.1L118 33h.1l5.3-7.5h.1l-3.4 6.9.2.1 8-5.7v.1l-12.2 16.5-5.2 14c-.2.8-.7 1.2-1.3 1.5l-10 4-2.5 2.3-8.8 1v.2zM75 0a75 75 0 1 0 0 150A75 75 0 0 0 75 0zm11 76.7l1.4.3-.4 1.4.1.1 2.2-2.4-.1-.2-3.2.7v.1zm5.9 6.2l.7.1-.2.7.1.1 1.2-1.2-.1-.2-1.7.3v.2zm-11.4 23.6l.2.2.2.1.2.2h.1l.2.2.1.2.2.3.1.2a2.2 2.2 0 0 1 .2.5v.1l.1.2h.2v-.2-.2l.1-.2v-.2-.1l-.1-.4-.2-.3-.1-.2-.1-.2-.3-.2-.3-.2-.3-.2h-.4-.2-.4v.2h.1l.2.1.2.1zm6.8 2.8l-.6.1a55 55 0 0 0-3.5 1l-.8.3a676.5 676.5 0 0 0-5.3 2c-.4 0-.7.2-1.1.4-.4 0-.7.2-1 .3l-.5.2-1 .5h-.3l-1.4.7-.5.2-.8.3.1.3.8-.3.6-.2 1.4-.5.4-.2 1-.3.4-.2 1-.3 1.1-.4 2.1-.8 3.2-1.1 1.5-.6 1-.3.3-.1 1.4-.5.6-.2.8-.3v-.3l-.9.3zm-14.5 2.5l.6-.2a96.2 96.2 0 0 0 3.2-1l.2-.2 1-.3 1-.4h.4l.6-.3v-.3h-.1l-.6.2h-.3l-1.2.3-1 .3-.7.2-.4.1-2.3.8-2 .6-.4.2h-.2l-1.8.8-.6.2H68l-.6.3-.6.3v.2l.7-.1.4-.2.5-.1.6-.2 1.2-.4.8-.2 1.8-.6zM85 90.2v.2l.9.2-.3.9h.1l1.5-1.5v-.2l-2.2.4zM83.4 88l2-2.8-.2-.1-3.2 1v.2l1.6.1-.3 1.5.1.1zm10-10.1l-2.1.2v.1l.8.3-.4.9.2.1 1.6-1.5-.1-.1zm-10 24L79 96.3l-.3.1L80 103l2.3 2.7h.1l.2.1.2.1.2.2.2.1.2.2.2.2.2.2.2.3v.2l.2.3v.1l.1.2v.2h.3v-.2-.2-.4-.1-.4l-.2-.3-.2-.4a2 2 0 0 0-.3-.2l-.3-.2-.4-.2H83h.1l1.3-.4h.1l.2.1a2.5 2.5 0 0 1 .4.3l.2.1.2.2.2.2.2.2.1.3.2.2v.3l.2.1a2.2 2.2 0 0 1 0 .4h.2l.1-.2v-.2-.2-.2-.2-.3l-.2-.3-.2-.4a2 2 0 0 0-.3-.2l-.4-.2-.3-.2 3.6-.9-4-2.2h-1.5zm7.4-28.7l1.1.4-.6 1 .2.2 2-1.7V73h-2.7v.2zm-39-24.6l-5 2.6-.3-1.5h-.2v2.5h.1l5.5-3.4v-.2zm4.8 6l-7 3.9-.3-1.5h-.2v2.5l.1.1 7.5-4.7v-.2zm-2.3-3L47.7 55l-.3-1.5h-.2v2.5h.1l7.2-4.3-.2-.2zm10.4 12.1l-5 2.6-.3-1.5h-.2v2.5h.1l5.5-3.4v-.2zm-2.7-3L56 64l-.3-1.5h-.3V65h.2l6.5-4-.1-.2zm-2.7-3l-7 3.7-.2-1.5H52v2.5h.1l7.4-4.4-.1-.2zM43 54v-.3l-15.4-4.2-7-5.7-.2.2 6.5 6.5 16 3.5zm.4-3.2l.1-.2-13.1-4.3-6.5-6-.2.2 5.8 6.8 13.9 3.5zM85.2 72l1.2.5-.6 1 .1.2L88 72V72h-2.7v.1zM27.6 57.1l5.7 1.7 11.2 1v-.3L27.7 57v.2zM29 37.7l-.2.1 4.8 6.6L45 48.2l.1-.3-10.6-4.4-5.5-5.8zm38 29.2l-3.6 1.7-.3-1.4H63v2.4h.2l4-2.6-.1-.1zM43.2 56.5l-21.4-4.4-.1.3 5.5 2 16 2.4v-.3zm6.3-9.8l.1-.3-10-4.8-6-8-.2.2 5.4 8.8 10.7 4zm41.8 61.6h.5a22.3 22.3 0 0 0 2.6-.6h.2a39 39 0 0 0 2.7-.7l.3-.1.2-.1v-.3h-.3-.2l-.6.1-1 .2-1.2.3c-.8.1-1.6.4-2.2.6l-.6.2h-.2l-.2.1v.3zm9.1-4h.4l.2-.1.7-.1 2.9-.5h.2l1.3-.3.6-.1.8-.2.6-.1.3-.1h.3l.1-.1v-.3h-.1H108.1l-.7.2h-.1c-.4 0-.8 0-1.3.2l-1.5.2-2.9.6-.6.2h-.3l-.4.2v.3h.1zm-7.8-.9l.2.1.2.2.2.1.1.1.1.1.2.2.2.3.1.2.2.3v.2l.1.2.1.2v.1h.2v-.1l.1-.2v-.3-.1-.2-.3l-.2-.4-.2-.3-.3-.3-.3-.2-.4-.1-.1-.1h-.4-.4v.1l.1.1.2.1zm8.3-26v.2l.1.2.2.2h.2v-.2-.1-.2-.2-.1-.1l.2-.2h.1v-.1h.1l.2-.1.2-.1H102.8l.1.1.2.1.1-.1v-.2l-.1-.1-.1-.1-.2-.1V76h-.2l-.2-.1H101.8l-.4.2-.1.1-.2.2-.2.4v.5zm.3-5v.2a1 1 0 0 0 .3.4h.1l.2.2.5.1h.5l.1-.1.4-.4.2-.4v-.1-.2-.2l-.2-.2h-.2v.4l-.1.1-.1.1h-.1v.1h-.1l-.3.1h-.2l-.1-.1-.1-.1v-.1l-.1-.2v-.1-.1-.2l.1-.1.2-.2-.1-.2h-.3l-.2.1-.1.1-.1.1-.2.5v.4zm6 3.8l.2.1v.1l.2.3a1.5 1.5 0 0 1 .1.6V77.6a1.9 1.9 0 0 1 0 .4l-.1.1.1.1v-.1l.2-.2v-.3-.2l.1-.1a1.9 1.9 0 0 0 0-.7l-.2-.3-.1-.2V76l-.3-.3-2.1-2-.5.6L107 76l.2.2zM70 76.1v-.6h-.3l-.2 1.4.2.2 2.7-1.9-.2-.2-2.2 1zm-1-6.3l-2.5 1.1-.2-1H66v2h.1l3-2v-.1zm1.6 9.2v-.5h-.2l-.3 1.4.2.1 2-1.4-.2-.2-1.5.6zm1.3-7l-3.1 1.4-.1-.9h-.2l-.3 1.8.2.1 3.6-2.2-.1-.2zm34.9 32.9l-1 .1a27.2 27.2 0 0 0-1.7.3h-.4l-.4.2h-.5a35.6 35.6 0 0 0-1.3.3l-.5.2v.2h1l.9-.2.9-.1h.2l.8-.2 1.2-.1.9-.2h.8l.3-.1 1-.2 1.3-.2h.6l.8-.2.5-.1.5-.1v-.3h-.7a22.2 22.2 0 0 0-3 .4h-1.1l-1.1.3zm-46-12.2v.1l.7.3-.4.7h.1l1.4-1v-.1h-1.8zm3.3 27.6l-2.5-1L64 118v-.2l-3.6 1c-.2 0-.3.2-.3.3-.1.3 0 .5.3.6l3.5 1.1 1.7.6 1.7.6.1-.2-1.7-.7-1.6-.8zm1.6-27.6v.1l.6.3-.4.7h.2l1.3-1v-.1h-1.7z" fill="#FFF"/></g></svg>