<svg xmlns="http://www.w3.org/2000/svg" width="182" height="27" fill="none" viewBox="0 0 182 27">
    <path fill="#fff" fill-rule="evenodd" d="M0 6.474l.584.12c1.367.284 1.552 1.114 1.552 1.889v9.763c0 .804-.188 1.587-1.552 1.869l-.584.12v.312h6.788v-.311l-.584-.121c-1.362-.282-1.55-1.065-1.55-1.869V8.483c0-.775.185-1.605 1.55-1.889l.584-.12v-.311H0v.31zM138.561 6.163v4.841h.288l.708-1.792c.694-1.763 1.418-2.718 3.26-2.718h.764v11.753c0 .761-.177 1.664-1.559 1.889l-.595.096v.315h6.842v-.316l-.593-.096c-1.38-.224-1.557-1.127-1.557-1.888V6.494h.763c1.841 0 2.566.955 3.261 2.718l.705 1.793h.291V6.163h-12.578zM132.613 6.478l.553.074c1.036.152 1.999.668 2.019 3.382l.057 6.51-5.456-6.546c-1.632-1.968-2.295-2.795-2.777-3.675l-.033-.06h-4.987v.31l.093.018c1.027.19 1.668.613 2.746 1.813l.208.227v7.485c0 3.21-.991 3.723-2.189 4.026l-.402.102v.305h5.587v-.305l-.401-.1c-1.067-.285-2.171-.579-2.191-4.029l-.056-7.113 9.867 11.807.034.04h.305V9.932c0-2.716 1.021-3.233 2.018-3.38l.553-.074v-.315h-5.548v.315zM75.236 17.966c-.933 1.639-2.074 2.248-4.21 2.248h-.59c-1.187 0-1.716-.594-1.716-1.926V13.31l.869.018c2.132.04 2.716.138 3.376 2.245l.24.767h.293V9.902h-.293l-.24.79c-.645 2.1-1.278 2.204-3.377 2.244l-.868.018v-6.46h1.5c2.509 0 3.64.536 4.483 2.125l.956 1.778h.277V6.163H64.09v.31l.582.12c1.285.269 1.544.899 1.544 1.828v9.825c0 .762-.175 1.665-1.54 1.889l-.586.096v.316h12.379v-4.234h-.274l-.958 1.653zM119.758 17.966c-.932 1.639-2.072 2.248-4.209 2.248h-.59c-1.187 0-1.716-.594-1.716-1.926V13.31l.869.018c2.132.04 2.718.138 3.374 2.245l.243.767h.291V9.902h-.291l-.243.79c-.643 2.1-1.276 2.204-3.374 2.244l-.869.018v-6.46h1.5c2.507 0 3.638.536 4.483 2.125l.956 1.778h.276V6.163h-11.846v.31l.583.12c1.283.269 1.542.899 1.542 1.828v9.825c0 .762-.175 1.665-1.537 1.889l-.588.096v.316h12.379v-4.234h-.274l-.959 1.653zM27.84 18.146V6.492h1.791c3.568 0 5.699 2.548 5.699 6.814 0 4.33-2.012 6.813-5.52 6.813h-.436c-1.272 0-1.533-.788-1.533-1.973zm2.387-11.983H17.638v.314l.553.074c1.27.187 2.009.734 2.025 2.98l.059 6.913-5.47-6.546c-1.6-1.923-2.3-2.794-2.783-3.676l-.033-.059H6.988v.31l.093.017c1.029.19 1.672.614 2.755 1.814l.208.226v7.486c0 3.21-.995 3.722-2.196 4.027l-.403.1v.306h5.6v-.305l-.402-.101c-1.069-.284-2.174-.577-2.195-4.028l-.058-7.114 9.927 11.848h.304V9.208c0-1.803.79-2.716 2.347-2.716s2.346.913 2.346 2.716v8.957c0 .834-.19 1.64-1.573 1.876l-.569.096v.312h7.055c2.438 0 4.48-.76 5.91-2.2 1.288-1.296 1.997-3.073 1.997-5.004 0-1.921-.71-3.677-1.998-4.944-1.422-1.399-3.466-2.138-5.909-2.138zM98.12 18.146V6.492h1.79c3.568 0 5.698 2.548 5.698 6.814 0 4.33-2.011 6.813-5.519 6.813h-.438c-1.27 0-1.531-.788-1.531-1.973zm2.385-11.983H87.917v.314l.553.074c1.269.186 2.007.733 2.026 2.98l.057 6.913-5.472-6.546c-1.637-1.97-2.301-2.797-2.783-3.676l-.032-.059h-5v.31l.093.017c1.029.19 1.672.614 2.754 1.813l.207.227v7.486c0 3.21-.994 3.723-2.194 4.027l-.404.1v.306h5.603v-.305l-.402-.101c-1.072-.284-2.177-.577-2.196-4.028l-.059-7.114 9.895 11.808.034.04h.303V9.208c0-1.803.79-2.716 2.347-2.716s2.346.913 2.346 2.716v8.957c0 .835-.19 1.64-1.57 1.876l-.572.096v.312h7.054c2.438 0 4.482-.76 5.911-2.2 1.288-1.296 1.997-3.073 1.997-5.004 0-1.92-.709-3.677-1.997-4.944-1.424-1.399-3.466-2.138-5.911-2.138zM58.448 6.163H52.31v.31l.589.12c1.376.283 1.565 1.066 1.565 1.868v9.786c0 .803-.19 1.586-1.565 1.868l-.59.12v.312h7.11v-.31l-.468-.1c-1.619-.341-1.924-.673-1.924-2.092V6.494h.604c2.19 0 3.497 1.5 3.497 4.011 0 2.51-1.307 4.01-3.497 4.01h-.154v.35h.971c3.204 0 5.442-1.793 5.442-4.36 0-2.557-2.238-4.342-5.442-4.342zM49.481 17.966c-.933 1.639-2.074 2.248-4.21 2.248h-.59c-1.189 0-1.718-.594-1.718-1.926V13.31l.868.018c2.134.04 2.719.138 3.377 2.245l.242.767h.291V9.902h-.292l-.241.79c-.643 2.1-1.277 2.204-3.377 2.244l-.869.018v-6.46h1.501c2.508 0 3.64.536 4.485 2.125l.956 1.778h.277V6.163H38.334v.31l.581.12c1.284.269 1.542.899 1.542 1.828v9.825c0 .762-.175 1.665-1.538 1.889l-.585.096v.316h12.378v-4.234h-.275l-.956 1.653z" clip-rule="evenodd"/>
    <circle cx="168.16" cy="13.5" r="13.5" fill="#EC1A2E"/>
    <path fill="#fff" d="M166.611 19.422l-.432-2.377c-.334.099-.826.198-1.101.198-.924 0-1.101-.337-1.101-1.287v-3.842h2.398V9.776h-2.398V7.043h-2.419l-.747 2.733h-1.455v2.338h1.396v4.97c0 1.961 1.317 2.872 3.185 2.872 1.239 0 2.144-.297 2.674-.534zM169.886 19.679h4.129l2.949-9.903h-3.303l-1.593 6.932h-.039l-1.711-6.932h-3.401l2.969 9.903z"/>
</svg>
