<svg width="88" height="29" viewBox="0 0 88 29" fill="none" xmlns="http://www.w3.org/2000/svg">
    <path d="M3.64402 9.45647V7.88038H4.74092C5.60233 7.88038 6.08571 7.28147 6.08571 6.56907C6.08571 5.85038 5.60852 5.25146 4.74092 5.25146H2.91895V9.45647H3.64402ZM4.64176 7.23103H3.64402V5.90081H4.64176C5.05078 5.90081 5.34204 6.1656 5.34204 6.56907C5.34204 6.96625 5.05078 7.23103 4.64176 7.23103ZM7.94319 9.53212C8.89755 9.53212 9.48009 8.80081 9.48009 7.93081C9.48009 7.05451 8.89755 6.33581 7.94319 6.33581C6.98882 6.33581 6.40629 7.05451 6.40629 7.93081C6.40629 8.80081 6.98882 9.53212 7.94319 9.53212ZM7.94319 8.94581C7.39164 8.94581 7.08178 8.47299 7.08178 7.93081C7.08178 7.39494 7.39164 6.92212 7.94319 6.92212C8.50093 6.92212 8.8046 7.39494 8.8046 7.93081C8.8046 8.47299 8.50093 8.94581 7.94319 8.94581ZM13.4415 9.45647L14.371 6.41147H13.6893L13.0572 8.62429L12.3507 6.41147H11.7744L11.0617 8.62429L10.4296 6.41147H9.75413L10.6837 9.45647H11.3654L12.0595 7.22473L12.7598 9.45647H13.4415ZM16.2108 9.53212C16.6818 9.53212 17.1218 9.37451 17.4255 9.08451L17.128 8.64951C16.9111 8.87016 16.5703 8.98994 16.2728 8.98994C15.7089 8.98994 15.3742 8.60538 15.3247 8.15147H17.63V7.98755C17.63 7.02929 17.0599 6.33581 16.1613 6.33581C15.2751 6.33581 14.643 7.0482 14.643 7.93081C14.643 8.89538 15.3061 9.53212 16.2108 9.53212ZM17.0041 7.67864H15.3185C15.3432 7.31299 15.6035 6.87799 16.1551 6.87799C16.7438 6.87799 16.9855 7.31929 17.0041 7.67864ZM18.923 9.45647V7.38233C19.0531 7.16168 19.4188 6.97255 19.6976 6.97255C19.7782 6.97255 19.8402 6.97886 19.8959 6.99147V6.33581C19.5117 6.33581 19.1523 6.56277 18.923 6.85277V6.41147H18.2723V9.45647H18.923ZM21.8089 9.53212C22.2799 9.53212 22.7199 9.37451 23.0235 9.08451L22.7261 8.64951C22.5092 8.87016 22.1683 8.98994 21.8709 8.98994C21.3069 8.98994 20.9723 8.60538 20.9227 8.15147H23.228V7.98755C23.228 7.02929 22.6579 6.33581 21.7593 6.33581C20.8731 6.33581 20.241 7.0482 20.241 7.93081C20.241 8.89538 20.9041 9.53212 21.8089 9.53212ZM22.6021 7.67864H20.9165C20.9413 7.31299 21.2016 6.87799 21.7531 6.87799C22.3418 6.87799 22.5835 7.31929 22.6021 7.67864ZM26.6281 9.45647V5.25146H25.9774V6.83386C25.7419 6.50603 25.3948 6.33581 25.0168 6.33581C24.2483 6.33581 23.6906 6.94733 23.6906 7.93081C23.6906 8.93951 24.2545 9.53212 25.0168 9.53212C25.4072 9.53212 25.7481 9.34299 25.9774 9.04038V9.45647H26.6281ZM25.2089 8.94581C24.6883 8.94581 24.3599 8.52342 24.3599 7.93081C24.3599 7.34451 24.6883 6.92212 25.2089 6.92212C25.5126 6.92212 25.8348 7.10494 25.9774 7.3319V8.53603C25.8348 8.76299 25.5126 8.94581 25.2089 8.94581ZM29.7197 8.54234V7.3319C29.8684 7.10494 30.1844 6.92212 30.4943 6.92212C31.0087 6.92212 31.3371 7.34451 31.3371 7.93081C31.3371 8.52342 31.0087 8.94581 30.4943 8.94581C30.1844 8.94581 29.8684 8.76929 29.7197 8.54234ZM29.7197 9.45647V9.04038C29.949 9.34299 30.296 9.53212 30.6802 9.53212C31.4487 9.53212 32.0126 8.93951 32.0126 7.93081C32.0126 6.94733 31.4549 6.33581 30.6802 6.33581C30.3084 6.33581 29.9613 6.50603 29.7197 6.83386V5.25146H29.069V9.45647H29.7197ZM32.5459 10.648C32.6326 10.6732 32.8186 10.6921 32.9115 10.6921C33.3763 10.6858 33.7295 10.5219 33.934 10.0049L35.378 6.41147H34.6839L33.8101 8.69364L32.9363 6.41147H32.236L33.4693 9.49429L33.3205 9.84103C33.2338 10.0428 33.0974 10.1058 32.8867 10.1058C32.8124 10.1058 32.707 10.0869 32.6388 10.0554L32.5459 10.648Z"
          fill="white"/>
    <path d="M2.82056 15.3936H7.75731C8.40119 15.3936 8.97059 15.5058 9.46544 15.7303C9.96034 15.9547 10.3747 16.2488 10.7086 16.6128C11.0484 16.9706 11.3048 17.3739 11.4777 17.8228C11.6566 18.2716 11.746 18.7235 11.746 19.1784C11.746 19.6576 11.6566 20.1276 11.4777 20.5886C11.3048 21.0435 11.0484 21.4498 10.7086 21.8077C10.3687 22.1595 9.95136 22.4446 9.45651 22.6629C8.96167 22.8752 8.39525 22.9814 7.75731 22.9814H4.93119V28.0854H2.82056V15.3936ZM4.93119 21.1799H7.31012C7.74535 21.1799 8.10906 21.1284 8.4012 21.0253C8.69934 20.9161 8.93781 20.7705 9.11666 20.5886C9.30152 20.4067 9.43265 20.1943 9.51018 19.9517C9.59366 19.703 9.63536 19.4362 9.63536 19.1511C9.63536 18.8721 9.58473 18.6143 9.48335 18.3778C9.38202 18.1351 9.23292 17.9289 9.03616 17.7591C8.83946 17.5832 8.59498 17.4468 8.30285 17.3497C8.01666 17.2527 7.68573 17.2041 7.31012 17.2041H4.93119V21.1799ZM18.0114 15.3936V28.0854H15.9007V15.3936H18.0114ZM27.9345 21.7258L31.9859 28.0854H29.607L26.7809 23.6091L23.919 28.0854H21.549L25.5825 21.7168L21.5759 15.3936H23.919L26.763 19.8698L29.607 15.3936H31.9859L27.9345 21.7258ZM44.3059 15.3936V17.2041H37.6073V20.6341H43.8944V22.4537H37.6073V26.2475H44.5921V28.0854H35.4966V15.3936H44.3059ZM51.0989 15.3936V26.2475H57.0998V28.0854H48.9882V15.3936H51.0989ZM62.4527 23.6455C62.4831 24.0822 62.5692 24.4825 62.7124 24.8464C62.8611 25.2043 63.0551 25.5136 63.2937 25.7744C63.5323 26.0352 63.8124 26.2384 64.1346 26.384C64.4563 26.5235 64.8108 26.5932 65.1987 26.5932C65.5383 26.5932 65.8637 26.5569 66.1735 26.4841C66.4896 26.4113 66.7666 26.293 67.0052 26.1292C67.2438 25.9655 67.4346 25.7532 67.5778 25.4924C67.7203 25.2255 67.7922 24.901 67.7922 24.5189C67.7922 24.1732 67.6881 23.8851 67.4793 23.6546C67.2766 23.4181 67.0083 23.2118 66.6742 23.0359C66.3402 22.8601 65.9591 22.7024 65.5296 22.5629C65.1002 22.4234 64.662 22.2778 64.2146 22.1262C63.7733 21.9745 63.3383 21.8047 62.9088 21.6166C62.48 21.4225 62.0982 21.189 61.7643 20.9161C61.4305 20.6371 61.1592 20.3035 60.9505 19.9154C60.7478 19.5271 60.6464 19.0601 60.6464 18.5142C60.6464 17.9562 60.7538 17.4649 60.9684 17.0404C61.183 16.6097 61.4841 16.2488 61.8717 15.9577C62.2649 15.6665 62.7304 15.4482 63.267 15.3027C63.8093 15.151 64.4024 15.0752 65.0469 15.0752C65.9052 15.0752 66.6178 15.2025 67.1843 15.4573C67.7563 15.7121 68.2155 16.0426 68.5613 16.449C68.9071 16.8493 69.1575 17.2951 69.3124 17.7864C69.4673 18.2777 69.5603 18.7599 69.59 19.233H67.4346C67.3987 18.8266 67.3119 18.4748 67.175 18.1776C67.0442 17.8804 66.8707 17.6348 66.6563 17.4406C66.4418 17.2466 66.1971 17.1041 65.9231 17.0131C65.6486 16.916 65.3567 16.8675 65.0469 16.8675C64.7661 16.8675 64.4891 16.8978 64.2146 16.9585C63.9407 17.0131 63.6959 17.1071 63.4814 17.2405C63.267 17.3679 63.0941 17.5377 62.9628 17.75C62.8314 17.9562 62.7663 18.211 62.7663 18.5142C62.7663 18.8661 62.8673 19.1632 63.07 19.4058C63.2788 19.6424 63.5502 19.8516 63.8836 20.0336C64.2177 20.2095 64.5994 20.3702 65.0289 20.5158C65.4577 20.6553 65.8959 20.8039 66.3433 20.9616C66.7908 21.1132 67.2289 21.2831 67.6577 21.4711C68.0872 21.6591 68.4689 21.8896 68.803 22.1625C69.1364 22.4355 69.4047 22.763 69.6074 23.1451C69.8162 23.5272 69.9209 23.9852 69.9209 24.5189C69.9209 25.1679 69.8013 25.735 69.5627 26.2203C69.3304 26.7055 69.0025 27.1088 68.5793 27.4303C68.1616 27.7517 67.6639 27.9944 67.0857 28.1581C66.5131 28.3219 65.8841 28.4038 65.1987 28.4038C64.5846 28.4038 63.9884 28.2946 63.4102 28.0762C62.8314 27.8579 62.3127 27.5425 61.8538 27.1301C61.4006 26.7176 61.031 26.2203 60.7448 25.638C60.4646 25.0496 60.3156 24.3855 60.2976 23.6455H62.4527Z"
          fill="white"/>
    <path d="M4.97606 15.1304H2.70972V21.2311H4.97606V15.1304Z" fill="black"/>
    <path opacity="0.9" d="M4.81184 17.2393H2.89038V19.6011H4.81184V17.2393Z" fill="white"/>
    <path opacity="0.8" d="M2.89046 19.9775H0.968994V21.1887H2.89046V19.9775Z" fill="white"/>
    <path opacity="0.5" d="M1.92146 15.1304H0V16.3411H1.92146V15.1304Z" fill="white"/>
    <path d="M75.9315 20.8345V23.1683H73.5078V20.8345H75.9315Z" fill="white"/>
    <path d="M82.5546 18.7793L84.8562 25.2225H83.7413L83.0646 23.338H80.7989C80.6905 23.649 80.5777 23.963 80.4599 24.2802C80.3459 24.5974 80.2344 24.9115 80.1259 25.2225H79.0247L81.3269 18.7793H82.5546ZM81.9318 20.1326L81.128 22.4235H82.7306L81.9318 20.1326Z"
          fill="white"/>
    <path d="M88.0001 18.7793V25.2225H86.9348V18.7793H88.0001Z" fill="white"/>
</svg>
