<svg width="512" height="512" xmlns="http://www.w3.org/2000/svg">

 <g>
  <title>background</title>
  <rect fill="none" id="canvas_background" height="402" width="582" y="-1" x="-1"/>
 </g>
 <g>
  <title>Layer 1</title>
  <circle r="256" id="ellipse" fill="#000000" cy="256" cx="256"/>
  <path id="logo" fill="#FFFFFF" d="m274.7,83.3c12.9,-15.2 34.7,-26.5 52.9,-27.3c2.4,21.1 -6.2,42.3 -18.6,57.5c-12.5,15.3 -32.9,27 -53.2,25.4c-2.9,-20.5 7.3,-42 18.9,-55.6zm102.5,288c-15,21.9 -30.4,43.7 -54.9,44.2c-24.1,0.4 -31.7,-14.3 -59.2,-14.3s-36.1,13.7 -58.8,14.7c-23.6,0.9 -41.6,-23.7 -56.6,-45.5c-30.7,-44.7 -54.2,-126.3 -22.6,-181.4c15.6,-27.3 43.6,-44.6 74.2,-45.1c23.2,-0.3 45,15.6 59.2,15.6c14.2,0 40.7,-19.3 68.6,-16.5c11.7,0.4 44.5,4.7 65.5,35.6c-1.6,1.1 -39.2,22.9 -38.7,68.6c0.4,54.4 47.5,72.5 48.1,72.8c-0.4,1.4 -7.4,26 -24.8,51.3z"/>
 </g>
</svg>