<?xml version="1.0" standalone="no"?>
<!DOCTYPE svg PUBLIC "-//W3C//DTD SVG 1.1//EN" "http://www.w3.org/Graphics/SVG/1.1/DTD/svg11.dtd" >
<svg xmlns="http://www.w3.org/2000/svg">
<metadata></metadata>
<defs>
<font id="apex_newlight_italic" horiz-adv-x="1103" >
<font-face units-per-em="2048" ascent="1536" descent="-512" />
<missing-glyph horiz-adv-x="348" />
<glyph unicode="&#xfb01;" horiz-adv-x="1269" d="M109 969l4 35l196 22l19 145q24 196 170 285.5t420 89.5q144 0 239 -24l-8 -58q-108 27 -240 27q-482 0 -518 -305l-20 -162h725l-109 -881q-8 -59 9.5 -81.5t72.5 -22.5l-6 -49q-81 0 -113.5 36.5t-23.5 112.5l102 830h-663l-183 -1481h-61l182 1481h-194z" />
<glyph unicode="&#xfb02;" horiz-adv-x="1269" d="M109 969l4 35l196 22l19 145q24 196 170 285.5t420 89.5q144 0 239 -24l-170 -1379q-8 -59 9.5 -81.5t72.5 -22.5l-6 -49q-81 0 -113.5 36.5t-23.5 112.5l164 1338q-74 14 -181 14q-482 0 -518 -305l-20 -162h350l-6 -55h-350l-183 -1481h-61l182 1481h-194z" />
<glyph unicode="&#xfb03;" horiz-adv-x="1966" d="M109 969l4 35l196 22l29 231q36 289 391 289q87 0 127 -8l-8 -55q-46 8 -125 8q-297 0 -324 -234l-28 -233h635l18 147q24 196 170 285.5t420 89.5q144 0 239 -24l-8 -58q-108 27 -239 27q-483 0 -519 -305l-20 -162h725l-109 -881q-8 -59 9.5 -81.5t72.5 -22.5l-6 -49 q-81 0 -113.5 36.5t-23.5 112.5l102 830h-663l-182 -1481h-62l182 1481h-634l-183 -1481h-61l182 1481h-194z" />
<glyph unicode="&#xfb04;" horiz-adv-x="1966" d="M109 969l4 35l196 22l29 231q36 289 391 289q87 0 127 -8l-8 -55q-46 8 -125 8q-297 0 -324 -234l-28 -233h635l18 147q24 196 170 285.5t420 89.5q144 0 239 -24l-170 -1379q-8 -59 9.5 -81.5t72.5 -22.5l-6 -49q-81 0 -113.5 36.5t-23.5 112.5l164 1338q-74 14 -180 14 q-483 0 -519 -305l-20 -162h350l-6 -55h-350l-182 -1481h-62l182 1481h-634l-183 -1481h-61l182 1481h-194z" />
<glyph horiz-adv-x="0" />
<glyph horiz-adv-x="682" />
<glyph unicode=" "  horiz-adv-x="348" />
<glyph unicode="&#x09;" horiz-adv-x="348" />
<glyph unicode="&#xa0;" horiz-adv-x="348" />
<glyph unicode="!" horiz-adv-x="389" d="M78 51q0 25 17.5 43.5t43.5 18.5q25 0 43.5 -18.5t18.5 -43.5q0 -26 -18.5 -43.5t-43.5 -17.5q-26 0 -43.5 17.5t-17.5 43.5zM168 430l108 1106h91l-166 -1106h-33z" />
<glyph unicode="&#x22;" horiz-adv-x="614" d="M229 1024l31 512h102l-96 -512h-37zM475 1024l31 512h102l-96 -512h-37z" />
<glyph unicode="#" horiz-adv-x="1232" d="M35 377l24 57h226l172 412h-226l25 57h227l158 377h68l-158 -377h387l158 377h67l-157 -377h225l-25 -57h-227l-172 -412h227l-24 -57h-228l-157 -377h-68l158 377h-387l-158 -377h-68l158 377h-225zM352 434h387l172 412h-387z" />
<glyph unicode="$" horiz-adv-x="1167" d="M80 180l8 56q48 -20 171.5 -41t236.5 -21q234 0 350 56.5t131 183.5q14 114 -60 159q-57 33 -220 49q-22 2 -95 9q-220 20 -287 36q-117 29 -146 100q-17 42 -9 107q19 152 146 220.5t382 68.5q26 0 84 -4l117 248h57l-123 -252q182 -16 275 -53l-8 -55 q-48 20 -171.5 40.5t-236.5 20.5q-231 0 -338.5 -50.5t-124.5 -183.5q-12 -100 70 -140q62 -29 245 -43q18 -1 74 -5q107 -8 167.5 -15.5t124 -25t91.5 -45t43 -73t6 -111.5q-18 -150 -150.5 -223.5t-400.5 -73.5h-59l-115 -246h-57l123 250q-215 18 -301 57z" />
<glyph unicode="%" horiz-adv-x="2004" d="M162 903q25 202 117.5 294.5t271.5 92.5q177 0 247.5 -92.5t45.5 -294.5q-26 -205 -118.5 -297t-270.5 -92q-179 0 -249 92t-44 297zM225 903q-23 -179 36 -256.5t202 -77.5q141 0 217.5 77.5t99.5 256.5q21 179 -36.5 255.5t-198.5 76.5q-143 0 -221 -76.5t-99 -255.5z M451 0l1060 1280h76l-1061 -1280h-75zM1194 377q26 205 118 297t269 92q179 0 250 -92.5t45 -296.5q-25 -202 -117.5 -294.5t-271.5 -92.5q-177 0 -247.5 92.5t-45.5 294.5zM1257 377q-23 -178 35.5 -255t200.5 -77q143 0 219.5 76.5t99.5 255.5t-35.5 256.5t-201.5 77.5 q-141 0 -218 -77.5t-100 -256.5z" />
<glyph unicode="&#x26;" horiz-adv-x="1515" d="M127 604q36 286 208.5 450.5t461.5 164.5q69 0 157 -15q64 167 90 332h62q-21 -137 -65.5 -272t-121.5 -273t-177 -250.5t-242 -200.5t-307 -128q25 -177 144.5 -272t315.5 -95q228 0 373 107t172 319q11 110 -31 199h-196l6 57h496l-7 -57h-233q39 -84 27 -199 q-28 -227 -185.5 -354t-427.5 -127q-280 0 -416.5 168.5t-103.5 445.5zM186 465q139 36 259.5 106.5t211.5 164.5t158 196.5t117 218.5q-68 12 -141 12q-245 0 -405 -147t-193 -412q-7 -86 -7 -139z" />
<glyph unicode="'" horiz-adv-x="368" d="M229 1024l31 512h102l-96 -512h-37z" />
<glyph unicode="(" horiz-adv-x="573" d="M155.5 13q-39.5 265 0.5 601q28 232 95 446.5t133.5 347t137.5 230.5h70q-51 -68 -103 -163t-105.5 -223t-97 -294.5t-65.5 -343.5q-19 -192 -18 -346t24 -289.5t51 -228t62 -160.5h-70q-75 158 -114.5 423z" />
<glyph unicode=")" horiz-adv-x="573" d="M8 -410q51 68 103 163t105.5 223t96.5 294.5t64 343.5q41 337 0.5 604.5t-117.5 419.5h70q33 -71 59.5 -162.5t49 -228t23 -288.5t-19.5 -345q-21 -176 -63.5 -342t-95.5 -294t-103.5 -222t-101.5 -166h-70z" />
<glyph unicode="*" horiz-adv-x="727" d="M88 1247l31 66l223 -105l-6 -14zM164 881l198 192l11 -8l-156 -225zM451 1278l6 258h69l-59 -258h-16zM494 1065l14 8l149 -192l-61 -41zM559 1208l250 107l12 -68l-260 -53z" />
<glyph unicode="+" horiz-adv-x="1228" d="M236 670l6 57h370l45 371h58l-45 -371h370l-6 -57h-370l-48 -371h-57l47 371h-370z" />
<glyph unicode="," horiz-adv-x="389" d="M8 -256l92 358h93l-144 -358h-41z" />
<glyph unicode="-" horiz-adv-x="696" d="M133 670l6 57h471l-6 -57h-471z" />
<glyph unicode="." horiz-adv-x="389" d="M78 51q0 25 17.5 43.5t43.5 18.5q25 0 43.5 -18.5t18.5 -43.5q0 -26 -18.5 -43.5t-43.5 -17.5q-26 0 -43.5 17.5t-17.5 43.5z" />
<glyph unicode="/" horiz-adv-x="774" d="M-111 -410l957 2048h67l-958 -2048h-66z" />
<glyph unicode="0" horiz-adv-x="1228" d="M137.5 277.5q-25.5 144.5 1.5 363.5q21 171 58.5 288t104 200.5t166.5 122t241 38.5q188 0 288 -70.5t126 -214.5t-1 -364q-21 -170 -59 -287.5t-104.5 -201.5t-167 -123t-242.5 -39q-187 0 -286.5 71.5t-125 216zM200 304.5q23 -132.5 108.5 -196t246.5 -63.5 q238 0 351.5 140.5t152.5 455.5q38 315 -40.5 454.5t-316.5 139.5q-121 0 -207.5 -34.5t-145.5 -109.5t-93 -183.5t-53 -266.5q-26 -204 -3 -336.5z" />
<glyph unicode="1" horiz-adv-x="696" d="M139 1161l4 31l349 98h24l-158 -1290h-61l149 1229z" />
<glyph unicode="2" horiz-adv-x="1060" d="M10 0l4 37q209 155 345 259.5t244 195t166.5 148.5t99 116t55.5 101.5t22 100.5q18 146 -61 211.5t-287 65.5q-176 0 -344 -53l8 57q147 53 340 53q105 0 183 -18.5t123.5 -49t70.5 -75t31 -91t0 -102.5q-11 -87 -43 -153t-130.5 -168.5t-266.5 -234.5t-464 -347h807 l-6 -53h-897z" />
<glyph unicode="3" horiz-adv-x="1015" d="M25 -213l6 55q141 -53 313 -53q104 0 184 20.5t130 53.5t84.5 83.5t50.5 101.5t24 116q24 187 -65.5 267.5t-305.5 80.5h-186l8 57h187q358 0 399 332q5 57 4.5 107t-21 92t-58.5 72t-106.5 46.5t-164.5 16.5q-142 0 -311 -49l6 57q66 20 154.5 33.5t156.5 13.5 q129 0 215.5 -28t129.5 -82t56.5 -121.5t2.5 -157.5q-8 -63 -29.5 -119t-59 -107.5t-99.5 -86t-142 -43.5q73 -2 129 -24t89 -59t54 -85.5t23.5 -102t-2.5 -110.5q-9 -75 -29.5 -136t-61 -117t-99.5 -94t-148.5 -60.5t-204.5 -22.5q-197 0 -313 53z" />
<glyph unicode="4" horiz-adv-x="1183" d="M61 256l5 37l876 997h35l-121 -985h231l-6 -49h-231l-64 -512h-61l63 512h-727zM145 305h650l104 858z" />
<glyph unicode="5" horiz-adv-x="993" d="M4 -213l6 57q121 -55 281 -55q483 0 536 440q14 108 -5 182t-51 112t-102.5 57.5t-120.5 22.5t-145 3h-245l82 674h745l-6 -49h-684l-70 -572q126 7 236 7q87 0 150 -8t126 -34.5t99 -73t52.5 -127.5t2.5 -194q-59 -495 -608 -495q-156 0 -279 53z" />
<glyph unicode="6" horiz-adv-x="1130" d="M134.5 307q-17.5 164 15.5 422q20 162 48.5 283.5t76.5 225.5t114.5 169.5t161.5 102t219 36.5q114 0 182 -13.5t133 -39.5l-6 -57q-81 31 -146 43t-169 12q-111 0 -199 -37.5t-147 -101t-102 -159.5t-67 -199.5t-40 -233.5l-10 -78q100 293 444 293q79 0 141 -14.5 t103.5 -39.5t70 -63t43 -78.5t19.5 -92.5t3 -100t-9 -106q-9 -80 -27.5 -146.5t-55.5 -132t-89.5 -111t-134 -73.5t-185.5 -28q-187 0 -278.5 76.5t-109 240.5zM183 346q0 -64 21 -119t57.5 -95.5t104.5 -63.5t162 -23q87 0 155 23t113.5 61.5t78 95.5t49.5 118.5t26 137.5 q7 72 9.5 137t-15 120.5t-51.5 95.5t-99 63t-157 23q-391 0 -447 -441q-7 -69 -7 -133z" />
<glyph unicode="7" horiz-adv-x="890" d="M106 -256l791 1487h-778l6 49h829l-6 -53l-778 -1483h-64z" />
<glyph unicode="8" horiz-adv-x="1146" d="M76 403q23 182 119.5 285t242.5 115q-253 57 -215 354q11 90 41.5 158.5t85.5 122t143 81t207 27.5q95 0 167 -18.5t116.5 -52t70.5 -81.5t31 -107.5t-2 -129.5q-38 -298 -301 -354q143 -12 215.5 -115.5t49.5 -284.5q-52 -413 -537 -413q-256 0 -357.5 108.5 t-76.5 304.5zM137 290q4 -53 29.5 -98t68 -77.5t114 -51t167.5 -18.5q422 0 467 358q23 193 -68.5 280t-308.5 87q-218 0 -331 -87t-136 -280q-6 -60 -2 -113zM287 1157q-10 -76 1 -134t46.5 -104t105 -70t172.5 -24q199 0 293.5 87.5t114.5 244.5q5 56 3.5 106t-22 92 t-56.5 72t-100 47t-151 17q-108 0 -185.5 -25t-122 -73t-67.5 -104.5t-32 -131.5z" />
<glyph unicode="9" horiz-adv-x="1130" d="M78 -213l6 57q81 -31 146 -43t169 -12q111 0 199 38t146.5 101t101.5 159.5t67.5 199t40.5 233.5l9 78q-97 -293 -443 -293q-79 0 -141 14.5t-103.5 39.5t-70 63t-43 78t-20 93t-4 100.5t8.5 105.5q10 80 28.5 146t56 132.5t90 111.5t134 73t185.5 28q187 0 279 -76.5 t109.5 -240.5t-15.5 -422q-20 -162 -48.5 -283.5t-76.5 -225.5t-115 -169.5t-162 -102t-219 -36.5q-114 0 -182 13.5t-133 39.5zM202 662q-2 -65 16 -120.5t52 -95.5t99 -63t157 -23q391 0 447 441q6 69 6 133t-20.5 119t-57.5 95.5t-104.5 63.5t-161.5 23 q-107 0 -186 -33.5t-126.5 -96.5t-73 -136.5t-38.5 -169.5q-7 -72 -9 -137z" />
<glyph unicode=":" horiz-adv-x="389" d="M78 51q0 25 17.5 43.5t43.5 18.5q25 0 43.5 -18.5t18.5 -43.5q0 -26 -18.5 -43.5t-43.5 -17.5q-26 0 -43.5 17.5t-17.5 43.5zM166 768q0 25 17.5 43t43.5 18q25 0 43.5 -18t18.5 -43q0 -26 -18.5 -43.5t-43.5 -17.5q-26 0 -43.5 17.5t-17.5 43.5z" />
<glyph unicode=";" horiz-adv-x="389" d="M8 -256l92 358h93l-144 -358h-41zM166 768q0 25 17.5 43t43.5 18q25 0 43.5 -18t18.5 -43q0 -26 -18.5 -43.5t-43.5 -17.5q-26 0 -43.5 17.5t-17.5 43.5z" />
<glyph unicode="&#x3c;" horiz-adv-x="1228" d="M236 678l6 41l852 448l-9 -67l-776 -402l678 -401l-8 -68z" />
<glyph unicode="=" horiz-adv-x="1228" d="M217 524l6 58h799l-6 -58h-799zM252 815l8 57h799l-8 -57h-799z" />
<glyph unicode="&#x3e;" horiz-adv-x="1228" d="M180 229l8 68l777 401l-678 402l8 67l745 -448l-6 -41z" />
<glyph unicode="?" horiz-adv-x="962" d="M176 1446l8 55q50 18 141.5 31.5t159.5 13.5q105 0 185.5 -15t130 -42t83 -64t45.5 -80.5t16 -93t-5 -100.5q-13 -100 -39.5 -165.5t-86 -111t-100 -64.5t-143.5 -57q-41 -16 -63 -24q-54 -21 -90 -44.5t-56.5 -45t-32.5 -58t-16.5 -65t-9.5 -86.5h-37q0 6 -0.5 23.5 t-0.5 34t1 28.5q14 107 68.5 168.5t181.5 106.5q18 7 51.5 18t51 17t46.5 18t45 21.5t39.5 25.5t37.5 32t30.5 39.5t26.5 50t19 61.5t14 75q8 47 4.5 90.5t-14.5 81.5t-41 69.5t-74 53.5t-112.5 34.5t-158.5 12.5q-135 0 -305 -45zM217 51q0 25 18 43.5t44 18.5 q25 0 43 -18.5t18 -43.5q0 -26 -18 -43.5t-43 -17.5q-26 0 -44 17.5t-18 43.5z" />
<glyph unicode="@" horiz-adv-x="1755" d="M92 512q48 391 267 584.5t640 193.5q400 0 559.5 -162t120.5 -493q-25 -204 -85.5 -323t-159 -169.5t-252.5 -50.5h-78l-14 80q-119 -90 -308 -90q-360 0 -309 430q54 430 416 430q189 0 285 -90l32 80h33l-96 -791h41q68 0 123.5 11.5t97 31.5t74 53.5t55 71.5 t39.5 91.5t27.5 108t19.5 126.5q18 148 -5.5 256t-96 186t-203.5 117t-324 39q-388 0 -588.5 -174.5t-246.5 -546.5q-44 -372 113.5 -546.5t545.5 -174.5q139 0 287.5 23.5t245.5 56.5l-7 -61q-246 -76 -532 -76q-421 0 -592.5 193.5t-124.5 584.5zM537 512 q-23 -184 38 -279.5t236 -95.5q85 0 149 20t132 66l71 578q-58 46 -116.5 66t-143.5 20q-174 0 -258.5 -95t-107.5 -280z" />
<glyph unicode="A" horiz-adv-x="1232" d="M-10 0l731 1546h45l354 -1546h-76l-100 444h-674l-204 -444h-76zM297 502h637l-205 930z" />
<glyph unicode="B" horiz-adv-x="1206" d="M82 0l188 1536h467q126 0 213.5 -29.5t133 -83t61.5 -121.5q10 -42 10 -89q0 -30 -4 -62q-19 -142 -111 -240t-229 -110q172 1 247 -107q59 -84 59 -208q0 -35 -5 -72q-11 -91 -46 -163.5t-98.5 -130t-165.5 -89t-237 -31.5h-483zM154 59h432q99 0 176.5 20t127 52 t83.5 79.5t50.5 96t23.5 107.5q5 41 5 77q0 131 -66 195q-84 82 -308 82h-436zM248 825h436q102 0 178.5 27t121.5 75t69 103t32 121q4 45 4 88q-1 5 -1 11q0 48 -20.5 89t-56 71.5t-103 48.5t-160.5 18h-420z" />
<glyph unicode="C" horiz-adv-x="1196" d="M134 437q-5 51 -5 107q0 103 16 224q23 193 69.5 332t127 242t203 153.5t289.5 50.5q231 0 370 -59l-8 -64q-91 35 -174 49.5t-195 14.5q-282 0 -427 -176t-189 -543q-14 -113 -14 -209q0 -215 70 -335q101 -176 382 -175q112 0 198.5 14.5t186.5 49.5l-8 -64 q-154 -59 -383 -59q-167 0 -277.5 52t-164 151t-67.5 244z" />
<glyph unicode="D" horiz-adv-x="1290" d="M82 0l188 1536h445q178 0 290 -52.5t161 -151.5q49 -100 59 -242q3 -41 3 -84q0 -109 -18 -238q-19 -153 -47.5 -265.5t-79.5 -211.5t-124 -160.5t-181.5 -96t-251.5 -34.5h-444zM154 59h368q127 0 222.5 29t163 83t114.5 143t75 197t46 257q16 128 16 234q1 88 -11 160 q-24 158 -133.5 236.5t-318.5 78.5h-368z" />
<glyph unicode="E" horiz-adv-x="1107" d="M82 0l188 1536h852l-8 -59h-786l-80 -652h710l-6 -57h-710l-88 -709h786l-6 -59h-852z" />
<glyph unicode="F" horiz-adv-x="1056" d="M82 0l188 1536h832l-8 -59h-766l-80 -652h690l-6 -57h-690l-95 -768h-65z" />
<glyph unicode="G" horiz-adv-x="1302" d="M134 437q-5 51 -5 107q0 103 16 224q23 193 69.5 332t127 242t203 153.5t289.5 50.5q251 0 401 -73l-8 -64q-182 78 -400 78q-282 0 -427 -176t-189 -543q-14 -113 -14 -209q0 -213 70 -335q101 -175 382 -175q248 0 395 68l74 594h-334l9 57h399l-86 -698 q-203 -80 -463 -80q-167 0 -277.5 52t-164.5 151t-67 244z" />
<glyph unicode="H" horiz-adv-x="1298" d="M82 0l188 1536h66l-88 -711h880l89 711h65l-188 -1536h-66l94 768h-880l-95 -768h-65z" />
<glyph unicode="I" horiz-adv-x="442" d="M127 0l188 1536h66l-188 -1536h-66z" />
<glyph unicode="J" horiz-adv-x="718" d="M-2 -4l8 55q30 -6 107 -6q135 0 213 49.5t92 171.5l157 1270h66l-156 -1266q-36 -280 -379 -280q-58 0 -108 6z" />
<glyph unicode="K" horiz-adv-x="1122" d="M82 0l188 1536h60l-107 -858l848 858h76l-678 -682l561 -854h-80l-524 811l-213 -215l-72 -596h-59z" />
<glyph unicode="L" horiz-adv-x="1001" d="M82 0l188 1536h64l-182 -1477h743l-6 -59h-807z" />
<glyph unicode="M" horiz-adv-x="1536" d="M82 0l188 1536h43l428 -1251l736 1251h43l-189 -1536h-67l163 1331l-665 -1120h-62l-391 1120l-159 -1331h-68z" />
<glyph unicode="N" horiz-adv-x="1318" d="M82 0l188 1536h41l756 -1393l168 1393h68l-189 -1536h-41l-758 1393l-165 -1393h-68z" />
<glyph unicode="O" horiz-adv-x="1347" d="M125 450v25q0 63 4 125q5 74 16 168t24.5 168t33 150t46 133.5t62.5 112t83 92t106 66t134.5 42.5t166.5 14q104 0 183.5 -19t134 -52.5t90.5 -88t54.5 -115.5t22.5 -145q2 -40 3 -80q0 -44 -3 -88q-5 -82 -18 -190t-28.5 -190.5t-41 -167t-58.5 -145.5t-82.5 -115.5 t-112 -88t-147 -52.5t-188.5 -19q-91 0 -163 14t-124 42.5t-90 66t-60.5 92t-34.5 112t-13 133.5zM190 457q4 -134 43 -225t133 -137t250 -46q90 0 162.5 15.5t128 44t99 75.5t74 102.5t54.5 133.5t39.5 159.5t28.5 188.5q21 152 21 272q0 20 -1 39q-4 134 -43.5 225 t-133.5 137t-250 46q-105 0 -186 -20t-140.5 -62.5t-102 -99.5t-72.5 -142t-49 -177.5t-34 -217.5q-22 -153 -21 -273q-1 -20 0 -38z" />
<glyph unicode="P" horiz-adv-x="1153" d="M82 0l188 1536h480q419 0 419 -354q0 -42 -6 -90q-56 -443 -524 -443h-414l-78 -649h-65zM233 707h424q397 0 441 385q7 33 7 67q0 11 -1 23q-3 46 -10 88.5t-32.5 80t-63.5 65.5t-101 44.5t-145 16.5h-424z" />
<glyph unicode="Q" horiz-adv-x="1347" d="M124 462q-1 7 -1 13q0 68 5 132q6 70 17 161q11 94 24.5 168t33 150t46 133.5t62.5 112t83 92t106 66t134.5 42.5t166.5 14q104 0 183.5 -19t134 -52.5t90.5 -88t54.5 -115.5t22.5 -145q3 -41 3 -80q0 -44 -3 -88q-5 -82 -18 -190q-13 -103 -27.5 -182.5t-38 -161 t-53.5 -141.5t-74 -114.5t-100.5 -89.5t-131.5 -58t-167 -29v-2l682 -162l-8 -72l-930 254q-66 18 -116.5 49t-84.5 70t-55 93t-30.5 110t-9.5 130zM190 457q4 -134 43 -225t133 -137t250 -46q90 0 162.5 15.5t128 44t99 75.5t74 102.5t54.5 133.5t39.5 159.5t28.5 188.5 q21 152 21 272q0 20 -1 39q-4 134 -43.5 225t-133.5 137t-250 46q-105 0 -186 -20t-140.5 -62.5t-102 -99.5t-72.5 -142t-49 -177.5t-34 -217.5q-22 -153 -22 -273q0 -20 1 -38z" />
<glyph unicode="R" horiz-adv-x="1193" d="M82 0l188 1536h484q141 0 231 -28t132.5 -81t54.5 -130q5 -34 6 -73q0 -48 -9 -102q-12 -90 -34 -154t-64 -118t-111 -86.5t-167 -46.5l299 -717h-80l-285 711q-25 -2 -76 -2h-418l-86 -709h-65zM242 768h448q94 0 164.5 18.5t114 48.5t72 78t42 95.5t21.5 113.5 q7 65 7 116q-1 50 -19 94t-53.5 76.5t-102 50.5t-160.5 18h-448z" />
<glyph unicode="S" horiz-adv-x="1165" d="M45 59l8 62q185 -72 402 -72q109 0 196 19t145.5 51.5t100 80.5t63 103t29.5 121q7 58 7 99.5t-6.5 76t-26 58t-45.5 41.5t-71 31t-96.5 22t-127.5 18q-52 6 -92.5 12t-80 14t-69.5 18t-58 23t-47.5 29t-36 36.5t-26 45t-15.5 54.5q-5 28 -5 61q1 3 1 7q0 36 5 79 q8 62 27.5 115.5t60 107t99.5 91t151.5 60.5t210.5 23q231 0 370 -59l-8 -64q-91 35 -174 49.5t-195 14.5q-127 0 -218.5 -26.5t-144.5 -75.5t-80 -106.5t-36 -131.5q-5 -42 -5 -75.5t4.5 -61.5t17 -50t27.5 -39t40.5 -30t52.5 -22.5t68 -17.5t81 -14t97 -12q50 -5 86 -10 t75.5 -13t67 -17t56.5 -21.5t47.5 -29t36.5 -38t27 -48.5q9 -26 15 -60q6 -31 6 -68v-6q0 -40 -7 -90q-8 -66 -29 -123.5t-66 -116.5t-110.5 -100.5t-169 -67.5t-234.5 -26q-99 0 -215 20t-186 49z" />
<glyph unicode="T" horiz-adv-x="1081" d="M180 1479l8 57h959l-8 -57h-447l-180 -1479h-66l181 1479h-447z" />
<glyph unicode="U" horiz-adv-x="1318" d="M124 354v9q0 61 7 135l129 1038h64l-129 -1036q-7 -61 -8 -112q1 -60 11 -108q18 -88 73 -138.5t134.5 -71.5t196.5 -21t202 21t152.5 71.5t107.5 139t56 219.5l129 1036h64l-129 -1038q-15 -124 -54 -215.5t-92 -147t-127.5 -88.5t-148.5 -45t-166 -12q-56 0 -103.5 4.5 t-96.5 15.5t-86 29t-72.5 46t-57 66t-39 88.5t-17.5 114.5z" />
<glyph unicode="V" horiz-adv-x="1232" d="M178 1536h72l317 -1434l670 1434h72l-734 -1546h-45z" />
<glyph unicode="W" horiz-adv-x="1654" d="M178 1536h68l135 -1423l545 1423h57l193 -1423l487 1423h68l-543 -1546h-53l-197 1417l-545 -1417h-53z" />
<glyph unicode="X" horiz-adv-x="1181" d="M-20 0l606 778l-402 758h82l363 -709l540 709h82l-592 -758l420 -778h-86l-377 729l-550 -729h-86z" />
<glyph unicode="Y" horiz-adv-x="1265" d="M178 1536h80l397 -848l607 848h79l-661 -907l-76 -629h-65l75 629z" />
<glyph unicode="Z" horiz-adv-x="1200" d="M10 0l4 45l1125 1434h-906l9 57h983l-6 -45l-1125 -1434h979l-6 -57h-1057z" />
<glyph unicode="[" horiz-adv-x="573" d="M76 -410l252 2048h276l-8 -59h-213l-236 -1929h213l-8 -60h-276z" />
<glyph unicode="\" horiz-adv-x="774" d="M139 1638h68l455 -2048h-68z" />
<glyph unicode="]" horiz-adv-x="573" d="M-4 -410l8 60h213l236 1929h-213l8 59h276l-252 -2048h-276z" />
<glyph unicode="^" horiz-adv-x="1044" d="M205 1024l436 512h57l310 -512h-47l-299 457l-410 -457h-47z" />
<glyph unicode="_" horiz-adv-x="593" d="M-123 -512l6 57h592l-6 -57h-592z" />
<glyph unicode="`" horiz-adv-x="1167" d="M537 1536h71l72 -410h-41z" />
<glyph unicode="a" d="M114 344.5q0 78.5 9 167.5q15 118 45 207t85 163t145.5 113t213.5 39q93 0 190 -24t156 -66l39 80h27l-125 -1024h-27l-20 80q-69 -42 -172.5 -66t-196.5 -24q-99 0 -171 26t-112.5 73t-63 112t-22.5 143.5zM178 397q0 -4 -1 -7q0 -50 7 -101q7 -55 28.5 -97.5t56 -76.5 t90.5 -52t130 -18q215 0 363 86l94 762q-130 86 -342 86q-88 0 -157.5 -27t-113.5 -70t-75 -106.5t-46.5 -125.5t-25.5 -138q-8 -62 -8 -115z" />
<glyph unicode="b" d="M82 0l188 1536h62l-74 -588q70 41 171.5 63.5t193.5 22.5q99 0 171 -26t112.5 -73t62.5 -112q22 -64 22 -140q0 -77 -10 -171q-11 -93 -31 -168t-57.5 -143t-90 -113t-131 -71.5t-177.5 -26.5q-93 0 -191 24t-158 66l-36 -80h-27zM158 131q130 -86 342 -86q88 0 157.5 27 t113.5 70t75 106.5t46.5 125.5t25.5 138q8 62 8 115q0 4 1 7q0 50 -7 101q-7 55 -29 97.5t-56 76.5t-90.5 52t-130.5 18q-214 0 -362 -86z" />
<glyph unicode="c" horiz-adv-x="933" d="M114 340q0 4 -1 8q0 76 10 164q12 96 32.5 172t58 143t90 111.5t130.5 70t178 25.5q161 0 279 -41l-6 -55q-51 14 -79.5 20.5t-84.5 13.5t-117 7q-89 0 -157.5 -26t-112.5 -68t-75 -105t-47 -125.5t-26 -142.5q-6 -56 -8 -102q0 -12 -1 -24q-1 -35 3 -72 q4 -49 16.5 -87.5t36 -73.5t57.5 -58t84.5 -36.5t114.5 -13.5q61 0 119 7t87 13.5t85 20.5l-8 -55q-128 -41 -289 -41q-100 0 -171.5 25t-112.5 71t-63 110t-22 144z" />
<glyph unicode="d" d="M114 344.5q0 78.5 9 167.5q15 118 45 207t85 163t145.5 113t213.5 39q92 0 186.5 -22.5t153.5 -63.5l74 588h61l-188 -1536h-27l-20 80q-69 -42 -172.5 -66t-196.5 -24q-99 0 -171 26t-112.5 73t-63 112t-22.5 143.5zM178 397q0 -4 -1 -7q0 -50 7 -101q7 -55 28.5 -97.5 t56 -76.5t90.5 -52t130 -18q215 0 363 86l94 762q-130 86 -342 86q-88 0 -157.5 -27t-113.5 -70t-75 -106.5t-46.5 -125.5t-25.5 -138q-8 -62 -8 -115z" />
<glyph unicode="e" horiz-adv-x="1046" d="M114 340q0 4 -1 8q0 76 10 164q12 96 32.5 172t58 143t90 111.5t130.5 70t178 25.5q200 0 276 -72q63 -60 63 -159q0 -21 -3 -43q-32 -277 -405 -277h-361q-6 -46 -7 -91q0 -11 1 -22q2 -55 10 -103.5t31 -89t57 -70t89 -46t126 -16.5q173 0 332 51l-6 -55 q-62 -23 -155 -37t-177 -14q-100 0 -171.5 25t-112.5 71t-63 110t-22 144zM190 541h361q170 0 246.5 54.5t89.5 164.5q2 19 2 36q0 82 -52 128q-63 54 -233 55q-85 0 -152 -24t-111 -63t-75.5 -97.5t-48 -118.5t-27.5 -135z" />
<glyph unicode="f" horiz-adv-x="757" d="M109 969l4 35l196 22l29 231q36 289 391 289q87 0 127 -8l-8 -55q-46 8 -125 8q-297 0 -324 -234l-28 -233h350l-6 -55h-350l-183 -1481h-61l182 1481h-194z" />
<glyph unicode="g" d="M80 -463l6 62q155 -66 334 -66q103 0 175 19.5t118 60t70 97.5t34 138l29 228q-70 -41 -171 -63.5t-192 -22.5q-99 0 -171 26t-112.5 73t-63 112t-22.5 143.5t9 167.5q15 118 45 207t85 163t145.5 113t213.5 39q93 0 190 -24t156 -66l39 80h27l-143 -1174 q-14 -108 -49.5 -181t-96 -114.5t-138 -59t-185.5 -17.5q-196 0 -332 59zM178 397q-1 -4 -1 -7q0 -50 7 -101q7 -55 28.5 -97.5t56 -76.5t90.5 -52t130 -18q215 0 363 86l94 762q-130 86 -342 86q-88 0 -157.5 -27t-113.5 -70t-75 -106.5t-46.5 -125.5t-25.5 -138 q-8 -62 -8 -115z" />
<glyph unicode="h" horiz-adv-x="1032" d="M82 0l188 1536h62l-74 -590q71 40 176 64t195 24q179 0 249 -66q54 -51 55 -156q0 -30 -5 -64l-90 -748h-66l92 754q3 24 3 46q0 92 -49 130q-60 48 -197 49q-222 0 -369 -84l-109 -895h-61z" />
<glyph unicode="i" horiz-adv-x="491" d="M158 139l108 885h62l-109 -881q-3 -19 -3 -33q0 -32 12 -48q18 -22 73 -23l-6 -49q-81 0 -113 36q-25 29 -26 82q0 15 2 31zM272 1331q0 25 18 43.5t44 18.5q25 0 43 -18.5t18 -43.5q0 -26 -18 -43.5t-43 -17.5q-26 0 -44 17.5t-18 43.5z" />
<glyph unicode="j" horiz-adv-x="471" d="M-205 -522l8 55q280 0 306 207l157 1284h62l-156 -1272q-34 -274 -377 -274zM272 1331q0 25 18 43.5t44 18.5q25 0 43 -18.5t18 -43.5q0 -26 -18 -43.5t-43 -17.5q-26 0 -44 17.5t-18 43.5z" />
<glyph unicode="k" horiz-adv-x="958" d="M82 0l188 1536h62l-135 -1059l637 547h79l-479 -412l432 -612h-82l-393 573l-203 -170l-45 -403h-61z" />
<glyph unicode="l" horiz-adv-x="491" d="M158 139l172 1397h61l-172 -1393q-3 -19 -3 -33q0 -32 12 -48q18 -22 73 -23l-6 -49q-81 0 -113 36q-25 29 -26 82q0 15 2 31z" />
<glyph unicode="m" horiz-adv-x="1574" d="M82 0l125 1024h31l18 -80q72 42 166 66t178 24q106 0 164.5 -26t81.5 -82q187 108 371 108q162 0 219 -62q43 -47 43 -140q0 -29 -4 -64l-95 -768h-65l94 774q3 30 3 55q0 29 -4 51q-8 41 -35.5 62.5t-65 29t-99.5 7.5q-181 0 -350 -100q3 -24 3 -52t-3 -59l-94 -768h-66 l95 774q3 30 3 55q0 29 -4 51q-8 41 -35.5 62.5t-65 29t-99.5 7.5q-189 0 -336 -84l-109 -895h-65z" />
<glyph unicode="n" horiz-adv-x="1036" d="M82 0l125 1024h31l18 -80q71 41 178 65.5t199 24.5q179 0 249 -66q54 -51 55 -156q0 -30 -5 -64l-90 -748h-66l92 754q3 24 3 46q0 92 -49 130q-60 48 -197 49q-222 0 -369 -84l-109 -895h-65z" />
<glyph unicode="o" horiz-adv-x="1089" d="M112 342q2 79 11 170q12 98 30.5 171t54 142t87 113t131 70t184.5 26t178.5 -25.5t112.5 -71.5t59 -111q18 -59 18 -130v-14q-2 -79 -11 -170q-12 -98 -30.5 -171t-54 -142t-86.5 -112.5t-130.5 -70t-184.5 -26.5t-178.5 25.5t-113 71.5t-59.5 111q-18 59 -18 130v14z M175 387q-1 -14 0 -29q-1 -40 3 -81q6 -57 26 -96t54.5 -71.5t92 -48.5t136.5 -16q68 0 123 13t95 34t71 56t51.5 71.5t36 87.5t24 97.5t15.5 107.5q8 62 11 108q2 23 2 47.5t-2 49.5q-3 51 -14 87.5t-34 71.5t-57.5 56t-86.5 34t-120 13t-123 -13t-94.5 -34t-71 -56 t-51.5 -71.5t-35.5 -87.5t-24 -97.5t-16.5 -107.5q-9 -72 -11 -125z" />
<glyph unicode="p" d="M18 -512l189 1536h26l19 -80q70 42 174 66t197 24q99 0 171 -26t112.5 -73t62.5 -112q22 -64 22 -140q0 -77 -10 -171q-11 -93 -31 -168t-57.5 -143t-90 -113t-131 -71.5t-177.5 -26.5q-91 0 -186.5 22.5t-155.5 63.5l-72 -588h-62zM158 131q130 -86 342 -86 q88 0 157.5 27t113.5 70t75 106.5t46.5 125.5t25.5 138q8 62 8 115q1 4 1 7q0 50 -7 101q-7 55 -29 97.5t-56 76.5t-90.5 52t-130.5 18q-214 0 -362 -86z" />
<glyph unicode="q" d="M114 344.5q0 78.5 9 167.5q15 118 45 207t85 163t145.5 113t213.5 39q93 0 190 -24t156 -66l39 80h27l-188 -1536h-62l72 588q-69 -41 -170 -63.5t-193 -22.5q-99 0 -171 26t-112.5 73t-63 112t-22.5 143.5zM178 397q-1 -4 -1 -7q0 -50 7 -101q7 -55 28.5 -97.5t56 -76.5 t90.5 -52t130 -18q215 0 363 86l94 762q-130 86 -342 86q-88 0 -157.5 -27t-113.5 -70t-75 -106.5t-46.5 -125.5t-25.5 -138q-8 -62 -8 -115z" />
<glyph unicode="r" horiz-adv-x="724" d="M82 0l125 1024h31l18 -80q71 41 178 65.5t199 24.5q51 0 94 -6l-6 -55q-43 6 -96 6q-222 0 -369 -84l-109 -895h-65z" />
<glyph unicode="s" horiz-adv-x="925" d="M68 31l8 55q49 -14 77.5 -20.5t84 -13.5t116.5 -7q340 0 369 229q3 28 3 51q0 43 -10 71q-16 42 -74 67.5t-177 40.5q-134 17 -201 47q-68 29 -89 77q-14 32 -14 82q0 23 3 50q35 274 405 274q161 0 279 -41l-6 -55q-51 14 -79.5 20.5t-84.5 13.5t-117 7 q-170 0 -246.5 -54.5t-89.5 -164.5q-3 -21 -2 -40q-1 -74 41 -104q52 -38 221 -59q133 -17 200 -49q67 -30 89 -84q14 -35 14 -87q0 -28 -4 -61q-7 -59 -32.5 -107.5t-74 -90t-132.5 -65t-197 -23.5q-159 0 -280 41z" />
<glyph unicode="t" horiz-adv-x="757" d="M109 969l4 35l196 22l37 305l64 8l-39 -315h350l-6 -55h-350l-91 -721q-2 -17 -2 -32q0 -38 12 -68q18 -42 55 -65t84.5 -33.5t108.5 -10.5h25l-6 -49h-25q-172 0 -250 68q-64 56 -64 159q0 22 3 47l88 705h-194z" />
<glyph unicode="u" horiz-adv-x="1036" d="M104 276l93 748h65l-92 -754q-3 -27 -3 -50q-1 -88 47 -126q60 -48 198 -49q224 0 368 84l111 895h65l-125 -1024h-30l-21 80q-69 -41 -175.5 -65.5t-198.5 -24.5q-180 0 -250 66q-56 52 -56 159q0 28 4 61z" />
<glyph unicode="v" horiz-adv-x="946" d="M115 1024h73l234 -926l465 926h71l-534 -1034h-29z" />
<glyph unicode="w" horiz-adv-x="1363" d="M115 1024h69l129 -928l396 928h73l166 -928l359 928h69l-415 -1034h-50l-176 954l-409 -954h-50z" />
<glyph unicode="x" horiz-adv-x="876" d="M-31 0l439 528l-289 496h71l256 -451l367 451h72l-412 -496l311 -528h-73l-277 481l-391 -481h-74z" />
<glyph unicode="y" horiz-adv-x="1036" d="M12 -463l6 62q155 -66 334 -66q136 0 220 36.5t123.5 103t52.5 175.5l28 228q-71 -40 -175 -63t-195 -23q-180 0 -250 66q-56 52 -56 159q0 28 4 61l93 748h65l-92 -754q-3 -27 -3 -50q0 -88 47 -126q61 -49 198 -49q226 0 370 84l111 895h63l-143 -1174 q-14 -108 -49.5 -181t-96 -114.5t-138 -59t-185.5 -17.5q-196 0 -332 59z" />
<glyph unicode="z" horiz-adv-x="917" d="M10 0l4 39l797 936h-649l6 49h721l-4 -39l-801 -936h704l-4 -49h-774z" />
<glyph unicode="{" horiz-adv-x="573" d="M113 586l6 57h37q130 0 139 133l45 668q6 99 67.5 146.5t161.5 47.5h35l-8 -57h-35q-73 0 -110 -32.5t-43 -100.5l-46 -668q-6 -135 -120 -166q105 -31 80 -165l-119 -668q-11 -68 18.5 -100.5t102.5 -32.5h34l-6 -58h-35q-100 0 -149.5 48t-30.5 147l119 668 q11 67 -14.5 100t-91.5 33h-37z" />
<glyph unicode="|" horiz-adv-x="442" d="M76 -410l252 2048h65l-252 -2048h-65z" />
<glyph unicode="}" horiz-adv-x="573" d="M-4 -410l6 58h35q144 0 153 133l46 668q8 135 120 165q-103 30 -80 166l119 668q24 133 -121 133h-34l8 57h35q100 0 149 -47.5t31 -146.5l-119 -668q-11 -67 14.5 -100t92.5 -33h36l-6 -57h-37q-130 0 -139 -133l-45 -668q-7 -99 -68 -147t-161 -48h-35z" />
<glyph unicode="~" horiz-adv-x="1003" d="M123 670l6 61q34 29 89 49.5t120 20.5q58 0 102 -15.5t72.5 -37.5t55 -44t64 -37.5t85.5 -15.5q70 0 125.5 24t85.5 52l-8 -61q-83 -70 -207 -70q-58 0 -102 15.5t-72.5 37t-55 43.5t-64 37.5t-85.5 15.5q-70 0 -127 -24t-84 -51z" />
<glyph unicode="&#xa1;" horiz-adv-x="389" d="M25 -512l163 1106h33l-106 -1106h-90zM190 973q0 25 18 43t44 18q25 0 43 -18t18 -43q0 -26 -18 -44t-43 -18q-26 0 -44 18t-18 44z" />
<glyph unicode="&#xa2;" horiz-adv-x="1185" d="M121 641q15 125 59.5 219.5t123 163.5t199.5 104t283 35q32 0 48 -2l116 246h58l-123 -250q128 -11 241 -47l-6 -53q-61 17 -89.5 24t-103.5 17t-151 10q-146 0 -254.5 -32.5t-178 -95.5t-107.5 -146t-52 -193t4.5 -193t72.5 -146t154.5 -95.5t246.5 -32.5q76 0 153 10 t108.5 17.5t94.5 23.5l-6 -53q-68 -23 -165.5 -38t-187.5 -15q-80 0 -165 10l-117 -256h-58l130 264q-381 76 -328 504z" />
<glyph unicode="&#xa3;" horiz-adv-x="1112" d="M-2 0l6 57h166l68 555h-166l8 58h166l28 245q11 90 40.5 156.5t84.5 117t143.5 76t211.5 25.5q79 0 167 -11.5t142 -31.5l-6 -55q-135 43 -309 43q-193 0 -289.5 -75.5t-116.5 -241.5l-31 -248h527l-9 -58h-526l-67 -555h727l-7 -57h-958z" />
<glyph unicode="&#xa4;" horiz-adv-x="1310" d="M106 49l160 191q-135 129 -135 399q0 272 133 399l-158 191l54 45l159 -193q125 80 336 80q209 0 334 -80l162 193l53 -45l-160 -191q136 -127 136 -399q0 -266 -136 -399l160 -191l-53 -45l-164 193q-125 -80 -332 -80q-208 0 -333 80l-162 -193zM195 639 q0 -112 23.5 -195.5t63 -134.5t100 -82.5t125.5 -43t148 -11.5t148 11.5t126 43t100.5 82.5t63 134.5t23.5 195.5t-23.5 195.5t-63 134.5t-100.5 82.5t-126 43t-148 11.5t-148 -11.5t-125.5 -43t-100 -82.5t-63 -134.5t-23.5 -195.5z" />
<glyph unicode="&#xa5;" horiz-adv-x="1114" d="M100 467l9 57h405l-115 234h-262l6 57h226l-224 465h72l346 -729l522 729h72l-340 -465h227l-6 -57h-262l-172 -234h406l-9 -57h-419l-56 -467h-61l55 467h-420z" />
<glyph unicode="&#xa6;" horiz-adv-x="442" d="M76 -410l119 973h65l-119 -973h-65zM207 666l121 972h65l-121 -972h-65z" />
<glyph unicode="&#xa7;" horiz-adv-x="1267" d="M59 -463l9 64q91 -35 173.5 -49.5t194.5 -14.5q102 0 181.5 18t131 48.5t87 75t53 92t24.5 106.5q5 42 5 75.5t-4.5 61.5t-17 49.5t-27.5 38.5t-42 30t-54.5 22.5t-70 17.5t-84 14t-100.5 13q-55 6 -95.5 12t-82 14t-71 17.5t-58.5 22.5t-48 28.5t-36 36t-26 45t-14 55.5 t-4.5 67.5t5.5 80.5q30 241 231 335q-46 70 -28 236q8 62 27.5 115.5t60 107t99.5 91t151.5 60.5t210.5 23q231 0 370 -59l-8 -64q-91 35 -173.5 49.5t-194.5 14.5q-127 0 -218.5 -26.5t-145 -75.5t-80.5 -106.5t-36 -131.5q-5 -42 -5 -75.5t4.5 -61.5t17.5 -49.5t28 -38.5 t42 -30t54.5 -22.5t70 -17.5t84 -14t100.5 -13q55 -6 96 -12t82.5 -14t71.5 -17.5t59 -22.5t48 -28.5t35.5 -36t25.5 -45t14 -55.5t4.5 -67.5t-6.5 -80.5q-26 -238 -232 -337q49 -79 29 -234q-8 -62 -27.5 -115.5t-60 -107t-99.5 -91t-151.5 -60.5t-210.5 -23 q-230 0 -369 59zM147 499.5q0 -33.5 4.5 -61.5t17 -49.5t27.5 -38t42 -29.5t54.5 -22.5t70 -18t84 -14t100.5 -12.5q143 -17 228 -38.5t134 -61.5q183 79 207 295q5 42 5 75.5t-4.5 61.5t-17 49.5t-27.5 38t-42 29.5t-54 22.5t-69.5 18t-83.5 14t-100 12.5 q-148 17 -232 37.5t-131 60.5q-183 -77 -208 -293q-5 -42 -5 -75.5z" />
<glyph unicode="&#xa8;" horiz-adv-x="1167" d="M428 1331q0 25 17.5 43.5t43.5 18.5q25 0 43.5 -18.5t18.5 -43.5q0 -26 -18.5 -43.5t-43.5 -17.5q-26 0 -43.5 17.5t-17.5 43.5zM817 1331q0 25 18 43.5t44 18.5q25 0 43 -18.5t18 -43.5q0 -26 -18 -43.5t-43 -17.5q-26 0 -44 17.5t-18 43.5z" />
<glyph unicode="&#xa9;" horiz-adv-x="1585" d="M139 641q19 153 85.5 277t167.5 205t228 124t269 43t258.5 -43t197 -124t117 -205t17.5 -277t-85.5 -277t-167.5 -205t-228 -124t-269 -43t-258.5 43t-197 124t-117 205t-17.5 277zM199 641q-17 -140 13 -252t101.5 -186.5t178.5 -114t243 -39.5q277 0 463 156.5 t221 435.5q17 140 -13.5 252t-102 186.5t-179 114t-243.5 39.5q-277 0 -462 -156.5t-220 -435.5zM418 641q49 389 444 389q67 0 138 -13t108 -26l-6 -55q-110 39 -246 39q-161 0 -257 -77t-118 -257t55 -257t238 -77q135 0 254 39l-6 -55q-41 -13 -114 -26t-140 -13 q-188 0 -281.5 94t-68.5 295z" />
<glyph unicode="&#xaa;" horiz-adv-x="831" d="M193 1157q26 207 112 298t250 91q50 0 118.5 -20.5t114.5 -61.5l33 70h31l-92 -754h-31l-16 70q-55 -41 -128.5 -61.5t-123.5 -20.5q-165 0 -229.5 91t-38.5 298zM256 1157q-23 -186 25.5 -260t185.5 -74q71 0 136 20.5t106 53.5l63 520q-33 33 -93 53.5t-130 20.5 q-137 0 -203.5 -74t-89.5 -260z" />
<glyph unicode="&#xab;" horiz-adv-x="952" d="M80 489l6 46l428 331l-6 -61l-363 -293l291 -293l-8 -63zM469 489l6 46l428 331l-6 -61l-362 -293l290 -293l-8 -63z" />
<glyph unicode="&#xac;" horiz-adv-x="1228" d="M270 967l9 57h798l-63 -512h-58l56 455h-742z" />
<glyph unicode="&#xad;" horiz-adv-x="696" d="M133 670l6 57h471l-6 -57h-471z" />
<glyph unicode="&#xae;" horiz-adv-x="1585" d="M139 641q19 153 85.5 277t167.5 205t228 124t269 43t258.5 -43t197 -124t117 -205t17.5 -277t-85.5 -277t-167.5 -205t-228 -124t-269 -43t-258.5 43t-197 124t-117 205t-17.5 277zM199 641q-17 -140 13 -252t101.5 -186.5t178.5 -114t243 -39.5q277 0 463 156.5 t221 435.5q17 140 -13.5 252t-102 186.5t-179 114t-243.5 39.5q-277 0 -462 -156.5t-220 -435.5zM502 256l94 768h303q63 0 106 -18t63 -50t26.5 -68.5t1.5 -80.5q-10 -86 -56 -139.5t-114 -67.5l127 -344h-74l-115 334h-260l-41 -334h-61zM610 649h258q84 0 119 39t45 119 q20 162 -125 162h-256z" />
<glyph unicode="&#xaf;" horiz-adv-x="1167" d="M401 1305l7 55h561l-6 -55h-562z" />
<glyph unicode="&#xb0;" horiz-adv-x="688" d="M166 1280q10 75 40 129t73.5 83t90.5 41.5t101 12.5t98 -12.5t81.5 -41.5t54 -83t6.5 -129q-9 -74 -39 -128t-74 -83t-91 -42t-101 -13t-98 13t-81 42t-53.5 83t-7.5 128zM229 1280q-13 -113 34 -162t151 -49t162 49t71 162q14 113 -32 162t-150 49t-163 -49t-73 -162z " />
<glyph unicode="&#xb1;" horiz-adv-x="1228" d="M182 242l6 57h799l-6 -57h-799zM242 727l8 57h371l45 371h57l-45 -371h371l-9 -57h-370l-45 -371h-58l45 371h-370z" />
<glyph unicode="&#xb2;" horiz-adv-x="858" d="M104 698l7 39q408 281 456 316q135 99 172 157q25 39 31 90q13 106 -49 147.5t-205 41.5q-115 0 -260 -41l8 53q124 43 256 43q183 0 255.5 -63t58.5 -183q-12 -97 -97 -172t-406 -289q-26 -18 -41 -27.5t-38.5 -25.5t-44.5 -30h590l-9 -56h-684z" />
<glyph unicode="&#xb3;" horiz-adv-x="835" d="M131 735l6 51q140 -41 277 -41q159 0 237 47t90 144q12 105 -50 151t-222 46h-150l7 51h137q151 0 220 33t79 120q9 84 -50.5 118t-205.5 32q-133 0 -273 -41l7 53q122 45 272 45q175 0 248 -49t61 -158q-9 -73 -47 -115t-108 -61q84 -25 118 -79t23 -144 q-29 -248 -399 -248q-174 0 -277 45z" />
<glyph unicode="&#xb4;" horiz-adv-x="1167" d="M639 1126l174 410h72l-205 -410h-41z" />
<glyph unicode="&#xb5;" horiz-adv-x="1036" d="M8 -512l189 1536h65l-92 -754q-16 -128 44.5 -176.5t197.5 -48.5q224 0 368 84l111 895h65l-125 -1024h-30l-21 80q-69 -41 -175.5 -65.5t-198.5 -24.5q-197 0 -261 78l-71 -580h-66z" />
<glyph unicode="&#xb6;" horiz-adv-x="1153" d="M217 1092q56 444 524 444h480l-189 -1536h-65l77 649h-196l-78 -649h-65l77 649h-151q-470 0 -414 443zM278 1003q3 -45 10.5 -88t32.5 -81t62.5 -66t100.5 -44.5t145 -16.5h162l94 770h-162q-98 0 -174 -24t-121.5 -60t-77 -90t-45.5 -102.5t-22 -108.5q-8 -44 -5 -89z M856 707h197l94 770h-197z" />
<glyph unicode="&#xb7;" horiz-adv-x="389" d="M156 698q0 25 17.5 43.5t43.5 18.5q25 0 43.5 -18.5t18.5 -43.5q0 -26 -18.5 -43.5t-43.5 -17.5q-26 0 -43.5 17.5t-17.5 43.5z" />
<glyph unicode="&#xb8;" horiz-adv-x="1167" d="M307 -479l6 55q91 -33 150 -33q166 0 180 113q9 67 -37 104.5t-141 55.5l39 184h37l-11 -147q76 -15 130.5 -67t44.5 -126q-9 -78 -72.5 -125t-161.5 -47q-95 0 -164 33z" />
<glyph unicode="&#xb9;" horiz-adv-x="552" d="M193 1442l2 22l294 80h23l-104 -846h-64l96 772z" />
<glyph unicode="&#xba;" horiz-adv-x="897" d="M193 1157q26 210 114.5 299.5t267.5 89.5q180 0 247.5 -90t41.5 -299q-26 -210 -115 -299.5t-268 -89.5t-246.5 89.5t-41.5 299.5zM256 1157q-23 -185 30.5 -259.5t200.5 -74.5t219 74.5t95 259.5t-31 259.5t-201 74.5t-218.5 -74.5t-94.5 -259.5z" />
<glyph unicode="&#xbb;" horiz-adv-x="952" d="M49 156l8 63l361 293l-289 293l6 61l350 -331l-6 -46zM438 156l8 63l361 293l-289 293l6 61l350 -331l-6 -46z" />
<glyph unicode="&#xbc;" horiz-adv-x="1781" d="M193 1442l2 22l294 80h23l-104 -846h-64l96 772zM225 0l1274 1536h76l-1274 -1536h-76zM983 262l6 39l553 545h39l-65 -531h190l-6 -53h-191l-30 -262h-60l31 262h-467zM1075 315h381l53 426z" />
<glyph unicode="&#xbd;" horiz-adv-x="1923" d="M193 1442l2 22l294 80h23l-104 -846h-64l96 772zM225 0l1274 1536h76l-1274 -1536h-76zM1085 0l5 39q59 41 163 112q327 224 406.5 294t91.5 157q12 106 -50.5 147.5t-205.5 41.5q-115 0 -260 -41l8 53q124 43 256 43q183 0 256 -63t57 -183q-4 -35 -13.5 -62.5 t-36.5 -60.5t-57 -60t-94.5 -74t-127.5 -89.5t-177 -118.5q-77 -51 -120 -80h590l-7 -55h-684z" />
<glyph unicode="&#xbe;" horiz-adv-x="2007" d="M131 735l6 51q140 -41 277 -41q159 0 237 47t90 144q12 105 -50 151t-222 46h-150l7 51h137q151 0 220 33t79 120q9 84 -50.5 118t-205.5 32q-133 0 -273 -41l7 53q122 45 272 45q175 0 248 -49t61 -158q-9 -73 -47 -115t-108 -61q84 -25 118 -79t23 -144 q-29 -248 -399 -248q-174 0 -277 45zM451 0l1273 1536h76l-1274 -1536h-75zM1208 262l6 39l553 545h39l-65 -531h190l-6 -53h-190l-31 -262h-59l30 262h-467zM1300 315h381l54 426z" />
<glyph unicode="&#xbf;" horiz-adv-x="962" d="M-21 -227.5q-4 49.5 5 100.5q8 67 24 119t41 89.5t53.5 64.5t70 49.5t81 38.5t95.5 37q43 15 65 24q39 15 68 31.5t50 31.5t35 36t23 38t14.5 46.5t8 52t5.5 63.5h37q5 -51 0 -86q-14 -108 -68 -169t-181 -106q-18 -7 -51 -18t-51 -17.5t-46.5 -18t-45 -21t-39.5 -25.5 t-37 -32t-31 -39.5t-27 -50t-19 -61.5t-14 -75q-8 -47 -4 -90.5t15.5 -81.5t41 -69.5t73.5 -53.5t112.5 -34.5t158.5 -12.5q133 0 303 45l-6 -55q-51 -18 -143 -31.5t-160 -13.5q-105 0 -185 15t-129.5 42t-83 64t-44.5 80.5t-15 93zM584 973q0 25 17.5 43t43.5 18 q25 0 43.5 -18t18.5 -43q0 -26 -18.5 -44t-43.5 -18q-26 0 -43.5 18t-17.5 44z" />
<glyph unicode="&#xc0;" horiz-adv-x="1232" d="M-10 0l731 1546h45l354 -1546h-76l-100 444h-674l-204 -444h-76zM297 502h637l-205 930zM580 1843h104l98 -205h-53z" />
<glyph unicode="&#xc1;" horiz-adv-x="1232" d="M-10 0l731 1546h45l354 -1546h-76l-100 444h-674l-204 -444h-76zM297 502h637l-205 930zM729 1638l148 205h104l-199 -205h-53z" />
<glyph unicode="&#xc2;" horiz-adv-x="1232" d="M-10 0l731 1546h45l354 -1546h-76l-100 444h-674l-204 -444h-76zM297 502h637l-205 930zM459 1638l286 205h70l238 -205h-60l-219 156l-256 -156h-59z" />
<glyph unicode="&#xc3;" horiz-adv-x="1232" d="M-10 0l731 1546h45l354 -1546h-76l-100 444h-674l-204 -444h-76zM297 502h637l-205 930zM434 1657q17 88 69.5 134t131.5 46q41 0 72.5 -14.5t52.5 -35.5t40.5 -41.5t45.5 -35t59 -14.5q117 0 139 129h58q-17 -88 -69.5 -134t-131.5 -46q-41 0 -72.5 14.5t-52.5 35.5 t-40.5 41.5t-45.5 35t-59 14.5q-119 0 -139 -129h-58z" />
<glyph unicode="&#xc4;" horiz-adv-x="1232" d="M-10 0l731 1546h45l354 -1546h-76l-100 444h-674l-204 -444h-76zM297 502h637l-205 930zM512 1741q0 25 17.5 43t43.5 18q25 0 43.5 -18t18.5 -43q0 -26 -18.5 -44t-43.5 -18q-26 0 -43.5 18t-17.5 44zM901 1741q0 25 18 43t44 18q25 0 43 -18t18 -43q0 -26 -18 -44 t-43 -18q-26 0 -44 18t-18 44z" />
<glyph unicode="&#xc5;" horiz-adv-x="1232" d="M-10 0l731 1546h45l354 -1546h-76l-100 444h-674l-204 -444h-76zM297 502h637l-205 930zM575 1741q18 145 211 145q55 0 94.5 -12t63.5 -45.5t17 -87.5q-18 -146 -211 -146q-86 0 -135.5 33.5t-39.5 112.5zM625 1741q-6 -46 26 -72.5t105 -26.5q138 0 151 99 q10 98 -127 98q-73 0 -111.5 -26t-43.5 -72z" />
<glyph unicode="&#xc6;" horiz-adv-x="1914" d="M-8 0l960 1536h977l-8 -59h-903l33 -652h714l-6 -57h-704l37 -709h655l-6 -59h-715l-22 444h-664l-272 -444h-76zM377 502h624l-45 936z" />
<glyph unicode="&#xc7;" horiz-adv-x="1196" d="M133 441.5q-13 143.5 12 326.5q23 193 69.5 332t127 242t203 153.5t289.5 50.5q231 0 370 -59l-8 -64q-91 35 -174 49.5t-195 14.5q-282 0 -427 -176t-189 -543q-45 -368 56 -543.5t382 -175.5q112 0 198.5 14.5t186.5 49.5l-8 -64q-144 -56 -364 -59l-9 -137 q76 -15 130 -67t44 -126q-9 -78 -72 -125t-161 -47q-95 0 -164 33l6 55q91 -33 150 -33q166 0 180 113q9 67 -37 104.5t-141 55.5l35 176q-160 3 -266 56t-158.5 151.5t-65.5 242z" />
<glyph unicode="&#xc8;" horiz-adv-x="1107" d="M82 0l188 1536h852l-8 -59h-786l-80 -652h710l-6 -57h-710l-88 -709h786l-6 -59h-852zM547 1843h104l99 -205h-54z" />
<glyph unicode="&#xc9;" horiz-adv-x="1107" d="M82 0l188 1536h852l-8 -59h-786l-80 -652h710l-6 -57h-710l-88 -709h786l-6 -59h-852zM696 1638l148 205h104l-198 -205h-54z" />
<glyph unicode="&#xca;" horiz-adv-x="1107" d="M82 0l188 1536h852l-8 -59h-786l-80 -652h710l-6 -57h-710l-88 -709h786l-6 -59h-852zM426 1638l287 205h69l238 -205h-59l-220 156l-256 -156h-59z" />
<glyph unicode="&#xcb;" horiz-adv-x="1107" d="M82 0l188 1536h852l-8 -59h-786l-80 -652h710l-6 -57h-710l-88 -709h786l-6 -59h-852zM479 1741q0 25 18 43t44 18q25 0 43 -18t18 -43q0 -26 -18 -44t-43 -18q-26 0 -44 18t-18 44zM868 1741q0 25 18 43t44 18q25 0 43 -18t18 -43q0 -26 -18 -44t-43 -18q-26 0 -44 18 t-18 44z" />
<glyph unicode="&#xcc;" horiz-adv-x="442" d="M127 0l188 1536h66l-188 -1536h-66zM184 1843h105l98 -205h-53z" />
<glyph unicode="&#xcd;" horiz-adv-x="442" d="M127 0l188 1536h66l-188 -1536h-66zM334 1638l147 205h105l-199 -205h-53z" />
<glyph unicode="&#xce;" horiz-adv-x="442" d="M63 1638l287 205h70l237 -205h-59l-219 156l-256 -156h-60zM127 0l188 1536h66l-188 -1536h-66z" />
<glyph unicode="&#xcf;" horiz-adv-x="442" d="M127 0l188 1536h66l-188 -1536h-66zM158 1741q0 25 17.5 43t43.5 18q25 0 43.5 -18t18.5 -43q0 -26 -18.5 -44t-43.5 -18q-26 0 -43.5 18t-17.5 44zM465 1741q0 25 17.5 43t43.5 18q25 0 43.5 -18t18.5 -43q0 -26 -18.5 -44t-43.5 -18q-26 0 -43.5 18t-17.5 44z" />
<glyph unicode="&#xd0;" horiz-adv-x="1372" d="M70 741l6 58h184l92 737h445q178 0 290 -52.5t161 -151.5t59 -241.5t-15 -322.5q-19 -153 -47.5 -265.5t-79.5 -211.5t-124 -160.5t-181.5 -96t-251.5 -34.5h-444l90 741h-184zM236 59h368q127 0 222.5 29t163 83t114.5 143t75 197t46 257q29 237 4.5 394.5t-133.5 236 t-318 78.5h-368l-84 -678h366l-6 -58h-367z" />
<glyph unicode="&#xd1;" horiz-adv-x="1318" d="M82 0l188 1536h41l756 -1393l168 1393h68l-189 -1536h-41l-758 1393l-165 -1393h-68zM477 1657q17 88 69.5 134t131.5 46q41 0 72.5 -14.5t52.5 -35.5t40.5 -41.5t45.5 -35t59 -14.5q117 0 139 129h58q-17 -88 -69.5 -134t-131.5 -46q-41 0 -72.5 14.5t-52.5 35.5 t-40.5 41.5t-45.5 35t-59 14.5q-119 0 -139 -129h-58z" />
<glyph unicode="&#xd2;" horiz-adv-x="1347" d="M125 450q-1 76 4 150t16 168t24.5 168t33 150t46 133.5t62.5 112t83 92t106 66t134.5 42.5t166.5 14q104 0 183.5 -19t134 -52.5t90.5 -88t54.5 -115.5t23 -145.5t-0.5 -167t-18 -190.5t-28.5 -190.5t-41 -167t-58.5 -145.5t-82.5 -115.5t-112 -88t-147 -52.5t-188.5 -19 q-91 0 -163 14t-124 42.5t-90 66t-60.5 92t-34.5 112t-13 133.5zM190 457q4 -134 43 -225t133 -137t250 -46q90 0 162.5 15.5t128 44t99 75.5t74 102.5t54.5 133.5t39.5 159.5t28.5 188.5q24 177 20 311t-43.5 225t-133.5 137t-250 46q-105 0 -186 -20t-140.5 -62.5 t-102 -99.5t-72.5 -142t-49 -177.5t-34 -217.5q-25 -177 -21 -311zM637 1843h104l99 -205h-54z" />
<glyph unicode="&#xd3;" horiz-adv-x="1347" d="M125 450q-1 76 4 150t16 168t24.5 168t33 150t46 133.5t62.5 112t83 92t106 66t134.5 42.5t166.5 14q104 0 183.5 -19t134 -52.5t90.5 -88t54.5 -115.5t23 -145.5t-0.5 -167t-18 -190.5t-28.5 -190.5t-41 -167t-58.5 -145.5t-82.5 -115.5t-112 -88t-147 -52.5t-188.5 -19 q-91 0 -163 14t-124 42.5t-90 66t-60.5 92t-34.5 112t-13 133.5zM190 457q4 -134 43 -225t133 -137t250 -46q90 0 162.5 15.5t128 44t99 75.5t74 102.5t54.5 133.5t39.5 159.5t28.5 188.5q24 177 20 311t-43.5 225t-133.5 137t-250 46q-105 0 -186 -20t-140.5 -62.5 t-102 -99.5t-72.5 -142t-49 -177.5t-34 -217.5q-25 -177 -21 -311zM786 1638l148 205h104l-198 -205h-54z" />
<glyph unicode="&#xd4;" horiz-adv-x="1347" d="M125 450q-1 76 4 150t16 168t24.5 168t33 150t46 133.5t62.5 112t83 92t106 66t134.5 42.5t166.5 14q104 0 183.5 -19t134 -52.5t90.5 -88t54.5 -115.5t23 -145.5t-0.5 -167t-18 -190.5t-28.5 -190.5t-41 -167t-58.5 -145.5t-82.5 -115.5t-112 -88t-147 -52.5t-188.5 -19 q-91 0 -163 14t-124 42.5t-90 66t-60.5 92t-34.5 112t-13 133.5zM190 457q4 -134 43 -225t133 -137t250 -46q90 0 162.5 15.5t128 44t99 75.5t74 102.5t54.5 133.5t39.5 159.5t28.5 188.5q24 177 20 311t-43.5 225t-133.5 137t-250 46q-105 0 -186 -20t-140.5 -62.5 t-102 -99.5t-72.5 -142t-49 -177.5t-34 -217.5q-25 -177 -21 -311zM516 1638l287 205h69l238 -205h-59l-220 156l-256 -156h-59z" />
<glyph unicode="&#xd5;" horiz-adv-x="1347" d="M125 450q-1 76 4 150t16 168t24.5 168t33 150t46 133.5t62.5 112t83 92t106 66t134.5 42.5t166.5 14q104 0 183.5 -19t134 -52.5t90.5 -88t54.5 -115.5t23 -145.5t-0.5 -167t-18 -190.5t-28.5 -190.5t-41 -167t-58.5 -145.5t-82.5 -115.5t-112 -88t-147 -52.5t-188.5 -19 q-91 0 -163 14t-124 42.5t-90 66t-60.5 92t-34.5 112t-13 133.5zM190 457q4 -134 43 -225t133 -137t250 -46q90 0 162.5 15.5t128 44t99 75.5t74 102.5t54.5 133.5t39.5 159.5t28.5 188.5q24 177 20 311t-43.5 225t-133.5 137t-250 46q-105 0 -186 -20t-140.5 -62.5 t-102 -99.5t-72.5 -142t-49 -177.5t-34 -217.5q-25 -177 -21 -311zM492 1657q17 88 69 134t131 46q41 0 72.5 -14.5t52.5 -35.5t40.5 -41.5t46 -35t59.5 -14.5q117 0 139 129h57q-17 -88 -69.5 -134t-131.5 -46q-41 0 -72.5 14.5t-52.5 35.5t-40.5 41.5t-45.5 35t-59 14.5 q-119 0 -139 -129h-57z" />
<glyph unicode="&#xd6;" horiz-adv-x="1347" d="M125 450q-1 76 4 150t16 168t24.5 168t33 150t46 133.5t62.5 112t83 92t106 66t134.5 42.5t166.5 14q104 0 183.5 -19t134 -52.5t90.5 -88t54.5 -115.5t23 -145.5t-0.5 -167t-18 -190.5t-28.5 -190.5t-41 -167t-58.5 -145.5t-82.5 -115.5t-112 -88t-147 -52.5t-188.5 -19 q-91 0 -163 14t-124 42.5t-90 66t-60.5 92t-34.5 112t-13 133.5zM190 457q4 -134 43 -225t133 -137t250 -46q90 0 162.5 15.5t128 44t99 75.5t74 102.5t54.5 133.5t39.5 159.5t28.5 188.5q24 177 20 311t-43.5 225t-133.5 137t-250 46q-105 0 -186 -20t-140.5 -62.5 t-102 -99.5t-72.5 -142t-49 -177.5t-34 -217.5q-25 -177 -21 -311zM569 1741q0 25 18 43t44 18q25 0 43 -18t18 -43q0 -26 -18 -44t-43 -18q-26 0 -44 18t-18 44zM958 1741q0 25 18 43t44 18q25 0 43 -18t18 -43q0 -26 -18 -44t-43 -18q-26 0 -44 18t-18 44z" />
<glyph unicode="&#xd7;" horiz-adv-x="1228" d="M303 436l293 262l-229 263l47 40l229 -262l295 262l35 -40l-295 -263l231 -262l-47 -41l-229 262l-295 -262z" />
<glyph unicode="&#xd8;" horiz-adv-x="1347" d="M123 0l92 131q-40 49 -62 115.5t-27 151t0 170.5t19 200q11 94 24.5 168t33 150t46 133.5t62.5 112t83 92t106 66t134.5 42.5t166.5 14q233 0 354 -100l66 90h73l-98 -135q51 -65 72.5 -165.5t19.5 -208.5t-20 -259q-13 -108 -28.5 -190.5t-41 -167t-58.5 -145.5 t-82.5 -115.5t-112 -88t-147 -52.5t-188.5 -19q-234 0 -352 98l-61 -88h-74zM191.5 424.5q8.5 -150.5 66.5 -234.5l858 1201q-104 96 -321 96q-105 0 -186 -20t-140.5 -62.5t-102 -99.5t-72.5 -142t-49 -177.5t-34 -217.5q-28 -193 -19.5 -343.5zM297 143q101 -94 319 -94 q90 0 162.5 15.5t128 44t99 75.5t74 102.5t54.5 133.5t39.5 159.5t28.5 188.5q27 191 18 340.5t-65 234.5z" />
<glyph unicode="&#xd9;" horiz-adv-x="1318" d="M124.5 354q-0.5 64 6.5 144l129 1038h64l-129 -1036q-16 -131 2.5 -219.5t73.5 -139t134.5 -71.5t196.5 -21t202 21t152.5 71.5t107.5 139t56 219.5l129 1036h64l-129 -1038q-15 -124 -54 -215.5t-92 -147t-127.5 -88.5t-148.5 -45t-166 -12q-56 0 -103.5 4.5t-96.5 15.5 t-86 29t-72.5 46t-57 66t-38.5 88.5t-17.5 114.5zM623 1843h104l98 -205h-53z" />
<glyph unicode="&#xda;" horiz-adv-x="1318" d="M124.5 354q-0.5 64 6.5 144l129 1038h64l-129 -1036q-16 -131 2.5 -219.5t73.5 -139t134.5 -71.5t196.5 -21t202 21t152.5 71.5t107.5 139t56 219.5l129 1036h64l-129 -1038q-15 -124 -54 -215.5t-92 -147t-127.5 -88.5t-148.5 -45t-166 -12q-56 0 -103.5 4.5t-96.5 15.5 t-86 29t-72.5 46t-57 66t-38.5 88.5t-17.5 114.5zM772 1638l148 205h104l-199 -205h-53z" />
<glyph unicode="&#xdb;" horiz-adv-x="1318" d="M124.5 354q-0.5 64 6.5 144l129 1038h64l-129 -1036q-16 -131 2.5 -219.5t73.5 -139t134.5 -71.5t196.5 -21t202 21t152.5 71.5t107.5 139t56 219.5l129 1036h64l-129 -1038q-15 -124 -54 -215.5t-92 -147t-127.5 -88.5t-148.5 -45t-166 -12q-56 0 -103.5 4.5t-96.5 15.5 t-86 29t-72.5 46t-57 66t-38.5 88.5t-17.5 114.5zM502 1638l286 205h70l238 -205h-60l-219 156l-256 -156h-59z" />
<glyph unicode="&#xdc;" horiz-adv-x="1318" d="M124.5 354q-0.5 64 6.5 144l129 1038h64l-129 -1036q-16 -131 2.5 -219.5t73.5 -139t134.5 -71.5t196.5 -21t202 21t152.5 71.5t107.5 139t56 219.5l129 1036h64l-129 -1038q-15 -124 -54 -215.5t-92 -147t-127.5 -88.5t-148.5 -45t-166 -12q-56 0 -103.5 4.5t-96.5 15.5 t-86 29t-72.5 46t-57 66t-38.5 88.5t-17.5 114.5zM555 1741q0 25 17.5 43t43.5 18q25 0 43.5 -18t18.5 -43q0 -26 -18.5 -44t-43.5 -18q-26 0 -43.5 18t-17.5 44zM944 1741q0 25 18 43t44 18q25 0 43 -18t18 -43q0 -26 -18 -44t-43 -18q-26 0 -44 18t-18 44z" />
<glyph unicode="&#xdd;" horiz-adv-x="1265" d="M178 1536h80l397 -848l607 848h79l-661 -907l-76 -629h-65l75 629zM745 1638l148 205h104l-198 -205h-54z" />
<glyph unicode="&#xde;" horiz-adv-x="1153" d="M82 0l188 1536h66l-41 -324h414q467 0 415 -444q-55 -442 -524 -442h-414l-39 -326h-65zM193 383h423q98 0 174 24t122.5 60.5t78.5 90.5t46 102.5t22 107.5q8 44 5 89.5t-10.5 88.5t-32.5 80.5t-62.5 65.5t-100.5 44.5t-145 16.5h-424z" />
<glyph unicode="&#xdf;" horiz-adv-x="1116" d="M51 -512l213 1739q18 148 109 233.5t266 85.5q338 0 299 -309q-8 -65 -39.5 -114t-72 -76.5t-88 -55.5t-88 -52t-70.5 -65t-37 -94q-5 -43 1.5 -71.5t32 -49.5t54 -33.5t84.5 -31.5q82 -28 130.5 -51.5t85 -57.5t48 -79t2.5 -109q-7 -62 -32.5 -115t-70 -97t-116 -69.5 t-162.5 -25.5q-52 0 -116 9.5t-99 31.5l6 51q111 -39 215 -39q81 0 143 25t96 65.5t52 80.5t23 81q10 80 -28 135t-144 88q-85 26 -131.5 45.5t-83 49.5t-47 69t-3.5 98q7 54 30.5 96t57 69t72.5 50t78 45t72 47t56.5 63t29.5 87q15 129 -49 191.5t-197 62.5 q-131 0 -212.5 -67t-98.5 -197l-213 -1739h-58z" />
<glyph unicode="&#xe0;" d="M114 344.5q0 78.5 9 167.5q15 118 45 207t85 163t145.5 113t213.5 39q93 0 190 -24t156 -66l39 80h27l-125 -1024h-27l-20 80q-69 -42 -172.5 -66t-196.5 -24q-99 0 -171 26t-112.5 73t-63 112t-22.5 143.5zM177.5 397q-0.5 -53 6.5 -108t28.5 -97.5t56 -76.5t90.5 -52 t130 -18q215 0 363 86l94 762q-130 86 -342 86q-88 0 -157.5 -27t-113.5 -70t-75 -106.5t-46.5 -125.5t-25.5 -138q-8 -62 -8.5 -115zM500 1536h71l72 -410h-41z" />
<glyph unicode="&#xe1;" d="M114 344.5q0 78.5 9 167.5q15 118 45 207t85 163t145.5 113t213.5 39q93 0 190 -24t156 -66l39 80h27l-125 -1024h-27l-20 80q-69 -42 -172.5 -66t-196.5 -24q-99 0 -171 26t-112.5 73t-63 112t-22.5 143.5zM177.5 397q-0.5 -53 6.5 -108t28.5 -97.5t56 -76.5t90.5 -52 t130 -18q215 0 363 86l94 762q-130 86 -342 86q-88 0 -157.5 -27t-113.5 -70t-75 -106.5t-46.5 -125.5t-25.5 -138q-8 -62 -8.5 -115zM602 1126l174 410h72l-205 -410h-41z" />
<glyph unicode="&#xe2;" d="M114 344.5q0 78.5 9 167.5q15 118 45 207t85 163t145.5 113t213.5 39q93 0 190 -24t156 -66l39 80h27l-125 -1024h-27l-20 80q-69 -42 -172.5 -66t-196.5 -24q-99 0 -171 26t-112.5 73t-63 112t-22.5 143.5zM177.5 397q-0.5 -53 6.5 -108t28.5 -97.5t56 -76.5t90.5 -52 t130 -18q215 0 363 86l94 762q-130 86 -342 86q-88 0 -157.5 -27t-113.5 -70t-75 -106.5t-46.5 -125.5t-25.5 -138q-8 -62 -8.5 -115zM285 1126l358 410h62l256 -410h-50l-245 344l-332 -344h-49z" />
<glyph unicode="&#xe3;" d="M114 344.5q0 78.5 9 167.5q15 118 45 207t85 163t145.5 113t213.5 39q93 0 190 -24t156 -66l39 80h27l-125 -1024h-27l-20 80q-69 -42 -172.5 -66t-196.5 -24q-99 0 -171 26t-112.5 73t-63 112t-22.5 143.5zM177.5 397q-0.5 -53 6.5 -108t28.5 -97.5t56 -76.5t90.5 -52 t130 -18q215 0 363 86l94 762q-130 86 -342 86q-88 0 -157.5 -27t-113.5 -70t-75 -106.5t-46.5 -125.5t-25.5 -138q-8 -62 -8.5 -115zM313 1247q17 88 69.5 134t131.5 46q41 0 73 -14.5t53 -35.5t40.5 -41.5t46 -35t59.5 -14.5q118 0 138 129h57q-17 -88 -68.5 -134 t-130.5 -46q-41 0 -73 14.5t-53 35.5t-40.5 41.5t-46 35t-59.5 14.5q-117 0 -139 -129h-58z" />
<glyph unicode="&#xe4;" d="M114 344.5q0 78.5 9 167.5q15 118 45 207t85 163t145.5 113t213.5 39q93 0 190 -24t156 -66l39 80h27l-125 -1024h-27l-20 80q-69 -42 -172.5 -66t-196.5 -24q-99 0 -171 26t-112.5 73t-63 112t-22.5 143.5zM177.5 397q-0.5 -53 6.5 -108t28.5 -97.5t56 -76.5t90.5 -52 t130 -18q215 0 363 86l94 762q-130 86 -342 86q-88 0 -157.5 -27t-113.5 -70t-75 -106.5t-46.5 -125.5t-25.5 -138q-8 -62 -8.5 -115zM391 1331q0 25 18 43.5t44 18.5q25 0 43 -18.5t18 -43.5q0 -26 -18 -43.5t-43 -17.5q-26 0 -44 17.5t-18 43.5zM780 1331q0 25 18 43.5 t44 18.5q25 0 43 -18.5t18 -43.5q0 -26 -18 -43.5t-43 -17.5q-26 0 -44 17.5t-18 43.5z" />
<glyph unicode="&#xe5;" d="M114 344.5q0 78.5 9 167.5q15 118 45 207t85 163t145.5 113t213.5 39q93 0 190 -24t156 -66l39 80h27l-125 -1024h-27l-20 80q-69 -42 -172.5 -66t-196.5 -24q-99 0 -171 26t-112.5 73t-63 112t-22.5 143.5zM177.5 397q-0.5 -53 6.5 -108t28.5 -97.5t56 -76.5t90.5 -52 t130 -18q215 0 363 86l94 762q-130 86 -342 86q-88 0 -157.5 -27t-113.5 -70t-75 -106.5t-46.5 -125.5t-25.5 -138q-8 -62 -8.5 -115zM455 1331q23 191 217 191q189 0 166 -191q-23 -188 -213 -188q-91 0 -136.5 46t-33.5 142zM504 1331q-16 -141 127 -141q139 0 155 141 q19 142 -120 142q-143 0 -162 -142z" />
<glyph unicode="&#xe6;" horiz-adv-x="1714" d="M66 283q16 129 110.5 193.5t300.5 64.5h318l20 168q9 72 2 123.5t-38 84t-89 47.5t-151 15q-96 0 -177 -14t-122 -29l6 55q50 17 133.5 30t167.5 13q173 0 249 -51t87 -152q118 203 397 203q199 0 275.5 -72.5t60.5 -201.5q-32 -277 -406 -277h-360q-8 -58 -6 -113 t10 -103.5t31 -89t57 -70t89 -46t126 -16.5q173 0 332 51l-6 -55q-62 -23 -155 -37t-177 -14q-242 0 -322 147q-30 -24 -86 -57q-67 -41 -170.5 -65.5t-185.5 -24.5q-186 0 -261 79.5t-60 213.5zM129 283q-6 -51 1.5 -89.5t33 -74t84.5 -55t149 -19.5q184 0 348 94 q31 16 62 47q-38 99 -21 297h-342q-153 0 -227 -48.5t-88 -151.5zM858 541h361q170 0 246 54.5t89 164.5t-50 164.5t-232 54.5q-85 0 -152 -24t-111 -63t-75.5 -97.5t-48 -118.5t-27.5 -135z" />
<glyph unicode="&#xe7;" horiz-adv-x="933" d="M115.5 308.5q-8.5 93.5 7.5 203.5q12 96 32.5 172t58 143t90 111.5t130.5 70t178 25.5q161 0 279 -41l-6 -55q-51 14 -79.5 20.5t-84.5 13.5t-117 7q-89 0 -157.5 -26t-112.5 -68t-75 -105t-47 -125.5t-26 -142.5q-7 -56 -8.5 -102.5t3 -95.5t16.5 -87.5t35.5 -73.5 t57.5 -58t84.5 -36.5t114.5 -13.5q61 0 119 7t87 13.5t85 20.5l-8 -55q-128 -41 -289 -41l-8 -137q76 -15 130 -67t44 -126q-9 -78 -72 -125t-161 -47q-95 0 -164 33l6 55q91 -33 150 -33q166 0 180 113q9 67 -37 104.5t-141 55.5l34 176q-111 5 -183.5 45.5t-104.5 109 t-40.5 162z" />
<glyph unicode="&#xe8;" horiz-adv-x="1046" d="M113.5 340.5q-0.5 79.5 9.5 171.5q12 96 32.5 172t58 143t90 111.5t130.5 70t178 25.5q199 0 275.5 -72.5t60.5 -201.5q-32 -277 -405 -277h-361q-8 -58 -6 -113t10 -103.5t31 -89t57 -70t89 -46t126 -16.5q173 0 332 51l-6 -55q-62 -23 -155 -37t-177 -14 q-100 0 -171.5 25t-112.5 71t-63 110.5t-22.5 144zM190 541h361q170 0 246.5 54.5t89.5 164.5t-50 164.5t-233 54.5q-85 0 -152 -24t-111 -63t-75.5 -97.5t-48 -118.5t-27.5 -135zM500 1536h71l72 -410h-41z" />
<glyph unicode="&#xe9;" horiz-adv-x="1046" d="M113.5 340.5q-0.5 79.5 9.5 171.5q12 96 32.5 172t58 143t90 111.5t130.5 70t178 25.5q199 0 275.5 -72.5t60.5 -201.5q-32 -277 -405 -277h-361q-8 -58 -6 -113t10 -103.5t31 -89t57 -70t89 -46t126 -16.5q173 0 332 51l-6 -55q-62 -23 -155 -37t-177 -14 q-100 0 -171.5 25t-112.5 71t-63 110.5t-22.5 144zM190 541h361q170 0 246.5 54.5t89.5 164.5t-50 164.5t-233 54.5q-85 0 -152 -24t-111 -63t-75.5 -97.5t-48 -118.5t-27.5 -135zM602 1126l174 410h72l-205 -410h-41z" />
<glyph unicode="&#xea;" horiz-adv-x="1046" d="M113.5 340.5q-0.5 79.5 9.5 171.5q12 96 32.5 172t58 143t90 111.5t130.5 70t178 25.5q199 0 275.5 -72.5t60.5 -201.5q-32 -277 -405 -277h-361q-8 -58 -6 -113t10 -103.5t31 -89t57 -70t89 -46t126 -16.5q173 0 332 51l-6 -55q-62 -23 -155 -37t-177 -14 q-100 0 -171.5 25t-112.5 71t-63 110.5t-22.5 144zM190 541h361q170 0 246.5 54.5t89.5 164.5t-50 164.5t-233 54.5q-85 0 -152 -24t-111 -63t-75.5 -97.5t-48 -118.5t-27.5 -135zM285 1126l358 410h62l256 -410h-50l-245 344l-332 -344h-49z" />
<glyph unicode="&#xeb;" horiz-adv-x="1046" d="M113.5 340.5q-0.5 79.5 9.5 171.5q12 96 32.5 172t58 143t90 111.5t130.5 70t178 25.5q199 0 275.5 -72.5t60.5 -201.5q-32 -277 -405 -277h-361q-8 -58 -6 -113t10 -103.5t31 -89t57 -70t89 -46t126 -16.5q173 0 332 51l-6 -55q-62 -23 -155 -37t-177 -14 q-100 0 -171.5 25t-112.5 71t-63 110.5t-22.5 144zM190 541h361q170 0 246.5 54.5t89.5 164.5t-50 164.5t-233 54.5q-85 0 -152 -24t-111 -63t-75.5 -97.5t-48 -118.5t-27.5 -135zM391 1331q0 25 18 43.5t44 18.5q25 0 43 -18.5t18 -43.5q0 -26 -18 -43.5t-43 -17.5 q-26 0 -44 17.5t-18 43.5zM780 1331q0 25 18 43.5t44 18.5q25 0 43 -18.5t18 -43.5q0 -26 -18 -43.5t-43 -17.5q-26 0 -44 17.5t-18 43.5z" />
<glyph unicode="&#xec;" horiz-adv-x="491" d="M158 139l108 885h62l-109 -881q-8 -59 9.5 -81.5t72.5 -22.5l-6 -49q-81 0 -113.5 36.5t-23.5 112.5zM186 1536h72l72 -410h-41z" />
<glyph unicode="&#xed;" horiz-adv-x="491" d="M158 139l108 885h62l-109 -881q-8 -59 9.5 -81.5t72.5 -22.5l-6 -49q-81 0 -113.5 36.5t-23.5 112.5zM289 1126l174 410h72l-205 -410h-41z" />
<glyph unicode="&#xee;" horiz-adv-x="491" d="M-29 1126l359 410h61l256 -410h-49l-246 344l-332 -344h-49zM158 139l108 885h62l-109 -881q-8 -59 9.5 -81.5t72.5 -22.5l-6 -49q-81 0 -113.5 36.5t-23.5 112.5z" />
<glyph unicode="&#xef;" horiz-adv-x="491" d="M119 1331q0 25 17.5 43.5t43.5 18.5q25 0 43.5 -18.5t18.5 -43.5q0 -26 -18.5 -43.5t-43.5 -17.5q-26 0 -43.5 17.5t-17.5 43.5zM158 139l108 885h62l-109 -881q-8 -59 9.5 -81.5t72.5 -22.5l-6 -49q-81 0 -113.5 36.5t-23.5 112.5zM426 1331q0 25 17.5 43.5t43.5 18.5 q25 0 43.5 -18.5t18.5 -43.5q0 -26 -18.5 -43.5t-43.5 -17.5q-26 0 -43.5 17.5t-17.5 43.5z" />
<glyph unicode="&#xf0;" horiz-adv-x="1007" d="M71 342q2 79 11 170q12 98 30.5 171t54 142t87 113t131 70t184.5 26q200 0 291 -119q-38 230 -215 426l-346 -165l6 57l303 145q-98 95 -217 158h111q87 -55 166 -131l270 131l-8 -57l-228 -111q278 -317 230 -817l-6 -39q-12 -98 -30.5 -171t-54 -142t-86.5 -112.5 t-130.5 -70t-184.5 -26.5t-178.5 25.5t-113 71.5t-59.5 111t-18 144zM134 387q-2 -53 3.5 -110t25.5 -96t54.5 -71.5t92 -48.5t136.5 -16q68 0 123 13t95 34t71 56t51.5 71.5t36 87.5t24 97.5t15.5 107.5q8 61 11 107.5t0 97.5t-14 87.5t-34 71.5t-57.5 56t-86.5 34t-120 13 t-123 -13t-94.5 -34t-71 -56t-51.5 -71.5t-35.5 -87.5t-24 -97.5t-16.5 -107.5q-9 -72 -11 -125z" />
<glyph unicode="&#xf1;" horiz-adv-x="1036" d="M82 0l125 1024h31l18 -80q71 41 178 65.5t199 24.5q180 0 249.5 -66t49.5 -220l-90 -748h-66l92 754q14 128 -46 176.5t-197 48.5q-222 0 -369 -84l-109 -895h-65zM289 1247q17 88 69 134t131 46q41 0 73 -14.5t53 -35.5t41 -41.5t46.5 -35t59.5 -14.5q117 0 137 129h57 q-17 -88 -68 -134t-130 -46q-41 0 -73 14.5t-53 35.5t-41 41.5t-46.5 35t-59.5 14.5q-117 0 -139 -129h-57z" />
<glyph unicode="&#xf2;" horiz-adv-x="1089" d="M112 342q2 79 11 170q12 98 30.5 171t54 142t87 113t131 70t184.5 26t178.5 -25.5t112.5 -71.5t59 -111t18 -144t-11 -170q-12 -98 -30.5 -171t-54 -142t-86.5 -112.5t-130.5 -70t-184.5 -26.5t-178.5 25.5t-113 71.5t-59.5 111t-18 144zM175 387q-2 -53 3.5 -110 t25.5 -96t54.5 -71.5t92 -48.5t136.5 -16q68 0 123 13t95 34t71 56t51.5 71.5t36 87.5t24 97.5t15.5 107.5q8 61 11 107.5t0 97.5t-14 87.5t-34 71.5t-57.5 56t-86.5 34t-120 13t-123 -13t-94.5 -34t-71 -56t-51.5 -71.5t-35.5 -87.5t-24 -97.5t-16.5 -107.5 q-9 -72 -11 -125zM498 1536h71l72 -410h-41z" />
<glyph unicode="&#xf3;" horiz-adv-x="1089" d="M112 342q2 79 11 170q12 98 30.5 171t54 142t87 113t131 70t184.5 26t178.5 -25.5t112.5 -71.5t59 -111t18 -144t-11 -170q-12 -98 -30.5 -171t-54 -142t-86.5 -112.5t-130.5 -70t-184.5 -26.5t-178.5 25.5t-113 71.5t-59.5 111t-18 144zM175 387q-2 -53 3.5 -110 t25.5 -96t54.5 -71.5t92 -48.5t136.5 -16q68 0 123 13t95 34t71 56t51.5 71.5t36 87.5t24 97.5t15.5 107.5q8 61 11 107.5t0 97.5t-14 87.5t-34 71.5t-57.5 56t-86.5 34t-120 13t-123 -13t-94.5 -34t-71 -56t-51.5 -71.5t-35.5 -87.5t-24 -97.5t-16.5 -107.5 q-9 -72 -11 -125zM600 1126l174 410h72l-205 -410h-41z" />
<glyph unicode="&#xf4;" horiz-adv-x="1089" d="M112 342q2 79 11 170q12 98 30.5 171t54 142t87 113t131 70t184.5 26t178.5 -25.5t112.5 -71.5t59 -111t18 -144t-11 -170q-12 -98 -30.5 -171t-54 -142t-86.5 -112.5t-130.5 -70t-184.5 -26.5t-178.5 25.5t-113 71.5t-59.5 111t-18 144zM175 387q-2 -53 3.5 -110 t25.5 -96t54.5 -71.5t92 -48.5t136.5 -16q68 0 123 13t95 34t71 56t51.5 71.5t36 87.5t24 97.5t15.5 107.5q8 61 11 107.5t0 97.5t-14 87.5t-34 71.5t-57.5 56t-86.5 34t-120 13t-123 -13t-94.5 -34t-71 -56t-51.5 -71.5t-35.5 -87.5t-24 -97.5t-16.5 -107.5 q-9 -72 -11 -125zM283 1126l358 410h61l256 -410h-49l-245 344l-332 -344h-49z" />
<glyph unicode="&#xf5;" horiz-adv-x="1089" d="M112 342q2 79 11 170q12 98 30.5 171t54 142t87 113t131 70t184.5 26t178.5 -25.5t112.5 -71.5t59 -111t18 -144t-11 -170q-12 -98 -30.5 -171t-54 -142t-86.5 -112.5t-130.5 -70t-184.5 -26.5t-178.5 25.5t-113 71.5t-59.5 111t-18 144zM175 387q-2 -53 3.5 -110 t25.5 -96t54.5 -71.5t92 -48.5t136.5 -16q68 0 123 13t95 34t71 56t51.5 71.5t36 87.5t24 97.5t15.5 107.5q8 61 11 107.5t0 97.5t-14 87.5t-34 71.5t-57.5 56t-86.5 34t-120 13t-123 -13t-94.5 -34t-71 -56t-51.5 -71.5t-35.5 -87.5t-24 -97.5t-16.5 -107.5 q-9 -72 -11 -125zM311 1247q17 88 69.5 134t131.5 46q41 0 73 -14.5t53 -35.5t40.5 -41.5t46 -35t59.5 -14.5q118 0 138 129h57q-17 -88 -68.5 -134t-130.5 -46q-41 0 -73 14.5t-53 35.5t-40.5 41.5t-46 35t-59.5 14.5q-117 0 -139 -129h-58z" />
<glyph unicode="&#xf6;" horiz-adv-x="1089" d="M112 342q2 79 11 170q12 98 30.5 171t54 142t87 113t131 70t184.5 26t178.5 -25.5t112.5 -71.5t59 -111t18 -144t-11 -170q-12 -98 -30.5 -171t-54 -142t-86.5 -112.5t-130.5 -70t-184.5 -26.5t-178.5 25.5t-113 71.5t-59.5 111t-18 144zM175 387q-2 -53 3.5 -110 t25.5 -96t54.5 -71.5t92 -48.5t136.5 -16q68 0 123 13t95 34t71 56t51.5 71.5t36 87.5t24 97.5t15.5 107.5q8 61 11 107.5t0 97.5t-14 87.5t-34 71.5t-57.5 56t-86.5 34t-120 13t-123 -13t-94.5 -34t-71 -56t-51.5 -71.5t-35.5 -87.5t-24 -97.5t-16.5 -107.5 q-9 -72 -11 -125zM389 1331q0 25 18 43.5t44 18.5q25 0 43 -18.5t18 -43.5q0 -26 -18 -43.5t-43 -17.5q-26 0 -44 17.5t-18 43.5zM778 1331q0 25 18 43.5t44 18.5q25 0 43 -18.5t18 -43.5q0 -26 -18 -43.5t-43 -17.5q-26 0 -44 17.5t-18 43.5z" />
<glyph unicode="&#xf7;" horiz-adv-x="1228" d="M236 670l6 57h798l-6 -57h-798zM532 350q0 25 18 43.5t44 18.5q25 0 43 -18.5t18 -43.5q0 -26 -18 -43.5t-43 -17.5q-26 0 -44 17.5t-18 43.5zM618 1047q0 25 18 43t44 18q25 0 43 -18t18 -43q0 -26 -18 -44t-43 -18q-26 0 -44 18t-18 44z" />
<glyph unicode="&#xf8;" horiz-adv-x="1089" d="M100 0l76 98q-34 45 -49.5 112.5t-15 137.5t11.5 164q12 98 30.5 171t54 142t87 113t131 70t184.5 26q174 0 258 -69l50 59h69l-78 -96q97 -120 58 -416q-12 -98 -30.5 -171t-54 -142t-86.5 -112.5t-130.5 -70t-184.5 -26.5q-180 0 -264 69l-47 -59h-70zM186 512 q-32 -254 35 -358l608 761q-73 64 -227 64q-68 0 -123 -13t-94.5 -34t-71 -56t-51.5 -71.5t-35.5 -87.5t-24 -97.5t-16.5 -107.5zM256 111q75 -66 231 -66q68 0 123 13t95 34t71 56t51.5 71.5t36 87.5t24 97.5t15.5 107.5q17 104 10.5 202.5t-47.5 157.5z" />
<glyph unicode="&#xf9;" horiz-adv-x="1036" d="M104 276l93 748h65l-92 -754q-16 -128 44.5 -176.5t197.5 -48.5q224 0 368 84l111 895h65l-125 -1024h-30l-21 80q-69 -41 -175.5 -65.5t-198.5 -24.5q-180 0 -250.5 66t-51.5 220zM465 1536h72l71 -410h-41z" />
<glyph unicode="&#xfa;" horiz-adv-x="1036" d="M104 276l93 748h65l-92 -754q-16 -128 44.5 -176.5t197.5 -48.5q224 0 368 84l111 895h65l-125 -1024h-30l-21 80q-69 -41 -175.5 -65.5t-198.5 -24.5q-180 0 -250.5 66t-51.5 220zM567 1126l174 410h72l-205 -410h-41z" />
<glyph unicode="&#xfb;" horiz-adv-x="1036" d="M104 276l93 748h65l-92 -754q-16 -128 44.5 -176.5t197.5 -48.5q224 0 368 84l111 895h65l-125 -1024h-30l-21 80q-69 -41 -175.5 -65.5t-198.5 -24.5q-180 0 -250.5 66t-51.5 220zM250 1126l358 410h62l256 -410h-49l-246 344l-332 -344h-49z" />
<glyph unicode="&#xfc;" horiz-adv-x="1036" d="M104 276l93 748h65l-92 -754q-16 -128 44.5 -176.5t197.5 -48.5q224 0 368 84l111 895h65l-125 -1024h-30l-21 80q-69 -41 -175.5 -65.5t-198.5 -24.5q-180 0 -250.5 66t-51.5 220zM356 1331q0 25 18 43.5t44 18.5q25 0 43 -18.5t18 -43.5q0 -26 -18 -43.5t-43 -17.5 q-26 0 -44 17.5t-18 43.5zM745 1331q0 25 18 43.5t44 18.5q25 0 43 -18.5t18 -43.5q0 -26 -18 -43.5t-43 -17.5q-26 0 -44 17.5t-18 43.5z" />
<glyph unicode="&#xfd;" horiz-adv-x="1036" d="M12 -463l6 62q155 -66 334 -66q136 0 220 36.5t123.5 103t52.5 175.5l28 228q-71 -40 -175 -63t-195 -23q-180 0 -250.5 66t-51.5 220l93 748h65l-92 -754q-16 -128 44.5 -176.5t197.5 -48.5q226 0 370 84l111 895h63l-143 -1174q-14 -108 -49.5 -181t-96 -114.5 t-138 -59t-185.5 -17.5q-196 0 -332 59zM567 1126l174 410h72l-205 -410h-41z" />
<glyph unicode="&#xfe;" d="M18 -512l252 2048h62l-74 -588q70 41 171.5 63.5t193.5 22.5q99 0 171 -26t112.5 -73t62.5 -112t21.5 -143.5t-9.5 -167.5q-11 -93 -31 -168t-57.5 -143t-90 -113t-131 -71.5t-177.5 -26.5q-91 0 -186.5 22.5t-155.5 63.5l-72 -588h-62zM158 131q130 -86 342 -86 q88 0 157.5 27t113.5 70t75 106.5t46.5 125.5t25.5 138q8 62 8.5 115t-6.5 108t-29 97.5t-56 76.5t-90.5 52t-130.5 18q-214 0 -362 -86z" />
<glyph unicode="&#xff;" horiz-adv-x="1036" d="M12 -463l6 62q155 -66 334 -66q136 0 220 36.5t123.5 103t52.5 175.5l28 228q-71 -40 -175 -63t-195 -23q-180 0 -250.5 66t-51.5 220l93 748h65l-92 -754q-16 -128 44.5 -176.5t197.5 -48.5q226 0 370 84l111 895h63l-143 -1174q-14 -108 -49.5 -181t-96 -114.5 t-138 -59t-185.5 -17.5q-196 0 -332 59zM356 1331q0 25 18 43.5t44 18.5q25 0 43 -18.5t18 -43.5q0 -26 -18 -43.5t-43 -17.5q-26 0 -44 17.5t-18 43.5zM745 1331q0 25 18 43.5t44 18.5q25 0 43 -18.5t18 -43.5q0 -26 -18 -43.5t-43 -17.5q-26 0 -44 17.5t-18 43.5z" />
<glyph unicode="&#x152;" horiz-adv-x="1779" d="M127 503.5q1 119.5 18 264.5q18 153 46.5 266t79.5 211.5t124.5 160t182 96t251.5 34.5h965l-8 -59h-705l-80 -652h629l-6 -57h-629l-88 -709h705l-6 -59h-965q-143 0 -243.5 33.5t-157.5 98t-85.5 158.5t-27.5 213.5zM207 373.5q24 -157.5 132.5 -236t317.5 -78.5h185 l174 1418h-185q-127 0 -222.5 -29t-162.5 -83t-113.5 -143t-74 -197t-45.5 -257q-30 -237 -6 -394.5z" />
<glyph unicode="&#x153;" horiz-adv-x="1826" d="M112 342q2 79 11 170q12 98 30.5 171t54 142t87 113t131 70t184.5 26q171 0 255 -65t104 -189q57 123 159 188.5t265 65.5q199 0 275.5 -72.5t60.5 -201.5q-32 -277 -406 -277h-360q-8 -58 -6 -113t10 -103.5t31 -89t57 -70t89 -46t126 -16.5q173 0 332 51l-7 -55 q-62 -23 -154.5 -37t-176.5 -14q-164 0 -249.5 64.5t-111.5 187.5q-50 -122 -150.5 -187t-271.5 -65q-105 0 -178.5 25.5t-113 71.5t-59.5 111t-18 144zM175 387q-2 -53 3.5 -110t25.5 -96t54.5 -71.5t92 -48.5t136.5 -16q68 0 123 13t95 34t71 56t51.5 71.5t36 87.5 t24 97.5t15.5 107.5q8 61 11 107.5t0 97.5t-14 87.5t-34 71.5t-57.5 56t-86.5 34t-120 13t-123 -13t-94.5 -34t-71 -56t-51.5 -71.5t-35.5 -87.5t-24 -97.5t-16.5 -107.5q-9 -72 -11 -125zM971 541h360q170 0 246.5 54.5t89.5 164.5t-50 164.5t-233 54.5q-85 0 -152 -24 t-110.5 -63t-75 -97.5t-48 -118.5t-27.5 -135z" />
<glyph unicode="&#x178;" horiz-adv-x="1265" d="M178 1536h80l397 -848l607 848h79l-661 -907l-76 -629h-65l75 629zM528 1741q0 25 18 43t44 18q25 0 43 -18t18 -43q0 -26 -18 -44t-43 -18q-26 0 -44 18t-18 44zM918 1741q0 25 17.5 43t43.5 18q25 0 43 -18t18 -43q0 -26 -18 -44t-43 -18q-26 0 -43.5 18t-17.5 44z" />
<glyph unicode="&#x2c6;" horiz-adv-x="1167" d="M322 1126l358 410h61l256 -410h-49l-246 344l-331 -344h-49z" />
<glyph unicode="&#x2dc;" horiz-adv-x="1167" d="M350 1247q17 88 69.5 134t131.5 46q41 0 73 -14.5t53 -35.5t40.5 -41.5t46 -35t59.5 -14.5q118 0 138 129h57q-17 -88 -68.5 -134t-130.5 -46q-41 0 -73 14.5t-53 35.5t-40.5 41.5t-46 35t-59.5 14.5q-117 0 -139 -129h-58z" />
<glyph unicode="&#x2000;" horiz-adv-x="943" />
<glyph unicode="&#x2001;" horiz-adv-x="1886" />
<glyph unicode="&#x2002;" horiz-adv-x="943" />
<glyph unicode="&#x2003;" horiz-adv-x="1886" />
<glyph unicode="&#x2004;" horiz-adv-x="628" />
<glyph unicode="&#x2005;" horiz-adv-x="471" />
<glyph unicode="&#x2006;" horiz-adv-x="314" />
<glyph unicode="&#x2007;" horiz-adv-x="314" />
<glyph unicode="&#x2008;" horiz-adv-x="235" />
<glyph unicode="&#x2009;" horiz-adv-x="377" />
<glyph unicode="&#x200a;" horiz-adv-x="104" />
<glyph unicode="&#x2010;" horiz-adv-x="696" d="M133 670l6 57h471l-6 -57h-471z" />
<glyph unicode="&#x2011;" horiz-adv-x="696" d="M133 670l6 57h471l-6 -57h-471z" />
<glyph unicode="&#x2012;" horiz-adv-x="696" d="M133 670l6 57h471l-6 -57h-471z" />
<glyph unicode="&#x2013;" horiz-adv-x="1024" d="M133 670l6 57h799l-6 -57h-799z" />
<glyph unicode="&#x2014;" horiz-adv-x="2048" d="M133 670l6 57h1823l-6 -57h-1823z" />
<glyph unicode="&#x2018;" horiz-adv-x="225" d="M70 1024l202 512h43l-174 -512h-71z" />
<glyph unicode="&#x2019;" horiz-adv-x="225" d="M100 1024l174 512h72l-203 -512h-43z" />
<glyph unicode="&#x201a;" horiz-adv-x="225" d="M-63 -328l172 512h71l-203 -512h-40z" />
<glyph unicode="&#x201c;" horiz-adv-x="450" d="M70 1024l202 512h43l-174 -512h-71zM295 1024l203 512h43l-174 -512h-72z" />
<glyph unicode="&#x201d;" horiz-adv-x="450" d="M100 1024l174 512h72l-203 -512h-43zM326 1024l174 512h71l-202 -512h-43z" />
<glyph unicode="&#x201e;" horiz-adv-x="450" d="M-63 -328l172 512h71l-203 -512h-40zM160 -328l174 512h72l-203 -512h-43z" />
<glyph unicode="&#x2022;" horiz-adv-x="757" d="M145 768q0 110 78.5 188t188.5 78t188 -78t78 -188t-78 -188t-188 -78t-188.5 78t-78.5 188z" />
<glyph unicode="&#x2026;" horiz-adv-x="1966" d="M190 51q0 25 18 43.5t44 18.5q25 0 43 -18.5t18 -43.5q0 -26 -18 -43.5t-43 -17.5q-26 0 -44 17.5t-18 43.5zM866 51q0 25 18 43.5t44 18.5q25 0 43 -18.5t18 -43.5q0 -26 -18 -43.5t-43 -17.5q-26 0 -44 17.5t-18 43.5zM1542 51q0 25 18 43.5t44 18.5q25 0 43 -18.5 t18 -43.5q0 -26 -18 -43.5t-43 -17.5q-26 0 -44 17.5t-18 43.5z" />
<glyph unicode="&#x202f;" horiz-adv-x="377" />
<glyph unicode="&#x2039;" horiz-adv-x="563" d="M80 489l6 46l428 331l-6 -61l-363 -293l291 -293l-8 -63z" />
<glyph unicode="&#x203a;" horiz-adv-x="563" d="M49 156l8 63l361 293l-289 293l6 61l350 -331l-6 -46z" />
<glyph unicode="&#x205f;" horiz-adv-x="471" />
<glyph unicode="&#x20ac;" horiz-adv-x="1159" d="M45 467l8 57h172q4 66 11 117l18 117h-172l6 57h180q59 230 191 352.5t366 122.5q75 0 158 -13t133 -32l-6 -55q-148 43 -295 43q-200 0 -314 -109t-167 -309h577l-28 -57h-564q-12 -58 -18 -117q-10 -68 -10 -117h483l-31 -57h-452q2 -98 22.5 -172t63.5 -131t116.5 -87 t176.5 -30q158 0 305 45l-6 -57q-127 -45 -303 -45q-120 0 -206 33t-136.5 97t-74 149t-24.5 198h-180z" />
<glyph unicode="&#x2122;" horiz-adv-x="1116" d="M121 1499l6 37h414l-6 -37h-183l-57 -475h-49l57 475h-182zM590 1024l63 512h43l150 -397l250 397h41l-64 -512h-41l58 438l-230 -372h-39l-139 372l-49 -438h-43z" />
<glyph unicode="&#x25fc;" horiz-adv-x="1024" d="M0 0v1024h1024v-1024h-1024z" />
</font>
</defs>
</svg>
