<svg width="308" height="64" viewBox="0 0 308 64" fill="none" xmlns="http://www.w3.org/2000/svg">
<path d="M138.119 51.3172H150.246V50.2447C148.706 50.1472 145.337 49.3672 145.337 47.6122C145.337 46.9297 145.53 45.9547 145.819 44.8822C146.204 43.4197 146.685 41.7622 147.551 39.6172H157.85L160.449 47.2222C160.545 47.6122 160.641 48.0022 160.641 48.2947C160.641 49.4647 157.85 50.0497 156.31 50.1472V51.2197H170.362V50.1472C169.592 50.1472 168.149 49.7572 167.475 49.2697C166.416 48.5872 166.127 47.9047 165.742 46.9297C164.106 42.3472 159.967 30.2572 155.54 17.6797H153.519C150.246 26.9422 146.685 37.1797 143.605 45.4672C142.931 47.1247 142.161 48.5872 141.102 49.2697C140.332 49.7572 138.889 50.1472 138.022 50.1472V51.3172H138.119ZM148.032 38.0572L152.652 24.6997L157.369 38.0572H148.032Z" fill="black"/>
<path d="M177.87 51.9022C180.565 51.9022 182.682 50.0497 183.549 48.8797H183.741V51.0247L184.03 51.3172L191.73 50.8297V49.9522C190.96 49.9522 189.612 49.7572 189.131 49.3672C188.457 48.8797 188.169 48.0022 188.072 47.0272V15.6322L187.687 15.2422L178.832 15.7297V16.6072C179.987 16.7047 181.912 17.0947 182.586 17.6797C183.26 18.1672 183.645 19.4347 183.741 20.5072V30.0622C183.26 29.8672 181.239 28.7947 178.544 28.7947C173.442 28.7947 168.919 33.4747 168.919 40.0072C168.919 47.3197 172.865 51.9022 177.87 51.9022ZM179.506 49.8547C175.367 49.8547 173.731 45.3697 173.731 40.5922C173.731 33.9622 175.945 29.9647 179.025 29.9647C181.816 29.9647 183.26 32.3047 183.741 33.9622V47.6122C182.586 48.9772 181.527 49.8547 179.506 49.8547Z" fill="black"/>
<path d="M200.296 51.61H201.933C202.51 49.465 203.088 48.0025 203.665 46.4425C205.494 41.3725 207.034 37.4725 208.766 33.085C209.344 31.6225 211.269 30.55 212.135 30.355V29.4775H203.954V30.4525C204.627 30.55 207.226 31.2325 207.226 32.2075C207.226 32.5975 207.13 33.1825 207.034 33.5725C205.494 38.155 204.243 41.5675 202.703 45.6625C200.874 40.7875 198.756 35.035 197.986 32.695C197.794 32.11 197.697 31.72 197.697 31.72C197.697 30.94 199.238 30.745 200.2 30.745V29.6725H190.094V30.6475C191.345 30.8425 192.885 31.6225 193.366 32.9875C196.254 40.69 197.313 43.1275 200.296 51.61Z" fill="black"/>
<path d="M216.562 51.9026C219.161 51.9026 221.375 50.6351 222.915 48.5876H223.011C223.685 50.8301 224.936 51.8051 226.957 51.8051C229.652 51.8051 231.481 50.0501 231.674 45.5651H230.615C230.519 47.4176 230.326 49.2701 229.075 49.2701C227.824 49.2701 227.054 47.7101 227.054 46.8326C227.054 45.2726 227.246 40.3001 227.246 36.0101C227.246 29.5751 223.974 28.8926 219.642 28.8926C216.274 28.8926 212.52 31.1351 212.52 34.0601C212.52 35.4251 213.097 36.5951 214.541 36.5951C216.081 36.5951 217.429 35.7176 217.429 34.4501C217.429 33.3776 217.044 32.3051 217.044 31.6226C217.429 31.1351 218.006 29.9651 219.45 29.9651C222.915 29.9651 223.011 33.9626 223.011 34.8401V37.5701C221.182 38.7401 218.199 39.5201 215.696 40.5926C213.579 41.4701 211.461 42.8351 211.461 46.8326C211.557 49.8551 213.579 51.9026 216.562 51.9026ZM218.969 49.6601C217.236 49.6601 216.177 48.3926 216.177 46.0526C216.177 41.7626 219.065 40.3976 223.107 38.9351L222.915 47.4176C221.952 48.7826 221.182 49.6601 218.969 49.6601Z" fill="black"/>
<path d="M231.77 51.3174H242.261V50.3424C241.588 50.3424 240.818 50.1474 240.24 49.7574C239.566 49.3674 239.181 48.6849 239.181 47.6124V34.3524C239.566 33.2799 241.299 31.2324 244.283 31.2324C246.111 31.2324 247.748 32.9874 247.748 36.3999V47.8074C247.748 48.8799 247.459 49.6599 246.593 49.9524C246.111 50.1474 245.341 50.2449 244.571 50.2449V51.2199H255.159V50.2449C254.389 50.2449 253.811 50.0499 253.138 49.7574C252.368 49.3674 252.079 48.6849 252.079 47.6124V36.4974C252.079 31.9149 250.25 28.8924 246.208 28.8924C242.55 28.8924 240.914 31.0374 239.278 32.8899V29.5749L238.989 29.2824L231.674 29.7699V30.6474C232.444 30.6474 233.406 31.0374 233.888 31.4274C234.561 31.9149 234.946 32.9874 235.043 33.9624V47.8074C235.043 48.8799 234.658 49.6599 233.888 49.9524C233.31 50.1474 232.733 50.2449 231.963 50.2449V51.3174H231.77ZM265.843 51.9024C269.308 51.9024 272.388 49.3674 274.024 46.1499L273.061 45.4674C271.714 48.2949 269.885 49.7574 266.901 49.7574C263.148 49.7574 261.126 45.6624 261.126 39.8124C261.126 32.4999 263.629 29.9649 266.228 29.9649C267.671 29.9649 268.345 30.2574 268.634 31.7199C268.634 32.5974 268.056 32.6949 268.056 34.7424C268.056 36.5949 269.789 37.1799 270.655 37.1799C272.195 37.1799 273.061 36.1074 273.061 34.4499C273.061 31.5249 270.751 28.8924 266.324 28.8924C260.26 28.8924 256.506 34.3524 256.506 40.2999C256.314 46.9299 259.49 51.9024 265.843 51.9024ZM283.938 51.9024C287.595 51.9024 290.579 49.4649 292.119 46.0524L291.253 45.4674C289.616 48.3924 288.461 49.7574 285.189 49.7574C280.665 49.7574 278.933 45.2724 278.933 39.1299V38.6424H291.83V38.2524C291.83 33.2799 289.616 28.9899 283.553 28.9899C277.681 28.9899 274.216 34.5474 274.216 40.2999C274.216 46.5399 277.296 51.9024 283.938 51.9024ZM278.836 37.4724C278.933 32.8899 280.858 29.9649 283.456 29.9649C286.536 29.9649 287.21 33.9624 287.21 37.3749L278.836 37.4724ZM300.493 51.9999C304.535 51.9999 308 49.3674 308 45.0774C308 41.0799 305.401 39.2274 301.936 37.9599C298.568 36.6924 297.028 36.0099 297.028 33.4749C297.028 31.8174 298.086 29.9649 300.493 29.9649C303.38 29.9649 305.594 32.6949 306.075 35.4249H307.038L306.749 28.7949H305.401L305.113 30.0624C304.054 29.2824 302.225 28.7949 300.493 28.7949C296.546 28.7949 293.755 31.6224 293.755 35.2299C293.755 39.4224 297.028 41.0799 299.819 42.0549C302.995 43.1274 304.728 44.1999 304.728 46.6374C304.728 48.9774 303.573 50.8299 300.685 50.8299C297.22 50.8299 294.718 46.4424 294.236 44.1024H293.274L293.466 51.6099H294.91L295.295 50.1474C295.969 50.8299 298.375 51.9999 300.493 51.9999Z" fill="black"/>
<path d="M3.64706 49.551L2.01548 51.9372H0.287926L0 39.8157H1.1517C3.16718 45.3515 6.23839 50.5055 12.1889 50.5055C16.5077 50.5055 18.6192 47.833 18.6192 44.0152C18.6192 40.8656 16.9876 38.4795 13.9164 37.1432C11.2291 35.9979 9.3096 35.2343 6.62229 33.9936C3.07121 32.371 0.863777 29.4122 0.863777 24.9263C0.863777 19.3905 5.18266 15.3818 10.8452 15.3818C13.3406 15.3818 16.4118 16.4317 18.1393 17.8634L19.6749 15.5727H21.4025L21.6904 27.3124H20.5387C18.6192 21.3949 16.3158 16.909 9.98142 16.909C8.5418 16.909 5.08669 18.1497 5.08669 22.2539C5.08669 25.4035 6.43034 27.217 9.40557 28.935C11.805 30.3667 14.2043 30.9393 16.3158 31.9892C20.1548 33.8981 23.0341 35.9979 23.0341 41.3428C23.0341 47.6421 18.3313 52.128 11.9009 52.128C7.96594 52.128 5.08669 50.7918 3.64706 49.551Z" fill="#C72326"/>
<path d="M24.3777 39.6249C24.3777 33.2301 28.4086 27.3125 35.0309 27.3125C39.8297 27.3125 42.3251 30.1758 42.3251 33.3255C42.3251 35.0435 41.3653 36.1889 39.7337 36.1889C38.774 36.1889 36.9504 35.6162 36.9504 33.6118C36.9504 31.4166 37.5263 31.4166 37.5263 30.3667C37.2384 28.8396 36.5665 28.4578 34.935 28.4578C32.1517 28.4578 29.4644 31.2257 29.4644 39.0522C29.4644 45.3515 31.7678 49.6466 35.7028 49.6466C38.8699 49.6466 40.8854 48.024 42.3251 45.0652L43.3808 45.8288C41.6532 49.2648 38.2941 52.0327 34.5511 52.0327C27.8328 52.0327 24.3777 46.7832 24.3777 39.6249Z" fill="#C72326"/>
<path d="M46.2601 18.2451C46.2601 16.5271 47.6038 15 49.3314 15C51.2509 15 52.4985 16.4317 52.4985 18.0542C52.4985 19.8677 51.1549 21.3948 49.3314 21.3948C47.6038 21.3948 46.2601 19.9631 46.2601 18.2451ZM44.0527 50.41C44.9165 50.3145 45.5883 50.2191 46.1642 50.0282C47.0279 49.7419 47.4119 48.692 47.4119 47.7375V32.8482C47.3159 31.7983 46.932 30.8438 46.1642 30.2711C45.5883 29.8894 44.1487 29.3167 43.2849 29.3167V28.3623L51.7307 27.7896L52.0187 28.1714V47.5466C52.0187 48.5965 52.4985 49.551 53.2663 49.9328C54.0341 50.3145 54.8019 50.5054 55.3778 50.6009V51.6508H44.0527V50.41Z" fill="#C72326"/>
<path d="M69.2941 36.4752C69.2941 32.7528 68.5263 28.4578 65.2632 28.4578C62.4799 28.4578 60.4644 31.703 60.2725 36.5706L69.2941 36.4752ZM55.2817 39.5294C55.2817 33.3255 59.0248 27.3125 65.3591 27.3125C71.8855 27.3125 74.2848 31.9893 74.2848 37.2387V37.716H60.2725V38.2886C60.2725 44.9698 62.192 49.742 67.0867 49.742C70.5418 49.742 71.8855 48.3103 73.613 45.1607L74.5728 45.8288C72.9412 49.5511 69.774 52.1281 65.743 52.1281C58.5449 52.0327 55.2817 46.4014 55.2817 39.5294Z" fill="#C72326"/>
<path d="M74.4769 50.4101C75.3407 50.3147 76.0125 50.2192 76.5883 50.0283C77.4521 49.742 77.836 48.883 77.836 47.7377V32.8483C77.74 31.7984 77.3561 30.6531 76.5883 30.0804C76.1085 29.6986 75.0527 29.3168 74.189 29.2214V28.2669L82.1549 27.6943L82.5388 28.0761V31.6075C84.3623 29.6986 86.0899 27.3125 90.0249 27.3125C94.3438 27.3125 96.3592 30.5576 96.3592 35.5207V47.4513C96.3592 48.5967 96.7431 49.3602 97.5109 49.742C98.1828 50.0283 98.7586 50.2192 99.7184 50.3147V51.3646H88.3933V50.3147C89.1611 50.2192 90.0249 50.1238 90.6007 49.9329C91.4645 49.6466 91.8484 48.7876 91.8484 47.6422V35.4253C91.8484 31.8938 90.1209 29.8895 88.1054 29.8895C84.8422 29.8895 83.0187 32.0847 82.6348 33.2301V47.4513C82.6348 48.5967 83.0187 49.3602 83.7865 49.742C84.3623 50.1238 85.2261 50.3147 85.9939 50.4101V51.46H74.4769V50.4101Z" fill="#C72326"/>
<path d="M98.9504 39.6249C98.9504 33.2301 102.981 27.3125 109.604 27.3125C114.402 27.3125 116.898 30.1758 116.898 33.3255C116.898 35.0435 115.938 36.1889 114.306 36.1889C113.347 36.1889 111.523 35.6162 111.523 33.6118C111.523 31.4166 112.099 31.4166 112.099 30.3667C111.811 28.8396 111.139 28.4578 109.508 28.4578C106.724 28.4578 104.037 31.2257 104.037 39.0522C104.037 45.3515 106.341 49.6466 110.276 49.6466C113.443 49.6466 115.458 48.024 116.898 45.0652L117.954 45.8288C116.226 49.2648 112.867 52.0327 109.124 52.0327C102.406 52.0327 98.9504 46.7832 98.9504 39.6249Z" fill="#C72326"/>
<path d="M132.062 36.4752C132.062 32.7528 131.294 28.4578 128.031 28.4578C125.248 28.4578 123.232 31.703 123.04 36.5706L132.062 36.4752ZM118.05 39.5294C118.05 33.3255 121.793 27.3125 128.127 27.3125C134.653 27.3125 137.053 31.9893 137.053 37.2387V37.716H123.136V38.2886C123.136 44.9698 125.056 49.742 129.95 49.742C133.406 49.742 134.749 48.3103 136.477 45.1607L137.437 45.8288C135.805 49.5511 132.638 52.1281 128.607 52.1281C121.409 52.0327 118.05 46.4014 118.05 39.5294Z" fill="#C72326"/>
</svg>
