<?xml version="1.0" encoding="utf-8"?>
<!-- Generator: Adobe Illustrator 24.0.3, SVG Export Plug-In . SVG Version: 6.00 Build 0)  -->
<svg version="1.1" id="Layer_1" xmlns="http://www.w3.org/2000/svg" xmlns:xlink="http://www.w3.org/1999/xlink" x="0px" y="0px"
	 viewBox="0 0 192.1 52.2" style="enable-background:new 0 0 192.1 52.2;" xml:space="preserve">
<style type="text/css">
	.st0{fill:#FFFFFF;}
</style>
<g>
	<path class="st0" d="M5,48.6L2.8,52H0.4L0,34.9h1.6C4.4,42.6,8.7,50,17.1,50c6.1,0,9-3.7,9-9.2c0-4.5-2.2-7.8-6.6-9.7
		c-3.7-1.6-6.4-2.6-10.1-4.4c-5-2.3-8-6.4-8-12.8c0-7.7,6.1-13.5,14-13.5c3.5,0,7.8,1.5,10.1,3.5l2.1-3.3H30l0.4,16.5h-1.6
		C26,9.1,22.8,2.7,13.9,2.7c-1.9,0-6.8,1.8-6.8,7.4c0,4.4,1.9,7,6.1,9.4c3.3,2,6.7,2.8,9.6,4.3c5.5,2.8,9.5,5.7,9.5,13.2
		c0,8.9-6.6,15.2-15.6,15.2C11.1,52.2,7.1,50.4,5,48.6L5,48.6z"/>
	<path class="st0" d="M34.1,34.6c0-9,5.7-17.3,14.8-17.3c6.8,0,10.2,4,10.2,8.5c0,2.4-1.4,4.1-3.7,4.1c-1.3,0-3.9-0.8-3.9-3.6
		c0-3.1,0.9-3.1,0.9-4.5c-0.4-2.1-1.4-2.6-3.6-2.6c-3.9,0-7.6,3.9-7.6,14.9c0,8.8,3.2,14.9,8.8,14.9c4.5,0,7.2-2.3,9.3-6.5l1.4,1
		c-2.5,4.8-7.1,8.7-12.3,8.7C38.9,52.1,34.1,44.7,34.1,34.6L34.1,34.6z"/>
	<path class="st0" d="M61.6,49.8c1.2-0.1,2.1-0.2,2.9-0.5c1.2-0.4,1.8-1.8,1.8-3.3V25.1c-0.1-1.5-0.7-2.8-1.8-3.6
		c-0.8-0.6-2.8-1.3-4-1.4v-1.4l11.8-0.8l0.4,0.5v27.2c0,1.5,0.7,2.8,1.8,3.3c1,0.5,2.2,0.8,2.9,0.9v1.5h-16V49.8L61.6,49.8z
		 M64.7,4.6C64.7,2.1,66.6,0,69,0c2.7,0,4.5,2,4.5,4.3C73.4,6.9,71.6,9,69,9C66.6,9,64.7,7,64.7,4.6L64.7,4.6z"/>
	<path class="st0" d="M77.2,34.5c0-8.7,5.2-17.1,14-17.1c9.1,0,12.4,6.6,12.4,14V32H84.3v0.8c0,9.4,2.7,16.1,9.5,16.1
		c4.9,0,6.7-2,9.1-6.5l1.3,0.9c-2.3,5.2-6.8,8.8-12.3,8.8C81.9,52.1,77.2,44.1,77.2,34.5L77.2,34.5z M96.8,30.3
		c0-5.2-1-11.2-5.6-11.2c-3.9,0-6.8,4.5-6.9,11.4L96.8,30.3L96.8,30.3z"/>
	<path class="st0" d="M104.2,49.8c1.2-0.1,2.1-0.2,2.9-0.5c1.2-0.4,1.8-1.7,1.8-3.3V25.1c-0.1-1.5-0.7-3.1-1.8-3.9
		c-0.7-0.6-2.2-1.1-3.3-1.2v-1.4l11.1-0.8l0.5,0.5v5h0.1c2.5-2.7,5-6,10.5-6c6.1,0,8.9,4.6,8.9,11.5v16.8c0,1.6,0.5,2.7,1.7,3.3
		c0.9,0.4,1.8,0.7,3,0.8v1.5h-16v-1.5c1.1-0.1,2.2-0.2,3-0.5c1.2-0.4,1.7-1.7,1.7-3.3V28.7c0-5-2.4-7.7-5.2-7.7
		c-4.5,0-7.1,3.1-7.7,4.7v19.9c0,1.6,0.6,2.7,1.7,3.3c0.9,0.5,2,0.8,3,0.9v1.5h-15.9L104.2,49.8L104.2,49.8z"/>
	<path class="st0" d="M138.4,34.6c0-9,5.7-17.3,14.8-17.3c6.8,0,10.2,4,10.2,8.5c0,2.4-1.4,4.1-3.7,4.1c-1.3,0-3.9-0.8-3.9-3.6
		c0-3.1,0.9-3.1,0.9-4.5c-0.4-2.1-1.4-2.6-3.6-2.6c-3.9,0-7.6,3.9-7.6,14.9c0,8.8,3.2,14.9,8.8,14.9c4.5,0,7.2-2.3,9.3-6.5l1.4,1
		c-2.4,4.8-7.1,8.7-12.3,8.7C143.1,52.1,138.4,44.7,138.4,34.6L138.4,34.6z"/>
	<path class="st0" d="M165.1,34.5c0-8.7,5.2-17.1,14-17.1c9.1,0,12.4,6.6,12.4,14V32h-19.4v0.8c0,9.4,2.7,16.1,9.5,16.1
		c4.9,0,6.7-2,9.1-6.5l1.3,0.9c-2.3,5.2-6.8,8.8-12.3,8.8C169.8,52.1,165.1,44.1,165.1,34.5L165.1,34.5z M184.7,30.3
		c0-5.2-1-11.2-5.6-11.2c-3.9,0-6.8,4.5-6.9,11.4L184.7,30.3L184.7,30.3z"/>
</g>
</svg>
