<?xml version="1.0" encoding="utf-8"?>
<!-- Generator: Adobe Illustrator 24.0.3, SVG Export Plug-In . SVG Version: 6.00 Build 0)  -->
<svg version="1.1" id="Layer_1" xmlns="http://www.w3.org/2000/svg" xmlns:xlink="http://www.w3.org/1999/xlink" x="0px" y="0px"
	 viewBox="0 0 318 22.8" style="enable-background:new 0 0 318 22.8;" xml:space="preserve">
<style type="text/css">
	.st0{fill:#FFFFFF;}
</style>
<g>
	<path class="st0" d="M9.9,10.4c-1.3-0.6-2.8-1-4.2-1.9C3.9,7.5,3.1,6.4,3.1,4.4c0-2.5,2.1-3.2,3-3.2c3.9,0,5.3,2.8,6.5,6.4h0.7
		l-0.2-7.2H12l-0.9,1.4c-1-0.9-2.9-1.5-4.4-1.5c-3.5,0-6.1,2.5-6.1,5.9c0,2.8,1.3,4.6,3.5,5.6c1.6,0.8,2.8,1.2,4.4,1.9
		c1.9,0.8,2.9,2.3,2.9,4.2c0,2.4-1.3,4-3.9,4c-3.6,0-5.5-3.2-6.8-6.6H0l0.2,7.4h1l1-1.5c0.9,0.8,2.6,1.6,5.1,1.6
		c3.9,0,6.8-2.7,6.8-6.6C14.1,12.9,12.3,11.6,9.9,10.4z"/>
	<path class="st0" d="M21.9,21.4c-2.5,0-3.8-2.7-3.8-6.5c0-4.8,1.6-6.5,3.3-6.5c1,0,1.4,0.2,1.6,1.1c0,0.6-0.4,0.6-0.4,2
		c0,1.2,1.1,1.6,1.7,1.6c1,0,1.6-0.7,1.6-1.8c0-1.9-1.5-3.7-4.5-3.7c-4,0-6.5,3.6-6.5,7.5c0,4.4,2.1,7.6,6.3,7.6
		c2.3,0,4.3-1.7,5.4-3.8l-0.6-0.4C25,20.4,23.8,21.4,21.9,21.4z"/>
	<path class="st0" d="M30.1,3.9c1.1,0,1.9-1,1.9-2.1c0-1-0.8-1.9-1.9-1.9c-1,0-1.9,0.9-1.9,2C28.2,3.1,29.1,3.9,30.1,3.9z"/>
	<path class="st0" d="M31.8,19.9V8l-0.2-0.2l-5.2,0.4v0.6c0.5,0,1.4,0.4,1.7,0.6c0.5,0.4,0.7,0.9,0.8,1.6v9.1c0,0.6-0.2,1.2-0.8,1.4
		c-0.4,0.1-0.8,0.2-1.3,0.2v0.6h7v-0.6c-0.3,0-0.9-0.2-1.3-0.4C32.1,21.1,31.8,20.6,31.8,19.9z"/>
	<path class="st0" d="M45,18.5c-1.1,1.9-1.9,2.8-4,2.8c-3,0-4.2-2.9-4.2-7V14h8.5v-0.3c0-3.2-1.5-6.1-5.4-6.1
		c-3.9,0-6.1,3.7-6.1,7.5c0,4.2,2,7.7,6.4,7.7c2.4,0,4.4-1.6,5.4-3.8L45,18.5z M39.8,8.3c2,0,2.5,2.6,2.5,4.9l-5.5,0.1
		C36.9,10.3,38.1,8.3,39.8,8.3z"/>
	<path class="st0" d="M58.9,20v-7.3c0-3-1.2-5-3.9-5c-2.4,0-3.5,1.4-4.6,2.6h0V8l-0.2-0.2l-4.8,0.4v0.6c0.5,0,1.1,0.3,1.4,0.5
		c0.5,0.4,0.7,1,0.8,1.7v9.1c0,0.7-0.2,1.2-0.8,1.4c-0.4,0.1-0.8,0.2-1.3,0.2v0.6h6.9v-0.6c-0.4,0-0.9-0.2-1.3-0.4
		c-0.5-0.3-0.7-0.7-0.7-1.4v-8.7c0.3-0.7,1.4-2.1,3.4-2.1c1.2,0,2.3,1.2,2.3,3.4v7.5c0,0.7-0.2,1.2-0.8,1.4
		c-0.3,0.1-0.9,0.2-1.3,0.2v0.6h7v-0.6c-0.5,0-0.9-0.2-1.3-0.4C59.1,21.1,58.9,20.7,58.9,20z"/>
	<path class="st0" d="M67.4,21.4c-2.5,0-3.8-2.7-3.8-6.5c0-4.8,1.6-6.5,3.3-6.5c1,0,1.4,0.2,1.6,1.1c0,0.6-0.4,0.6-0.4,2
		c0,1.2,1.1,1.6,1.7,1.6c1,0,1.6-0.7,1.6-1.8c0-1.9-1.5-3.7-4.5-3.7c-4,0-6.5,3.6-6.5,7.5c0,4.4,2.1,7.6,6.3,7.6
		c2.3,0,4.3-1.7,5.4-3.8l-0.6-0.4C70.5,20.4,69.3,21.4,67.4,21.4z"/>
	<path class="st0" d="M79.3,21.4c-3,0-4.2-2.9-4.2-7V14h8.5v-0.3c0-3.2-1.5-6.1-5.4-6.1c-3.9,0-6.1,3.7-6.1,7.5c0,4.2,2,7.7,6.4,7.7
		c2.4,0,4.4-1.6,5.4-3.8l-0.6-0.4C82.3,20.5,81.5,21.4,79.3,21.4z M78.2,8.3c2,0,2.5,2.6,2.5,4.9l-5.5,0.1
		C75.2,10.3,76.5,8.3,78.2,8.3z"/>
	<path class="st0" d="M102.8,8.6V4H87.5v4.7h0.6c0.3-1.2,1.6-3.7,2.6-3.8c0.6-0.1,1.4-0.1,1.9-0.1h1.1V20c0,0.6-0.2,1.1-0.7,1.3
		c-0.3,0.1-1.6,0.3-2,0.3v0.6h8.3v-0.6c-0.4,0-1.7-0.3-2-0.5c-0.5-0.3-0.7-0.7-0.7-1.3V4.7h1.1c0.6,0,1.3,0,1.9,0.1
		c1,0.2,2.3,2.7,2.6,3.8H102.8z"/>
	<path class="st0" d="M108.4,9.9c-1,0-2.1,0.7-3.2,2.1h0v-1.8l-0.2-0.2l-4.1,0.3v0.5c0.4,0,1,0.2,1.2,0.4c0.4,0.3,0.6,0.9,0.7,1.4
		v7.7c0,0.6-0.2,1-0.7,1.2c-0.3,0.1-0.7,0.2-1.1,0.2v0.5h6.4v-0.5c-0.5,0-1.2-0.1-1.6-0.3c-0.4-0.2-0.6-0.6-0.6-1.2v-7.4
		c0.3-0.6,1-1.7,2.2-1.7c0,0.3-0.2,0.5-0.2,0.8c0,0.9,0.6,1.3,1.4,1.3c0.8,0,1.4-0.7,1.4-1.7C110.1,10.6,109.3,9.9,108.4,9.9z"/>
	<path class="st0" d="M120.3,21.1c-0.7,0-1.1-0.9-1.1-1.4c0-0.9,0.1-3.6,0.1-6c0-3.6-1.8-4-4.3-4c-1.9,0-4,1.2-4,2.8
		c0,0.8,0.3,1.4,1.1,1.4c0.9,0,1.6-0.5,1.6-1.2c0-0.6-0.2-1.2-0.2-1.6c0.2-0.3,0.5-0.9,1.4-0.9c2,0,2,2.2,2,2.7v1.5
		c-1,0.7-2.7,1.1-4.1,1.7c-1.2,0.5-2.4,1.3-2.4,3.5c0,1.7,1.2,2.8,2.8,2.8c1.4,0,2.7-0.7,3.6-1.8h0.1c0.4,1.2,1.1,1.8,2.2,1.8
		c1.5,0,2.5-1,2.6-3.5h-0.6C121.1,20.1,121,21.1,120.3,21.1z M116.8,20.1c-0.6,0.8-1,1.3-2.2,1.3c-1,0-1.6-0.7-1.6-2
		c0-2.4,1.6-3.1,3.9-4L116.8,20.1z"/>
	<path class="st0" d="M133.4,20.2V14c0-2.5-1-4.2-3.3-4.2c-2.1,0-3,1.2-3.9,2.2h0v-1.8L126,10l-4.1,0.3v0.5c0.4,0,1,0.2,1.2,0.4
		c0.4,0.3,0.6,0.9,0.7,1.4v7.7c0,0.6-0.2,1-0.7,1.2c-0.3,0.1-0.7,0.2-1.1,0.2v0.5h5.9v-0.5c-0.4,0-0.8-0.1-1.1-0.3
		c-0.4-0.2-0.6-0.6-0.6-1.2v-7.3c0.2-0.6,1.2-1.7,2.9-1.7c1,0,1.9,1,1.9,2.8v6.3c0,0.6-0.2,1-0.6,1.2c-0.3,0.1-0.7,0.2-1.1,0.2v0.5
		h5.9v-0.5c-0.5,0-0.8-0.1-1.1-0.3C133.6,21.2,133.4,20.8,133.4,20.2z"/>
	<path class="st0" d="M141,14.9c-1.9-0.7-2.7-1.1-2.7-2.5c0-0.9,0.6-1.9,1.9-1.9c1.6,0,2.9,1.5,3.1,3.1h0.5l-0.2-3.7H143l-0.2,0.7
		c-0.6-0.5-1.6-0.7-2.6-0.7c-2.2,0-3.8,1.6-3.8,3.6c0,2.3,1.8,3.3,3.4,3.8c1.8,0.6,2.8,1.2,2.8,2.5c0,1.3-0.6,2.3-2.2,2.3
		c-1.9,0-3.4-2.4-3.6-3.7h-0.6l0.1,4.1h0.8l0.2-0.8c0.4,0.5,1.7,1.1,2.9,1.1c2.3,0,4.2-1.4,4.2-3.8C144.4,16.6,143,15.6,141,14.9z"
		/>
	<path class="st0" d="M149,20.2V2.5l-0.2-0.2l-4.6,0.3v0.5c0.4,0,1.4,0.3,1.7,0.5c0.4,0.3,0.6,0.9,0.6,1.5v15.2c0,0.6-0.2,1-0.6,1.2
		c-0.3,0.1-0.7,0.2-1.1,0.2v0.5h5.9v-0.5c-0.4,0-0.7-0.1-1.1-0.3C149.2,21.2,149,20.8,149,20.2z"/>
	<path class="st0" d="M161.2,21.1c-0.7,0-1.1-0.9-1.1-1.4c0-0.9,0.1-3.6,0.1-6c0-3.6-1.8-4-4.3-4c-1.9,0-4,1.2-4,2.8
		c0,0.8,0.3,1.4,1.1,1.4c0.9,0,1.6-0.5,1.6-1.2c0-0.6-0.2-1.2-0.2-1.6c0.2-0.3,0.5-0.9,1.4-0.9c2,0,2,2.2,2,2.7v1.5
		c-1,0.7-2.7,1.1-4.1,1.7c-1.2,0.5-2.4,1.3-2.4,3.5c0,1.7,1.2,2.8,2.8,2.8c1.4,0,2.7-0.7,3.6-1.8h0.1c0.4,1.2,1.1,1.8,2.2,1.8
		c1.5,0,2.5-1,2.7-3.5h-0.6C162,20.1,161.9,21.1,161.2,21.1z M157.7,20.1c-0.6,0.8-1,1.3-2.2,1.3c-1,0-1.6-0.7-1.6-2
		c0-2.4,1.6-3.1,3.9-4L157.7,20.1z"/>
	<path class="st0" d="M168.2,21c-1.3,0-1.8-1-1.8-2.5v-7.2h3.3v-1.1h-3.3V6.1h-2.3v4.1h-2.4v1.1h2.3v7.5c0,2.4,1.1,3.7,3,3.7
		c1.9,0,2.9-1.6,3.1-3.6h-0.6C169.4,20,169.3,21,168.2,21z"/>
	<path class="st0" d="M174.9,20.2v-10l-0.2-0.2l-4.4,0.3v0.5c0.4,0,1.2,0.3,1.5,0.5c0.4,0.3,0.6,0.8,0.7,1.3v7.7
		c0,0.5-0.2,1-0.7,1.2c-0.3,0.1-0.7,0.2-1.1,0.2v0.5h5.9v-0.5c-0.3,0-0.7-0.1-1.1-0.3C175.2,21.2,174.9,20.7,174.9,20.2z"/>
	<path class="st0" d="M173.5,6.1c1,0,1.7-0.8,1.7-1.7c0-0.9-0.7-1.6-1.7-1.6c-0.9,0-1.6,0.8-1.6,1.7C171.9,5.4,172.6,6.1,173.5,6.1z
		"/>
	<path class="st0" d="M182.8,9.8c-3.4,0-5.7,2.7-5.7,6.5c0,3.9,2.6,6.4,5.5,6.4c3.7,0,5.8-3,5.8-6.6S186.2,9.8,182.8,9.8z M182.7,22
		c-2.2,0-3-2.8-3-6c0-2.5,0.6-5.6,3-5.6c2.2,0,2.9,2.9,2.9,5.7C185.7,19.3,184.8,22,182.7,22z"/>
	<path class="st0" d="M200.2,20.2V14c0-2.5-1-4.2-3.3-4.2c-2.1,0-3,1.2-3.9,2.2h0v-1.8l-0.2-0.2l-4.1,0.3v0.5c0.4,0,1,0.2,1.2,0.4
		c0.4,0.3,0.6,0.9,0.7,1.4v7.7c0,0.6-0.2,1-0.7,1.2c-0.3,0.1-0.7,0.2-1.1,0.2v0.5h5.9v-0.5c-0.4,0-0.8-0.1-1.1-0.3
		c-0.4-0.2-0.6-0.6-0.6-1.2v-7.3c0.2-0.6,1.2-1.7,2.9-1.7c1,0,1.9,1,1.9,2.8v6.3c0,0.6-0.2,1-0.6,1.2c-0.3,0.1-0.7,0.2-1.1,0.2v0.5
		h5.9v-0.5c-0.5,0-0.8-0.1-1.1-0.3C200.3,21.2,200.2,20.8,200.2,20.2z"/>
	<path class="st0" d="M212.4,21.1c-0.7,0-1.1-0.9-1.1-1.4c0-0.9,0.1-3.6,0.1-6c0-3.6-1.8-4-4.3-4c-1.9,0-4,1.2-4,2.8
		c0,0.8,0.3,1.4,1.1,1.4c0.9,0,1.6-0.5,1.6-1.2c0-0.6-0.2-1.2-0.2-1.6c0.2-0.3,0.5-0.9,1.4-0.9c2,0,2,2.2,2,2.7v1.5
		c-1,0.7-2.7,1.1-4.1,1.7c-1.2,0.5-2.4,1.3-2.4,3.5c0,1.7,1.2,2.8,2.8,2.8c1.4,0,2.7-0.7,3.6-1.8h0.1c0.4,1.2,1.1,1.8,2.2,1.8
		c1.5,0,2.5-1,2.6-3.5h-0.6C213.2,20.1,213.1,21.1,212.4,21.1z M208.9,20.1c-0.6,0.8-1,1.3-2.2,1.3c-1,0-1.6-0.7-1.6-2
		c0-2.4,1.6-3.1,3.9-4L208.9,20.1z"/>
	<path class="st0" d="M218.1,20.2V2.5L218,2.3l-4.6,0.3v0.5c0.4,0,1.4,0.3,1.7,0.5c0.4,0.3,0.6,0.9,0.6,1.5v15.2
		c0,0.6-0.2,1-0.6,1.2c-0.3,0.1-0.7,0.2-1.1,0.2v0.5h5.9v-0.5c-0.4,0-0.7-0.1-1.1-0.3C218.3,21.2,218.1,20.8,218.1,20.2z"/>
	<path class="st0" d="M244,20V6.2c0-0.6,0.1-1.1,0.7-1.3c0.4-0.2,1.4-0.3,1.8-0.3V4h-5.8c0,0.3-0.2,1.3-0.6,2.3l-4.3,11.2L230.6,4
		h-5.9v0.6c0.6,0,1.6,0.2,2.2,0.7c0.5,0.4,0.7,1.1,0.7,2.2v9.8c0,2.1-0.2,3.2-0.8,3.7c-0.6,0.5-1.9,0.6-2.3,0.7v0.6h7.4v-0.6
		c-0.4,0-2.1-0.5-2.5-0.8c-0.5-0.5-0.8-1.6-0.8-3.7V6.3h0l4.7,12c0.5,1.2,0.9,2.7,1.2,3.7h0.6l6-15.7h0V20c0,0.6-0.2,1-0.7,1.4
		c-0.3,0.2-1.7,0.3-2.1,0.3v0.6h8.2v-0.6c-0.4,0-1.6-0.2-1.8-0.4C244.2,21,244,20.6,244,20z"/>
	<path class="st0" d="M252.2,21.4c-2.5,0-3.5-2.5-3.5-5.9v-0.3h7.2V15c0-2.7-1.3-5.1-4.6-5.1c-3.3,0-5.2,3.1-5.2,6.3
		c0,3.5,1.7,6.5,5.5,6.5c2.1,0,3.7-1.3,4.6-3.2l-0.5-0.3C254.7,20.7,254,21.4,252.2,21.4z M251.2,10.4c1.7,0,2.1,2.2,2.1,4.1
		l-4.7,0.1C248.7,12.1,249.8,10.4,251.2,10.4z"/>
	<path class="st0" d="M267.9,19.9V2.5l-0.2-0.2l-5,0.3v0.5c0.7,0.1,1.7,0.3,2.1,0.6c0.4,0.3,0.6,1,0.6,1.6v5.3
		c-0.3-0.1-1.4-0.7-2.9-0.7c-2.8,0-5.4,2.6-5.4,6.2c0,4,2.2,6.6,5,6.6c1.5,0,2.7-1,3.2-1.7l0.1,0v1.2l0.2,0.2l4.3-0.3v-0.5
		c-0.4,0-1.2-0.1-1.5-0.3C268.1,20.9,267.9,20.4,267.9,19.9z M265.4,20.2c-0.6,0.7-1.3,1.2-2.4,1.2c-2.3,0-3.2-2.5-3.2-5.1
		c0-3.7,1.2-5.9,3-5.9c1.6,0,2.4,1.3,2.6,2.2V20.2L265.4,20.2z"/>
	<path class="st0" d="M273.5,6.1c1,0,1.7-0.8,1.7-1.7c0-0.9-0.7-1.6-1.7-1.6c-0.9,0-1.6,0.8-1.6,1.7C271.8,5.4,272.6,6.1,273.5,6.1z
		"/>
	<path class="st0" d="M274.9,20.2v-10l-0.2-0.2l-4.4,0.3v0.5c0.4,0,1.2,0.3,1.5,0.5c0.4,0.3,0.6,0.8,0.7,1.3v7.7
		c0,0.5-0.2,1-0.7,1.2c-0.3,0.1-0.7,0.2-1.1,0.2v0.5h5.9v-0.5c-0.3,0-0.7-0.1-1.1-0.3C275.1,21.2,274.9,20.7,274.9,20.2z"/>
	<path class="st0" d="M282.6,21.4c-2.1,0-3.3-2.2-3.3-5.5c0-4,1.4-5.5,2.8-5.5c0.8,0,1.2,0.2,1.3,1c0,0.5-0.3,0.5-0.3,1.7
		c0,1,1,1.3,1.4,1.3c0.9,0,1.4-0.6,1.4-1.5c0-1.6-1.3-3.1-3.8-3.1c-3.4,0-5.5,3.1-5.5,6.3c0,3.7,1.8,6.4,5.3,6.4
		c2,0,3.7-1.4,4.6-3.2l-0.5-0.4C285.3,20.6,284.3,21.4,282.6,21.4z"/>
	<path class="st0" d="M289.9,6.1c1,0,1.7-0.8,1.7-1.7c0-0.9-0.7-1.6-1.7-1.6c-0.9,0-1.6,0.8-1.6,1.7C288.3,5.4,289,6.1,289.9,6.1z"
		/>
	<path class="st0" d="M291.3,20.2v-10l-0.2-0.2l-4.4,0.3v0.5c0.4,0,1.2,0.3,1.5,0.5c0.4,0.3,0.6,0.8,0.7,1.3v7.7
		c0,0.5-0.2,1-0.7,1.2c-0.3,0.1-0.7,0.2-1.1,0.2v0.5h5.9v-0.5c-0.3,0-0.7-0.1-1.1-0.3C291.5,21.2,291.3,20.7,291.3,20.2z"/>
	<path class="st0" d="M305.3,20.2V14c0-2.5-1-4.2-3.3-4.2c-2.1,0-3,1.2-3.9,2.2h0v-1.8l-0.2-0.2l-4.1,0.3v0.5c0.4,0,1,0.2,1.2,0.4
		c0.4,0.3,0.6,0.9,0.7,1.4v7.7c0,0.6-0.2,1-0.7,1.2c-0.3,0.1-0.7,0.2-1.1,0.2v0.5h5.9v-0.5c-0.4,0-0.8-0.1-1.1-0.3
		c-0.4-0.2-0.6-0.6-0.6-1.2v-7.3c0.2-0.6,1.2-1.7,2.9-1.7c1,0,1.9,1,1.9,2.8v6.3c0,0.6-0.2,1-0.6,1.2c-0.3,0.1-0.7,0.2-1.1,0.2v0.5
		h5.9v-0.5c-0.5,0-0.8-0.1-1.1-0.3C305.5,21.2,305.3,20.8,305.3,20.2z"/>
	<path class="st0" d="M317.5,19c-0.9,1.6-1.6,2.4-3.4,2.4c-2.5,0-3.5-2.5-3.5-5.9v-0.3h7.2V15c0-2.7-1.3-5.1-4.6-5.1
		c-3.3,0-5.2,3.1-5.2,6.3c0,3.5,1.7,6.5,5.5,6.5c2.1,0,3.7-1.3,4.6-3.2L317.5,19z M313.2,10.4c1.7,0,2.1,2.2,2.1,4.1l-4.7,0.1
		C310.6,12.1,311.7,10.4,313.2,10.4z"/>
</g>
</svg>
