<svg xmlns="http://www.w3.org/2000/svg" width="66" height="33" viewBox="0 0 66 33">
    <g fill="none" fill-rule="evenodd">
        <path fill="#FFF" d="M29.592 15h-.978l1.287-2.859-4.017-9.181h1.03l3.537 8.105 3.57-8.089H35L29.592 15zm-6.286-2.775V0h.978v12.225h-.978zM19.42 1.883V.471h1.27v1.412h-1.27zm.154 10.342V2.926h.996v9.316h-.996v-.017zm-2.867 0l-.069-1.681c-.429 1.126-1.75 1.799-3.227 1.799-1.871 0-3.416-.992-3.416-3.178v-.168c0-1.85 1.356-3.195 3.588-3.195 1.339 0 2.489.555 3.055 1.597V5.381c0-.958-.6-1.883-2.489-1.883-1.15 0-2.317.32-2.97.656V3.33c.635-.337 1.734-.623 3.108-.623 2.403 0 3.296 1.346 3.296 2.59v6.912h-.876v.016zm-.086-3.363c0-1.194-1.133-2.354-2.901-2.354-1.648 0-2.781.992-2.781 2.37v.253c0 1.648 1.15 2.489 2.781 2.489 1.837 0 2.901-1.16 2.901-2.506v-.252zM3.777 12.225H0V0h3.588c3.039 0 5.133 1.698 5.133 5.869v.504c0 3.918-1.682 5.852-4.944 5.852zM7.69 5.953C7.691 2.573 6.215.79 3.537.79H.996v10.645H3.88c2.506 0 3.811-1.58 3.811-5.163v-.32z"/>
        <path fill="#004DB3" d="M29.592 15h-.978l1.287-2.859-4.017-9.181h1.03l3.537 8.105 3.57-8.089H35L29.592 15zm-6.286-2.775V0h.978v12.225h-.978zM19.42 1.883V.471h1.27v1.412h-1.27zm.154 10.342V2.926h.996v9.316h-.996v-.017zm-2.867 0l-.069-1.681c-.429 1.126-1.75 1.799-3.227 1.799-1.871 0-3.416-.992-3.416-3.178v-.168c0-1.85 1.356-3.195 3.588-3.195 1.339 0 2.489.555 3.055 1.597V5.381c0-.958-.6-1.883-2.489-1.883-1.15 0-2.317.32-2.97.656V3.33c.635-.337 1.734-.623 3.108-.623 2.403 0 3.296 1.346 3.296 2.59v6.912h-.876v.016zm-.086-3.363c0-1.194-1.133-2.354-2.901-2.354-1.648 0-2.781.992-2.781 2.37v.253c0 1.648 1.15 2.489 2.781 2.489 1.837 0 2.901-1.16 2.901-2.506v-.252zM3.777 12.225H0V0h3.588c3.039 0 5.133 1.698 5.133 5.869v.504c0 3.918-1.682 5.852-4.944 5.852zM7.69 5.953C7.691 2.573 6.215.79 3.537.79H.996v10.645H3.88c2.506 0 3.811-1.58 3.811-5.163v-.32zM24.54 29.94s-.913-.413-1.03-1.459v-8.4s.117-.048-.15-.222l-3.238-1.807s-.083-.159-.398.079l-2.757 1.648-2.757-1.458s-.116-.11-.266-.031c-.216.126-3.487 1.79-3.487 1.79l-2.425-1.33s-.116-.16-.266-.048l-2.64 1.616s-.366.143.15.412l.082.032 1.844 1.268v7.434l-.947.523s-.315.143-.033.333L9.593 32l2.558-1.379s.232-.143.033-.333l-.598-.364-.016-3.313h1.826v2.584l-.83.49s-.266.144.083.35l3.853 1.95 2.59-1.538s.266-.032.084-.222l-1.246-.809-.016-2.948 1.777-2.457h-1.794l-.017-3.566 1.661.824s.2-.047.266.333v8.036s.2 1.68 2.358 2.362l2.508-1.696c.017-.032.133-.174-.133-.365zm-13.602-.413s-.116.111-.15-.079l.034-8.67s.033-.301.482-.301l.033 9.304-.399-.254zm2.126-5.547l-1.511 2.14-.017-5.611 1.611.808s.15-.111.233.254v2.409h-.316zm4.434 5.135s-.166.048-.232-.142v-2.378h.415v2.663l-.183-.143zm-.232-5.135v-.254l-.033-3.265s-.083-.301.431-.159l.017 3.662h-.415v.016zm26.622-4.169s3.737-1.157 4.235-1.268c.481-.11.465.111.465.111s-.116 10.16-.033 10.509c.083.364.265.27.265.27s.864.57 1.063.665c.2.08.083.27.083.27l-2.092 1.569s-3.438-1.443-3.704-1.617c-.349-.222-.116-.365-.116-.365l.598-.57s.116-8.322-.05-8.75c-.166-.443-.714-.602-.714-.602-.133-.19 0-.222 0-.222zm-4.202 1.728s-.598-.84-.398-1.918c0 0 .216-.808 1.03-1.236 0 0 .53-.333 1.228.079 0 0 .814.333.465 1.537 0 0-.548 1.237-1.893 1.76 0 0-.316.047-.432-.222zm-.598.555s.166-.19.399-.016c.232.206 3.421 1.79 3.421 1.79s.233.143-.033.302a2.482 2.482 0 0 1-.581.238s-.117-.111-.2.222c-.083.364.034 4.533.034 4.533s-.05.174.116.253c.166.08 1.162.634 1.162.634s.2.175 0 .254c-.199.095-2.524 1.68-2.524 1.68l-3.421-1.648s-.183-.19.05-.38c.199-.16.58-.444.58-.444s.034-.302 0-.413l-.049-4.232s.1-.142-.166-.222c-.266-.095-1.212-.665-1.212-.665s-.133-.095.033-.349c.182-.254 2.391-1.537 2.391-1.537zm-2.042 7.798c.182.19.066.38.05.38l-2.276 1.696-3.737-1.727c-.166-.159-.282.031-.282.031l-2.209 1.696c-3.022-.364-3.52-2.44-3.587-2.821v-.063c-.2-3.044 1.046-3.805 1.046-3.805 1.611-1.997 5.664-3.566 5.664-3.566.332-.222.481-.032.481-.032s3.704 1.76 3.903 1.982c.2.222.083.38.083.38l-.598.46c-.15.032-.116.222-.116.222v4.152l1.578 1.015zm-6.643-.143c.63.27.896-.142.88-.142l.033-4.755-1.96-1.253c-1.445.619-1.494 1.791-1.494 1.791-.283 1.047.116 2.03.315 2.41.764 1.252 2.226 1.95 2.226 1.95z"/>
        <g transform="translate(52 19)">
            <circle cx="7" cy="7" r="7" fill="#BD0031"/>
            <path fill="#FFF" d="M6.135 5.244v-.718h-1.48v-1.61H3.98l-.23 1.571-.833.04v.707h.833v2.792c0 1.406.496 1.89 1.498 1.89.328 0 .71-.058.922-.145v-.727a2.734 2.734 0 0 1-.71.107c-.54 0-.806-.262-.806-.863V5.244h1.48zm4.948-.786h-.922l-1.498 4.16-1.542-4.16h-.94l2.048 5.41h.798l2.056-5.41z"/>
        </g>
    </g>
</svg>
