<?xml version="1.0" encoding="utf-8"?>
<!-- Generator: Adobe Illustrator 24.2.3, SVG Export Plug-In . SVG Version: 6.00 Build 0)  -->
<svg version="1.1" id="Layer_1" xmlns="http://www.w3.org/2000/svg" xmlns:xlink="http://www.w3.org/1999/xlink" x="0px" y="0px"
	 viewBox="0 0 282.28 39" style="enable-background:new 0 0 282.28 39;" xml:space="preserve">
<style type="text/css">
	.st0{fill:#FFFFFF;}
</style>
<g>
	<g>
		<path class="st0" d="M145.5,36.34c0.72-0.05,2.3-0.19,2.86-0.42c0.98-0.38,1.24-1.22,1.24-2.26V10.89c0-0.99-0.26-1.93-1.24-2.26
			c-0.72-0.24-2.13-0.52-2.86-0.52V6.46h13.68c4.01,0,8.27,2.07,8.27,7.29c0,4.94-3.16,6.68-7.46,7.95v0.52
			c2.39,0.61,5.24,2.31,6.52,5.88c0.64,1.83,1.41,4.66,1.62,5.36c0.68,2.16,1.79,2.4,2.52,2.54c0.81,0.14,1.71,0.28,2.47,0.33v1.6
			h-8.83c-0.6-3.25-1.24-5.97-2.3-9.03c-1.11-3.15-3.62-5.93-6.44-5.93h-1.66v10.68c0,1.04,0.3,1.88,1.24,2.26
			c0.51,0.23,2.3,0.38,3.03,0.42v1.6H145.5V36.34z M156.16,21.14c3.54,0,6.39-2.78,6.39-6.96c0-4.09-2.47-5.88-5.5-5.88h-3.16v12.84
			H156.16z"/>
		<path class="st0" d="M171.5,27.38c0-6.62,3.64-11.26,9.21-11.26c5.52,0,9,4.73,9,10.91c0,6.27-3.28,11.48-9.29,11.48
			C175.7,38.51,171.5,34.18,171.5,27.38z M185.75,27.12c0-4.68-1.24-9.32-5.08-9.32c-4.12,0-5.2,4.95-5.2,9.23
			c0,5.25,1.48,9.8,5.2,9.8C184.19,36.83,185.75,32.42,185.75,27.12z"/>
		<path class="st0" d="M191.43,38.69c0.12-1.77,0.16-5.08,0.16-8.3V12.23c0-0.93-0.44-2.12-1.08-2.56c-0.48-0.31-1.88-0.53-2.6-0.62
			V7.69l6.92-0.53l0.28,0.4v11.53h0.12c0.92-1.15,2.84-2.91,5.36-2.91c4.52,0,8.09,4.37,8.09,11.17c0,6.4-4.16,11.17-8.85,11.17
			c-2.64,0-4.68-1.24-5.88-2.08L192.67,39L191.43,38.69z M204.68,27.43c0-4.46-1.44-8.79-5.44-8.79c-1.88,0-3.16,1.06-4.12,2.3
			v12.01c0.44,1.37,1.68,3.8,4.4,3.8C202.52,36.74,204.68,33.52,204.68,27.43z"/>
		<path class="st0" d="M210.16,27.38c0-6.62,3.64-11.26,9.21-11.26c5.52,0,9,4.73,9,10.91c0,6.27-3.28,11.48-9.29,11.48
			C214.36,38.51,210.16,34.18,210.16,27.38z M224.41,27.12c0-4.68-1.24-9.32-5.08-9.32c-4.12,0-5.2,4.95-5.2,9.23
			c0,5.25,1.48,9.8,5.2,9.8C222.85,36.83,224.41,32.42,224.41,27.12z"/>
		<path class="st0" d="M231.45,32.2V19.17h-3.68v-2.08h3.76v-5.96h3.4v5.96h5.36v2.08h-5.32v12.36c0,2.61,0.6,4.11,2.8,4.11
			c1.68,0,1.92-1.77,2.08-3.44h1.44c-0.24,3.31-1.88,6.14-5.04,6.14C233.01,38.33,231.45,36.17,231.45,32.2z"/>
		<path class="st0" d="M242.54,36.52c0.72-0.04,1.16-0.09,1.76-0.31c0.72-0.26,1.04-0.97,1.04-1.99V21.33
			c-0.08-0.97-0.44-1.77-1.04-2.25c-0.52-0.4-1.68-0.66-2.36-0.71V17l6.72-0.53l0.24,0.31v17.18c0,1.02,0.36,1.72,1.08,2.03
			c0.6,0.27,1.04,0.49,1.72,0.53v1.41h-9.17V36.52z M244.38,9.85c0-1.5,1.12-2.74,2.4-2.74c1.48,0,2.48,1.15,2.48,2.52
			c0,1.55-1.08,2.87-2.48,2.87C245.5,12.5,244.38,11.26,244.38,9.85z"/>
		<path class="st0" d="M251.3,27.21c0-5.74,3.44-11.04,9.01-11.04c4.2,0,6.32,2.52,6.32,5.34c0,1.94-0.72,3.05-2.2,3.05
			c-0.8,0-2.2-0.57-2.2-2.3c0-1.99,0.52-1.94,0.52-2.78c-0.16-1.28-1.08-1.59-2.52-1.59c-2.36,0-5,2.25-5,9.14
			c0,5.12,2.24,8.92,5.8,8.92c2.52,0,3.92-1.37,5.32-4.06l1.36,1.1c-1.52,3.05-4.36,5.43-7.64,5.43
			C254.3,38.42,251.3,33.61,251.3,27.21z"/>
		<path class="st0" d="M270.71,36.61l-0.36,1.5h-1.4l-0.16-7.64h1.44c0.44,2.25,2.44,6.27,5.44,6.27c2.76,0,3.72-1.5,3.72-3.58
			c0-2.47-1.48-3.36-4.56-4.37c-2.56-0.84-5.56-2.47-5.56-6.49c0-3.44,2.4-6.14,6.08-6.14c1.52,0,3.16,0.44,4.12,1.24l0.32-1.28
			h1.32l0.28,6.8h-1.44c-0.4-2.61-2.04-4.99-4.64-4.99c-2.08,0-3.16,1.28-3.16,2.83c0,2.61,1.32,3.22,4.56,4.42
			c3.28,1.19,5.56,2.83,5.56,6.62c0,4.11-3.04,6.71-6.8,6.71C273.55,38.51,271.43,37.41,270.71,36.61z"/>
	</g>
	<g id="XMLID_3_">
		<path id="XMLID_16_" class="st0" d="M3.7,35.73L2.06,38.2H0.32L0,25.66h1.16c2.06,5.68,5.24,11.09,11.38,11.09
			c4.44,0,6.61-2.73,6.61-6.75c0-3.27-1.64-5.73-4.87-7.12c-2.75-1.18-4.71-1.93-7.46-3.21c-3.65-1.71-5.87-4.71-5.87-9.37
			c0-5.68,4.44-9.91,10.26-9.91c2.54,0,5.71,1.13,7.46,2.57l1.53-2.41h1.8l0.26,12.16h-1.16C19.1,6.65,16.72,1.99,10.21,1.99
			c-1.43,0-5.03,1.29-5.03,5.46c0,3.27,1.43,5.14,4.44,6.91c2.43,1.45,4.92,2.09,7.09,3.16c4.02,2.04,6.98,4.18,6.98,9.69
			c0,6.53-4.87,11.14-11.48,11.14C8.15,38.36,5.24,37.02,3.7,35.73"/>
		<path id="XMLID_15_" class="st0" d="M25.08,25.45c0-6.59,4.18-12.69,10.9-12.69c4.97,0,7.51,2.95,7.51,6.21c0,1.77-1.01,3-2.7,3
			c-0.95,0-2.86-0.59-2.86-2.68c0-2.25,0.64-2.3,0.64-3.32c-0.26-1.55-1.01-1.93-2.65-1.93c-2.86,0-5.61,2.84-5.61,10.93
			c0,6.48,2.33,10.98,6.46,10.98c3.28,0,5.29-1.66,6.83-4.77l1.06,0.75c-1.8,3.53-5.19,6.37-9.05,6.37
			C28.57,38.3,25.08,32.84,25.08,25.45"/>
		<path id="XMLID_12_" class="st0" d="M47.52,3.37C47.52,1.55,48.95,0,50.7,0c1.96,0,3.28,1.45,3.28,3.16
			c0,1.87-1.38,3.48-3.28,3.48C48.95,6.64,47.52,5.14,47.52,3.37 M45.25,36.59c0.85-0.05,1.53-0.16,2.17-0.37
			c0.9-0.32,1.32-1.34,1.32-2.41V18.43c-0.11-1.12-0.53-2.09-1.32-2.68c-0.58-0.43-2.06-0.96-2.91-1.02v-1.02l8.68-0.59l0.32,0.37
			v19.98c0,1.12,0.48,2.03,1.32,2.46c0.74,0.37,1.59,0.59,2.17,0.64v1.07H45.25V36.59z"/>
		<path id="XMLID_9_" class="st0" d="M71.16,22.24c0-3.86-0.74-8.25-4.13-8.25c-2.86,0-4.97,3.32-5.08,8.35L71.16,22.24z
			 M56.77,25.34c0-6.43,3.81-12.59,10.32-12.59c6.67,0,9.15,4.82,9.15,10.28v0.48H61.96v0.59c0,6.91,2.01,11.84,6.98,11.84
			c3.6,0,4.92-1.5,6.72-4.77l0.95,0.64c-1.69,3.8-4.97,6.48-9.05,6.48C60.21,38.3,56.77,32.41,56.77,25.34"/>
		<path id="XMLID_8_" class="st0" d="M76.56,36.59c0.85-0.05,1.53-0.16,2.17-0.37c0.9-0.32,1.32-1.23,1.32-2.41V18.43
			c-0.11-1.12-0.53-2.25-1.32-2.84c-0.53-0.43-1.59-0.8-2.43-0.86v-1.02l8.15-0.59l0.37,0.37v3.64h0.05
			c1.85-1.98,3.65-4.39,7.73-4.39c4.44,0,6.51,3.37,6.51,8.46v12.37c0,1.18,0.37,1.98,1.22,2.41c0.69,0.32,1.32,0.54,2.22,0.59v1.07
			H90.8v-1.07c0.79-0.05,1.64-0.16,2.22-0.37c0.9-0.32,1.27-1.23,1.27-2.41V21.11c0-3.7-1.8-5.68-3.81-5.68
			c-3.33,0-5.19,2.25-5.66,3.48v14.62c0,1.18,0.42,1.98,1.22,2.41c0.63,0.37,1.48,0.59,2.22,0.64v1.07H76.56V36.59z"/>
		<path id="XMLID_7_" class="st0" d="M101.7,25.45c0-6.59,4.18-12.69,10.9-12.69c4.97,0,7.51,2.95,7.51,6.21c0,1.77-1.01,3-2.7,3
			c-0.95,0-2.86-0.59-2.86-2.68c0-2.25,0.64-2.3,0.64-3.32c-0.26-1.55-1.01-1.93-2.65-1.93c-2.86,0-5.61,2.84-5.61,10.93
			c0,6.48,2.33,10.98,6.46,10.98c3.28,0,5.29-1.66,6.83-4.77l1.06,0.75c-1.8,3.53-5.19,6.37-9.05,6.37
			C105.19,38.3,101.7,32.84,101.7,25.45"/>
		<path id="XMLID_4_" class="st0" d="M135.72,22.24c0-3.86-0.74-8.25-4.13-8.25c-2.86,0-4.97,3.32-5.08,8.35L135.72,22.24z
			 M121.33,25.34c0-6.43,3.81-12.59,10.32-12.59c6.67,0,9.15,4.82,9.15,10.28v0.48h-14.29v0.59c0,6.91,2.01,11.84,6.98,11.84
			c3.6,0,4.92-1.5,6.72-4.77l0.95,0.64c-1.69,3.8-4.97,6.48-9.05,6.48C124.77,38.3,121.33,32.41,121.33,25.34"/>
	</g>
</g>
</svg>
