<svg width="516" height="64" viewBox="0 0 516 64" fill="none" xmlns="http://www.w3.org/2000/svg">
<path d="M3.58801 49.4208L2.01825 51.7753H0.336375L0 39.7784H1.12125C3.1395 45.2723 6.16688 50.4299 12.1095 50.4299C16.3703 50.4299 18.5007 47.8511 18.5007 43.9268C18.5007 40.7875 16.9309 38.4329 13.7914 37.0875C11.1004 35.9662 9.30639 35.1814 6.61538 33.9481C3.1395 32.2662 0.897001 29.3511 0.897001 24.8662C0.897001 19.3723 5.15776 15.3359 10.764 15.3359C13.2308 15.3359 16.2581 16.4571 17.94 17.8026L19.3977 15.4481H21.0795L21.3038 27.2208H20.1825C18.2764 21.3905 15.9218 16.9056 9.64276 16.9056C8.29726 16.9056 4.82138 18.139 4.82138 22.1753C4.82138 25.3147 6.16688 27.1087 9.08214 28.7905C11.4368 30.1359 13.7914 30.8087 15.9218 31.8178C19.8462 33.8359 22.6493 35.8541 22.6493 41.1238C22.6493 47.4026 17.94 51.8875 11.5489 51.8875C7.84876 51.9996 5.04563 50.6541 3.58801 49.4208Z" fill="#C72326"/>
<path d="M24.219 39.5542C24.219 33.1633 28.2555 27.333 34.7588 27.333C39.5801 27.333 42.0469 30.136 42.0469 33.2754C42.0469 34.9572 41.0378 36.1906 39.468 36.1906C38.571 36.1906 36.6649 35.63 36.6649 33.6118C36.6649 31.4815 37.2255 31.3694 37.2255 30.3603C37.0013 28.9027 36.2164 28.4542 34.6466 28.4542C31.8435 28.4542 29.2646 31.1451 29.2646 38.9936C29.2646 45.2724 31.5071 49.533 35.5436 49.533C38.6831 49.533 40.5893 47.9633 42.159 44.936L43.1681 45.6088C41.4863 48.9724 38.1225 51.7754 34.4224 51.7754C27.5827 51.8875 24.219 46.6179 24.219 39.5542Z" fill="#C72326"/>
<path d="M45.8591 18.2515C45.8591 16.4576 47.2046 15 48.8865 15C50.7926 15 52.026 16.3455 52.026 18.0273C52.026 19.8212 50.6805 21.3909 48.8865 21.3909C47.2046 21.3909 45.8591 19.9333 45.8591 18.2515ZM43.6166 50.3182C44.4015 50.3182 45.0742 50.2061 45.747 49.9818C46.644 49.6455 46.9804 48.6364 46.9804 47.6273V32.8273C46.8682 31.7061 46.4197 30.8091 45.747 30.2485C45.1864 29.8 43.7287 29.3515 42.9438 29.2394V28.2303L51.3532 27.6697L51.6896 28.0061V47.2909C51.6896 48.4121 52.1381 49.197 52.923 49.6455C53.5957 49.9818 54.4927 50.2061 55.0534 50.3182V51.3273H43.6166V50.3182Z" fill="#C72326"/>
<path d="M68.6206 36.4148C68.6206 32.7148 67.9478 28.4542 64.6962 28.4542C61.8931 28.4542 59.8748 31.7057 59.7627 36.5269L68.6206 36.4148ZM54.717 39.4421C54.717 33.2754 58.4172 27.333 64.6962 27.333C71.0873 27.333 73.5541 31.93 73.5541 37.1997V37.6482H59.7627V38.2088C59.7627 44.8239 61.6688 49.6451 66.4902 49.6451C69.9661 49.6451 71.1994 48.1876 72.9934 45.0482L73.8904 45.7209C72.2086 49.4209 69.0691 51.9997 65.1447 51.9997C58.0808 51.8876 54.717 46.2815 54.717 39.4421Z" fill="#C72326"/>
<path d="M73.7785 50.3179C74.5633 50.3179 75.2361 50.2057 75.9088 49.9815C76.8058 49.6451 77.1422 48.7482 77.1422 47.6269V32.8269C77.0301 31.7057 76.5816 30.6966 75.9088 30.136C75.3482 29.6876 74.3391 29.3512 73.5542 29.3512V28.3421L81.403 27.7815L81.7393 28.1179V31.5936C83.5333 29.6876 85.2152 27.333 89.1396 27.333C93.4004 27.333 95.4186 30.5845 95.4186 35.5179V47.4027C95.4186 48.5239 95.755 49.3088 96.5399 49.7573C97.2126 50.0936 97.7732 50.3179 98.6702 50.3179V51.3269H87.5698V50.3179C88.3547 50.3179 89.1396 50.2057 89.7002 49.9815C90.5972 49.6451 90.9336 48.7482 90.9336 47.6269V35.4057C90.9336 31.8179 89.2517 29.9118 87.2335 29.9118C83.9818 29.9118 82.1878 32.0421 81.7393 33.2754V47.4027C81.7393 48.5239 82.1878 49.3088 82.8606 49.7573C83.4212 50.0936 84.3182 50.3179 84.991 50.43V51.4391H73.7785V50.3179Z" fill="#C72326"/>
<path d="M97.9973 39.5542C97.9973 33.1633 102.034 27.333 108.537 27.333C113.358 27.333 115.825 30.136 115.825 33.2754C115.825 34.9572 114.816 36.1906 113.246 36.1906C112.349 36.1906 110.443 35.63 110.443 33.6118C110.443 31.4815 111.004 31.3694 111.004 30.3603C110.78 28.9027 109.995 28.4542 108.425 28.4542C105.622 28.4542 103.043 31.1451 103.043 38.9936C103.043 45.2724 105.285 49.533 109.322 49.533C112.461 49.533 114.368 47.9633 115.937 44.936L116.946 45.6088C115.265 48.9724 111.901 51.7754 108.201 51.7754C101.473 51.8875 97.9973 46.6179 97.9973 39.5542Z" fill="#C72326"/>
<path d="M130.85 36.4148C130.85 32.7148 130.177 28.4542 126.926 28.4542C124.123 28.4542 122.104 31.7057 121.992 36.5269L130.85 36.4148ZM116.947 39.4421C116.947 33.2754 120.647 27.333 126.926 27.333C133.317 27.333 135.784 31.93 135.784 37.1997V37.6482H121.992V38.2088C121.992 44.8239 123.898 49.6451 128.72 49.6451C132.196 49.6451 133.429 48.1876 135.223 45.0482L136.12 45.7209C134.438 49.4209 131.299 51.9997 127.374 51.9997C120.31 51.8876 116.947 46.2815 116.947 39.4421Z" fill="#C72326"/>
<path d="M147.669 50.206C148.454 50.206 150.472 49.8696 150.92 49.6454C151.93 49.309 152.154 48.412 152.154 47.5151V22.6241H150.36C149.463 22.6241 148.229 22.6241 147.22 22.8484C145.538 23.0726 143.408 27.109 142.96 29.0151H141.95V21.5029H166.842V29.0151H165.833C165.385 27.109 163.254 23.0726 161.572 22.8484C160.563 22.7363 159.554 22.6241 158.433 22.6241H156.639V47.2908C156.639 48.2999 156.975 48.9726 157.76 49.4211C158.209 49.6454 160.339 50.0938 161.012 50.206V51.2151H147.557V50.206H147.669Z" fill="black"/>
<path d="M164.039 50.2059C164.712 50.2059 165.273 50.0938 165.833 49.8696C166.618 49.6453 166.954 48.8605 166.954 47.9635V35.5181C166.842 34.6211 166.506 33.7241 165.833 33.1635C165.385 32.8271 164.488 32.4908 163.815 32.4908V31.7059L170.542 31.2574L170.879 31.5938V34.509C172.561 32.1544 174.355 31.0332 176.037 31.0332C177.382 31.0332 178.728 32.2665 178.728 33.7241C178.728 35.2938 177.831 36.415 176.485 36.415C175.252 36.415 174.13 35.8544 174.13 34.2847C174.13 33.8362 174.467 33.4999 174.467 32.9393C172.561 32.9393 171.327 34.8453 170.879 35.7423V47.7393C170.879 48.7484 171.215 49.4211 171.888 49.6453C172.561 49.9817 173.794 50.0938 174.467 50.2059V51.1029H164.039V50.2059V50.2059Z" fill="black"/>
<path d="M179.176 47.0664C179.176 43.4785 181.082 42.2451 182.988 41.4603C185.343 40.4512 187.922 39.7785 189.604 38.7694V36.3027C189.604 35.5179 189.492 31.93 186.352 31.93C185.007 31.93 184.446 32.9391 184.11 33.3876C184.11 34.0603 184.446 34.9573 184.446 35.9664C184.446 37.0876 183.213 37.8724 181.867 37.8724C180.634 37.8724 180.073 36.8633 180.073 35.5179C180.073 32.9391 183.549 30.9209 186.576 30.9209C190.501 30.9209 193.528 31.5936 193.528 37.3118C193.528 41.1239 193.304 45.6088 193.304 47.0664C193.304 47.8512 193.977 49.3088 195.098 49.3088C196.219 49.3088 196.443 47.627 196.555 45.9451H197.565C197.34 49.9815 195.771 51.5512 193.304 51.5512C191.398 51.5512 190.276 50.6542 189.716 48.6361H189.492C188.034 50.43 186.016 51.6633 183.661 51.6633C180.97 51.6633 179.176 49.8694 179.176 47.0664ZM189.492 47.5148L189.716 39.8906C186.016 41.2361 183.325 42.4694 183.325 46.2815C183.325 48.4118 184.334 49.533 185.904 49.533C187.922 49.6451 188.595 48.8603 189.492 47.5148Z" fill="black"/>
<path d="M198.013 50.2058C198.686 50.2058 199.246 50.0936 199.807 49.8694C200.592 49.6451 200.928 48.8603 200.928 47.9633V35.5179C200.816 34.6209 200.48 33.7239 199.807 33.1633C199.359 32.827 198.462 32.4906 197.789 32.4906V31.7057L204.516 31.2573L204.853 31.5936V34.5088C206.422 32.9391 207.88 30.9209 211.244 30.9209C214.944 30.9209 216.626 33.6118 216.626 37.7603V47.7391C216.626 48.7482 216.962 49.3088 217.635 49.6451C218.196 49.8694 218.756 50.0936 219.429 50.0936V50.9906H209.674V50.0936C210.347 50.0936 211.02 49.9815 211.468 49.7573C212.253 49.533 212.477 48.7482 212.477 47.8512V37.5361C212.477 34.5088 211.02 32.9391 209.338 32.9391C206.647 32.9391 205.077 34.733 204.741 35.7421V47.627C204.741 48.6361 205.077 49.1967 205.75 49.533C206.31 49.8694 206.983 49.9815 207.544 50.0936V50.9906H197.901V50.2058H198.013Z" fill="black"/>
<path d="M222.681 49.9815L222.344 51.327H220.999L220.774 44.5997H221.671C222.12 46.73 224.475 50.6542 227.614 50.6542C230.193 50.6542 231.314 48.9724 231.314 46.9542C231.314 44.8239 229.744 43.8148 226.829 42.9179C224.362 42.0209 221.335 40.4512 221.335 36.7512C221.335 33.4997 223.914 30.9209 227.502 30.9209C229.072 30.9209 230.754 31.2573 231.651 32.0421L231.987 30.9209H233.22L233.445 36.8633H232.548C232.211 34.3967 230.081 31.93 227.502 31.93C225.372 31.93 224.362 33.6118 224.362 35.0694C224.362 37.4239 225.708 37.9845 228.847 39.1057C231.987 40.227 234.342 42.0209 234.342 45.4967C234.342 49.3088 231.202 51.6633 227.502 51.6633C225.596 51.7754 223.353 50.7664 222.681 49.9815Z" fill="black"/>
<path d="M234.902 50.2063C235.575 50.2063 236.248 50.0941 236.696 49.8699C237.481 49.6456 237.705 48.8608 237.705 47.9638V23.2972C237.705 22.2881 237.369 21.279 236.696 20.8305C236.248 20.4941 234.678 20.0456 234.005 19.9335V19.1487L241.405 18.7002L241.63 19.0366V47.7396C241.63 48.7487 241.966 49.4214 242.751 49.7578C243.312 50.0941 243.872 50.2063 244.545 50.3184V51.2153H234.902V50.2063V50.2063Z" fill="black"/>
<path d="M245.442 47.0664C245.442 43.4785 247.348 42.2451 249.254 41.4603C251.609 40.4512 254.188 39.7785 255.87 38.7694V36.3027C255.87 35.5179 255.757 31.93 252.618 31.93C251.272 31.93 250.712 32.9391 250.375 33.3876C250.375 34.0603 250.712 34.9573 250.712 35.9664C250.712 37.0876 249.478 37.8724 248.133 37.8724C246.9 37.8724 246.339 36.8633 246.339 35.5179C246.339 32.9391 249.815 30.9209 252.842 30.9209C256.767 30.9209 259.794 31.5936 259.794 37.3118C259.794 41.1239 259.57 45.6088 259.57 47.0664C259.57 47.8512 260.242 49.3088 261.364 49.3088C262.485 49.3088 262.709 47.627 262.821 45.9451H263.83C263.606 49.9815 262.036 51.5512 259.57 51.5512C257.664 51.5512 256.542 50.6542 255.982 48.6361H255.87C254.412 50.43 252.394 51.6633 250.039 51.6633C247.348 51.6633 245.442 49.8694 245.442 47.0664ZM255.87 47.5148L256.094 39.8906C252.394 41.2361 249.703 42.4694 249.703 46.2815C249.703 48.4118 250.712 49.533 252.282 49.533C254.188 49.6451 254.86 48.8603 255.87 47.5148Z" fill="black"/>
<path d="M266.185 45.6086V33.3874H262.373V31.5935H266.185V24.8662H269.997V31.5935H275.379V33.3874H269.997V45.048C269.997 47.5147 270.782 49.0844 272.913 49.0844C274.819 49.0844 274.931 47.4026 275.155 45.7208H276.164C275.94 48.9723 274.258 51.5511 271.119 51.5511C267.867 51.5511 266.185 49.4208 266.185 45.6086Z" fill="black"/>
<path d="M277.061 50.2058C277.734 50.2058 278.295 50.0936 278.855 49.8694C279.64 49.6452 279.977 48.7482 279.977 47.9633V35.5179C279.864 34.6209 279.528 33.8361 278.855 33.3876C278.407 33.0512 277.173 32.6027 276.501 32.6027V31.8179L283.677 31.3694L283.901 31.7058V47.8512C283.901 48.7482 284.237 49.533 285.022 49.8694C285.583 50.2058 286.368 50.3179 286.816 50.43V51.327H277.173V50.2058H277.061ZM278.855 22.2876C278.855 20.83 279.977 19.5967 281.434 19.5967C283.004 19.5967 284.125 20.7179 284.125 22.1755C284.125 23.7452 283.004 24.9785 281.434 24.9785C280.089 24.9785 278.855 23.7452 278.855 22.2876Z" fill="black"/>
<path d="M287.265 41.3482C287.265 35.1815 290.965 30.9209 296.571 30.9209C302.177 30.9209 305.653 35.2936 305.653 41.1239C305.653 46.9542 302.289 51.7754 296.235 51.7754C291.413 51.7754 287.265 47.7391 287.265 41.3482ZM301.28 41.1239C301.28 36.527 300.159 31.93 296.459 31.93C292.535 31.93 291.525 36.9754 291.525 41.0118C291.525 46.1694 292.871 50.6542 296.459 50.6542C299.823 50.7664 301.28 46.3936 301.28 41.1239Z" fill="black"/>
<path d="M306.214 50.2058C306.887 50.2058 307.447 50.0936 308.008 49.8694C308.793 49.6451 309.129 48.8603 309.129 47.9633V35.5179C309.017 34.6209 308.681 33.7239 308.008 33.1633C307.56 32.827 306.662 32.4906 305.99 32.4906V31.7057L312.717 31.2573L313.054 31.5936V34.5088C314.623 32.9391 316.081 30.9209 319.445 30.9209C323.145 30.9209 324.827 33.6118 324.827 37.7603V47.7391C324.827 48.7482 325.163 49.3088 325.836 49.6451C326.397 49.8694 326.957 50.0936 327.63 50.0936V50.9906H317.987V50.0936C318.66 50.0936 319.333 49.9815 319.781 49.7573C320.566 49.533 320.79 48.7482 320.79 47.8512V37.5361C320.79 34.5088 319.333 32.9391 317.651 32.9391C314.96 32.9391 313.39 34.733 313.054 35.7421V47.627C313.054 48.6361 313.39 49.1967 314.063 49.533C314.623 49.8694 315.296 49.9815 315.857 50.0936V50.9906H306.214V50.2058V50.2058Z" fill="black"/>
<path d="M328.639 47.0664C328.639 43.4785 330.545 42.2451 332.451 41.4603C334.806 40.4512 337.384 39.7785 339.066 38.7694V36.3027C339.066 35.5179 338.954 31.93 335.815 31.93C334.469 31.93 333.909 32.9391 333.572 33.3876C333.572 34.0603 333.909 34.9573 333.909 35.9664C333.909 37.0876 332.675 37.8724 331.33 37.8724C330.096 37.8724 329.536 36.8633 329.536 35.5179C329.536 32.9391 333.012 30.9209 336.039 30.9209C339.963 30.9209 342.991 31.5936 342.991 37.3118C342.991 41.1239 342.766 45.6088 342.766 47.0664C342.766 47.8512 343.439 49.3088 344.56 49.3088C345.682 49.3088 345.906 47.627 346.018 45.9451H347.027C346.803 49.9815 345.233 51.5512 342.766 51.5512C340.86 51.5512 339.739 50.6542 339.178 48.6361H339.066C337.609 50.43 335.59 51.6633 333.236 51.6633C330.433 51.6633 328.639 49.8694 328.639 47.0664ZM338.954 47.5148L339.178 39.8906C335.478 41.2361 332.787 42.4694 332.787 46.2815C332.787 48.4118 333.796 49.533 335.366 49.533C337.384 49.6451 338.057 48.8603 338.954 47.5148Z" fill="black"/>
<path d="M347.14 50.2063C347.812 50.2063 348.485 50.0941 348.934 49.8699C349.719 49.6456 349.943 48.8608 349.943 47.9638V23.2972C349.943 22.2881 349.606 21.279 348.934 20.8305C348.485 20.4941 346.915 20.0456 346.243 19.9335V19.1487L353.643 18.7002L353.867 19.0366V47.7396C353.867 48.7487 354.204 49.4214 354.988 49.7578C355.549 50.0941 356.11 50.2063 356.782 50.3184V51.2153H347.14V50.2063V50.2063Z" fill="black"/>
<path d="M364.407 50.206C365.079 50.0938 367.21 49.8696 368.107 49.0847C369.004 48.2999 369.452 46.3938 369.452 43.1423V27.2211C369.452 25.4272 369.116 24.306 368.219 23.6332C367.21 22.8484 365.64 22.512 364.631 22.3999V21.5029H374.162L382.795 43.3666L389.747 25.2029C390.308 23.6332 390.644 21.9514 390.644 21.5029H400.063V22.512C399.39 22.512 397.82 22.8484 397.147 23.0726C396.138 23.409 395.914 24.1938 395.914 25.2029V47.5151C395.914 48.5241 396.25 49.1969 397.147 49.6454C397.596 49.8696 399.502 50.206 400.175 50.3181V51.3272H386.832V50.3181C387.505 50.3181 389.747 50.0938 390.308 49.7575C391.205 49.1969 391.541 48.5241 391.541 47.5151V25.2029L381.674 50.6544H380.665C380.216 48.9726 379.432 46.506 378.759 44.5999L371.134 25.2029V42.9181C371.134 46.2817 371.583 48.0757 372.48 48.8605C373.153 49.4211 375.843 50.206 376.516 50.206V51.2151H364.407V50.206Z" fill="black"/>
<path d="M399.166 41.1239C399.166 35.9664 402.305 30.9209 407.687 30.9209C413.181 30.9209 415.199 34.8451 415.199 39.2179V39.6664H403.426V40.1148C403.426 45.7209 405.108 49.7573 409.145 49.7573C412.06 49.7573 413.181 48.5239 414.639 45.9451L415.424 46.5057C414.078 49.6451 411.387 51.7754 408.023 51.7754C401.969 51.6633 399.166 46.8421 399.166 41.1239ZM411.051 38.6573C411.051 35.5179 410.49 31.93 407.687 31.93C405.332 31.93 403.651 34.6209 403.538 38.6573H411.051Z" fill="black"/>
<path d="M417.218 41.0123C417.218 35.0699 421.366 30.9214 425.964 30.9214C428.43 30.9214 430.224 31.9305 430.673 32.0426V23.5214C430.561 22.6244 430.336 21.5032 429.664 21.0547C428.991 20.4941 427.309 20.1578 426.188 20.0456V19.1487L434.261 18.7002L434.597 19.0366V47.179C434.709 48.076 434.934 48.8608 435.606 49.3093C436.055 49.6457 437.288 49.8699 437.961 49.8699V50.6547L431.009 51.1032L430.785 50.7669V48.8608H430.561C429.664 49.8699 427.87 51.5517 425.403 51.5517C420.806 51.6638 417.218 47.5153 417.218 41.0123ZM430.673 47.7396V35.4063C430.224 33.9487 428.991 31.8184 426.412 31.8184C423.497 31.8184 421.591 35.4063 421.591 41.3487C421.591 45.7214 423.048 49.6457 426.861 49.6457C428.655 49.7578 429.664 48.9729 430.673 47.7396Z" fill="black"/>
<path d="M439.194 50.2058C439.867 50.2058 440.428 50.0936 440.988 49.8694C441.773 49.6452 442.11 48.7482 442.11 47.9633V35.5179C441.998 34.6209 441.661 33.8361 440.988 33.3876C440.54 33.0512 439.307 32.6027 438.634 32.6027V31.8179L445.81 31.3694L446.034 31.7058V47.8512C446.034 48.7482 446.37 49.533 447.155 49.8694C447.716 50.2058 448.501 50.3179 448.949 50.43V51.327H439.307V50.2058H439.194ZM441.101 22.2876C441.101 20.83 442.222 19.5967 443.679 19.5967C445.249 19.5967 446.37 20.7179 446.37 22.1755C446.37 23.7452 445.249 24.9785 443.679 24.9785C442.222 24.9785 441.101 23.7452 441.101 22.2876Z" fill="black"/>
<path d="M448.949 41.2361C448.949 35.8542 452.425 30.9209 457.919 30.9209C461.956 30.9209 464.086 33.2754 464.086 35.9664C464.086 37.4239 463.301 38.433 461.844 38.433C461.059 38.433 459.489 37.9845 459.489 36.3027C459.489 34.5088 460.05 34.3967 460.05 33.6118C459.825 32.3785 459.265 32.0421 457.919 32.0421C455.565 32.0421 453.322 34.3967 453.322 40.8997C453.322 46.1694 455.228 49.7573 458.592 49.7573C461.283 49.7573 462.965 48.4118 464.198 45.9451L465.095 46.5058C463.638 49.4209 460.834 51.6633 457.695 51.6633C451.864 51.6633 448.949 47.1785 448.949 41.2361Z" fill="black"/>
<path d="M465.88 50.2058C466.553 50.2058 467.113 50.0936 467.674 49.8694C468.459 49.6452 468.795 48.7482 468.795 47.9633V35.5179C468.683 34.6209 468.347 33.8361 467.674 33.3876C467.225 33.0512 465.992 32.6027 465.319 32.6027V31.8179L472.495 31.3694L472.72 31.7058V47.8512C472.72 48.7482 473.056 49.533 473.841 49.8694C474.402 50.2058 475.186 50.3179 475.635 50.43V51.327H465.992V50.2058H465.88ZM467.674 22.2876C467.674 20.83 468.795 19.5967 470.253 19.5967C471.823 19.5967 472.944 20.7179 472.944 22.1755C472.944 23.7452 471.823 24.9785 470.253 24.9785C468.907 24.9785 467.674 23.7452 467.674 22.2876Z" fill="black"/>
<path d="M476.868 50.2058C477.541 50.2058 478.102 50.0936 478.662 49.8694C479.447 49.6451 479.784 48.8603 479.784 47.9633V35.5179C479.671 34.6209 479.335 33.7239 478.662 33.1633C478.214 32.827 477.317 32.4906 476.644 32.4906V31.7057L483.372 31.2573L483.708 31.5936V34.5088C485.278 32.9391 486.735 30.9209 490.099 30.9209C493.799 30.9209 495.481 33.6118 495.481 37.7603V47.7391C495.481 48.7482 495.817 49.3088 496.49 49.6451C497.051 49.8694 497.611 50.0936 498.284 50.0936V50.9906H488.641V50.0936C489.314 50.0936 489.987 49.9815 490.435 49.7573C491.22 49.533 491.445 48.7482 491.445 47.8512V37.5361C491.445 34.5088 489.987 32.9391 488.305 32.9391C485.614 32.9391 484.044 34.733 483.708 35.7421V47.627C483.708 48.6361 484.044 49.1967 484.717 49.533C485.278 49.8694 485.95 49.9815 486.511 50.0936V50.9906H476.868V50.2058V50.2058Z" fill="black"/>
<path d="M499.63 41.1239C499.63 35.9664 502.769 30.9209 508.151 30.9209C513.645 30.9209 515.664 34.8451 515.664 39.2179V39.6664H503.891V40.1148C503.891 45.7209 505.572 49.7573 509.609 49.7573C512.524 49.7573 513.645 48.5239 515.103 45.9451L515.888 46.5057C514.542 49.6451 511.851 51.7754 508.488 51.7754C502.433 51.6633 499.63 46.8421 499.63 41.1239ZM511.515 38.6573C511.515 35.5179 510.954 31.93 508.151 31.93C505.797 31.93 504.115 34.6209 504.003 38.6573H511.515Z" fill="black"/>
</svg>
