<svg xmlns="http://www.w3.org/2000/svg" width="104" height="18" viewBox="0 0 104 18">
    <g fill="none" fill-rule="evenodd">
        <path fill="#004DB3" stroke="#004DB3" stroke-width=".669" d="M29.948 17.6h-1.021l1.344-3.005-4.194-9.65h1.075l3.693 8.519 3.728-8.502h1.022L29.948 17.6zm-6.076-2.916V1.834h1.022v12.85h-1.022zM20.789 3.813V2.328h1.326v1.485H20.79zm.161 10.87V4.91h1.04V14.7h-1.04v-.017zm-2.993 0l-.072-1.767c-.448 1.184-1.828 1.891-3.37 1.891-1.954 0-3.567-1.043-3.567-3.34v-.177c0-1.945 1.416-3.359 3.747-3.359 1.398 0 2.599.584 3.19 1.68V7.49c0-1.008-.627-1.98-2.599-1.98-1.2 0-2.42.336-3.1.69v-.867c.662-.353 1.81-.654 3.243-.654 2.51 0 3.442 1.414 3.442 2.722v7.265h-.914v.018zm-.09-3.535c0-1.255-1.183-2.474-3.03-2.474-1.72 0-2.903 1.043-2.903 2.492v.265c0 1.732 1.201 2.616 2.904 2.616 1.918 0 3.03-1.22 3.03-2.633v-.266zM4.943 14.684H1V1.834h3.746c3.173 0 5.36 1.785 5.36 6.168v.53c0 4.119-1.757 6.152-5.163 6.152zM9.03 8.09c0-3.553-1.541-5.427-4.337-5.427H2.04v11.189H5.05c2.617 0 3.98-1.662 3.98-5.427v-.335z"/>
        <path fill="#004DB3" d="M57.793 13.133s-.986-.453-1.111-1.604V2.29s.125-.053-.162-.244L53.024.057s-.09-.174-.43.087l-2.976 1.813L46.642.353s-.126-.122-.287-.035c-.233.14-3.765 1.97-3.765 1.97L39.972.825s-.125-.174-.287-.052l-2.85 1.778s-.395.157.161.453l.09.035 1.99 1.395v8.177l-1.022.576s-.34.157-.036.366l3.64 1.848 2.76-1.517s.252-.157.036-.366l-.645-.401-.018-3.644h1.972v2.842l-.896.54s-.287.157.09.384l4.159 2.145 2.797-1.692s.287-.035.09-.244l-1.345-.889-.018-3.243 1.918-2.702h-1.936l-.018-3.923 1.793.906s.215-.052.287.366v8.84s.215 1.848 2.546 2.598l2.707-1.866c.018-.034.143-.191-.144-.4zM43.11 12.68s-.126.122-.162-.087l.036-9.537s.036-.331.52-.331l.036 10.234-.43-.279zm2.295-6.102l-1.632 2.354-.018-6.173 1.74.89s.16-.122.25.279v2.65h-.34zm4.787 5.649s-.18.052-.251-.157V9.455h.448v2.929l-.197-.157zm-.251-5.65V6.3l-.036-3.592s-.09-.331.466-.174l.018 4.027h-.448v.018zm28.74-4.585S82.713.72 83.251.597c.52-.122.502.122.502.122s-.125 11.177-.036 11.56c.09.401.287.296.287.296s.933.628 1.148.733c.215.087.09.296.09.296l-2.26 1.726s-3.71-1.586-3.998-1.778c-.376-.244-.125-.401-.125-.401l.645-.628s.126-9.153-.054-9.624c-.179-.488-.77-.663-.77-.663-.144-.209 0-.244 0-.244zm-4.537 1.9s-.645-.923-.43-2.109c0 0 .233-.89 1.112-1.36 0 0 .574-.366 1.327.087 0 0 .878.366.502 1.691 0 0-.592 1.36-2.044 1.936 0 0-.341.052-.467-.244zm-.645.61s.18-.208.43-.017c.251.227 3.694 1.97 3.694 1.97s.25.158-.036.332c-.287.174-.628.261-.628.261s-.125-.122-.215.245c-.09.4.036 4.986.036 4.986s-.054.192.126.279c.179.087 1.255.697 1.255.697s.215.192 0 .28c-.216.104-2.726 1.848-2.726 1.848l-3.693-1.814s-.197-.209.054-.418c.215-.175.627-.488.627-.488s.036-.332 0-.454l-.053-4.655s.107-.157-.18-.244c-.287-.105-1.309-.732-1.309-.732s-.143-.105.036-.384c.198-.279 2.582-1.691 2.582-1.691zm-2.205 8.58c.197.208.072.418.054.418l-2.457 1.865-4.034-1.9c-.179-.175-.304.035-.304.035l-2.385 1.865c-3.263-.4-3.8-2.685-3.873-3.103V12.192c-.215-3.348 1.13-4.185 1.13-4.185 1.739-2.196 6.114-3.923 6.114-3.923.358-.244.52-.034.52-.034s3.998 1.935 4.213 2.179c.215.244.09.418.09.418l-.646.506c-.161.035-.125.244-.125.244v4.568l1.703 1.116zm-7.172-.158c.682.297.968-.157.95-.157l.036-5.23-2.115-1.378c-1.56.68-1.614 1.97-1.614 1.97-.305 1.151.126 2.232.34 2.65.826 1.378 2.403 2.145 2.403 2.145z"/>
        <g transform="translate(88 1)">
            <circle cx="8" cy="8" r="8" fill="#BD0031"/>
            <path fill="#FFF" d="M7.209 6.327v-.718H5.502V4h-.776L4.46 5.57l-.96.04v.707h.96V9.11c0 1.406.572 1.891 1.727 1.891.378 0 .817-.058 1.062-.145v-.728c-.214.049-.49.107-.817.107-.623 0-.93-.262-.93-.863V6.327H7.21zm5.703-.785h-1.063L10.123 9.7 8.345 5.54H7.262l2.36 5.41h.92l2.37-5.41z"/>
        </g>
    </g>
</svg>
